<svg width="544" height="437" viewBox="0 0 544 437" fill="none" xmlns="http://www.w3.org/2000/svg">
<path d="M58.0823 0.5H524.926C529.549 0.5 533.327 4.39123 533.327 9.22973V377.384C533.327 382.223 529.549 386.114 524.926 386.114H58.0823C53.4591 386.114 49.6807 382.223 49.6807 377.384V9.22973C49.6807 4.39123 53.4591 0.5 58.0823 0.5Z" fill="#F4F1ED" stroke="#070707" stroke-linecap="round" stroke-linejoin="round"/>
<path d="M49.1807 28.9672H533.827" stroke="#070707" stroke-linecap="round" stroke-linejoin="round"/>
<path d="M109.634 11.9301H105.452C104.062 11.9301 102.936 13.0979 102.936 14.5384V18.8747C102.936 20.3153 104.062 21.483 105.452 21.483H109.634C111.023 21.483 112.15 20.3153 112.15 18.8747V14.5384C112.15 13.0979 111.023 11.9301 109.634 11.9301Z" fill="#1C0E0C"/>
<path d="M93.917 11.9301H89.7347C88.3454 11.9301 87.2191 13.0979 87.2191 14.5384V18.8747C87.2191 20.3153 88.3454 21.483 89.7347 21.483H93.917C95.3063 21.483 96.4326 20.3153 96.4326 18.8747V14.5384C96.4326 13.0979 95.3063 11.9301 93.917 11.9301Z" fill="#1C0E0C"/>
<path d="M78.2021 11.9301H74.0199C72.6305 11.9301 71.5043 13.0979 71.5043 14.5384V18.8747C71.5043 20.3153 72.6305 21.483 74.0199 21.483H78.2021C79.5914 21.483 80.7177 20.3153 80.7177 18.8747V14.5384C80.7177 13.0979 79.5914 11.9301 78.2021 11.9301Z" fill="#1C0E0C"/>
<path d="M103.552 10.6771H107.735C108.831 10.6771 109.75 11.6038 109.75 12.7854V17.1218C109.75 18.3034 108.831 19.2301 107.735 19.2301H103.552C102.456 19.2301 101.537 18.3034 101.537 17.1218V12.7854C101.537 11.6038 102.456 10.6771 103.552 10.6771Z" fill="#C5DCDD" stroke="black" stroke-linecap="round" stroke-linejoin="round"/>
<path d="M92.0176 10.1771H87.8353C86.446 10.1771 85.3198 11.3449 85.3198 12.7854V17.1218C85.3198 18.5624 86.446 19.7301 87.8353 19.7301H92.0176C93.4069 19.7301 94.5331 18.5624 94.5331 17.1218V12.7854C94.5331 11.3449 93.4069 10.1771 92.0176 10.1771Z" fill="#FFBF00" stroke="black" stroke-linecap="round" stroke-linejoin="round"/>
<path d="M76.3006 9.67714H72.1184C70.436 9.67714 69.1028 11.086 69.1028 12.7854V17.1218C69.1028 18.8213 70.436 20.2301 72.1184 20.2301H76.3006C77.983 20.2301 79.3162 18.8213 79.3162 17.1218V12.7854C79.3162 11.086 77.983 9.67714 76.3006 9.67714Z" fill="#F46F40" stroke="black" stroke-linecap="round" stroke-linejoin="round"/>
<mask id="path-9-outside-1" maskUnits="userSpaceOnUse" x="0.475708" y="344.337" width="76" height="12" fill="black">
<rect fill="white" x="0.475708" y="344.337" width="76" height="12"/>
<path d="M2.47571 350.258C4.27335 348.403 6.70659 347.361 9.24309 347.361C11.7796 347.361 14.2128 348.403 16.0105 350.258C17.8082 352.115 20.242 353.157 22.779 353.157C25.3161 353.157 27.7499 352.115 29.5476 350.258L30.5404 349.234C32.3381 347.379 34.7713 346.337 37.3078 346.337C39.8443 346.337 42.2776 347.379 44.0752 349.234L45.5524 350.758C47.35 352.614 49.7833 353.655 52.3198 353.655C54.8563 353.655 57.2895 352.614 59.0872 350.758L60.3054 349.5C62.1031 347.644 64.5369 346.602 67.074 346.602C69.6111 346.602 72.0448 347.644 73.8426 349.5"/>
</mask>
<path d="M1.03929 348.867C0.2707 349.66 0.290742 350.926 1.08405 351.695C1.87737 352.463 3.14354 352.443 3.91213 351.65L1.03929 348.867ZM16.0105 350.258L17.4471 348.867L17.4469 348.867L16.0105 350.258ZM29.5476 350.258L28.1114 348.867L28.111 348.867L29.5476 350.258ZM30.5404 349.234L31.9766 350.626L31.9769 350.626L30.5404 349.234ZM44.0752 349.234L42.6388 350.626L42.639 350.626L44.0752 349.234ZM45.5524 350.758L46.9888 349.367L46.9886 349.366L45.5524 350.758ZM59.0872 350.758L60.5236 352.15L60.524 352.149L59.0872 350.758ZM60.3054 349.5L58.8687 348.109L58.8686 348.109L60.3054 349.5ZM72.4059 350.891C73.1743 351.685 74.4405 351.705 75.234 350.937C76.0274 350.168 76.0477 348.902 75.2792 348.109L72.4059 350.891ZM3.91213 351.65C5.3409 350.175 7.2592 349.361 9.24309 349.361V345.361C6.15398 345.361 3.20579 346.631 1.03929 348.867L3.91213 351.65ZM9.24309 349.361C11.227 349.361 13.1453 350.175 14.574 351.65L17.4469 348.867C15.2804 346.631 12.3322 345.361 9.24309 345.361V349.361ZM14.5738 351.65C16.7404 353.887 19.6892 355.157 22.779 355.157V351.157C20.7947 351.157 18.876 350.342 17.4471 348.867L14.5738 351.65ZM22.779 355.157C25.8689 355.157 28.8177 353.887 30.9843 351.65L28.111 348.867C26.6821 350.342 24.7634 351.157 22.779 351.157V355.157ZM30.9838 351.65L31.9766 350.626L29.1042 347.842L28.1114 348.867L30.9838 351.65ZM31.9769 350.626C33.4056 349.151 35.3239 348.337 37.3078 348.337V344.337C34.2187 344.337 31.2705 345.606 29.104 347.842L31.9769 350.626ZM37.3078 348.337C39.2917 348.337 41.21 349.151 42.6388 350.626L45.5116 347.842C43.3451 345.606 40.3969 344.337 37.3078 344.337V348.337ZM42.639 350.626L44.1162 352.15L46.9886 349.366L45.5114 347.842L42.639 350.626ZM44.116 352.15C46.2825 354.386 49.2307 355.655 52.3198 355.655V351.655C50.3359 351.655 48.4176 350.841 46.9888 349.367L44.116 352.15ZM52.3198 355.655C55.4089 355.655 58.3571 354.386 60.5236 352.15L57.6508 349.367C56.222 350.841 54.3037 351.655 52.3198 351.655V355.655ZM60.524 352.149L61.7422 350.891L58.8686 348.109L57.6503 349.367L60.524 352.149ZM61.7421 350.891C63.1709 349.416 65.0896 348.602 67.074 348.602V344.602C63.9842 344.602 61.0354 345.872 58.8687 348.109L61.7421 350.891ZM67.074 348.602C69.0583 348.602 70.977 349.416 72.4059 350.891L75.2792 348.109C73.1126 345.872 70.1638 344.602 67.074 344.602V348.602Z" fill="#070707" mask="url(#path-9-outside-1)"/>
<mask id="path-11-outside-2" maskUnits="userSpaceOnUse" x="58.3031" y="344.169" width="105" height="12" fill="black">
<rect fill="white" x="58.3031" y="344.169" width="105" height="12"/>
<path d="M60.3031 349.537C62.1008 347.681 64.5346 346.639 67.0717 346.639C69.6087 346.639 72.0425 347.681 73.8402 349.537L75.2167 350.96C77.0145 352.816 79.4482 353.858 81.9853 353.858C84.5224 353.858 86.9561 352.816 88.7539 350.96L89.5932 350.094C91.3909 348.239 93.8241 347.197 96.3606 347.197C98.8971 347.197 101.33 348.239 103.128 350.094V350.094C104.926 351.95 107.359 352.993 109.897 352.993C112.434 352.993 114.867 351.95 116.665 350.094L117.655 349.067C119.453 347.211 121.887 346.169 124.424 346.169C126.961 346.169 129.395 347.211 131.193 349.067L132.67 350.594C134.468 352.449 136.901 353.491 139.437 353.491C141.974 353.491 144.407 352.449 146.205 350.594L147.423 349.333C149.221 347.477 151.654 346.435 154.191 346.435C156.728 346.435 159.162 347.477 160.96 349.333"/>
</mask>
<path d="M58.8664 348.146C58.098 348.939 58.1182 350.205 58.9117 350.974C59.7051 351.742 60.9713 351.722 61.7398 350.929L58.8664 348.146ZM73.8402 349.537L75.2774 348.146L75.2769 348.146L73.8402 349.537ZM75.2167 350.96L73.7796 352.35L73.7801 352.351L75.2167 350.96ZM88.7539 350.96L87.3183 349.567L87.3172 349.568L88.7539 350.96ZM89.5932 350.094L91.0288 351.487L91.0296 351.486L89.5932 350.094ZM116.665 350.094L118.102 351.486L118.105 351.483L116.665 350.094ZM117.655 349.067L116.219 347.676L116.216 347.679L117.655 349.067ZM131.193 349.067L132.63 347.677L132.629 347.676L131.193 349.067ZM132.67 350.594L131.233 351.985L131.233 351.986L132.67 350.594ZM146.205 350.594L147.641 351.986L147.643 351.984L146.205 350.594ZM147.423 349.333L145.986 347.942L145.985 347.944L147.423 349.333ZM159.523 350.725C160.292 351.518 161.558 351.538 162.351 350.77C163.145 350.002 163.165 348.735 162.397 347.942L159.523 350.725ZM61.7398 350.929C63.1686 349.453 65.0873 348.639 67.0717 348.639V344.639C63.9819 344.639 61.0331 345.909 58.8664 348.146L61.7398 350.929ZM67.0717 348.639C69.056 348.639 70.9747 349.453 72.4036 350.929L75.2769 348.146C73.1103 345.909 70.1615 344.639 67.0717 344.639V348.639ZM72.4031 350.928L73.7796 352.35L76.6539 349.569L75.2774 348.146L72.4031 350.928ZM73.7801 352.351C75.9467 354.588 78.8955 355.858 81.9853 355.858V351.858C80.0009 351.858 78.0823 351.043 76.6534 349.568L73.7801 352.351ZM81.9853 355.858C85.0751 355.858 88.0239 354.588 90.1905 352.351L87.3172 349.568C85.8884 351.043 83.9697 351.858 81.9853 351.858V355.858ZM90.1895 352.352L91.0288 351.487L88.1576 348.702L87.3183 349.567L90.1895 352.352ZM91.0296 351.486C92.4584 350.011 94.3767 349.197 96.3606 349.197V345.197C93.2715 345.197 90.3233 346.466 88.1568 348.703L91.0296 351.486ZM96.3606 349.197C98.3445 349.197 100.263 350.011 101.692 351.486L104.564 348.703C102.398 346.466 99.4497 345.197 96.3606 345.197V349.197ZM101.691 351.486C103.858 353.723 106.807 354.993 109.897 354.993V350.993C107.912 350.993 105.993 350.178 104.565 348.703L101.691 351.486ZM109.897 354.993C112.986 354.993 115.935 353.723 118.102 351.486L115.228 348.703C113.8 350.178 111.881 350.993 109.897 350.993V354.993ZM118.105 351.483L119.095 350.456L116.216 347.679L115.226 348.706L118.105 351.483ZM119.092 350.459C120.521 348.983 122.44 348.169 124.424 348.169V344.169C121.334 344.169 118.385 345.439 116.219 347.676L119.092 350.459ZM124.424 348.169C126.408 348.169 128.327 348.983 129.756 350.459L132.629 347.676C130.463 345.439 127.514 344.169 124.424 344.169V348.169ZM129.755 350.458L131.233 351.985L134.107 349.203L132.63 347.677L129.755 350.458ZM131.233 351.986C133.4 354.222 136.348 355.491 139.437 355.491V351.491C137.453 351.491 135.535 350.677 134.106 349.202L131.233 351.986ZM139.437 355.491C142.526 355.491 145.475 354.222 147.641 351.986L144.768 349.202C143.339 350.677 141.421 351.491 139.437 351.491V355.491ZM147.643 351.984L148.861 350.723L145.985 347.944L144.766 349.204L147.643 351.984ZM148.859 350.725C150.288 349.249 152.207 348.435 154.191 348.435V344.435C151.102 344.435 148.153 345.705 145.986 347.942L148.859 350.725ZM154.191 348.435C156.176 348.435 158.094 349.249 159.523 350.725L162.397 347.942C160.23 345.705 157.281 344.435 154.191 344.435V348.435Z" fill="#070707" mask="url(#path-11-outside-2)"/>
<mask id="path-13-outside-3" maskUnits="userSpaceOnUse" x="0.475708" y="352.015" width="76" height="12" fill="black">
<rect fill="white" x="0.475708" y="352.015" width="76" height="12"/>
<path d="M2.47571 357.946C4.27335 356.091 6.70659 355.049 9.24309 355.049C11.7796 355.049 14.2128 356.091 16.0105 357.946C17.8082 359.802 20.242 360.844 22.779 360.844C25.3161 360.844 27.7499 359.802 29.5476 357.946L30.5524 356.912C32.3501 355.056 34.7833 354.015 37.3198 354.015C39.8563 354.015 42.2896 355.056 44.0872 356.912L45.5644 358.436C47.3621 360.291 49.7953 361.333 52.3318 361.333C54.8683 361.333 57.3015 360.291 59.0992 358.436L60.3174 357.178C62.1151 355.322 64.5489 354.279 67.086 354.279C69.6231 354.279 72.0568 355.322 73.8546 357.178"/>
</mask>
<path d="M1.0393 356.554C0.270704 357.348 0.290737 358.614 1.08404 359.383C1.87735 360.151 3.14352 360.131 3.91212 359.338L1.0393 356.554ZM16.0105 357.946L17.4471 356.555L17.4469 356.554L16.0105 357.946ZM29.5476 357.946L28.1131 356.553L28.111 356.555L29.5476 357.946ZM30.5524 356.912L31.987 358.305L31.9888 358.303L30.5524 356.912ZM44.0872 356.912L42.6508 358.303L42.651 358.304L44.0872 356.912ZM45.5644 358.436L47.0008 357.044L47.0006 357.044L45.5644 358.436ZM59.0992 358.436L60.5356 359.828L60.536 359.827L59.0992 358.436ZM60.3174 357.178L58.8807 355.786L58.8806 355.787L60.3174 357.178ZM72.4179 358.569C73.1864 359.363 74.4525 359.383 75.246 358.614C76.0394 357.846 76.0597 356.58 75.2912 355.786L72.4179 358.569ZM3.91212 359.338C5.34089 357.863 7.25919 357.049 9.24309 357.049V353.049C6.15399 353.049 3.20581 354.318 1.0393 356.554L3.91212 359.338ZM9.24309 357.049C11.227 357.049 13.1453 357.863 14.5741 359.338L17.4469 356.554C15.2804 354.318 12.3322 353.049 9.24309 353.049V357.049ZM14.5738 359.338C16.7404 361.575 19.6892 362.844 22.779 362.844V358.844C20.7947 358.844 18.876 358.03 17.4471 356.555L14.5738 359.338ZM22.779 362.844C25.8689 362.844 28.8177 361.575 30.9843 359.338L28.111 356.555C26.6821 358.03 24.7634 358.844 22.779 358.844V362.844ZM30.9822 359.34L31.987 358.305L29.1179 355.518L28.1131 356.553L30.9822 359.34ZM31.9888 358.303C33.4176 356.829 35.3359 356.015 37.3198 356.015V352.015C34.2307 352.015 31.2825 353.284 29.116 355.52L31.9888 358.303ZM37.3198 356.015C39.3037 356.015 41.222 356.829 42.6508 358.303L45.5236 355.52C43.3571 353.284 40.4089 352.015 37.3198 352.015V356.015ZM42.651 358.304L44.1282 359.828L47.0006 357.044L45.5234 355.52L42.651 358.304ZM44.128 359.828C46.2945 362.064 49.2427 363.333 52.3318 363.333V359.333C50.3479 359.333 48.4296 358.519 47.0008 357.044L44.128 359.828ZM52.3318 363.333C55.4209 363.333 58.3691 362.064 60.5356 359.828L57.6628 357.044C56.234 358.519 54.3157 359.333 52.3318 359.333V363.333ZM60.536 359.827L61.7542 358.569L58.8806 355.787L57.6623 357.045L60.536 359.827ZM61.7541 358.569C63.1829 357.094 65.1016 356.279 67.086 356.279V352.279C63.9962 352.279 61.0474 353.549 58.8807 355.786L61.7541 358.569ZM67.086 356.279C69.0703 356.279 70.9891 357.094 72.4179 358.569L75.2912 355.786C73.1246 353.549 70.1758 352.279 67.086 352.279V356.279Z" fill="#070707" mask="url(#path-13-outside-3)"/>
<mask id="path-15-outside-4" maskUnits="userSpaceOnUse" x="58.3031" y="351.857" width="105" height="12" fill="black">
<rect fill="white" x="58.3031" y="351.857" width="105" height="12"/>
<path d="M60.3031 357.225C62.1008 355.369 64.5346 354.327 67.0717 354.327C69.6087 354.327 72.0425 355.369 73.8402 357.225L75.2167 358.648C77.0145 360.504 79.4482 361.546 81.9853 361.546C84.5224 361.546 86.9561 360.504 88.7539 358.648L89.5932 357.782C91.3909 355.927 93.8241 354.885 96.3606 354.885C98.8971 354.885 101.33 355.927 103.128 357.782V357.782C104.926 359.639 107.359 360.681 109.897 360.681C112.434 360.681 114.867 359.639 116.665 357.782L117.655 356.755C119.453 354.899 121.887 353.857 124.424 353.857C126.961 353.857 129.395 354.899 131.193 356.755L132.67 358.282C134.468 360.138 136.901 361.179 139.437 361.179C141.974 361.179 144.407 360.138 146.205 358.282L147.423 357.021C149.221 355.165 151.654 354.123 154.191 354.123C156.728 354.123 159.162 355.165 160.96 357.021"/>
</mask>
<path d="M58.8664 355.834C58.098 356.627 58.1182 357.894 58.9117 358.662C59.7051 359.431 60.9713 359.41 61.7398 358.617L58.8664 355.834ZM73.8402 357.225L75.2774 355.834L75.2769 355.834L73.8402 357.225ZM75.2167 358.648L73.7796 360.039L73.7801 360.039L75.2167 358.648ZM88.7539 358.648L87.3183 357.255L87.3172 357.256L88.7539 358.648ZM89.5932 357.782L91.0288 359.175L91.0296 359.174L89.5932 357.782ZM116.665 357.782L118.102 359.174L118.105 359.171L116.665 357.782ZM117.655 356.755L116.219 355.364L116.216 355.367L117.655 356.755ZM131.193 356.755L132.63 355.365L132.629 355.364L131.193 356.755ZM132.67 358.282L131.233 359.673L131.233 359.674L132.67 358.282ZM146.205 358.282L147.641 359.674L147.643 359.672L146.205 358.282ZM147.423 357.021L145.986 355.63L145.985 355.632L147.423 357.021ZM159.523 358.413C160.292 359.206 161.558 359.227 162.351 358.458C163.145 357.69 163.165 356.424 162.397 355.63L159.523 358.413ZM61.7398 358.617C63.1686 357.141 65.0873 356.327 67.0717 356.327V352.327C63.9818 352.327 61.0331 353.597 58.8664 355.834L61.7398 358.617ZM67.0717 356.327C69.056 356.327 70.9747 357.141 72.4036 358.617L75.2769 355.834C73.1103 353.597 70.1615 352.327 67.0717 352.327V356.327ZM72.4031 358.616L73.7796 360.039L76.6539 357.257L75.2774 355.834L72.4031 358.616ZM73.7801 360.039C75.9467 362.276 78.8955 363.546 81.9853 363.546V359.546C80.001 359.546 78.0823 358.732 76.6534 357.256L73.7801 360.039ZM81.9853 363.546C85.0751 363.546 88.0239 362.276 90.1905 360.039L87.3172 357.256C85.8884 358.732 83.9697 359.546 81.9853 359.546V363.546ZM90.1895 360.04L91.0288 359.175L88.1576 356.39L87.3183 357.255L90.1895 360.04ZM91.0296 359.174C92.4584 357.699 94.3767 356.885 96.3606 356.885V352.885C93.2715 352.885 90.3233 354.155 88.1568 356.391L91.0296 359.174ZM96.3606 356.885C98.3445 356.885 100.263 357.699 101.692 359.174L104.564 356.391C102.398 354.155 99.4497 352.885 96.3606 352.885V356.885ZM101.691 359.174C103.858 361.411 106.807 362.681 109.897 362.681V358.681C107.912 358.681 105.993 357.866 104.565 356.391L101.691 359.174ZM109.897 362.681C112.986 362.681 115.935 361.411 118.102 359.174L115.228 356.391C113.8 357.866 111.881 358.681 109.897 358.681V362.681ZM118.105 359.171L119.095 358.144L116.216 355.367L115.226 356.394L118.105 359.171ZM119.092 358.147C120.521 356.672 122.44 355.857 124.424 355.857V351.857C121.334 351.857 118.385 353.127 116.219 355.364L119.092 358.147ZM124.424 355.857C126.408 355.857 128.327 356.672 129.756 358.147L132.629 355.364C130.463 353.127 127.514 351.857 124.424 351.857V355.857ZM129.755 358.146L131.233 359.673L134.107 356.891L132.63 355.365L129.755 358.146ZM131.233 359.674C133.4 361.91 136.348 363.179 139.437 363.179V359.179C137.453 359.179 135.535 358.365 134.106 356.89L131.233 359.674ZM139.437 363.179C142.526 363.179 145.475 361.91 147.641 359.674L144.768 356.89C143.339 358.365 141.421 359.179 139.437 359.179V363.179ZM147.643 359.672L148.861 358.411L145.985 355.632L144.766 356.892L147.643 359.672ZM148.859 358.413C150.288 356.938 152.207 356.123 154.191 356.123V352.123C151.102 352.123 148.153 353.393 145.986 355.63L148.859 358.413ZM154.191 356.123C156.176 356.123 158.094 356.938 159.523 358.413L162.397 355.63C160.23 353.393 157.281 352.123 154.191 352.123V356.123Z" fill="#070707" mask="url(#path-15-outside-4)"/>
<path d="M409.641 71.7453C409.641 72.3079 409.228 72.577 408.945 72.577C408.663 72.577 408.25 72.308 408.25 71.7453C408.25 71.1827 408.663 70.9137 408.945 70.9137C409.228 70.9137 409.641 71.1828 409.641 71.7453Z" stroke="#070707" stroke-width="6" stroke-linecap="round" stroke-linejoin="round"/>
<path d="M394.096 64.4379C397.305 64.4379 399.877 61.7455 399.877 58.4627C399.877 55.1798 397.305 52.4874 394.096 52.4874C390.887 52.4874 388.315 55.1798 388.315 58.4627C388.315 61.7455 390.887 64.4379 394.096 64.4379Z" fill="#EFAF00" stroke="black" stroke-linecap="round" stroke-linejoin="round"/>
<path d="M459.94 193.858C479.801 193.858 495.902 177.164 495.902 156.571C495.902 135.978 479.801 119.284 459.94 119.284C440.079 119.284 423.979 135.978 423.979 156.571C423.979 177.164 440.079 193.858 459.94 193.858Z" fill="#1C0E0C"/>
<path d="M495.402 152.826C495.402 173.16 479.508 189.613 459.94 189.613C440.372 189.613 424.479 173.16 424.479 152.826C424.479 132.492 440.372 116.039 459.94 116.039C479.508 116.039 495.402 132.492 495.402 152.826Z" fill="#F4F1ED" stroke="#070707" stroke-linecap="round" stroke-linejoin="round"/>
<path d="M466.662 173.461H446.067L449.619 143.385H470.211L466.662 173.461Z" fill="#F4F1ED"/>
<path d="M475.727 173.461H466.674L470.226 143.385H472.175L475.727 173.461Z" fill="#FFBF00"/>
<path d="M470.086 142.129L473.683 172.593H465.891L469.488 142.129H470.086Z" stroke="#070707" stroke-linecap="round" stroke-linejoin="round"/>
<path d="M469.54 141.688C469.557 141.546 469.512 141.404 469.417 141.297C469.323 141.191 469.187 141.129 469.044 141.129H447.868C447.615 141.129 447.402 141.319 447.372 141.571L443.66 173.034C443.643 173.176 443.688 173.319 443.782 173.425C443.877 173.532 444.013 173.593 444.156 173.593H465.329C465.583 173.593 465.796 173.403 465.826 173.152L469.54 141.688Z" stroke="#070707" stroke-linecap="round" stroke-linejoin="round"/>
<path d="M460.363 131.691C459.848 131.691 459.34 131.796 458.865 131.999C458.391 132.202 457.961 132.5 457.6 132.874C457.239 133.248 456.954 133.692 456.759 134.178C456.565 134.665 456.465 135.186 456.465 135.712V141.645C456.465 141.921 456.688 142.145 456.965 142.145H465.221C465.497 142.145 465.721 141.921 465.721 141.645V135.712C465.721 135.186 465.621 134.666 465.427 134.179C465.233 133.693 464.947 133.249 464.586 132.875C464.226 132.501 463.796 132.203 463.322 132C462.848 131.796 462.34 131.691 461.825 131.691H460.363H460.363Z" stroke="#070707" stroke-linecap="round" stroke-linejoin="round"/>
<path d="M462.808 142.145C463.084 142.145 463.308 141.921 463.308 141.645V135.712C463.308 135.186 463.209 134.666 463.014 134.179C462.82 133.693 462.534 133.249 462.174 132.875C461.813 132.501 461.383 132.203 460.909 132C460.435 131.796 459.927 131.691 459.413 131.691H457.95H457.947C456.908 131.691 455.915 132.119 455.186 132.875C454.458 133.631 454.052 134.651 454.052 135.712V141.645C454.052 141.921 454.276 142.145 454.552 142.145H462.808Z" stroke="#070707" stroke-linecap="round" stroke-linejoin="round"/>
<mask id="path-27-outside-5" maskUnits="userSpaceOnUse" x="296.272" y="344.171" width="54" height="76" fill="black">
<rect fill="white" x="296.272" y="344.171" width="54" height="76"/>
<path d="M303.274 346.171C300.512 346.171 298.272 348.408 298.272 351.186V393.122C298.272 401.547 305.082 408.374 313.48 408.374H339.116C344.109 408.374 348.154 412.432 348.154 417.44"/>
</mask>
<path d="M303.274 348.171C304.379 348.171 305.274 347.275 305.274 346.171C305.274 345.066 304.379 344.171 303.274 344.171V348.171ZM346.154 417.44C346.154 418.545 347.05 419.44 348.154 419.44C349.259 419.44 350.154 418.545 350.154 417.44H346.154ZM303.274 344.171C299.404 344.171 296.272 347.307 296.272 351.186H300.272C300.272 349.51 301.619 348.171 303.274 348.171V344.171ZM296.272 351.186V393.122H300.272V351.186H296.272ZM296.272 393.122C296.272 402.646 303.973 410.374 313.48 410.374V406.374C306.192 406.374 300.272 400.447 300.272 393.122H296.272ZM313.48 410.374H339.116V406.374H313.48V410.374ZM339.116 410.374C342.998 410.374 346.154 413.531 346.154 417.44H350.154C350.154 411.333 345.219 406.374 339.116 406.374V410.374Z" fill="#070707" mask="url(#path-27-outside-5)"/>
<mask id="path-29-outside-6" maskUnits="userSpaceOnUse" x="240.73" y="344.171" width="54" height="76" fill="black">
<rect fill="white" x="240.73" y="344.171" width="54" height="76"/>
<path d="M287.612 346.171C290.372 346.171 292.612 348.408 292.612 351.186V393.122C292.612 401.547 285.804 408.374 277.404 408.374H251.768C246.778 408.374 242.73 412.432 242.73 417.44"/>
</mask>
<path d="M287.612 344.171C286.508 344.171 285.612 345.066 285.612 346.171C285.612 347.275 286.508 348.171 287.612 348.171V344.171ZM240.73 417.44C240.73 418.545 241.625 419.44 242.73 419.44C243.834 419.44 244.73 418.545 244.73 417.44H240.73ZM287.612 348.171C289.264 348.171 290.612 349.51 290.612 351.186H294.612C294.612 347.307 291.48 344.171 287.612 344.171V348.171ZM290.612 351.186V393.122H294.612V351.186H290.612ZM290.612 393.122C290.612 400.447 284.694 406.374 277.404 406.374V410.374C286.914 410.374 294.612 402.646 294.612 393.122H290.612ZM277.404 406.374H251.768V410.374H277.404V406.374ZM251.768 406.374C245.668 406.374 240.73 411.333 240.73 417.44H244.73C244.73 413.532 247.888 410.374 251.768 410.374V406.374Z" fill="#070707" mask="url(#path-29-outside-6)"/>
<path d="M415.295 223.459C415.295 288.359 361.653 341.003 295.442 341.003C229.23 341.003 175.588 288.359 175.588 223.459C175.588 158.559 229.23 105.915 295.442 105.915C361.653 105.915 415.295 158.559 415.295 223.459Z" fill="#F4F1ED" stroke="#070707" stroke-width="2" stroke-linecap="round" stroke-linejoin="round"/>
<path d="M295.442 320.831C354.589 320.831 402.538 273.798 402.538 215.781C402.538 157.763 354.589 110.73 295.442 110.73C236.294 110.73 188.346 157.763 188.346 215.781C188.346 273.798 236.294 320.831 295.442 320.831Z" fill="#EAE5DF"/>
<path d="M368.593 280.84L368.716 280.045L368.593 280.84C372.216 281.4 373.732 286.106 371.005 288.82C351.762 307.961 325.018 319.831 295.451 319.831C265.924 319.831 239.219 308.006 219.988 288.921L219.988 288.921C217.257 286.212 218.769 281.503 222.39 280.939L222.39 280.939C244.851 277.427 269.687 275.481 295.806 275.481C321.677 275.478 346.294 277.389 368.593 280.84Z" fill="#FFFBF8" stroke="#070707" stroke-width="2" stroke-linecap="round" stroke-linejoin="round"/>
<path d="M251.137 427.03C251.137 431.809 247.41 435.621 242.888 435.621C238.366 435.621 234.639 431.809 234.639 427.03C234.639 422.252 238.366 418.44 242.888 418.44C247.41 418.44 251.137 422.252 251.137 427.03Z" stroke="#070707" stroke-width="2" stroke-linecap="round" stroke-linejoin="round"/>
<path d="M304.147 427.03C304.147 431.809 300.42 435.621 295.898 435.621C291.375 435.621 287.648 431.809 287.648 427.03C287.648 422.252 291.375 418.44 295.898 418.44C300.42 418.44 304.147 422.252 304.147 427.03Z" stroke="#070707" stroke-width="2" stroke-linecap="round" stroke-linejoin="round"/>
<path d="M356.521 427.03C356.521 431.809 352.794 435.621 348.272 435.621C343.749 435.621 340.022 431.809 340.022 427.03C340.022 422.252 343.749 418.44 348.272 418.44C352.794 418.44 356.521 422.252 356.521 427.03Z" stroke="#070707" stroke-width="2" stroke-linecap="round" stroke-linejoin="round"/>
<path d="M494.311 263.953C487.995 273.863 478.877 281.534 470.041 285.952C465.624 288.161 461.308 289.541 457.476 289.996C453.634 290.452 450.358 289.971 447.936 288.558C445.648 287.224 443.765 284.498 442.465 280.663C441.173 276.849 440.501 272.059 440.545 266.793C440.631 256.256 443.576 243.986 449.88 234.091C456.208 224.159 464.637 216.91 472.965 213.195C481.311 209.472 489.395 209.352 495.246 213.356C501.111 217.371 504.095 224.933 503.978 234.144C503.861 243.336 500.644 254.01 494.311 263.953Z" fill="#EFAF00" stroke="black" stroke-width="2" stroke-linecap="round" stroke-linejoin="round"/>
<mask id="path-38-inside-7" fill="white">
<path d="M448.862 357.317C448.862 357.317 435.931 248.557 495.72 213.023Z"/>
</mask>
<path d="M446.876 357.553C447.006 358.65 448.001 359.434 449.098 359.303C450.195 359.173 450.978 358.178 450.848 357.081L446.876 357.553ZM496.742 214.742C497.691 214.178 498.003 212.951 497.439 212.001C496.875 211.052 495.648 210.74 494.698 211.304L496.742 214.742ZM448.862 357.317C450.848 357.081 450.848 357.081 450.848 357.081C450.847 357.08 450.847 357.08 450.847 357.078C450.847 357.076 450.846 357.072 450.846 357.066C450.844 357.054 450.842 357.036 450.839 357.011C450.834 356.962 450.825 356.887 450.814 356.787C450.792 356.586 450.761 356.285 450.721 355.889C450.642 355.097 450.534 353.926 450.417 352.419C450.182 349.406 449.913 345.054 449.775 339.717C449.499 329.037 449.75 314.443 451.852 298.761C456.076 267.26 467.679 232.015 496.742 214.742L494.698 211.304C463.971 229.565 452.146 266.467 447.888 298.23C445.749 314.18 445.496 328.996 445.776 339.82C445.916 345.235 446.19 349.657 446.429 352.73C446.548 354.267 446.659 355.467 446.741 356.285C446.781 356.695 446.815 357.009 446.838 357.222C446.85 357.328 446.859 357.41 446.865 357.465C446.869 357.493 446.871 357.514 446.873 357.529C446.874 357.536 446.874 357.542 446.875 357.546C446.875 357.548 446.875 357.55 446.875 357.551C446.875 357.552 446.876 357.553 448.862 357.317Z" fill="#070707" mask="url(#path-38-inside-7)"/>
<path d="M504.188 237.294L468.384 241.083" stroke="#070707" stroke-width="2" stroke-linecap="round" stroke-linejoin="round"/>
<path d="M503.698 241.213L466.123 245.189" stroke="#070707" stroke-width="2" stroke-linecap="round" stroke-linejoin="round"/>
<path d="M449.463 233.773L458.562 261.651" stroke="#070707" stroke-width="2" stroke-linecap="round" stroke-linejoin="round"/>
<path d="M481.282 301.077L481.282 301.076C481.362 300.591 481.669 299.958 482.299 299.2C482.921 298.454 483.803 297.65 484.922 296.825C487.159 295.178 490.255 293.514 493.85 292.112C501.053 289.303 510.078 287.614 517.957 289.075C526.904 290.736 533.794 295.904 537.964 301.938C542.159 308.007 543.507 314.793 541.675 319.695C539.864 324.541 534.929 327.782 528.091 328.926C521.272 330.067 512.739 329.075 504.136 325.617C495.568 322.172 489.653 317.039 485.981 312.227C484.143 309.819 482.874 307.501 482.114 305.528C481.341 303.523 481.133 301.979 481.282 301.077Z" fill="#EFAF00" stroke="black" stroke-width="2" stroke-linecap="round" stroke-linejoin="round"/>
<mask id="path-44-inside-8" fill="white">
<path d="M438.168 357.317C438.168 357.317 436.6 309.542 485.26 299.736C511.902 294.367 532.502 308.249 541.96 320.02"/>
</mask>
<path d="M436.17 357.383C436.206 358.487 437.13 359.352 438.234 359.316C439.338 359.28 440.204 358.355 440.167 357.251L436.17 357.383ZM485.26 299.736L484.864 297.775L484.864 297.775L485.26 299.736ZM540.401 321.273C541.093 322.134 542.351 322.271 543.212 321.579C544.073 320.887 544.211 319.629 543.519 318.767L540.401 321.273ZM438.168 357.317C440.167 357.251 440.167 357.252 440.167 357.253C440.167 357.253 440.167 357.253 440.167 357.253C440.167 357.253 440.167 357.252 440.167 357.251C440.167 357.248 440.167 357.242 440.167 357.233C440.166 357.215 440.166 357.187 440.165 357.147C440.164 357.068 440.163 356.945 440.163 356.78C440.163 356.452 440.17 355.959 440.195 355.324C440.245 354.052 440.369 352.209 440.666 349.962C441.262 345.46 442.549 339.37 445.303 332.997C450.78 320.321 462.075 306.448 485.655 301.696L484.864 297.775C459.785 302.83 447.534 317.748 441.631 331.411C438.694 338.207 437.332 344.674 436.701 349.437C436.385 351.821 436.252 353.788 436.198 355.166C436.171 355.856 436.163 356.4 436.163 356.776C436.163 356.964 436.164 357.11 436.166 357.212C436.167 357.263 436.167 357.303 436.168 357.332C436.168 357.346 436.169 357.357 436.169 357.366C436.169 357.37 436.169 357.374 436.169 357.376C436.169 357.378 436.169 357.379 436.169 357.38C436.17 357.381 436.17 357.383 438.168 357.317ZM485.655 301.696C511.367 296.516 531.269 309.908 540.401 321.273L543.519 318.767C533.734 306.59 512.438 292.219 484.864 297.775L485.655 301.696Z" fill="#070707" mask="url(#path-44-inside-8)"/>
<path d="M511.857 300.484L528.47 292.59" stroke="#070707" stroke-width="2" stroke-linecap="round" stroke-linejoin="round"/>
<path d="M516.003 301.854L531.475 294.348" stroke="#070707" stroke-width="2" stroke-linecap="round" stroke-linejoin="round"/>
<path d="M504.981 299.099L511.456 328.358" stroke="#070707" stroke-width="2" stroke-linecap="round" stroke-linejoin="round"/>
<path d="M427.575 286.875L427.575 286.875C431.402 292.864 433.028 300.129 432.907 306.39C432.846 309.517 432.35 312.357 431.502 314.636C430.648 316.93 429.474 318.563 428.122 319.42L428.122 319.42C427.814 319.616 427.3 319.788 426.546 319.869C425.804 319.95 424.892 319.935 423.843 319.809C421.745 319.558 419.178 318.875 416.465 317.729C411.034 315.435 405.15 311.344 401.337 305.374C397.483 299.338 395.58 292.724 395.556 287.022C395.533 281.294 397.394 276.664 400.84 274.296C404.276 271.936 408.938 271.97 413.838 274.209C418.728 276.445 423.714 280.83 427.575 286.875Z" fill="#EFAF00" stroke="black" stroke-width="2" stroke-linecap="round" stroke-linejoin="round"/>
<mask id="path-50-inside-9" fill="white">
<path d="M432.351 357.317C432.351 357.317 436.787 295.531 400.504 274.113Z"/>
</mask>
<path d="M430.356 357.174C430.277 358.276 431.106 359.233 432.207 359.312C433.309 359.391 434.266 358.562 434.345 357.461L430.356 357.174ZM401.521 272.391C400.57 271.829 399.344 272.145 398.782 273.096C398.221 274.047 398.536 275.274 399.488 275.835L401.521 272.391ZM432.351 357.317C434.345 357.461 434.346 357.46 434.346 357.459C434.346 357.458 434.346 357.457 434.346 357.455C434.346 357.453 434.346 357.449 434.347 357.445C434.347 357.435 434.348 357.423 434.349 357.406C434.351 357.373 434.355 357.325 434.358 357.263C434.366 357.139 434.377 356.957 434.389 356.721C434.413 356.25 434.444 355.56 434.47 354.679C434.521 352.916 434.553 350.383 434.476 347.279C434.323 341.077 433.737 332.572 431.999 323.376C428.541 305.087 420.426 283.55 401.521 272.391L399.488 275.835C416.866 286.094 424.673 306.159 428.068 324.119C429.756 333.046 430.328 341.326 430.478 347.378C430.552 350.401 430.521 352.862 430.471 354.562C430.446 355.412 430.417 356.071 430.394 356.515C430.383 356.737 430.373 356.905 430.366 357.016C430.363 357.071 430.36 357.112 430.358 357.139C430.357 357.152 430.357 357.162 430.356 357.168C430.356 357.171 430.356 357.173 430.356 357.174C430.356 357.174 430.356 357.174 430.356 357.175C430.356 357.174 430.356 357.174 432.351 357.317Z" fill="#070707" mask="url(#path-50-inside-9)"/>
<path d="M395.454 292.153H418.346" stroke="#070707" stroke-width="2" stroke-linecap="round" stroke-linejoin="round"/>
<path d="M396.607 296.257H420.607" stroke="#070707" stroke-width="2" stroke-linecap="round" stroke-linejoin="round"/>
<path d="M428.962 288.04L424.847 305.06" stroke="#070707" stroke-width="2" stroke-linecap="round" stroke-linejoin="round"/>
<path d="M472.629 410.833V410.834C472.63 412.094 472.391 413.34 471.928 414.502C471.464 415.664 470.785 416.718 469.931 417.603C469.077 418.488 468.065 419.188 466.953 419.665C465.842 420.141 464.653 420.385 463.453 420.383H463.451H422.015L422.014 420.383C420.814 420.385 419.625 420.14 418.514 419.664C417.402 419.187 416.39 418.487 415.536 417.602C414.682 416.717 414.003 415.664 413.539 414.502C413.075 413.34 412.837 412.094 412.838 410.834V410.833V367.868C412.839 365.324 413.815 362.891 415.54 361.103C417.264 359.316 419.594 358.319 422.015 358.318H463.451C463.451 358.318 463.451 358.318 463.451 358.318C465.873 358.318 468.203 359.315 469.927 361.102C471.652 362.891 472.628 365.323 472.629 367.868C472.629 367.868 472.629 367.868 472.629 367.868V410.833Z" fill="#F4F1ED" stroke="#070707" stroke-width="2" stroke-linecap="round" stroke-linejoin="round"/>
<path d="M421.694 358.318H463.77C468.628 358.318 472.626 362.411 472.626 367.537V411.164C472.626 416.29 468.628 420.383 463.77 420.383H421.694C416.836 420.383 412.838 416.29 412.838 411.164V367.537C412.838 362.411 416.836 358.318 421.694 358.318Z" stroke="#FFC3D5" stroke-width="2" stroke-miterlimit="10"/>
<path d="M472.629 410.833V410.834C472.63 412.094 472.391 413.34 471.928 414.502C471.464 415.664 470.785 416.718 469.931 417.603C469.077 418.488 468.065 419.188 466.953 419.665C465.842 420.141 464.653 420.385 463.453 420.383H463.451H422.015L422.014 420.383C420.814 420.385 419.625 420.14 418.514 419.664C417.402 419.187 416.39 418.487 415.536 417.602C414.682 416.717 414.003 415.664 413.539 414.502C413.075 413.34 412.837 412.094 412.838 410.834V410.833V367.868C412.839 365.324 413.815 362.891 415.54 361.103C417.264 359.316 419.594 358.319 422.015 358.318H463.451C463.451 358.318 463.451 358.318 463.451 358.318C465.873 358.318 468.203 359.315 469.927 361.102C471.652 362.891 472.628 365.323 472.629 367.868C472.629 367.868 472.629 367.868 472.629 367.868V410.833Z" stroke="#070707" stroke-width="2" stroke-linecap="round" stroke-linejoin="round"/>
<path d="M132.907 133.004C153.883 133.004 170.888 115.373 170.888 93.6236C170.888 71.8743 153.883 54.2431 132.907 54.2431C111.931 54.2431 94.9264 71.8743 94.9264 93.6236C94.9264 115.373 111.931 133.004 132.907 133.004Z" fill="#1C0E0C"/>
<path d="M132.907 128.031C153.883 128.031 170.888 110.4 170.888 88.6507C170.888 66.9014 153.883 49.2702 132.907 49.2702C111.931 49.2702 94.9264 66.9014 94.9264 88.6507C94.9264 110.4 111.931 128.031 132.907 128.031Z" fill="#F4F1ED" stroke="#070707" stroke-linejoin="round"/>
<path d="M122.704 100.335H148.5L153.665 83.0114H117.56L122.704 100.335Z" fill="#FFBF00"/>
<path d="M104.607 75.1047H110.061C110.874 75.1048 111.666 75.3749 112.321 75.8756C112.975 76.3763 113.458 77.0812 113.698 77.887L120.197 99.6783H146.461L147.758 105.131C147.855 105.54 147.862 105.966 147.776 106.378C147.691 106.789 147.517 107.175 147.266 107.507C147.016 107.838 146.696 108.106 146.331 108.29C145.966 108.474 145.565 108.57 145.159 108.57H121.291" stroke="#070707" stroke-width="2" stroke-linejoin="round"/>
<path d="M120.176 99.678H146.38L151.806 81.4821H114.771L120.176 99.678Z" stroke="#070707" stroke-width="2" stroke-linejoin="round"/>
<path d="M136.746 99.678L142.173 81.4821" stroke="#070707" stroke-width="2" stroke-linejoin="round"/>
<path d="M130.895 99.678L125.469 81.4821" stroke="#070707" stroke-width="2" stroke-linejoin="round"/>
<path d="M117.308 89.9885H149.272" stroke="#070707" stroke-width="2" stroke-linejoin="round"/>
<path d="M124.382 116.168C125.845 116.168 127.032 114.938 127.032 113.421C127.032 111.903 125.845 110.673 124.382 110.673C122.918 110.673 121.732 111.903 121.732 113.421C121.732 114.938 122.918 116.168 124.382 116.168Z" stroke="#070707" stroke-linejoin="round"/>
<path d="M143.651 116.168C145.114 116.168 146.301 114.938 146.301 113.421C146.301 111.903 145.114 110.673 143.651 110.673C142.187 110.673 141.001 111.903 141.001 113.421C141.001 114.938 142.187 116.168 143.651 116.168Z" stroke="#070707" stroke-linejoin="round"/>
<path d="M133.236 60.6731V74.739" stroke="#070707" stroke-width="2" stroke-linejoin="round"/>
<path d="M126.615 68.6695L133.173 75.47L139.387 69.0276" stroke="#070707" stroke-width="2" stroke-linejoin="round"/>
<path d="M299.407 297.224L299.315 298.078L299.407 297.224C268.458 293.896 233.865 280.305 207.234 265.594C193.922 258.24 182.64 250.629 174.821 243.916C170.909 240.557 167.894 237.448 165.925 234.733C163.924 231.973 163.139 229.804 163.331 228.269C163.589 226.204 165.236 224.508 168.493 223.216C171.73 221.932 176.297 221.163 181.816 220.819C192.837 220.133 207.336 221.157 221.812 222.84C236.275 224.522 250.662 226.855 261.437 228.769C266.823 229.725 271.305 230.577 274.44 231.189C276.007 231.495 277.237 231.741 278.075 231.911C278.494 231.996 278.815 232.061 279.031 232.106L279.275 232.156L279.337 232.169L279.352 232.172L279.356 232.173C279.357 232.173 279.357 232.173 279.561 231.194L279.357 232.173C279.81 232.268 280.268 232.039 280.465 231.621L290.4 210.597L341.784 210.393C341.968 210.708 342.236 211.17 342.571 211.764C343.251 212.967 344.21 214.711 345.325 216.867C347.556 221.183 350.405 227.145 352.885 233.737C355.368 240.334 357.469 247.528 358.224 254.314C358.982 261.115 358.375 267.39 355.578 272.252C344.034 292.314 323.701 299.837 299.407 297.224Z" fill="#C5DCDD" stroke="black" stroke-width="2" stroke-linecap="round" stroke-linejoin="round"/>
<path d="M163.787 226.385L163.787 226.385C166.956 223.122 171.235 221.767 176.441 221.984C181.671 222.203 187.771 224.01 194.427 227.01C207.735 233.009 222.992 243.652 237.456 255.224C251.907 266.786 265.512 279.231 275.508 288.789C280.505 293.567 284.597 297.622 287.44 300.482C288.861 301.911 289.97 303.042 290.723 303.815C290.979 304.077 291.193 304.298 291.365 304.475L286.354 313.685C210.677 295.712 179.343 274.468 167.289 257.502C161.265 249.022 160.049 241.602 160.501 236.134C160.728 233.39 161.377 231.122 162.065 229.443C162.766 227.735 163.48 226.702 163.787 226.385Z" fill="#C5DCDD" stroke="black" stroke-width="2" stroke-linecap="round" stroke-linejoin="round"/>
<mask id="path-72-inside-10" fill="white">
<path d="M292.803 304.309C292.803 304.309 241.635 250.857 202.029 229.561Z"/>
</mask>
<path d="M292.803 304.309C294.248 302.926 294.247 302.926 294.247 302.925C294.246 302.925 294.246 302.924 294.245 302.923C294.243 302.922 294.241 302.919 294.237 302.915C294.231 302.909 294.221 302.899 294.208 302.885C294.183 302.859 294.145 302.82 294.096 302.768C293.996 302.665 293.849 302.512 293.655 302.312C293.268 301.912 292.695 301.324 291.954 300.569C290.471 299.06 288.31 296.881 285.594 294.201C280.162 288.842 272.507 281.474 263.609 273.437C245.849 257.397 223.006 238.57 202.976 227.8L201.082 231.323C220.658 241.849 243.202 260.396 260.928 276.406C269.772 284.394 277.384 291.72 282.784 297.048C285.484 299.712 287.63 301.876 289.1 303.372C289.835 304.121 290.401 304.702 290.782 305.096C290.973 305.292 291.118 305.442 291.214 305.543C291.263 305.593 291.299 305.631 291.323 305.656C291.335 305.668 291.344 305.677 291.35 305.684C291.353 305.687 291.355 305.689 291.356 305.69C291.357 305.691 291.358 305.692 291.358 305.692C291.358 305.692 291.358 305.692 292.803 304.309Z" fill="#4B556A" mask="url(#path-72-inside-10)"/>
<path d="M330.268 324.082C329.597 324.222 328.532 324.226 327.089 324.075C325.669 323.926 323.964 323.637 322.057 323.243C318.244 322.455 313.687 321.259 309.097 319.974C305.956 319.096 302.813 318.18 299.889 317.327C298.539 316.934 297.234 316.553 295.998 316.197C292.681 315.24 289.826 314.443 287.927 314.028C287.947 313.805 287.974 313.546 288.009 313.259C288.127 312.275 288.338 310.983 288.703 309.714C289.072 308.429 289.576 307.251 290.24 306.432C290.88 305.644 291.611 305.245 292.534 305.307C294.983 305.473 300.449 305.097 306.018 304.713C306.692 304.667 307.367 304.62 308.039 304.575C311.181 304.361 314.271 304.163 316.831 304.07C319.437 303.975 321.363 303.996 322.258 304.175C322.492 304.222 322.938 304.458 323.577 305.049C324.186 305.611 324.868 306.4 325.577 307.36C326.993 309.277 328.452 311.792 329.583 314.327C330.723 316.881 331.489 319.364 331.597 321.236C331.651 322.174 331.534 322.858 331.306 323.309C331.104 323.71 330.796 323.972 330.268 324.082Z" fill="#C48270" stroke="#0F0F0F" stroke-width="2" stroke-linecap="round" stroke-linejoin="round"/>
<path d="M221.085 389.164C221.004 389.234 220.928 389.299 220.858 389.359C220.74 389.27 220.608 389.171 220.462 389.065C219.786 388.577 218.812 387.925 217.606 387.264C215.515 386.118 212.686 384.919 209.483 384.521C209.54 384.397 209.601 384.263 209.666 384.122C210.17 383.019 210.915 381.401 211.877 379.338C213.8 375.211 216.592 369.307 220.061 362.199C227 347.981 236.648 328.952 247.487 309.699C258.33 290.439 270.349 270.984 282.028 255.899C287.869 248.355 293.605 241.93 299.048 237.173C304.509 232.4 309.586 229.386 314.107 228.522L314.107 228.522C321.681 227.073 325.951 228.483 328.269 231.134C330.646 233.853 331.278 238.199 330.779 243.313C329.787 253.494 324.427 265.641 322.195 270.352C308.988 298.196 283.532 328.067 261.311 351.022C250.211 362.488 239.939 372.208 232.443 379.061C228.694 382.487 225.641 385.196 223.525 387.047C222.467 387.973 221.644 388.685 221.085 389.164Z" fill="#C5DCDD" stroke="black" stroke-width="2" stroke-linecap="round" stroke-linejoin="round"/>
<path d="M186.235 426.861C185.814 426.751 185.508 426.643 185.298 426.549C188.606 422.441 192.776 414.939 196.905 407.222C197.789 405.571 198.672 403.907 199.546 402.26C202.816 396.1 205.964 390.169 208.578 385.948C208.742 385.925 208.956 385.9 209.212 385.883C209.892 385.837 210.869 385.84 212.028 386.042C214.26 386.432 217.2 387.566 220.029 390.586C220.027 390.679 220.026 390.784 220.028 390.902C220.036 391.399 220.088 392.12 220.256 393.069C220.59 394.968 221.386 397.776 223.21 401.542C223.759 402.677 223.849 403.66 223.663 404.511C223.474 405.372 222.982 406.186 222.222 406.932C220.682 408.443 218.164 409.55 215.559 410.049L215.558 410.049C211.126 410.901 208.926 414.654 207.383 418.16C207.003 419.023 206.653 419.895 206.319 420.729L206.286 420.812C205.939 421.677 205.61 422.495 205.269 423.251C204.574 424.794 203.901 425.909 203.124 426.527L203.124 426.527C202.946 426.669 202.519 426.865 201.765 427.05C201.044 427.226 200.135 427.367 199.098 427.468C197.026 427.671 194.525 427.709 192.169 427.599C189.8 427.488 187.643 427.229 186.235 426.861ZM184.966 426.359C184.963 426.357 184.962 426.355 184.962 426.355C184.962 426.355 184.964 426.357 184.966 426.359Z" fill="#C48270" stroke="#0F0F0F" stroke-width="2" stroke-linecap="round" stroke-linejoin="round"/>
<path d="M279.657 202.321L279.656 202.321C276.389 205.375 270.224 207.659 262.584 209.314C254.999 210.958 246.155 211.944 237.716 212.525C229.282 213.107 221.278 213.283 215.38 213.313C212.432 213.328 210.012 213.307 208.33 213.282C207.489 213.27 206.833 213.256 206.387 213.246C206.371 213.246 206.354 213.245 206.338 213.245L204.503 209.086C204.692 208.987 204.912 208.871 205.164 208.741C206.124 208.243 207.528 207.528 209.298 206.665C212.837 204.939 217.834 202.623 223.661 200.262C235.338 195.53 250.259 190.657 263.444 189.942C263.902 189.917 264.284 189.584 264.372 189.134L263.39 188.943C264.372 189.134 264.372 189.134 264.372 189.134L264.372 189.132L264.373 189.127L264.377 189.108L264.392 189.029L264.452 188.72L264.682 187.54C264.882 186.518 265.169 185.047 265.522 183.248C266.227 179.65 267.191 174.744 268.229 169.51C270.307 159.035 272.677 147.265 273.856 142.028L272.909 141.815L273.856 142.028C274.59 138.763 275.592 135.474 276.806 132.599C278.027 129.708 279.435 127.304 280.951 125.75C282.461 124.202 283.937 123.624 285.402 123.975C286.951 124.345 288.835 125.822 290.935 129.251L291.782 128.733L290.935 129.251C293.908 134.108 295.202 140.645 295.297 147.929C295.393 155.197 294.293 163.112 292.568 170.644C290.843 178.173 288.5 185.286 286.126 190.944C284.939 193.772 283.75 196.225 282.632 198.178C281.505 200.149 280.486 201.547 279.657 202.321Z" fill="#C48270" stroke="#0F0F0F" stroke-width="2" stroke-linecap="round" stroke-linejoin="round"/>
<path d="M210.059 209.126C208.721 205.773 197.255 207.872 192.7 209.989C188.824 211.789 184.138 216.622 183.372 217.645C182.607 218.667 180.904 223.833 180.904 223.833C180.904 223.833 182.553 225.577 184.777 222.535C187 219.493 192.765 216.009 194.196 216.772C197.413 218.49 189.619 219.165 188.766 220.4C187.913 221.634 188.319 222.368 188.319 222.368C188.319 222.368 195.644 222.035 196.823 221.882C198.001 221.729 202.671 219.615 204.955 217.7C207.239 215.786 210.895 211.216 210.059 209.126Z" fill="#E38E32"/>
<path d="M341.187 116.452C344.948 117.568 356.737 121.956 356.737 121.956C356.737 121.956 355.738 150.445 352.395 157.185C338.39 185.423 342.749 211.439 342.749 211.439C342.749 211.439 309.585 216.959 289.297 211.636C289.297 211.636 291.95 190.153 287.616 187.583C283.281 185.012 276.182 179.237 278.14 167.608C280.098 155.98 279.651 125.486 282.028 123.515C284.404 121.545 294.905 116.418 297.616 116.428C300.328 116.438 341.187 116.452 341.187 116.452Z" fill="#F4F1ED" stroke="#070707" stroke-width="2" stroke-linecap="round" stroke-linejoin="round"/>
<path d="M263.591 231.19H177.695L159.107 180.643L159.107 180.643C158.852 179.951 158.768 179.207 158.862 178.475C158.956 177.743 159.226 177.045 159.648 176.439C160.07 175.834 160.632 175.34 161.286 174.998C161.94 174.657 162.667 174.479 163.405 174.479H237.667C239.152 174.481 240.601 174.939 241.819 175.789C243.037 176.64 243.966 177.843 244.48 179.237L263.591 231.19Z" fill="#F9A09B" stroke="black" stroke-linecap="round" stroke-linejoin="round"/>
<path d="M163.804 177.059C163.804 177.059 163.804 177.059 163.804 177.059L236.207 177.059V176.569L236.207 177.059C237.655 177.058 239.069 177.502 240.257 178.33C241.445 179.159 242.351 180.331 242.852 181.69C242.852 181.69 242.852 181.69 242.852 181.691L261.482 232.334H177.754L159.623 183.053C159.623 183.053 159.623 183.053 159.623 183.053C159.375 182.38 159.294 181.656 159.386 180.945C159.477 180.233 159.74 179.554 160.15 178.966C160.561 178.377 161.107 177.897 161.743 177.565C162.379 177.233 163.086 177.059 163.804 177.059Z" fill="#F9A09B" stroke="black" stroke-linecap="round" stroke-linejoin="round"/>
<path d="M177.893 232.355H300.369C301.628 232.355 302.836 232.856 303.726 233.746C304.616 234.636 305.117 235.844 305.117 237.103V237.76H182.641C181.381 237.76 180.174 237.26 179.283 236.369C178.393 235.479 177.893 234.271 177.893 233.012V232.355Z" fill="#F46F40" stroke="black" stroke-linecap="round" stroke-linejoin="round"/>
<path d="M263.591 231.19H177.695L159.107 180.643L159.107 180.643C158.852 179.951 158.768 179.207 158.862 178.475C158.956 177.743 159.226 177.045 159.648 176.439C160.07 175.834 160.632 175.34 161.286 174.998C161.94 174.657 162.667 174.479 163.405 174.479H237.667C239.152 174.481 240.601 174.939 241.819 175.789C243.037 176.64 243.966 177.843 244.48 179.237L263.591 231.19Z" fill="#F46F40" stroke="black" stroke-linecap="round" stroke-linejoin="round"/>
<path d="M210.53 202.045C212.812 204.099 213.184 207.126 211.671 208.807C210.158 210.487 207.108 210.434 204.826 208.379C202.545 206.325 202.173 203.297 203.686 201.617C205.199 199.937 208.248 199.99 210.53 202.045Z" fill="#F46F40" stroke="black" stroke-linecap="round" stroke-linejoin="round"/>
<path d="M271.37 234.644H275.568V235.51H271.37V234.644Z" fill="#F9A09B" stroke="black" stroke-linecap="round" stroke-linejoin="round"/>
<path d="M281.3 234.644H285.497V235.51H281.3V234.644Z" fill="#F9A09B" stroke="black" stroke-linecap="round" stroke-linejoin="round"/>
<path d="M303.959 61.2931L303.959 61.2931L303.957 61.2924L303.949 61.2888L303.915 61.273C303.883 61.2588 303.835 61.2375 303.771 61.2101C303.642 61.1552 303.451 61.0761 303.201 60.9809C302.703 60.7904 301.975 60.5362 301.066 60.2847C299.246 59.7813 296.71 59.2915 293.838 59.341C288.117 59.4397 281.033 61.6743 275.587 70.3177L275.164 70.0511L275.587 70.3177C272.844 74.6699 271.741 78.3936 271.49 81.6642C271.237 84.9397 271.835 87.7937 272.544 90.4236C272.69 90.9689 272.843 91.5082 272.995 92.0417C273.565 94.0508 274.111 95.9768 274.221 97.8318C274.364 100.234 273.786 102.548 271.699 104.907C270.32 106.468 268.871 107.938 267.464 109.365C266.667 110.173 265.884 110.967 265.135 111.756C263.046 113.957 261.187 116.151 259.869 118.623C257.26 123.517 256.711 129.61 261.089 139.175L261.089 139.175C263.368 144.157 263.674 147.541 262.807 150.147C261.946 152.734 259.956 154.444 257.971 156.125L257.863 156.217C255.885 157.893 253.895 159.58 252.655 162.136C251.432 164.658 250.915 168.089 252.029 173.28H290.535C290.561 173.27 290.594 173.258 290.632 173.243C290.749 173.198 290.922 173.13 291.141 173.038C291.579 172.854 292.202 172.573 292.936 172.192C294.405 171.429 296.304 170.266 298.044 168.667C299.784 167.067 301.35 165.045 302.181 162.562C303.009 160.088 303.118 157.122 301.894 153.603C300.653 150.037 299.057 147.236 297.508 144.833C296.993 144.035 296.478 143.273 295.981 142.538C294.996 141.081 294.082 139.729 293.389 138.416C292.328 136.406 291.726 134.397 292.079 132.047C292.429 129.716 293.709 127.116 296.262 123.892L296.645 124.196L296.262 123.892C298.266 121.362 302.017 119.653 306.439 118.496C310.884 117.333 316.109 116.701 321.175 116.397C326.244 116.093 331.171 116.115 335.03 116.266C336.959 116.341 338.623 116.448 339.907 116.563C341.175 116.677 342.108 116.8 342.548 116.916C344.141 117.336 348.298 118.696 352.036 119.944C353.909 120.57 355.684 121.169 356.991 121.612C357.644 121.834 358.18 122.016 358.553 122.144L358.649 122.176C358.667 122.114 358.687 122.047 358.708 121.974C358.837 121.528 359.013 120.879 359.201 120.072C359.577 118.458 360 116.215 360.188 113.705C360.564 108.659 359.981 102.646 356.303 98.4071C351.938 93.3794 346.23 92.4145 340.908 91.5151C340.517 91.449 340.128 91.3832 339.742 91.3162C336.951 90.8322 334.275 90.2757 332.114 88.9824C329.918 87.6685 328.284 85.6157 327.523 82.2288C326.536 77.8523 325.09 73.1456 323.108 69.304C321.115 65.442 318.637 62.5619 315.64 61.6568M303.959 61.2931L315.64 61.6568M303.959 61.2931L303.959 61.2932M303.959 61.2931L303.959 61.2932M315.64 61.6568C312.273 60.64 309.434 60.559 307.444 60.7293C306.448 60.8145 305.665 60.9626 305.135 61.088C304.869 61.1507 304.667 61.2077 304.534 61.2482C304.467 61.2685 304.417 61.2847 304.385 61.2954C304.369 61.3008 304.358 61.3048 304.351 61.3072L304.343 61.3098L304.343 61.3099M315.64 61.6568L304.343 61.3099M304.343 61.3099L304.343 61.31L304.343 61.3101L304.342 61.3101L304.147 61.3816L303.959 61.2932M304.343 61.3099L303.959 61.2932" fill="#2D1E11" stroke="#1C1A19"/>
<mask id="path-88-outside-11" maskUnits="userSpaceOnUse" x="245.754" y="59.7692" width="59" height="117" fill="black">
<rect fill="white" x="245.754" y="59.7692" width="59" height="117"/>
<path d="M302.577 63.0465C302.577 63.0465 298.811 57.1983 279.69 70.5298C267.872 78.7711 276.133 95.5551 268.164 104.569C259.541 114.326 248.627 120.041 257.473 139.376C266.492 159.093 243.493 151.823 248.467 173.772"/>
</mask>
<path d="M300.896 64.1293C301.494 65.058 302.731 65.326 303.66 64.728C304.589 64.13 304.857 62.8923 304.259 61.9637L300.896 64.1293ZM279.69 70.5298L278.546 68.8892L278.546 68.8893L279.69 70.5298ZM268.164 104.569L266.665 103.244L266.665 103.245L268.164 104.569ZM257.473 139.376L259.292 138.544L259.292 138.544L257.473 139.376ZM246.516 174.214C246.76 175.292 247.831 175.967 248.909 175.723C249.986 175.479 250.661 174.408 250.417 173.33L246.516 174.214ZM302.577 63.0465C304.259 61.9637 304.257 61.9609 304.255 61.9581C304.254 61.9571 304.252 61.9543 304.251 61.9524C304.249 61.9485 304.246 61.9446 304.243 61.9405C304.238 61.9324 304.232 61.924 304.226 61.9151C304.214 61.8975 304.201 61.8784 304.186 61.858C304.157 61.8172 304.122 61.7711 304.081 61.7207C303.998 61.6198 303.892 61.5017 303.758 61.3742C303.49 61.1179 303.116 60.8292 302.615 60.5677C301.599 60.0378 300.16 59.6712 298.181 59.7926C294.301 60.0306 288.212 62.1502 278.546 68.8892L280.834 72.1704C290.289 65.5779 295.643 63.9558 298.426 63.7851C299.779 63.7021 300.477 63.9643 300.765 64.1143C300.915 64.1928 300.985 64.2569 300.997 64.2683C301.004 64.2747 300.997 64.2692 300.98 64.2474C300.971 64.2366 300.959 64.2217 300.945 64.2022C300.938 64.1925 300.93 64.1816 300.922 64.1694C300.918 64.1634 300.914 64.157 300.909 64.1503C300.907 64.147 300.905 64.1436 300.902 64.14C300.901 64.1383 300.9 64.1356 300.899 64.1347C300.897 64.132 300.896 64.1293 302.577 63.0465ZM278.546 68.8893C271.793 73.5986 270.896 80.7765 270.488 87.1314C270.277 90.4187 270.201 93.4315 269.696 96.2546C269.201 99.0246 268.325 101.367 266.665 103.244L269.662 105.894C271.987 103.264 273.067 100.128 273.634 96.9585C274.191 93.8419 274.283 90.4535 274.48 87.3879C274.888 81.037 275.769 75.7023 280.834 72.1703L278.546 68.8893ZM266.665 103.245C264.527 105.664 262.366 107.705 260.161 110.028C258.029 112.275 255.982 114.665 254.503 117.44C251.435 123.193 251.045 130.132 255.655 140.208L259.292 138.544C255.056 129.285 255.699 123.699 258.033 119.322C259.253 117.032 261 114.955 263.062 112.782C265.053 110.685 267.489 108.353 269.662 105.893L266.665 103.245ZM255.655 140.208C257.813 144.926 257.855 147.605 257.274 149.35C256.667 151.172 255.258 152.462 253.194 154.211C251.244 155.864 248.774 157.885 247.245 161.038C245.679 164.266 245.202 168.416 246.516 174.214L250.417 173.33C249.245 168.155 249.778 164.982 250.844 162.783C251.946 160.51 253.73 159.001 255.78 157.263C257.717 155.621 260.055 153.659 261.069 150.613C262.109 147.491 261.644 143.685 259.292 138.544L255.655 140.208Z" fill="#070707" mask="url(#path-88-outside-11)"/>
<path d="M301.931 91.9854H317.316C317.315 92.0096 317.315 92.0346 317.314 92.0603C317.308 92.4417 317.303 92.9927 317.313 93.6746C317.333 95.0379 317.41 96.9275 317.641 99.0331C318.099 103.221 319.171 108.355 321.673 111.873L321.673 111.873C322.326 112.79 322.723 113.498 323.049 114.08C323.126 114.216 323.199 114.345 323.27 114.469C323.645 115.12 323.997 115.644 324.669 116.036C325.312 116.411 326.205 116.641 327.598 116.863C328.93 117.075 330.785 117.289 333.42 117.591C333.419 117.67 333.416 117.759 333.412 117.857C333.394 118.302 333.339 118.944 333.193 119.716C332.899 121.261 332.24 123.322 330.777 125.382C327.869 129.478 321.69 133.698 308.494 133.698C303.586 133.698 300.46 133.076 298.519 132.182C296.599 131.299 295.864 130.167 295.655 129.104C295.438 128.004 295.762 126.87 296.176 125.974C296.38 125.532 296.599 125.163 296.767 124.905C296.851 124.776 296.921 124.676 296.97 124.609C296.994 124.575 297.013 124.55 297.025 124.534L297.039 124.517L297.041 124.513L297.041 124.513L297.042 124.513L297.042 124.513C297.048 124.504 297.055 124.496 297.061 124.487L296.649 124.203C297.061 124.487 297.061 124.487 297.061 124.486L297.062 124.486L297.063 124.483L297.069 124.475L297.089 124.445C297.106 124.42 297.13 124.383 297.161 124.334C297.224 124.237 297.314 124.093 297.426 123.905C297.651 123.527 297.965 122.968 298.33 122.234C299.059 120.766 299.99 118.596 300.808 115.772C302.414 110.23 303.581 102.176 301.931 91.9854Z" fill="#C48270" stroke="#0F0F0F" stroke-linecap="round" stroke-linejoin="round"/>
<path d="M318.09 90.4527C318.09 90.4527 318.601 117.145 297.256 117.145C296.824 117.143 296.399 117.044 296.01 116.856C297.132 116.073 304.14 110.31 300.682 90.1077H318.09C318.09 90.1077 318.09 90.2243 318.09 90.443V90.4527Z" fill="#1C0E0C"/>
<mask id="path-92-inside-12" fill="white">
<path d="M318.673 90.0154C318.673 90.0154 315.617 112.835 301.124 112.944C291.593 113.014 286.087 99.6489 283.854 92.6418C281.306 84.641 284.007 68.6492 297.604 68.8508C309.412 69.0282 315.583 85.1294 315.583 85.1294L318.673 90.0154Z"/>
</mask>
<path d="M318.673 90.0154C318.673 90.0154 315.617 112.835 301.124 112.944C291.593 113.014 286.087 99.6489 283.854 92.6418C281.306 84.641 284.007 68.6492 297.604 68.8508C309.412 69.0282 315.583 85.1294 315.583 85.1294L318.673 90.0154Z" fill="#C48270"/>
<path d="M318.673 90.0154L320.656 90.2809C320.718 89.8155 320.615 89.3431 320.364 88.9462L318.673 90.0154ZM301.124 112.944L301.139 114.944L301.139 114.944L301.124 112.944ZM283.854 92.6418L281.949 93.2489L281.949 93.249L283.854 92.6418ZM297.604 68.8508L297.634 66.851L297.633 66.851L297.604 68.8508ZM315.583 85.1294L313.715 85.8452C313.763 85.9685 313.822 86.0869 313.893 86.1985L315.583 85.1294ZM318.673 90.0154C316.691 89.7499 316.691 89.7493 316.691 89.7489C316.691 89.7489 316.691 89.7485 316.691 89.7485C316.691 89.7484 316.691 89.7486 316.691 89.7491C316.691 89.7503 316.691 89.7528 316.69 89.7566C316.689 89.7643 316.687 89.7773 316.685 89.7954C316.679 89.8318 316.671 89.8888 316.659 89.9652C316.636 90.1179 316.598 90.3475 316.545 90.6432C316.439 91.235 316.271 92.0886 316.024 93.1166C315.53 95.1803 314.73 97.9078 313.51 100.617C311.006 106.177 307.11 110.899 301.109 110.944L301.139 114.944C309.631 114.88 314.51 108.138 317.157 102.26C318.513 99.2509 319.383 96.2668 319.914 94.0486C320.181 92.9355 320.365 92.0055 320.482 91.349C320.541 91.0205 320.584 90.7598 320.612 90.5782C320.626 90.4874 320.637 90.4162 320.644 90.3662C320.647 90.3412 320.65 90.3215 320.652 90.3072C320.653 90.3001 320.654 90.2943 320.655 90.2899C320.655 90.2877 320.655 90.2859 320.655 90.2843C320.655 90.2836 320.656 90.2827 320.656 90.2824C320.656 90.2816 320.656 90.2809 318.673 90.0154ZM301.109 110.944C297.372 110.972 294.141 108.365 291.409 104.326C288.72 100.352 286.855 95.47 285.76 92.0346L281.949 93.249C283.087 96.8207 285.091 102.125 288.096 106.568C291.058 110.946 295.345 114.987 301.139 114.944L301.109 110.944ZM285.76 92.0348C284.628 88.4814 284.648 82.969 286.523 78.4347C288.346 74.0263 291.787 70.7648 297.574 70.8506L297.633 66.851C289.824 66.7352 285.116 71.3687 282.827 76.9061C280.589 82.3175 280.532 88.8014 281.949 93.2489L285.76 92.0348ZM297.574 70.8506C302.526 70.925 306.513 74.3579 309.418 78.2523C310.84 80.158 311.921 82.0703 312.649 83.5118C313.011 84.23 313.282 84.825 313.461 85.2355C313.55 85.4405 313.616 85.5991 313.659 85.7034C313.68 85.7555 313.695 85.794 313.705 85.818C313.71 85.83 313.713 85.8383 313.715 85.8429C313.715 85.8452 313.716 85.8465 313.716 85.8469C313.716 85.8471 313.716 85.847 313.716 85.8468C313.716 85.8466 313.716 85.8462 313.716 85.8461C313.716 85.8457 313.715 85.8452 315.583 85.1294C317.451 84.4136 317.45 84.4129 317.45 84.4122C317.45 84.4119 317.45 84.4112 317.449 84.4105C317.449 84.4093 317.448 84.4077 317.448 84.406C317.446 84.4025 317.444 84.398 317.442 84.3925C317.438 84.3816 317.432 84.3669 317.425 84.3484C317.41 84.3114 317.39 84.2595 317.363 84.1936C317.309 84.062 317.231 83.8744 317.129 83.6389C316.924 83.1681 316.62 82.5039 316.22 81.7098C315.421 80.1268 314.222 78.0027 312.625 75.8609C309.492 71.6604 304.489 66.954 297.634 66.851L297.574 70.8506ZM313.893 86.1985L316.983 91.0845L320.364 88.9462L317.273 84.0603L313.893 86.1985Z" fill="#0F0F0F" mask="url(#path-92-inside-12)"/>
<mask id="path-94-inside-13" fill="white">
<path d="M315.887 88.859C315.887 88.859 315.309 86.8836 315.843 85.1003C316.183 83.9705 316.973 82.9136 318.639 82.4957"/>
</mask>
<path d="M310.128 90.5446C311.059 93.7249 314.392 95.5483 317.572 94.6173C320.753 93.6863 322.576 90.3535 321.645 87.1733L310.128 90.5446ZM315.843 85.1003L310.098 83.3706L310.096 83.3777L315.843 85.1003ZM320.099 88.3155C323.313 87.5096 325.265 84.2506 324.459 81.0364C323.653 77.8222 320.394 75.8699 317.18 76.6758L320.099 88.3155ZM315.887 88.859C321.645 87.1733 321.646 87.1747 321.646 87.176C321.646 87.1765 321.646 87.1778 321.647 87.1787C321.647 87.1805 321.648 87.1823 321.648 87.1841C321.649 87.1875 321.65 87.1909 321.651 87.1942C321.653 87.2008 321.655 87.207 321.657 87.2128C321.66 87.2244 321.663 87.2345 321.665 87.2431C321.67 87.2603 321.673 87.2717 321.674 87.278C321.677 87.2901 321.675 87.2829 321.67 87.2599C321.66 87.2097 321.642 87.1156 321.629 87.0013C321.596 86.6898 321.644 86.6434 321.59 86.8229L310.096 83.3777C309.507 85.3405 309.578 87.1735 309.699 88.2954C309.765 88.8979 309.858 89.4091 309.939 89.785C309.98 89.9751 310.019 90.1361 310.052 90.2632C310.068 90.327 310.083 90.3826 310.096 90.4296C310.102 90.4531 310.108 90.4745 310.114 90.4937C310.116 90.5033 310.119 90.5123 310.122 90.5208C310.123 90.5251 310.124 90.5292 310.125 90.5332C310.126 90.5351 310.126 90.5371 310.127 90.539C310.127 90.54 310.128 90.5414 310.128 90.5419C310.128 90.5433 310.128 90.5446 315.887 88.859ZM321.588 86.83C321.538 86.9965 321.392 87.3605 321.03 87.7292C320.643 88.1248 320.252 88.2771 320.099 88.3155L317.18 76.6758C313.172 77.6808 310.955 80.5244 310.098 83.3706L321.588 86.83Z" fill="#070707" mask="url(#path-94-inside-13)"/>
<path d="M318.639 86.3977L315.843 85.1003" stroke="#070707" stroke-width="6" stroke-linecap="round" stroke-linejoin="round"/>
<mask id="path-97-inside-14" fill="white">
<path d="M340.288 124.03C340.288 124.03 331.935 145.683 345.295 157.316C349.603 161.065 355.961 157.64 355.961 157.64"/>
</mask>
<path d="M340.288 124.03C340.288 124.03 331.935 145.683 345.295 157.316C349.603 161.065 355.961 157.64 355.961 157.64" fill="#C48270"/>
<path d="M342.154 124.75C342.551 123.72 342.038 122.562 341.008 122.164C339.977 121.767 338.82 122.28 338.422 123.311L342.154 124.75ZM345.295 157.316L343.982 158.825L343.982 158.825L345.295 157.316ZM356.91 159.4C357.882 158.876 358.246 157.663 357.722 156.691C357.198 155.719 355.985 155.355 355.013 155.879L356.91 159.4ZM340.288 124.03C338.422 123.311 338.422 123.311 338.421 123.312C338.421 123.312 338.421 123.313 338.421 123.314C338.42 123.316 338.419 123.318 338.418 123.32C338.417 123.324 338.415 123.33 338.412 123.337C338.407 123.351 338.399 123.37 338.39 123.395C338.372 123.443 338.347 123.512 338.315 123.601C338.251 123.778 338.162 124.033 338.055 124.358C337.841 125.008 337.555 125.941 337.256 127.093C336.659 129.391 336.004 132.593 335.785 136.189C335.351 143.328 336.621 152.416 343.982 158.825L346.609 155.808C340.609 150.584 339.376 143.029 339.778 136.433C339.977 133.162 340.576 130.223 341.127 128.098C341.403 127.038 341.664 126.188 341.855 125.609C341.95 125.319 342.028 125.098 342.08 124.952C342.106 124.879 342.126 124.825 342.139 124.791C342.145 124.774 342.149 124.762 342.152 124.755C342.153 124.752 342.154 124.75 342.154 124.749C342.155 124.748 342.155 124.748 342.155 124.749C342.154 124.749 342.154 124.749 342.154 124.749C342.154 124.75 342.154 124.75 340.288 124.03ZM343.982 158.825C346.791 161.27 350.191 161.291 352.602 160.851C353.829 160.628 354.887 160.272 355.637 159.976C356.014 159.827 356.319 159.69 356.536 159.587C356.644 159.535 356.731 159.492 356.794 159.461C356.826 159.445 356.851 159.431 356.871 159.421C356.88 159.416 356.888 159.412 356.895 159.408C356.898 159.407 356.901 159.405 356.904 159.404C356.905 159.403 356.906 159.402 356.907 159.402C356.908 159.402 356.908 159.401 356.909 159.401C356.909 159.401 356.91 159.4 355.961 157.64C355.013 155.879 355.013 155.879 355.014 155.878C355.014 155.878 355.015 155.878 355.015 155.878C355.016 155.877 355.016 155.877 355.017 155.877C355.018 155.876 355.018 155.876 355.018 155.876C355.019 155.876 355.018 155.876 355.015 155.877C355.01 155.88 355 155.886 354.983 155.894C354.951 155.91 354.897 155.937 354.823 155.972C354.676 156.042 354.451 156.143 354.164 156.257C353.587 156.485 352.787 156.752 351.885 156.916C350.041 157.252 348.107 157.112 346.608 155.808L343.982 158.825Z" fill="#0F0F0F" mask="url(#path-97-inside-14)"/>
<mask id="path-99-inside-15" fill="white">
<path d="M346.556 145.994C351.318 161.073 357.633 182.388 357.633 182.388C332.583 183.748 294.817 198.941 290.218 200.824C282.584 202.525 271.774 208.706 269.697 209.947C267.753 211.053 264.697 214.117 263.774 215.346C262.802 216.629 260.54 221.248 260.54 221.248C261.021 221.486 261.569 221.555 262.095 221.445C262.621 221.335 263.095 221.051 263.441 220.64C264.332 219.668 265.829 217.326 267.029 216.187C265.941 218.92 264.923 221.743 264.923 221.743C264.923 221.743 267.622 222.404 271.082 221.286C272.739 220.752 274.571 217.574 276.51 215.482C278.449 213.39 282.679 214.379 286.913 213.662C291.148 212.945 294.088 206.735 294.088 206.735L294.03 206.633C305.024 206.815 362.845 207.192 375.44 195.423C382.972 188.394 373.209 142.617 360.787 122.327C355.322 113.406 347.181 114.603 343.364 120.284C342.088 122.177 340.565 123.282 340.502 125.962"/>
</mask>
<path d="M346.556 145.994C351.318 161.073 357.633 182.388 357.633 182.388C332.583 183.748 294.817 198.941 290.218 200.824C282.584 202.525 271.774 208.706 269.697 209.947C267.753 211.053 264.697 214.117 263.774 215.346C262.802 216.629 260.54 221.248 260.54 221.248C261.021 221.486 261.569 221.555 262.095 221.445C262.621 221.335 263.095 221.051 263.441 220.64C264.332 219.668 265.829 217.326 267.029 216.187C265.941 218.92 264.923 221.743 264.923 221.743C264.923 221.743 267.622 222.404 271.082 221.286C272.739 220.752 274.571 217.574 276.51 215.482C278.449 213.39 282.679 214.379 286.913 213.662C291.148 212.945 294.088 206.735 294.088 206.735L294.03 206.633C305.024 206.815 362.845 207.192 375.44 195.423C382.972 188.394 373.209 142.617 360.787 122.327C355.322 113.406 347.181 114.603 343.364 120.284C342.088 122.177 340.565 123.282 340.502 125.962" fill="#C48270"/>
<path d="M348.463 145.392C348.131 144.339 347.007 143.754 345.954 144.087C344.901 144.42 344.316 145.543 344.649 146.597L348.463 145.392ZM357.633 182.388L357.741 184.385C358.352 184.352 358.915 184.041 359.267 183.541C359.62 183.04 359.724 182.406 359.551 181.82L357.633 182.388ZM290.218 200.824L290.653 202.776C290.763 202.752 290.871 202.718 290.976 202.675L290.218 200.824ZM269.697 209.947L270.686 211.686C270.698 211.679 270.711 211.671 270.723 211.664L269.697 209.947ZM263.774 215.346L265.368 216.554L265.373 216.547L263.774 215.346ZM260.54 221.248L258.744 220.368C258.259 221.357 258.666 222.552 259.654 223.041L260.54 221.248ZM263.441 220.64L261.967 219.288C261.947 219.309 261.928 219.331 261.91 219.353L263.441 220.64ZM267.029 216.187L268.887 216.927C269.235 216.054 268.928 215.057 268.151 214.53C267.373 214.004 266.333 214.089 265.652 214.736L267.029 216.187ZM264.923 221.743L263.041 221.065C262.849 221.598 262.892 222.189 263.16 222.688C263.428 223.188 263.896 223.551 264.447 223.686L264.923 221.743ZM271.082 221.286L270.468 219.383L270.467 219.383L271.082 221.286ZM294.088 206.735L295.896 207.591C296.175 207 296.149 206.31 295.825 205.743L294.088 206.735ZM294.03 206.633L294.063 204.634C293.344 204.622 292.674 204.996 292.308 205.615C291.942 206.234 291.937 207.001 292.293 207.625L294.03 206.633ZM375.44 195.423L374.075 193.961L374.074 193.962L375.44 195.423ZM360.787 122.327L362.492 121.283L362.492 121.283L360.787 122.327ZM343.364 120.284L345.022 121.402L345.024 121.399L343.364 120.284ZM338.502 125.915C338.476 127.019 339.35 127.935 340.454 127.961C341.559 127.987 342.475 127.113 342.501 126.009L338.502 125.915ZM344.649 146.597C347.026 154.123 349.792 163.211 351.965 170.423C353.052 174.027 353.989 177.161 354.655 179.393C354.988 180.51 355.253 181.401 355.435 182.012C355.526 182.318 355.596 182.554 355.644 182.714C355.667 182.793 355.685 182.854 355.697 182.895C355.703 182.915 355.708 182.93 355.711 182.941C355.712 182.946 355.713 182.95 355.714 182.952C355.715 182.953 355.715 182.954 355.715 182.955C355.715 182.955 355.715 182.956 355.715 182.956C355.715 182.956 355.715 182.956 357.633 182.388C359.551 181.82 359.551 181.82 359.551 181.819C359.55 181.819 359.55 181.819 359.55 181.819C359.55 181.818 359.55 181.817 359.549 181.816C359.549 181.813 359.548 181.809 359.546 181.804C359.543 181.794 359.538 181.778 359.532 181.758C359.52 181.717 359.502 181.656 359.478 181.576C359.431 181.416 359.361 181.179 359.269 180.873C359.087 180.26 358.822 179.368 358.488 178.25C357.822 176.015 356.883 172.877 355.795 169.268C353.621 162.052 350.849 152.944 348.463 145.392L344.649 146.597ZM357.525 180.391C344.73 181.086 328.823 185.293 315.647 189.505C302.43 193.731 291.785 198.021 289.46 198.973L290.976 202.675C293.249 201.744 303.787 197.496 316.866 193.315C329.986 189.12 345.486 185.051 357.741 184.385L357.525 180.391ZM289.783 198.872C285.726 199.776 280.941 201.834 276.996 203.761C273.018 205.704 269.747 207.588 268.671 208.231L270.723 211.664C271.725 211.065 274.896 209.238 278.751 207.355C282.639 205.456 287.076 203.573 290.653 202.776L289.783 198.872ZM268.708 208.209C267.519 208.885 266.126 210.066 264.981 211.145C263.825 212.233 262.736 213.397 262.174 214.145L265.373 216.547C265.734 216.065 266.635 215.082 267.724 214.056C268.824 213.019 269.932 212.115 270.686 211.686L268.708 208.209ZM262.179 214.138C261.571 214.941 260.682 216.584 260.019 217.852C259.669 218.522 259.351 219.149 259.121 219.609C259.005 219.839 258.911 220.028 258.846 220.159C258.814 220.225 258.788 220.277 258.771 220.312C258.762 220.33 258.755 220.343 258.751 220.353C258.749 220.358 258.747 220.361 258.746 220.364C258.745 220.365 258.744 220.366 258.744 220.367C258.744 220.367 258.744 220.367 258.744 220.367C258.744 220.368 258.744 220.368 258.744 220.368C258.744 220.368 258.744 220.368 260.54 221.248C262.336 222.127 262.336 222.127 262.336 222.127C262.336 222.127 262.336 222.127 262.336 222.127C262.336 222.127 262.336 222.127 262.336 222.127C262.336 222.126 262.337 222.126 262.337 222.125C262.338 222.123 262.339 222.12 262.342 222.116C262.346 222.107 262.352 222.095 262.36 222.079C262.376 222.046 262.4 221.997 262.431 221.934C262.494 221.808 262.584 221.625 262.696 221.402C262.92 220.956 263.228 220.349 263.565 219.704C264.277 218.341 265.004 217.033 265.368 216.554L262.179 214.138ZM259.654 223.041C260.537 223.477 261.541 223.604 262.505 223.403L261.685 219.487C261.598 219.506 261.506 219.494 261.426 219.455L259.654 223.041ZM262.505 223.403C263.469 223.201 264.338 222.681 264.972 221.927L261.91 219.353C261.852 219.422 261.773 219.469 261.685 219.487L262.505 223.403ZM264.914 221.992C265.449 221.409 266.141 220.449 266.721 219.674C267.371 218.805 267.949 218.072 268.406 217.637L265.652 214.736C264.91 215.441 264.139 216.449 263.518 217.278C262.826 218.202 262.324 218.899 261.967 219.288L264.914 221.992ZM265.171 215.447C264.619 216.832 264.087 218.236 263.694 219.291C263.497 219.819 263.334 220.262 263.221 220.572C263.164 220.728 263.119 220.85 263.089 220.934C263.073 220.976 263.062 221.008 263.054 221.03C263.05 221.041 263.047 221.05 263.045 221.056C263.044 221.058 263.043 221.061 263.042 221.062C263.042 221.063 263.042 221.064 263.042 221.064C263.042 221.064 263.041 221.064 263.041 221.065C263.041 221.065 263.041 221.065 263.041 221.065C263.041 221.065 263.041 221.065 264.923 221.743C266.804 222.422 266.804 222.422 266.804 222.422C266.804 222.422 266.804 222.422 266.804 222.422C266.804 222.422 266.804 222.421 266.804 222.421C266.804 222.421 266.805 222.421 266.805 222.42C266.805 222.419 266.806 222.417 266.807 222.414C266.809 222.409 266.811 222.402 266.815 222.391C266.823 222.371 266.834 222.34 266.849 222.299C266.878 222.218 266.921 222.098 266.977 221.946C267.088 221.642 267.248 221.208 267.442 220.689C267.83 219.649 268.351 218.274 268.887 216.927L265.171 215.447ZM264.923 221.743C264.447 223.686 264.448 223.686 264.448 223.686C264.449 223.686 264.449 223.686 264.45 223.686C264.451 223.687 264.452 223.687 264.453 223.687C264.455 223.688 264.457 223.688 264.46 223.689C264.464 223.69 264.47 223.691 264.476 223.693C264.489 223.696 264.504 223.699 264.521 223.703C264.557 223.711 264.603 223.721 264.659 223.732C264.77 223.754 264.923 223.781 265.112 223.808C265.489 223.863 266.016 223.919 266.659 223.933C267.943 223.963 269.713 223.83 271.697 223.19L270.467 219.383C268.991 219.86 267.681 219.956 266.751 219.934C266.287 219.924 265.922 219.884 265.685 219.85C265.567 219.833 265.482 219.817 265.432 219.807C265.408 219.802 265.392 219.799 265.387 219.798C265.384 219.797 265.383 219.797 265.385 219.797C265.386 219.798 265.388 219.798 265.39 219.798C265.391 219.799 265.392 219.799 265.394 219.799C265.394 219.8 265.395 219.8 265.396 219.8C265.396 219.8 265.397 219.8 265.397 219.8C265.398 219.8 265.398 219.801 264.923 221.743ZM271.696 223.19C272.521 222.924 273.202 222.394 273.721 221.911C274.259 221.408 274.774 220.809 275.246 220.225C276.267 218.962 277.062 217.828 277.977 216.842L275.043 214.122C274.018 215.228 272.928 216.729 272.135 217.711C271.699 218.25 271.324 218.677 270.992 218.986C270.83 219.137 270.699 219.24 270.599 219.307C270.498 219.375 270.455 219.387 270.468 219.383L271.696 223.19ZM277.977 216.842C278.347 216.442 279.109 216.159 280.964 216.053C282.549 215.963 284.991 216.016 287.247 215.634L286.58 211.69C284.601 212.025 282.811 211.942 280.737 212.06C278.934 212.162 276.612 212.43 275.043 214.122L277.977 216.842ZM287.247 215.634C290.155 215.142 292.352 212.867 293.674 211.15C294.374 210.24 294.923 209.363 295.296 208.715C295.483 208.389 295.629 208.118 295.73 207.923C295.78 207.826 295.819 207.748 295.847 207.691C295.861 207.663 295.872 207.641 295.88 207.624C295.884 207.615 295.888 207.608 295.89 207.603C295.892 207.6 295.893 207.598 295.894 207.596C295.894 207.595 295.894 207.594 295.895 207.593C295.895 207.593 295.895 207.592 295.895 207.592C295.896 207.592 295.896 207.591 294.088 206.735C292.281 205.88 292.281 205.879 292.281 205.879C292.281 205.879 292.281 205.878 292.281 205.878C292.281 205.878 292.282 205.877 292.282 205.877C292.282 205.877 292.282 205.876 292.282 205.877C292.282 205.877 292.281 205.879 292.279 205.883C292.276 205.889 292.27 205.902 292.261 205.919C292.244 205.954 292.216 206.01 292.178 206.084C292.101 206.232 291.984 206.451 291.83 206.719C291.519 207.258 291.068 207.978 290.504 208.71C289.297 210.277 287.907 211.466 286.58 211.69L287.247 215.634ZM295.825 205.743L295.766 205.641L292.293 207.625L292.352 207.727L295.825 205.743ZM293.997 208.633C299.516 208.724 316.793 208.865 334.29 207.504C343.034 206.823 351.889 205.764 359.381 204.119C366.756 202.499 373.222 200.232 376.805 196.884L374.074 193.962C371.36 196.498 365.876 198.597 358.523 200.212C351.288 201.8 342.639 202.842 333.979 203.516C316.669 204.863 299.538 204.724 294.063 204.634L293.997 208.633ZM376.804 196.885C378.186 195.596 378.974 193.636 379.436 191.524C379.909 189.36 380.101 186.754 380.075 183.872C380.023 178.101 379.096 170.948 377.555 163.445C374.48 148.473 368.873 131.705 362.492 121.283L359.081 123.371C365.123 133.239 370.608 149.504 373.637 164.25C375.148 171.607 376.026 178.485 376.075 183.908C376.099 186.623 375.914 188.904 375.528 190.669C375.131 192.485 374.576 193.493 374.075 193.961L376.804 196.885ZM362.492 121.283C359.505 116.405 355.556 113.964 351.524 113.831C347.535 113.699 343.935 115.848 341.704 119.168L345.024 121.399C346.609 119.04 348.989 117.749 351.391 117.829C353.75 117.907 356.604 119.328 359.081 123.372L362.492 121.283ZM341.705 119.166C341.434 119.569 341.145 119.936 340.814 120.358C340.498 120.76 340.13 121.229 339.798 121.742C339.09 122.837 338.544 124.137 338.502 125.915L342.501 126.009C342.522 125.107 342.769 124.514 343.158 123.913C343.374 123.578 343.63 123.248 343.96 122.828C344.276 122.426 344.656 121.945 345.022 121.402L341.705 119.166Z" fill="#0F0F0F" mask="url(#path-99-inside-15)"/>
<mask id="path-101-inside-16" fill="white">
<path d="M267.083 221.925C267.035 221.933 266.986 221.927 266.942 221.908C266.91 221.896 266.881 221.878 266.856 221.855C266.832 221.831 266.813 221.803 266.8 221.772C266.787 221.74 266.781 221.707 266.782 221.673C266.783 221.639 266.791 221.606 266.806 221.575C267.131 220.803 270.023 214.007 271.296 213.086C273.504 211.487 276.381 209.391 276.381 209.391L276.682 209.804C276.682 209.804 273.803 211.903 271.597 213.499C270.625 214.209 268.144 219.712 267.277 221.76C267.262 221.802 267.236 221.839 267.201 221.868C267.167 221.897 267.127 221.917 267.083 221.925V221.925Z"/>
</mask>
<path d="M266.942 221.908L269.274 216.38C269.183 216.341 269.09 216.305 268.997 216.271L266.942 221.908ZM266.806 221.575L272.221 224.158C272.261 224.075 272.299 223.99 272.335 223.905L266.806 221.575ZM271.296 213.086L274.812 217.948L274.814 217.946L271.296 213.086ZM276.381 209.391L281.228 205.855C279.276 203.178 275.524 202.591 272.847 204.542L276.381 209.391ZM276.682 209.804L280.217 214.652C281.503 213.714 282.364 212.304 282.61 210.732C282.856 209.159 282.468 207.554 281.53 206.268L276.682 209.804ZM271.597 213.499L268.08 208.638C268.073 208.643 268.066 208.648 268.059 208.653L271.597 213.499ZM267.277 221.76L261.752 219.42C261.715 219.507 261.681 219.594 261.648 219.683L267.277 221.76ZM266.132 216.001C267.196 215.83 268.285 215.962 269.274 216.38L264.609 227.436C265.688 227.891 266.874 228.035 268.033 227.849L266.132 216.001ZM268.997 216.271C269.749 216.545 270.438 216.974 271.017 217.532L262.696 226.178C263.324 226.783 264.071 227.248 264.886 227.545L268.997 216.271ZM271.017 217.532C271.594 218.087 272.05 218.757 272.354 219.502L261.246 224.042C261.576 224.849 262.07 225.576 262.696 226.178L271.017 217.532ZM272.354 219.502C272.657 220.244 272.803 221.042 272.78 221.844L260.785 221.502C260.76 222.372 260.917 223.237 261.246 224.042L272.354 219.502ZM272.78 221.844C272.757 222.647 272.566 223.435 272.221 224.158L261.39 218.992C261.016 219.776 260.809 220.631 260.785 221.502L272.78 221.844ZM272.335 223.905C272.484 223.551 273.242 221.769 274.098 219.995C274.531 219.099 274.943 218.301 275.283 217.72C275.454 217.427 275.558 217.274 275.593 217.226C275.71 217.066 275.444 217.491 274.812 217.948L267.779 208.224C266.829 208.912 266.194 209.75 265.908 210.141C265.54 210.644 265.206 211.179 264.923 211.664C264.352 212.641 263.782 213.763 263.292 214.777C262.303 216.825 261.453 218.827 261.277 219.245L272.335 223.905ZM274.814 217.946C275.924 217.143 277.2 216.216 278.196 215.491C278.695 215.128 279.124 214.815 279.429 214.593C279.582 214.482 279.703 214.394 279.786 214.333C279.828 214.303 279.86 214.279 279.882 214.264C279.893 214.256 279.901 214.25 279.907 214.246C279.909 214.244 279.911 214.242 279.913 214.241C279.914 214.24 279.914 214.24 279.914 214.24C279.915 214.24 279.915 214.24 279.915 214.239C279.915 214.239 279.915 214.239 279.915 214.239C279.915 214.239 279.915 214.239 276.381 209.391C272.847 204.542 272.847 204.542 272.847 204.542C272.847 204.542 272.847 204.542 272.847 204.542C272.847 204.542 272.847 204.542 272.846 204.542C272.846 204.543 272.846 204.543 272.845 204.543C272.843 204.544 272.841 204.546 272.839 204.548C272.833 204.552 272.825 204.558 272.814 204.566C272.793 204.581 272.761 204.604 272.72 204.635C272.637 204.695 272.516 204.783 272.365 204.893C272.061 205.114 271.633 205.426 271.137 205.787C270.143 206.51 268.876 207.431 267.777 208.226L274.814 217.946ZM271.533 212.926L271.835 213.339L281.53 206.268L281.228 205.855L271.533 212.926ZM276.682 209.804C273.147 204.955 273.147 204.955 273.147 204.955C273.147 204.956 273.147 204.956 273.147 204.956C273.147 204.956 273.147 204.956 273.147 204.956C273.147 204.956 273.146 204.956 273.145 204.957C273.144 204.958 273.142 204.959 273.139 204.961C273.134 204.965 273.126 204.971 273.115 204.979C273.093 204.995 273.062 205.018 273.02 205.048C272.938 205.108 272.817 205.196 272.665 205.307C272.361 205.528 271.934 205.84 271.437 206.201C270.443 206.924 269.176 207.845 268.08 208.638L275.114 218.36C276.224 217.557 277.5 216.63 278.497 215.905C278.996 215.542 279.426 215.229 279.731 215.006C279.883 214.895 280.005 214.807 280.088 214.746C280.13 214.715 280.162 214.692 280.184 214.676C280.195 214.668 280.203 214.662 280.208 214.658C280.211 214.656 280.213 214.655 280.215 214.653C280.216 214.653 280.216 214.653 280.216 214.652C280.217 214.652 280.217 214.652 280.217 214.652C280.217 214.652 280.217 214.652 280.217 214.652C280.217 214.652 280.217 214.652 276.682 209.804ZM268.059 208.653C267.15 209.317 266.555 210.117 266.324 210.433C266.003 210.872 265.713 211.335 265.469 211.748C264.976 212.582 264.472 213.552 264.019 214.47C263.104 216.321 262.218 218.319 261.752 219.42L272.802 224.1C273.203 223.152 273.991 221.375 274.777 219.785C275.174 218.982 275.527 218.315 275.799 217.854C275.864 217.745 275.916 217.66 275.956 217.598C275.997 217.534 276.016 217.509 276.012 217.514C276.009 217.518 275.996 217.536 275.974 217.564C275.951 217.592 275.913 217.639 275.858 217.699C275.776 217.791 275.532 218.055 275.135 218.345L268.059 208.653ZM261.648 219.683C261.99 218.756 262.565 217.934 263.316 217.296L271.087 226.44C271.906 225.744 272.533 224.848 272.906 223.837L261.648 219.683ZM263.316 217.296C264.066 216.659 264.969 216.223 265.94 216.035L268.226 227.815C269.284 227.61 270.269 227.135 271.087 226.44L263.316 217.296Z" fill="#070707" mask="url(#path-101-inside-16)"/>
<mask id="path-103-inside-17" fill="white">
<path d="M269.833 221.459C269.787 221.466 269.741 221.461 269.698 221.443C269.655 221.426 269.617 221.398 269.589 221.361C269.561 221.324 269.543 221.28 269.538 221.234C269.533 221.188 269.54 221.142 269.559 221.099C269.675 220.856 272.44 214.848 273.733 213.912C275.941 212.316 278.818 210.219 278.818 210.219L279.119 210.632C279.119 210.632 276.24 212.729 274.034 214.328C273.062 215.037 270.805 219.61 270.023 221.313C270.005 221.351 269.979 221.384 269.946 221.409C269.913 221.435 269.874 221.452 269.833 221.459V221.459Z"/>
</mask>
<path d="M269.559 221.099L264.149 218.503C264.126 218.552 264.103 218.602 264.081 218.651L269.559 221.099ZM273.733 213.912L270.218 209.05L270.215 209.052L273.733 213.912ZM278.818 210.219L283.665 206.684C281.713 204.007 277.961 203.419 275.284 205.371L278.818 210.219ZM279.119 210.632L282.651 215.483C283.938 214.545 284.8 213.135 285.047 211.562C285.293 209.989 284.905 208.383 283.967 207.097L279.119 210.632ZM274.034 214.328L270.513 209.47C270.508 209.474 270.502 209.478 270.496 209.482L274.034 214.328ZM270.023 221.313L275.47 223.827L275.475 223.818L270.023 221.313ZM268.915 215.53C269.934 215.372 270.979 215.491 271.937 215.877L267.458 227.01C268.502 227.43 269.64 227.56 270.751 227.388L268.915 215.53ZM271.937 215.877C272.897 216.263 273.733 216.901 274.358 217.72L264.82 225.002C265.501 225.894 266.412 226.589 267.458 227.01L271.937 215.877ZM274.358 217.72C274.983 218.539 275.378 219.513 275.498 220.54L263.578 221.928C263.708 223.047 264.138 224.109 264.82 225.002L274.358 217.72ZM275.498 220.54C275.617 221.565 275.458 222.604 275.036 223.547L264.081 218.651C263.621 219.679 263.448 220.812 263.578 221.928L275.498 220.54ZM274.968 223.696C275.072 223.479 275.715 222.079 276.515 220.558C276.916 219.795 277.301 219.11 277.619 218.608C277.78 218.355 277.876 218.224 277.907 218.184C278.001 218.064 277.774 218.394 277.25 218.773L270.215 209.052C269.368 209.665 268.772 210.387 268.467 210.776C268.099 211.244 267.766 211.738 267.484 212.184C266.916 213.079 266.36 214.086 265.894 214.973C265.419 215.877 264.99 216.745 264.676 217.395C264.438 217.886 264.064 218.682 264.149 218.503L274.968 223.696ZM277.247 218.775C278.359 217.972 279.635 217.045 280.632 216.32C281.131 215.957 281.561 215.644 281.866 215.422C282.018 215.311 282.14 215.223 282.223 215.162C282.265 215.132 282.297 215.108 282.319 215.092C282.33 215.084 282.338 215.078 282.344 215.074C282.346 215.072 282.348 215.071 282.35 215.07C282.351 215.069 282.351 215.069 282.352 215.069C282.352 215.068 282.352 215.068 282.352 215.068C282.352 215.068 282.352 215.068 282.352 215.068C282.352 215.068 282.352 215.068 278.818 210.219C275.284 205.371 275.284 205.371 275.284 205.371C275.284 205.371 275.284 205.371 275.284 205.371C275.284 205.371 275.284 205.371 275.283 205.371C275.283 205.371 275.283 205.372 275.282 205.372C275.281 205.373 275.279 205.375 275.276 205.377C275.27 205.381 275.262 205.386 275.252 205.394C275.23 205.41 275.198 205.433 275.157 205.463C275.074 205.523 274.954 205.611 274.802 205.722C274.499 205.943 274.071 206.254 273.575 206.615C272.581 207.337 271.315 208.257 270.218 209.05L277.247 218.775ZM273.971 213.755L274.272 214.168L283.967 207.097L283.665 206.684L273.971 213.755ZM279.119 210.632C275.587 205.782 275.587 205.782 275.587 205.782C275.587 205.782 275.587 205.782 275.587 205.782C275.587 205.782 275.587 205.783 275.587 205.783C275.586 205.783 275.586 205.783 275.585 205.784C275.584 205.785 275.582 205.786 275.579 205.788C275.573 205.792 275.565 205.798 275.554 205.806C275.533 205.822 275.501 205.845 275.46 205.875C275.377 205.935 275.256 206.023 275.104 206.134C274.8 206.355 274.372 206.667 273.875 207.028C272.88 207.752 271.612 208.673 270.513 209.47L277.555 219.186C278.662 218.384 279.936 217.458 280.933 216.733C281.431 216.371 281.861 216.058 282.166 215.836C282.318 215.725 282.44 215.637 282.523 215.576C282.564 215.546 282.597 215.522 282.618 215.507C282.629 215.499 282.637 215.493 282.643 215.489C282.646 215.487 282.648 215.485 282.649 215.484C282.65 215.484 282.651 215.483 282.651 215.483C282.651 215.483 282.651 215.483 282.651 215.483C282.651 215.483 282.651 215.483 282.651 215.483C282.651 215.483 282.651 215.483 279.119 210.632ZM270.496 209.482C269.718 210.05 269.178 210.701 268.921 211.025C268.602 211.425 268.316 211.841 268.075 212.211C267.592 212.955 267.109 213.801 266.683 214.587C265.824 216.172 265.005 217.863 264.57 218.809L275.475 223.818C275.823 223.06 276.524 221.613 277.231 220.308C277.589 219.65 277.901 219.113 278.139 218.747C278.259 218.562 278.315 218.492 278.309 218.499C278.303 218.506 278.254 218.568 278.161 218.664C278.081 218.748 277.882 218.948 277.572 219.174L270.496 209.482ZM264.575 218.799C264.964 217.956 265.552 217.22 266.288 216.654L273.604 226.165C274.406 225.548 275.046 224.746 275.47 223.827L264.575 218.799ZM266.288 216.654C267.024 216.087 267.886 215.708 268.8 215.549L270.866 227.369C271.862 227.195 272.802 226.782 273.604 226.165L266.288 216.654Z" fill="#070707" mask="url(#path-103-inside-17)"/>
<path d="M314.674 95.3608C314.674 95.3608 314.623 124.728 330.53 126.849C346.437 128.97 359.032 118.413 359.032 118.413" fill="#1C0E0C"/>
<mask id="path-106-inside-18" fill="white">
<path d="M295.002 90.4065L294.142 97.506L297.145 99.2577"/>
</mask>
<path d="M300.958 91.1282C301.357 87.8385 299.013 84.8486 295.723 84.4501C292.434 84.0515 289.444 86.3952 289.045 89.6849L300.958 91.1282ZM294.142 97.506L288.185 96.7843C287.897 99.1614 289.05 101.482 291.118 102.689L294.142 97.506ZM294.121 104.44C296.984 106.11 300.658 105.143 302.327 102.281C303.997 99.4186 303.03 95.7447 300.168 94.075L294.121 104.44ZM289.045 89.6849L288.185 96.7843L300.098 98.2276L300.958 91.1282L289.045 89.6849ZM291.118 102.689L294.121 104.44L300.168 94.075L297.165 92.3233L291.118 102.689Z" fill="#070707" mask="url(#path-106-inside-18)"/>
<path d="M301.268 90.5704C301.903 90.3474 302.18 89.486 301.885 88.6466C301.59 87.8071 300.836 87.3074 300.201 87.5305C299.565 87.7536 299.289 88.615 299.583 89.4544C299.878 90.2939 300.632 90.7935 301.268 90.5704Z" fill="#1C0E0C"/>
<path d="M290.518 93.32C291.153 93.0969 291.43 92.2355 291.135 91.3961C290.841 90.5567 290.087 90.057 289.451 90.2801C288.815 90.5032 288.539 91.3645 288.834 92.204C289.128 93.0434 289.882 93.543 290.518 93.32Z" fill="#1C0E0C"/>
<mask id="path-110-inside-19" fill="white">
<path d="M296.901 84.1625C296.901 84.1625 299.001 81.6575 303.525 83.8394Z"/>
</mask>
<path d="M292.303 80.3086C290.174 82.8484 290.508 86.6327 293.048 88.7612C295.587 90.8896 299.372 90.5561 301.5 88.0164L292.303 80.3086ZM300.918 89.2437C303.903 90.6832 307.49 89.4304 308.929 86.4457C310.368 83.461 309.116 79.8745 306.131 78.435L300.918 89.2437ZM296.901 84.1625C301.5 88.0164 301.497 88.0197 301.494 88.023C301.494 88.0241 301.491 88.0274 301.489 88.0296C301.485 88.034 301.481 88.0384 301.478 88.0428C301.47 88.0514 301.463 88.06 301.456 88.0685C301.441 88.0854 301.427 88.1019 301.413 88.1179C301.385 88.15 301.357 88.1805 301.33 88.2094C301.277 88.2671 301.226 88.3192 301.177 88.3664C301.081 88.4602 300.989 88.5383 300.902 88.6041C300.726 88.7357 300.547 88.8319 300.367 88.8902C299.842 89.0606 299.902 88.7537 300.918 89.2437L306.131 78.435C302.623 76.7432 299.372 76.5979 296.666 77.4752C295.396 77.8871 294.409 78.4731 293.699 79.0063C293.343 79.2729 293.053 79.5296 292.823 79.7518C292.709 79.8633 292.608 79.967 292.522 80.0604C292.478 80.1071 292.439 80.1514 292.402 80.1928C292.384 80.2135 292.367 80.2336 292.35 80.2529C292.342 80.2625 292.334 80.272 292.326 80.2813C292.322 80.286 292.318 80.2906 292.314 80.2951C292.312 80.2974 292.309 80.3008 292.308 80.3019C292.306 80.3053 292.303 80.3086 296.901 84.1625Z" fill="#070707" mask="url(#path-110-inside-19)"/>
<mask id="path-112-inside-20" fill="white">
<path d="M285.805 87.666C285.805 87.666 286.989 84.6143 291.352 85.9118Z"/>
</mask>
<path d="M280.211 85.497C279.013 88.5866 280.547 92.0623 283.636 93.2602C286.726 94.4582 290.202 92.9247 291.4 89.8351L280.211 85.497ZM289.642 91.663C292.818 92.6074 296.159 90.7981 297.103 87.6218C298.048 84.4455 296.238 81.105 293.062 80.1606L289.642 91.663ZM285.805 87.666C291.4 89.8351 291.398 89.8389 291.397 89.8426C291.396 89.8439 291.395 89.8476 291.394 89.8501C291.392 89.8551 291.39 89.8601 291.388 89.865C291.384 89.8749 291.38 89.8846 291.376 89.8942C291.369 89.9135 291.361 89.9323 291.353 89.9506C291.338 89.9874 291.323 90.0225 291.308 90.0561C291.279 90.1232 291.249 90.1852 291.22 90.243C291.162 90.3571 291.101 90.4627 291.034 90.5622C290.905 90.7536 290.714 90.982 290.429 91.1852C290.116 91.4091 289.777 91.5376 289.494 91.5781C289.231 91.6157 289.244 91.5446 289.642 91.663L293.062 80.1606C289.312 79.0456 285.969 79.625 283.456 81.4195C282.33 82.2235 281.57 83.1337 281.082 83.8568C280.836 84.2221 280.649 84.556 280.509 84.8319C280.439 84.9706 280.38 85.0969 280.331 85.208C280.307 85.2637 280.284 85.3158 280.264 85.364C280.254 85.3881 280.245 85.4112 280.236 85.4334C280.232 85.4445 280.227 85.4554 280.223 85.4659C280.221 85.4712 280.219 85.4765 280.217 85.4817C280.216 85.4842 280.215 85.4881 280.214 85.4894C280.213 85.4932 280.211 85.497 285.805 87.666Z" fill="#070707" mask="url(#path-112-inside-20)"/>
<path d="M292.375 67.7087C292.375 67.7087 299.404 64.7931 301.749 71.7492C304.093 78.7053 307.913 84.5146 315.617 80.4741C323.322 76.4336 320.168 71.1831 320.168 71.1831" fill="#1C0E0C"/>
<path d="M316.623 90.1174C319.394 90.1174 321.64 87.8711 321.64 85.1002C321.64 82.3293 319.394 80.083 316.623 80.083C313.852 80.083 311.606 82.3293 311.606 85.1002C311.606 87.8711 313.852 90.1174 316.623 90.1174Z" fill="#C48270"/>
<mask id="path-116-inside-21" fill="white">
<path d="M314.718 88.1615C314.718 88.1615 314.137 86.1862 314.674 84.4028C315.012 83.273 315.802 82.2161 317.468 81.7982"/>
</mask>
<path d="M308.962 89.8538C309.896 93.0329 313.231 94.8525 316.41 93.9178C319.589 92.9832 321.409 89.6483 320.474 86.4691L308.962 89.8538ZM314.674 84.4028L320.419 86.1327L320.423 86.1212L314.674 84.4028ZM318.928 87.6181C322.142 86.8122 324.094 83.5532 323.288 80.339C322.482 77.1248 319.223 75.1724 316.009 75.9783L318.928 87.6181ZM314.718 88.1615C320.474 86.4691 320.475 86.4705 320.475 86.4719C320.475 86.4723 320.476 86.4737 320.476 86.4746C320.477 86.4764 320.477 86.4782 320.478 86.48C320.479 86.4835 320.48 86.4869 320.481 86.4902C320.482 86.4968 320.484 86.503 320.486 86.5088C320.489 86.5205 320.492 86.5306 320.494 86.5393C320.499 86.5566 320.502 86.5682 320.504 86.5745C320.507 86.5869 320.505 86.58 320.5 86.5573C320.489 86.5078 320.472 86.4145 320.459 86.3013C320.426 85.9917 320.475 85.9491 320.419 86.1327L308.929 82.6729C308.337 84.6398 308.408 86.4766 308.53 87.6005C308.596 88.204 308.69 88.716 308.771 89.0926C308.812 89.283 308.851 89.4443 308.884 89.5717C308.901 89.6355 308.916 89.6913 308.929 89.7384C308.935 89.762 308.941 89.7834 308.947 89.8026C308.95 89.8123 308.952 89.8213 308.955 89.8299C308.956 89.8341 308.957 89.8382 308.958 89.8422C308.959 89.8442 308.959 89.8462 308.96 89.8481C308.96 89.8491 308.961 89.8505 308.961 89.851C308.961 89.8524 308.962 89.8538 314.718 88.1615ZM320.423 86.1212C320.372 86.293 320.223 86.66 319.861 87.0305C319.472 87.4275 319.08 87.5798 318.928 87.6181L316.009 75.9783C312.002 76.983 309.78 79.8271 308.926 82.6843L320.423 86.1212Z" fill="#070707" mask="url(#path-116-inside-21)"/>
<path d="M317.469 85.7003L314.674 84.403" stroke="#070707" stroke-width="6" stroke-linecap="round" stroke-linejoin="round"/>
<mask id="path-119-inside-22" fill="white">
<path d="M314.414 79.7672C312.983 66.6886 299.968 59.2029 299.837 59.1543L306.105 59.5819C306.863 59.8394 314.081 60.8404 320.816 78.1856L314.414 79.7672Z"/>
</mask>
<path d="M314.414 79.7672C312.983 66.6886 299.968 59.2029 299.837 59.1543L306.105 59.5819C306.863 59.8394 314.081 60.8404 320.816 78.1856L314.414 79.7672Z" fill="#EFAF00"/>
<path d="M314.414 79.7672L308.45 80.4199C308.638 82.1399 309.56 83.6949 310.978 84.6858C312.396 85.6767 314.174 86.0071 315.853 85.5921L314.414 79.7672ZM299.837 59.1543L300.245 53.1682C297.269 52.9652 294.596 54.9789 293.97 57.8953C293.344 60.8116 294.956 63.7448 297.753 64.7808L299.837 59.1543ZM306.105 59.5819L308.035 53.9008C307.543 53.7337 307.032 53.6312 306.513 53.5958L306.105 59.5819ZM320.816 78.1856L322.255 84.0104C323.93 83.5967 325.346 82.4822 326.141 80.9515C326.936 79.4207 327.034 77.6218 326.409 76.0138L320.816 78.1856ZM320.379 79.1146C319.46 70.7212 314.87 64.3942 310.919 60.3705C308.91 58.3253 306.958 56.761 305.487 55.6964C304.748 55.1617 304.12 54.7443 303.65 54.4471C303.416 54.2989 303.215 54.1769 303.055 54.0822C302.976 54.0358 302.896 53.9897 302.82 53.9469C302.784 53.9269 302.73 53.8971 302.668 53.8638C302.639 53.8483 302.584 53.8192 302.515 53.7849C302.48 53.7678 302.422 53.7393 302.35 53.7059C302.301 53.6834 302.137 53.6079 301.92 53.5278L297.753 64.7808C297.537 64.701 297.375 64.6262 297.328 64.6045C297.257 64.5719 297.201 64.5444 297.169 64.5287C297.106 64.4969 297.057 64.4713 297.036 64.4602C296.99 64.4357 296.959 64.4182 296.952 64.4142C296.932 64.4034 296.933 64.4037 296.958 64.418C297.003 64.4447 297.097 64.5013 297.234 64.5879C297.507 64.7605 297.927 65.0381 298.45 65.4163C299.501 66.1777 300.916 67.3113 302.357 68.7784C305.304 71.7794 307.937 75.7346 308.45 80.4199L320.379 79.1146ZM299.428 65.1404L305.697 65.568L306.513 53.5958L300.245 53.1682L299.428 65.1404ZM304.175 65.263C305.313 65.6497 304.689 65.3478 305.308 65.6269C305.639 65.7766 306.307 66.1324 307.22 66.949C309.067 68.5996 312.093 72.2948 315.223 80.3573L326.409 76.0138C322.805 66.7312 318.854 61.2534 315.218 58.0027C313.39 56.3688 311.69 55.342 310.245 54.6895C309.086 54.1665 307.276 53.6428 308.035 53.9008L304.175 65.263ZM319.377 72.3607L312.975 73.9424L315.853 85.5921L322.255 84.0104L319.377 72.3607Z" fill="black" mask="url(#path-119-inside-22)"/>
<path d="M321.11 87.3122C321.409 89.5523 321.099 91.5125 320.512 92.8408C319.9 94.2237 319.239 94.4748 319.015 94.5046C318.791 94.5345 318.088 94.4655 317.135 93.2913C316.22 92.1636 315.406 90.3532 315.107 88.1131C314.809 85.873 315.119 83.9128 315.706 82.5846C316.318 81.2017 316.979 80.9506 317.203 80.9207C317.426 80.8909 318.13 80.9599 319.083 82.134C319.998 83.2618 320.811 85.0721 321.11 87.3122Z" fill="#EFAF00" stroke="black" stroke-width="6" stroke-linecap="round" stroke-linejoin="round"/>
<path d="M323.193 87.0367C323.492 89.2768 323.182 91.237 322.595 92.5653C321.983 93.9482 321.322 94.1993 321.098 94.2291C320.875 94.259 320.171 94.19 319.218 93.0158C318.303 91.8881 317.49 90.0777 317.191 87.8376C316.892 85.5975 317.202 83.6373 317.789 82.309C318.401 80.9261 319.062 80.675 319.286 80.6451C319.509 80.6153 320.213 80.6843 321.166 81.8584C322.081 82.9862 322.894 84.7966 323.193 87.0367Z" fill="#EFAF00" stroke="black" stroke-width="6" stroke-linecap="round" stroke-linejoin="round"/>
<mask id="path-123-inside-23" fill="white">
<path d="M297.144 102.856C297.144 102.856 301.829 103.663 303.928 99.0318Z"/>
</mask>
<path d="M298.163 96.943C294.897 96.3807 291.794 98.5722 291.231 101.838C290.669 105.103 292.861 108.207 296.126 108.769L298.163 96.943ZM309.393 101.509C310.761 98.4909 309.423 94.9352 306.405 93.5671C303.387 92.1989 299.831 93.5365 298.463 96.5545L309.393 101.509ZM297.144 102.856C296.126 108.769 296.129 108.769 296.132 108.77C296.133 108.77 296.136 108.771 296.138 108.771C296.143 108.772 296.147 108.772 296.151 108.773C296.16 108.775 296.169 108.776 296.178 108.778C296.197 108.781 296.217 108.784 296.238 108.787C296.281 108.794 296.329 108.801 296.382 108.808C296.488 108.823 296.616 108.838 296.762 108.853C297.054 108.881 297.428 108.907 297.868 108.91C298.732 108.916 299.93 108.837 301.276 108.483C304.131 107.732 307.469 105.752 309.393 101.509L298.463 96.5545C298.287 96.9427 298.234 96.8749 298.222 96.878C298.135 96.9011 298.03 96.9104 297.951 96.9098C297.918 96.9096 297.91 96.9078 297.938 96.9105C297.952 96.9119 297.976 96.9146 298.013 96.9196C298.031 96.9221 298.053 96.9252 298.078 96.9291C298.09 96.931 298.103 96.9331 298.118 96.9354C298.125 96.9366 298.132 96.9378 298.139 96.9391C298.143 96.9397 298.147 96.9404 298.151 96.941C298.153 96.9413 298.156 96.9418 298.157 96.942C298.16 96.9425 298.163 96.943 297.144 102.856Z" fill="#070707" mask="url(#path-123-inside-23)"/>
</svg>
