<svg width="541" height="433" viewBox="0 0 541 433" fill="none" xmlns="http://www.w3.org/2000/svg">
<g clip-path="url(#clip0)">
<path d="M150.282 400.806H445.871" stroke="#FBD7AD" stroke-miterlimit="10"/>
<path d="M0 402.476L222.604 400.806V51.4924H444.959V400.806H541" stroke="#FBD7AD" stroke-miterlimit="10"/>
<path d="M211.988 106.696C213.398 106.325 214.725 105.675 215.969 104.748C214.725 103.913 213.398 103.263 211.988 102.799C210.578 102.335 209.417 101.129 209.002 99.4591C208.67 97.8819 208.09 96.3974 207.26 95.0057C206.514 96.3974 205.933 97.8819 205.519 99.4591C205.104 101.036 204.026 102.335 202.533 102.799C201.123 103.17 199.713 103.82 198.469 104.748C199.713 105.583 201.04 106.232 202.533 106.696C203.943 107.16 205.104 108.366 205.519 110.036C205.85 111.613 206.431 113.098 207.26 114.489C208.007 113.098 208.587 111.613 209.002 110.036C209.417 108.366 210.495 107.067 211.988 106.696Z" fill="#F7C689"/>
<path d="M217.379 123.211C218.57 123.211 219.535 122.131 219.535 120.798C219.535 119.466 218.57 118.386 217.379 118.386C216.188 118.386 215.222 119.466 215.222 120.798C215.222 122.131 216.188 123.211 217.379 123.211Z" fill="#F7C689"/>
<path d="M404.568 92.8718H266.809V155.127H404.568V92.8718Z" fill="#C2D9F0"/>
<path d="M233.386 137.591L356.216 0.185547" stroke="white" stroke-width="0.5" stroke-miterlimit="10"/>
<path d="M237.947 142.601L360.777 5.19556" stroke="white" stroke-width="0.5" stroke-miterlimit="10"/>
<path d="M242.426 147.612L365.256 10.2057" stroke="white" stroke-width="0.5" stroke-miterlimit="10"/>
<path d="M246.904 152.714L369.734 15.2158" stroke="white" stroke-width="0.5" stroke-miterlimit="10"/>
<path d="M251.383 157.724L374.213 20.3186" stroke="white" stroke-width="0.5" stroke-miterlimit="10"/>
<path d="M255.862 162.735L378.775 25.3287" stroke="white" stroke-width="0.5" stroke-miterlimit="10"/>
<path d="M260.423 167.745L383.253 30.3387" stroke="white" stroke-width="0.5" stroke-miterlimit="10"/>
<path d="M264.902 172.755L387.732 35.3489" stroke="white" stroke-width="0.5" stroke-miterlimit="10"/>
<path d="M269.38 177.857L392.21 40.3589" stroke="white" stroke-width="0.5" stroke-miterlimit="10"/>
<path d="M273.859 182.868L396.772 45.4618" stroke="white" stroke-width="0.5" stroke-miterlimit="10"/>
<path d="M278.338 187.878L401.251 50.4718" stroke="white" stroke-width="0.5" stroke-miterlimit="10"/>
<path d="M282.899 192.981L405.729 55.4819" stroke="white" stroke-width="0.5" stroke-miterlimit="10"/>
<path d="M287.378 197.991L410.208 60.5847" stroke="white" stroke-width="0.5" stroke-miterlimit="10"/>
<path d="M291.856 203.001L414.686 65.5948" stroke="white" stroke-width="0.5" stroke-miterlimit="10"/>
<path d="M296.418 208.011L419.248 70.6049" stroke="white" stroke-width="0.5" stroke-miterlimit="10"/>
<path d="M300.897 213.021L423.727 75.615" stroke="white" stroke-width="0.5" stroke-miterlimit="10"/>
<path d="M305.375 218.124L428.205 80.625" stroke="white" stroke-width="0.5" stroke-miterlimit="10"/>
<path d="M309.854 223.134L432.684 85.7279" stroke="white" stroke-width="0.5" stroke-miterlimit="10"/>
<path d="M314.332 228.144L437.245 90.7379" stroke="white" stroke-width="0.5" stroke-miterlimit="10"/>
<path d="M318.894 233.154L441.724 95.748" stroke="white" stroke-width="0.5" stroke-miterlimit="10"/>
<path d="M323.373 238.257L446.203 100.758" stroke="white" stroke-width="0.5" stroke-miterlimit="10"/>
<path d="M327.851 243.267L450.681 105.861" stroke="white" stroke-width="0.5" stroke-miterlimit="10"/>
<path d="M356.216 243.267L233.386 105.861" stroke="white" stroke-width="0.5" stroke-miterlimit="10"/>
<path d="M360.777 238.257L237.947 100.758" stroke="white" stroke-width="0.5" stroke-miterlimit="10"/>
<path d="M365.256 233.154L242.426 95.748" stroke="white" stroke-width="0.5" stroke-miterlimit="10"/>
<path d="M369.734 228.144L246.904 90.7379" stroke="white" stroke-width="0.5" stroke-miterlimit="10"/>
<path d="M374.213 223.134L251.383 85.7279" stroke="white" stroke-width="0.5" stroke-miterlimit="10"/>
<path d="M378.775 218.124L255.862 80.625" stroke="white" stroke-width="0.5" stroke-miterlimit="10"/>
<path d="M383.253 213.021L260.423 75.615" stroke="white" stroke-width="0.5" stroke-miterlimit="10"/>
<path d="M387.732 208.011L264.902 70.6049" stroke="white" stroke-width="0.5" stroke-miterlimit="10"/>
<path d="M392.21 203.001L269.38 65.5948" stroke="white" stroke-width="0.5" stroke-miterlimit="10"/>
<path d="M396.772 197.991L273.859 60.5847" stroke="white" stroke-width="0.5" stroke-miterlimit="10"/>
<path d="M401.251 192.981L278.338 55.4819" stroke="white" stroke-width="0.5" stroke-miterlimit="10"/>
<path d="M405.729 187.878L282.899 50.4718" stroke="white" stroke-width="0.5" stroke-miterlimit="10"/>
<path d="M410.208 182.868L287.378 45.4618" stroke="white" stroke-width="0.5" stroke-miterlimit="10"/>
<path d="M414.686 177.857L291.856 40.3589" stroke="white" stroke-width="0.5" stroke-miterlimit="10"/>
<path d="M419.248 172.755L296.418 35.3489" stroke="white" stroke-width="0.5" stroke-miterlimit="10"/>
<path d="M423.727 167.745L300.897 30.3387" stroke="white" stroke-width="0.5" stroke-miterlimit="10"/>
<path d="M428.205 162.735L305.375 25.3287" stroke="white" stroke-width="0.5" stroke-miterlimit="10"/>
<path d="M432.684 157.724L309.854 20.3186" stroke="white" stroke-width="0.5" stroke-miterlimit="10"/>
<path d="M437.245 152.714L314.332 15.2158" stroke="white" stroke-width="0.5" stroke-miterlimit="10"/>
<path d="M441.724 147.612L318.894 10.2057" stroke="white" stroke-width="0.5" stroke-miterlimit="10"/>
<path d="M446.203 142.601L323.373 5.19556" stroke="white" stroke-width="0.5" stroke-miterlimit="10"/>
<path d="M450.681 137.591L327.851 0.185547" stroke="white" stroke-width="0.5" stroke-miterlimit="10"/>
<path d="M217.545 199.475C214.061 199.104 210.827 197.248 208.504 194.372C205.602 194.743 201.703 192.609 202.284 188.991L219.452 192.795L230.897 192.609L231.976 208.289L212.568 210.33L211.656 194.836" fill="#B9C6E4"/>
<path d="M215.803 196.413L198.303 194.372C197.474 194.279 196.727 194.929 196.561 195.857C196.478 196.413 196.727 196.97 197.059 197.341C197.391 197.619 197.805 197.805 198.22 197.898C204.523 199.011 210.744 200.31 217.047 201.794" fill="#B9C6E4"/>
<path d="M215.139 200.31L197.64 198.269C196.81 198.176 196.064 198.826 195.898 199.753C195.815 200.31 196.064 200.867 196.396 201.238C196.727 201.516 197.142 201.702 197.557 201.794C203.86 202.908 210.08 204.207 216.383 205.691" fill="#B9C6E4"/>
<path d="M216.715 204.114L197.059 201.794C196.893 202.537 197.059 205.042 199.132 205.598C205.27 207.083 211.49 208.011 217.71 208.382" fill="#B9C6E4"/>
<path d="M217.213 209.774C213.978 209.866 210.827 210.609 207.841 212C207.592 212.186 207.26 212.279 207.012 212.279C206.68 212.279 206.431 212.093 206.348 211.815C206.265 211.444 206.514 211.165 206.68 210.887C208.173 209.124 209.914 207.732 211.905 206.619" fill="#B9C6E4"/>
<path d="M410.125 86.6556H260.589V161.621H410.125V86.6556Z" stroke="#C2D9F0" stroke-miterlimit="10"/>
<path d="M272.698 148.632C269.463 147.055 267.97 142.88 269.38 139.261C269.712 138.426 270.21 137.591 270.79 136.942L272.2 135.458C272.947 134.808 273.527 133.88 273.942 132.952C274.688 130.447 272.864 127.293 272.449 124.788C272.034 121.912 272.283 119.036 273.278 116.345C275.684 109.758 281.987 105.026 287.627 102.15C294.013 98.9026 301.145 98.1603 307.946 100.016C312.093 101.222 316.157 103.542 318.645 107.531C320.055 109.943 320.801 112.727 320.801 115.696C320.801 119.128 319.392 120.891 318.396 123.86C318.065 124.788 318.065 125.901 318.479 126.829C319.06 128.128 320.387 128.592 321.631 129.056L327.768 131.282C331.086 132.489 332.91 136.478 331.832 140.282C331.5 141.303 331.086 142.23 330.422 142.973C328.515 145.199 326.275 147.055 323.87 148.539C318.811 151.601 313.088 153.086 307.449 154.384C303.633 155.312 285.47 154.756 272.698 148.632Z" fill="#4B4065"/>
<path d="M288.788 163.384L290.529 137.128L288.456 137.22C284.724 137.499 281.489 134.251 281.157 130.076L280.411 118.108C280.411 116.809 280.577 115.51 280.743 114.304C281.821 107.624 285.304 103.634 290.612 101.779C295.506 100.109 301.56 99.552 307.117 102.985C319.226 110.407 310.268 123.953 304.795 129.241L309.107 148.725L290.695 176.93L288.788 163.384Z" fill="#B9C6E4"/>
<path d="M305.541 132.303C304.878 129.984 304.546 127.293 303.965 124.973C305.458 124.417 306.785 123.489 307.863 122.19C308.941 120.891 309.356 119.128 308.941 117.366C308.444 115.696 306.951 114.582 305.375 114.675C304.546 114.768 303.799 115.046 303.219 115.603C302.472 116.252 302.638 116.902 302.141 117.644C301.975 118.015 301.56 118.293 301.145 118.293C300.731 118.201 300.316 117.922 300.15 117.551C299.984 117.087 299.901 116.623 299.818 116.159C299.404 113.747 298.574 111.52 297.33 109.572C291.69 100.758 280.494 106.232 279.913 113.654C280.826 109.108 283.314 105.211 286.963 102.985C290.529 100.851 294.51 99.7375 298.574 99.6448C302.306 99.4592 306.287 99.8303 309.522 101.871C314.332 104.933 316.82 111.613 316.074 117.737C315.328 123.953 310.268 129.148 305.541 132.303Z" fill="#4B4065"/>
<path d="M289.285 219.794L278.835 226.938L268.053 227.68L260.755 226.288C260.755 226.288 258.018 229.814 270.044 234.638C270.707 234.917 270.956 235.659 270.79 236.401C270.707 236.772 270.376 237.051 270.044 237.236L260.008 241.504L253.788 244.009C252.876 244.38 252.461 245.493 252.793 246.421C252.959 246.792 253.125 247.163 253.456 247.349L264.072 244.937L283.231 240.669L292.271 236.03" fill="#B9C6E4"/>
<path d="M389.888 358.498L399.509 360.261C400.753 360.447 401.914 361.096 402.744 362.117C403.988 363.601 404.402 365.735 403.822 367.684L391.049 411.939L387.317 410.547L388.81 390.507L383.917 377.24L389.888 358.498Z" fill="#F7C689"/>
<path d="M401.748 377.796C401.748 377.796 390.137 377.611 385.907 385.868L386.322 397.744L385.078 405.909C384.58 408.414 384.995 411.104 386.405 413.238L388.727 416.856C388.561 416.856 392.128 415.001 401.748 377.796Z" fill="#EF749B"/>
<path d="M404.36 362.167L388.501 416.983L392.21 418.325L408.068 363.51L404.36 362.167Z" fill="#EF749B"/>
<path d="M379.853 406.094C381.595 406.744 383.502 406.001 384.58 404.424C386.903 401.084 385.161 393.847 380.765 396.074C377.365 397.744 375.623 404.331 379.853 406.094Z" fill="#C2D9F0"/>
<path opacity="0.21" d="M290.363 137.128L297.994 135.272C295.423 138.798 292.437 142.509 289.866 146.034" fill="#495894"/>
<path d="M289.866 148.818L280.079 149.838C276.264 150.58 273.03 154.013 271.122 157.817L255.115 188.991H227.414L230.151 211.072L263.824 209.588C267.39 209.402 270.707 207.268 272.532 203.743L291.442 167.373" fill="#F27932"/>
<path d="M293.432 210.608L285.719 403.125L329.261 406.094L318.562 208.846L293.432 210.608Z" fill="#4B4065"/>
<path d="M307.449 240.854L306.039 327.417L378.111 394.218L390.883 357.199L343.692 310.624L341.121 250.782L343.609 240.019C344.107 237.886 344.024 235.659 343.277 233.618L334.071 207.083L306.122 209.124L307.449 240.854Z" fill="#4B4065"/>
<path d="M287.295 161.528L282.484 173.126C280.992 176.837 281.738 181.198 284.392 183.981L291.442 191.311L292.852 203.928C292.769 205.042 293.515 210.609 293.515 210.609L334.403 208.66L312.425 147.519L309.024 147.704L293.1 172.291L289.949 148.91" fill="#F27932"/>
<path d="M312.342 147.426L325.446 152.9C328.1 154.013 330.173 156.426 331.003 159.395L344.687 206.526C346.014 210.98 344.19 215.897 340.375 218.031L293.847 247.442L283.646 222.206L291.193 218.216L321.465 199.29L311.181 169.507" fill="#F27932"/>
<path d="M297.247 117.737C295.091 115.046 291.442 114.861 289.036 117.366C288.207 118.201 287.627 119.221 287.378 120.427C290.861 121.633 294.676 120.613 297.247 117.737Z" fill="white"/>
<path d="M287.378 120.335C288.29 116.902 291.442 114.861 294.51 115.881C295.589 116.252 296.501 116.902 297.247 117.737" stroke="#4B4065" stroke-miterlimit="10"/>
<path d="M284.309 120.427L283.065 122.283C282.733 122.747 282.816 123.489 283.314 123.86C283.397 123.953 283.48 123.953 283.48 123.953C283.977 124.231 284.475 124.417 284.973 124.602" stroke="#4B4065" stroke-miterlimit="10"/>
<path d="M293.017 118.943C293.1 117.829 292.852 116.716 292.271 115.696C292.022 115.696 291.773 115.788 291.525 115.788C289.451 116.345 287.875 118.108 287.295 120.335C288.954 120.984 290.778 121.077 292.52 120.613C292.852 120.056 293.017 119.5 293.017 118.943Z" fill="#4B4065"/>
<path d="M295.754 112.17C293.598 110.036 290.281 110.222 288.373 112.634C288.373 112.634 288.373 112.634 288.29 112.727C290.944 112.541 293.183 112.355 295.754 112.17Z" fill="#4B4065" stroke="#4B4065" stroke-width="0.25" stroke-linejoin="round"/>
<path d="M286.465 129.334C289.119 128.87 289.783 127.478 291.608 125.252L284.226 125.901V129.334H286.465Z" fill="white"/>
<path d="M287.295 161.528L282.484 173.126C280.992 176.837 281.738 181.198 284.392 183.981L291.442 191.311L293.515 210.701" stroke="#ED4F2E" stroke-miterlimit="10"/>
<path d="M280.328 120.706C280.66 120.334 280.909 119.871 280.992 119.314C281.075 118.572 280.909 117.737 280.494 117.18C280.494 116.809 280.494 116.531 280.577 116.159C281.489 116.902 281.904 118.201 281.738 119.499C281.572 120.427 281.075 121.169 280.328 121.633C280.245 121.355 280.328 121.077 280.328 120.706Z" fill="#4B4065"/>
<path d="M326.607 356.828L313.503 334.376L326.607 346.437V356.828Z" fill="#231F20"/>
<path d="M307.449 240.854L306.039 327.325" stroke="#231F20" stroke-miterlimit="10"/>
<path d="M9.1231 391.713L222.604 390.136" stroke="#FBD7AD" stroke-miterlimit="10"/>
<path d="M444.212 390.136H532.126" stroke="#FBD7AD" stroke-miterlimit="10"/>
<path d="M291.359 218.216L321.631 199.289L311.43 169.507" stroke="#ED4F2E" stroke-miterlimit="10"/>
<path d="M315.825 233.618L340.955 227.03L338.301 219.33L315.825 233.618Z" fill="#4B4065"/>
<path d="M321.88 405.352L323.373 415.186C323.621 416.578 323.455 417.97 322.792 419.176C321.88 420.939 320.221 422.052 318.396 422.052H276.845V417.691L294.344 413.145L304.214 404.424L321.88 405.352Z" fill="#F7C689"/>
<path d="M309.19 422.98C309.19 422.98 305.79 410.547 297.413 408.599L287.461 412.681L280.079 413.888C277.757 414.073 275.684 415.465 274.274 417.506L271.868 421.031C271.951 420.939 274.605 424.186 309.19 422.98Z" fill="#EF749B"/>
<path d="M323.455 420.939H271.951V425.299H323.455V420.939Z" fill="#EF749B"/>
<path d="M278.421 408.414C278.421 410.455 279.582 412.31 281.323 412.96C284.807 414.351 290.529 410.362 287.295 406.28C284.807 403.218 278.586 403.311 278.421 408.414Z" fill="#C2D9F0"/>
<path d="M119.596 404.702L120.757 418.712L140.496 423.537C142.735 424.093 144.56 425.856 145.389 428.268L146.218 430.681L97.1196 429.938C95.1291 429.846 93.5533 427.99 93.6362 425.67C93.6362 425.578 93.6362 425.578 93.6362 425.485L94.7144 404.61" fill="#FBD7AD"/>
<path d="M147.711 432.072L92.2263 431.144L91.8945 419.825L106.574 419.361C108.482 418.434 109.892 416.578 111.219 414.723C112.546 412.867 113.873 411.011 115.78 409.991C117.688 408.97 120.093 408.785 121.586 410.362C122.25 412.774 123.079 415.558 123.66 417.97C129.631 419.083 135.934 420.66 141.989 421.959C143.482 422.238 144.891 423.258 145.804 424.65C147.131 426.784 147.545 429.382 148.292 431.144C148.458 431.423 148.292 431.887 148.043 431.979C147.877 432.072 147.794 432.072 147.711 432.072Z" fill="white" stroke="#B9C6E4" stroke-miterlimit="10"/>
<path d="M98.0319 166.538L88.4112 202.444C86.9183 208.103 89.0747 214.041 93.5533 216.361L119.43 224.896L123.577 205.413L111.302 199.104L120.093 174.054L98.0319 166.538Z" fill="#FBD7AD"/>
<path d="M165.377 405.259L166.538 419.083L186.277 423.908C188.516 424.464 190.341 426.227 191.17 428.639L192 431.052L142.818 430.217C140.828 430.124 139.252 428.268 139.335 425.949C139.335 425.856 139.335 425.856 139.335 425.763L140.413 405.816" fill="#FBD7AD"/>
<path d="M193.493 432.536L138.008 431.515L137.676 420.196L152.273 419.733C154.18 418.805 155.59 416.949 156.917 415.094C158.244 413.238 159.571 411.382 161.479 410.362C163.386 409.341 165.792 409.156 167.367 410.733C168.031 413.145 168.86 415.929 169.441 418.341C175.412 419.454 181.716 421.124 187.77 422.33C189.263 422.609 190.673 423.629 191.585 425.021C192.912 427.062 193.327 429.753 194.073 431.515C194.239 431.794 194.073 432.165 193.824 432.351C193.659 432.536 193.576 432.536 193.493 432.536Z" fill="white" stroke="#B9C6E4" stroke-miterlimit="10"/>
<path d="M94.2168 171.827L102.676 145.756C104.75 139.447 110.058 135.272 116.112 135.179L155.01 135.086C161.562 135.086 167.285 140.004 168.943 147.148L172.261 171.734L149.37 175.631L154.678 207.083L109.063 202.908L109.975 177.486L94.2168 171.827Z" fill="#EF749B"/>
<path d="M126.811 135.272L130.543 119.499L124.821 110.964L150.117 93.1501L157.664 118.293C158.161 119.963 157.332 121.726 155.922 122.283C155.59 122.376 155.342 122.468 155.01 122.468L148.458 122.376L150.282 135.272" fill="#FBD7AD"/>
<path d="M124.323 112.912L118.766 105.304C117.522 103.356 117.356 100.944 118.352 98.8097L122.83 88.8824C124.655 84.8001 128.553 82.3878 132.617 82.9445L144.311 84.3362C146.301 84.5217 148.043 86.0062 148.872 88.0473L150.365 92.0368" fill="#495894"/>
<path d="M139.169 110.964L132.7 114.953L134.11 108.83L139.169 110.964Z" fill="#F7C689"/>
<path d="M152.024 102.985L156.42 105.304C157 105.583 157.249 106.418 157 107.067C156.917 107.16 156.917 107.253 156.834 107.345L154.595 110.314" fill="#FBD7AD"/>
<path d="M149.536 92.5008L165.128 89.2535" stroke="#495894" stroke-miterlimit="10"/>
<path d="M148.541 92.779C145.057 95.4696 141.74 98.253 138.256 100.944C139.169 102.243 140.579 102.985 142.072 102.892C143.647 102.706 144.974 101.593 145.721 100.109C149.951 102.799 155.507 103.356 158.659 98.6241C160.152 96.3974 160.65 93.5213 160.069 90.8307L148.541 92.779Z" fill="#4B4065"/>
<path d="M124.821 110.964L123.245 117.458C125.899 119.499 129.299 119.407 131.87 117.18C134.275 115.046 134.69 107.531 133.446 104.376" fill="#4B4065"/>
<path d="M141.159 105.026C140.496 102.428 138.256 100.665 135.851 100.851C133.529 101.129 131.622 104.005 132.202 106.51C132.617 108.088 133.695 109.294 135.022 109.943C136.349 110.593 137.759 110.871 139.252 110.964" fill="#FBD7AD"/>
<path opacity="0.49" d="M140.662 114.118C142.998 114.118 144.891 112 144.891 109.387C144.891 106.773 142.998 104.655 140.662 104.655C138.326 104.655 136.432 106.773 136.432 109.387C136.432 112 138.326 114.118 140.662 114.118Z" fill="#EF749B"/>
<path d="M148.872 109.386C150.614 111.149 152.936 111.892 155.176 111.335" stroke="#495894" stroke-miterlimit="10" stroke-linecap="round" stroke-linejoin="round"/>
<path d="M148.375 122.376L142.569 121.262L149.121 126.922" fill="#F7C689"/>
<path d="M145.14 175.724L142.32 154.848" stroke="#E44E85" stroke-miterlimit="10"/>
<path d="M109.145 203.093L101.266 243.36L97.0366 318.418L88.4112 404.888L123.66 404.702L134.939 271.008L141.989 293.924L135.602 406.651L167.036 405.352L176.739 312.016C178.481 296.986 177.154 281.77 173.007 267.389L155.259 206.433L109.145 203.093Z" fill="#B9C6E4"/>
<path d="M154.595 213.949L107.487 210.608L109.145 203.093L155.01 206.341L154.595 213.949Z" fill="#495894"/>
<path d="M141.989 293.924L124.821 237.514L116.859 236.958" stroke="#495894" stroke-miterlimit="10"/>
<path d="M112.878 228.608L108.814 242.153C107.653 245.957 104.418 248.37 100.935 248.091" stroke="#495894" stroke-miterlimit="10"/>
<path opacity="0.46" d="M142.735 230.649L161.894 289.749L152.77 405.445" stroke="#495894" stroke-miterlimit="10" stroke-dasharray="4 4"/>
<path d="M497.043 388.188C496.048 382.621 492.15 377.054 487.257 375.477C482.197 373.9 476.807 375.57 473.24 379.745C473.24 372.137 470.006 364.9 464.615 360.261C459.307 355.808 452.34 354.416 445.954 356.55" stroke="#C2D9F0" stroke-miterlimit="10"/>
<path d="M472.908 375.941L484.105 334.098" stroke="#C2D9F0" stroke-miterlimit="10"/>
<path d="M473.157 379.745L503.015 343.283" stroke="#C2D9F0" stroke-miterlimit="10"/>
<path d="M484.105 338.087C486.075 338.087 487.671 336.301 487.671 334.097C487.671 331.894 486.075 330.108 484.105 330.108C482.135 330.108 480.539 331.894 480.539 334.097C480.539 336.301 482.135 338.087 484.105 338.087Z" fill="#F7C689"/>
<path d="M503.927 346.066C505.897 346.066 507.493 344.28 507.493 342.076C507.493 339.873 505.897 338.087 503.927 338.087C501.957 338.087 500.361 339.873 500.361 342.076C500.361 344.28 501.957 346.066 503.927 346.066Z" fill="#F7C689"/>
<path d="M478.88 354.88C476.889 343.468 464.946 336.881 462.873 325.469C461.214 331.036 461.795 337.159 464.532 342.169C467.6 347.922 473.655 351.447 478.88 354.88Z" fill="#C2D9F0"/>
<path d="M410.125 257.184C415.942 257.184 420.658 251.908 420.658 245.401C420.658 238.893 415.942 233.618 410.125 233.618C404.308 233.618 399.592 238.893 399.592 245.401C399.592 251.908 404.308 257.184 410.125 257.184Z" fill="#FBD7AD"/>
<path d="M499.034 229.443H463.537V243.731H499.034V229.443Z" stroke="#FBD7AD" stroke-miterlimit="10"/>
<path d="M514.875 243.731H479.378V258.019H514.875V243.731Z" stroke="#FBD7AD" stroke-miterlimit="10"/>
<path d="M44.6203 319.81H9.1231V334.098H44.6203V319.81Z" stroke="#FBD7AD" stroke-miterlimit="10"/>
<path d="M80.1174 319.81H44.6203V334.098H80.1174V319.81Z" stroke="#FBD7AD" stroke-miterlimit="10"/>
<path d="M62.12 334.098H26.6229V348.385H62.12V334.098Z" stroke="#FBD7AD" stroke-miterlimit="10"/>
<path d="M209.997 238.257H174.5V252.545H209.997V238.257Z" stroke="#FBD7AD" stroke-miterlimit="10"/>
<path d="M485.847 213.114H515.87" stroke="#FBD7AD" stroke-miterlimit="10"/>
<path d="M44.952 267.668H74.9753" stroke="#FBD7AD" stroke-miterlimit="10"/>
<path d="M487.423 75.5221H166.787L197.142 20.6897L514.875 22.3597L487.423 75.5221Z" fill="#FBD7AD"/>
<path d="M171.017 70.2337C176.325 72.7388 178.232 78.3055 186.526 78.3055C197.225 78.3055 197.225 69.0276 207.924 69.0276C218.623 69.0276 218.623 78.3055 229.322 78.3055C240.021 78.3055 240.021 69.0276 250.719 69.0276C261.418 69.0276 261.418 78.3055 272.117 78.3055C282.816 78.3055 282.816 69.0276 293.515 69.0276C304.214 69.0276 304.214 78.3055 314.913 78.3055C325.612 78.3055 325.612 69.0276 336.311 69.0276C347.01 69.0276 347.01 78.3055 357.709 78.3055C368.408 78.3055 368.408 69.0276 379.106 69.0276C389.805 69.0276 389.805 78.3055 400.504 78.3055C411.203 78.3055 411.203 69.0276 421.902 69.0276C432.601 69.0276 432.601 78.3055 443.3 78.3055C453.999 78.3055 453.999 69.0276 464.698 69.0276C475.397 69.0276 475.397 78.3055 486.096 78.3055" stroke="#F27932" stroke-miterlimit="10"/>
<path d="M184.867 44.1628C190.175 46.6678 192.083 52.2346 200.294 52.2346C210.992 52.2346 210.992 42.9567 221.691 42.9567C232.39 42.9567 232.39 52.2346 243.089 52.2346C253.788 52.2346 253.788 42.9567 264.487 42.9567C275.186 42.9567 275.186 52.2346 285.885 52.2346C296.584 52.2346 296.584 42.9567 307.283 42.9567C317.982 42.9567 317.982 52.2346 328.68 52.2346C339.379 52.2346 339.379 42.9567 350.078 42.9567C360.777 42.9567 360.777 52.2346 371.476 52.2346C382.175 52.2346 382.175 42.9567 392.874 42.9567C403.573 42.9567 403.573 52.2346 414.272 52.2346C424.971 52.2346 424.971 42.9567 435.67 42.9567C446.369 42.9567 446.369 52.2346 457.067 52.2346C467.766 52.2346 467.766 42.9567 478.465 42.9567C489.164 42.9567 489.164 52.2346 499.863 52.2346" stroke="#F27932" stroke-miterlimit="10"/>
<path d="M198.635 18.0919C203.943 20.5969 205.85 26.1637 214.144 26.1637C224.843 26.1637 224.843 16.8857 235.542 16.8857C246.241 16.8857 246.241 26.1637 256.94 26.1637C267.639 26.1637 267.639 16.8857 278.338 16.8857C289.036 16.8857 289.036 26.1637 299.735 26.1637C310.434 26.1637 310.434 16.8857 321.05 16.8857C331.666 16.8857 331.749 26.1637 342.448 26.1637C353.147 26.1637 353.147 16.8857 363.846 16.8857C374.545 16.8857 374.545 26.1637 385.244 26.1637C395.943 26.1637 395.943 16.8857 406.642 16.8857C417.34 16.8857 417.34 26.1637 428.039 26.1637C438.738 26.1637 438.738 16.8857 449.437 16.8857C460.136 16.8857 460.136 26.1637 470.835 26.1637C481.534 26.1637 481.534 16.8857 492.233 16.8857C502.932 16.8857 502.932 26.1637 513.631 26.1637" stroke="#F27932" stroke-miterlimit="10"/>
<path d="M298.574 92.2224C298.408 93.7068 298.989 95.1913 300.067 96.1191C303.551 99.5519 313.088 102.614 311.264 93.9852C310.02 88.4184 299.818 85.4495 298.574 92.2224Z" fill="#4B4065"/>
<path opacity="0.46" d="M209.417 194.836C210.91 198.362 213.978 200.774 217.462 201.145" stroke="#495894" stroke-width="0.75" stroke-miterlimit="10"/>
<path opacity="0.46" d="M197.723 197.991L211.656 199.382" stroke="#495894" stroke-width="0.75" stroke-miterlimit="10"/>
<path opacity="0.46" d="M197.308 201.887L212.237 203.557" stroke="#495894" stroke-width="0.75" stroke-miterlimit="10"/>
<path d="M248.978 150.302H169.275V207.732H248.978V150.302Z" fill="#F7C689" stroke="#F27932" stroke-miterlimit="10"/>
<path d="M202.035 151.323H184.204V173.868H202.035V151.323Z" fill="white"/>
<path d="M249.061 150.302H220.53V207.732H249.061V150.302Z" fill="#F7C689" stroke="#F27932" stroke-miterlimit="10"/>
<path d="M171.68 205.042L245.08 123.025" stroke="#F27932" stroke-miterlimit="10"/>
<path d="M174.334 208.103L247.734 125.994" stroke="#F27932" stroke-miterlimit="10"/>
<path d="M177.071 211.072L250.388 129.056" stroke="#F27932" stroke-miterlimit="10"/>
<path d="M179.725 214.134L253.125 132.025" stroke="#F27932" stroke-miterlimit="10"/>
<path d="M182.379 217.103L255.779 134.994" stroke="#F27932" stroke-miterlimit="10"/>
<path d="M185.116 220.072L258.433 138.055" stroke="#F27932" stroke-miterlimit="10"/>
<path d="M187.77 223.134L261.17 141.024" stroke="#F27932" stroke-miterlimit="10"/>
<path d="M190.507 226.103L263.824 143.993" stroke="#F27932" stroke-miterlimit="10"/>
<path d="M193.161 229.072L266.56 147.055" stroke="#F27932" stroke-miterlimit="10"/>
<path d="M195.815 232.133L269.214 150.024" stroke="#F27932" stroke-miterlimit="10"/>
<path d="M198.552 235.102L271.868 153.085" stroke="#F27932" stroke-miterlimit="10"/>
<path d="M201.206 238.164L274.605 156.054" stroke="#F27932" stroke-miterlimit="10"/>
<path d="M203.943 241.133L277.259 159.023" stroke="#F27932" stroke-miterlimit="10"/>
<path d="M206.597 244.102L279.996 162.085" stroke="#F27932" stroke-miterlimit="10"/>
<path d="M209.251 247.163L282.65 165.054" stroke="#F27932" stroke-miterlimit="10"/>
<path d="M211.988 250.132L285.304 168.116" stroke="#F27932" stroke-miterlimit="10"/>
<path d="M214.642 253.194L288.041 171.085" stroke="#F27932" stroke-miterlimit="10"/>
<path d="M217.296 256.163L290.695 174.053" stroke="#F27932" stroke-miterlimit="10"/>
<path d="M220.033 259.132L293.432 177.115" stroke="#F27932" stroke-miterlimit="10"/>
<path d="M222.687 262.194L296.086 180.084" stroke="#F27932" stroke-miterlimit="10"/>
<path d="M225.424 265.163L298.74 183.146" stroke="#F27932" stroke-miterlimit="10"/>
<path d="M228.078 268.131L301.477 186.115" stroke="#F27932" stroke-miterlimit="10"/>
<path d="M148.043 174.889L153.849 222.299C154.429 227.123 157.913 230.834 162.225 231.484C165.128 231.855 220.033 214.876 220.033 214.876L237.532 211.815C237.781 209.31 236.205 207.083 234.049 206.805L212.734 206.619L210.329 196.413C209.748 193.816 207.758 191.867 205.353 191.496L205.685 207.361L171.763 207.825L169.109 169.879" fill="#FBD7AD"/>
<path d="M142.818 103.541C144.228 101.407 146.882 100.944 148.79 102.428C149.536 102.985 150.034 103.913 150.365 104.84C147.628 106.139 144.891 105.304 142.818 103.541Z" fill="white"/>
<path d="M148.234 106.97C149.516 106.954 150.542 105.57 150.525 103.88C150.509 102.189 149.455 100.831 148.173 100.847C146.89 100.863 145.865 102.247 145.881 103.938C145.898 105.628 146.952 106.986 148.234 106.97Z" fill="#4B4065"/>
</g>
<defs>
<clipPath id="clip0">
<path d="M0 0H541V433H0V0Z" fill="white"/>
</clipPath>
</defs>
</svg>
