<svg width="416" height="302" viewBox="0 0 416 302" fill="none" xmlns="http://www.w3.org/2000/svg">
<path d="M400.211 121H206.724C198.04 121 191 128.04 191 136.724V285.858C191 294.542 198.04 301.582 206.724 301.582H400.211C408.896 301.582 415.936 294.542 415.936 285.858V136.724C415.936 128.04 408.896 121 400.211 121Z" fill="#F5EBDD"/>
<path d="M399.075 122.39C403.195 122.39 407.146 124.025 410.059 126.935C412.972 129.845 414.609 133.793 414.609 137.908V285.092C414.609 289.207 412.972 293.155 410.059 296.065C407.146 298.975 403.195 300.61 399.075 300.61H207.925C203.805 300.61 199.854 298.975 196.941 296.065C194.028 293.155 192.391 289.207 192.391 285.092V137.908C192.391 133.793 194.028 129.845 196.941 126.935C199.854 124.025 203.805 122.39 207.925 122.39H399.075ZM399.075 121H207.925C203.438 121.005 199.136 122.787 195.962 125.957C192.789 129.127 191.005 133.425 191 137.908V285.092C191.005 289.575 192.789 293.873 195.962 297.043C199.136 300.213 203.438 301.995 207.925 302H399.075C403.562 301.995 407.864 300.213 411.038 297.043C414.211 293.873 415.995 289.575 416 285.092V137.908C415.995 133.425 414.211 129.127 411.038 125.957C407.864 122.787 403.562 121.005 399.075 121Z" fill="white"/>
<path d="M209.211 1H15.7244C7.04004 1 0 8.04003 0 16.7244V165.858C0 174.542 7.04004 181.582 15.7244 181.582H209.211C217.896 181.582 224.936 174.542 224.936 165.858V16.7244C224.936 8.04003 217.896 1 209.211 1Z" fill="#F5EBDD"/>
<path d="M208.999 1.39731C213.138 1.39731 217.106 3.04135 220.033 5.96776C222.959 8.89417 224.603 12.8632 224.603 17.0018V164.998C224.603 169.137 222.959 173.106 220.033 176.032C217.106 178.959 213.138 180.603 208.999 180.603H17.0006C12.8624 180.603 8.89357 178.959 5.96736 176.032C3.04115 173.106 1.39722 169.137 1.39722 164.998V17.0018C1.39722 12.8632 3.04115 8.89417 5.96736 5.96776C8.89357 3.04135 12.8624 1.39731 17.0006 1.39731H208.999ZM208.999 0H17.0006C12.4932 0.0046238 8.17172 1.79737 4.98448 4.98482C1.79724 8.17228 0.00462349 12.4941 0 17.0018V164.998C0.00462349 169.506 1.79724 173.828 4.98448 177.015C8.17172 180.203 12.4932 181.995 17.0006 182H208.999C213.507 181.995 217.828 180.203 221.016 177.015C224.203 173.828 225.995 169.506 226 164.998V17.0018C225.995 12.4941 224.203 8.17228 221.016 4.98482C217.828 1.79737 213.507 0.0046238 208.999 0Z" fill="white"/>
<path d="M178.332 29.9995H68.7612C61.7646 29.9995 56.0928 35.6714 56.0928 42.668V152.238C56.0928 159.235 61.7646 164.907 68.7612 164.907H178.332C185.328 164.907 191 159.235 191 152.238V42.668C191 35.6714 185.328 29.9995 178.332 29.9995Z" fill="#C5DCDD" stroke="black" stroke-width="3" stroke-linecap="round" stroke-linejoin="round"/>
<path d="M163.239 18H53.6685C46.6719 18 41 23.6719 41 30.6685V140.239C41 147.235 46.6719 152.907 53.6685 152.907H163.239C170.235 152.907 175.907 147.235 175.907 140.239V30.6685C175.907 23.6719 170.235 18 163.239 18Z" fill="#F4F1ED" stroke="#070707" stroke-width="3" stroke-linecap="round" stroke-linejoin="round"/>
<path d="M129.686 54.0847H58.2654V109.248H129.686V54.0847Z" fill="#F4F1ED" stroke="#070707" stroke-width="3" stroke-linecap="round" stroke-linejoin="round"/>
<path d="M159.93 109.255H129.686V67.8752H144.808L159.93 89.7807V109.255Z" fill="#F4F1ED" stroke="#070707" stroke-width="3" stroke-linecap="round" stroke-linejoin="round"/>
<path d="M135.161 75.5369H142.88L150.599 86.7162H135.161V75.5369Z" fill="#F4F1ED" stroke="#070707" stroke-width="3" stroke-linecap="round" stroke-linejoin="round"/>
<path d="M79.3363 117.549C83.6193 117.549 87.0913 114.077 87.0913 109.794C87.0913 105.511 83.6193 102.039 79.3363 102.039C75.0533 102.039 71.5813 105.511 71.5813 109.794C71.5813 114.077 75.0533 117.549 79.3363 117.549Z" fill="#EFAF00" stroke="black" stroke-width="3" stroke-linecap="round" stroke-linejoin="round"/>
<path d="M144.707 117.549C148.99 117.549 152.462 114.077 152.462 109.794C152.462 105.511 148.99 102.039 144.707 102.039C140.424 102.039 136.952 105.511 136.952 109.794C136.952 114.077 140.424 117.549 144.707 117.549Z" fill="#EFAF00" stroke="black" stroke-width="3" stroke-linecap="round" stroke-linejoin="round"/>
<path d="M115.349 67.8752H92.573" stroke="#070707" stroke-width="3" stroke-linecap="round" stroke-linejoin="round"/>
<path d="M107.134 77.2993H84.3577" stroke="#070707" stroke-width="3" stroke-linecap="round" stroke-linejoin="round"/>
<path d="M115.349 86.7161H92.573" stroke="#070707" stroke-width="3" stroke-linecap="round" stroke-linejoin="round"/>
<path d="M330.153 150.032C329.7 149.306 328.732 149.095 328.006 149.548C327.946 149.579 327.915 149.609 327.885 149.639L327.794 153.843V153.873L329.881 152.058C330.456 151.544 330.577 150.667 330.153 150.032Z" fill="#B9C6E4"/>
<path d="M288.752 173.772L288.903 180.062L296.857 179.639L295.587 168.571L292.623 164.125L287.421 169.145L288.752 173.772Z" fill="#B9C6E4"/>
<path d="M231.202 225.395C231.202 207.311 251.01 192.643 275.415 192.643C299.821 192.643 319.629 207.311 319.629 225.395C319.629 243.48 299.821 258.147 275.415 258.147V269.186C275.415 269.76 274.931 270.244 274.357 270.244C274.145 270.244 273.903 270.184 273.752 270.032L247.411 250.708C237.492 244.72 231.202 235.587 231.202 225.395Z" stroke="#B9C6E4" stroke-miterlimit="10"/>
<path d="M288.782 229.115C290.319 229.115 291.564 227.869 291.564 226.333C291.564 224.796 290.319 223.55 288.782 223.55C287.246 223.55 286 224.796 286 226.333C286 227.869 287.246 229.115 288.782 229.115Z" fill="#B9C6E4"/>
<path d="M275.415 229.115C276.952 229.115 278.198 227.869 278.198 226.333C278.198 224.796 276.952 223.55 275.415 223.55C273.879 223.55 272.633 224.796 272.633 226.333C272.633 227.869 273.879 229.115 275.415 229.115Z" fill="#B9C6E4"/>
<path d="M262.018 229.115C263.555 229.115 264.8 227.869 264.8 226.333C264.8 224.796 263.555 223.55 262.018 223.55C260.482 223.55 259.236 224.796 259.236 226.333C259.236 227.869 260.482 229.115 262.018 229.115Z" fill="#B9C6E4"/>
<path d="M291.202 158.893V175.829C291.202 176.464 290.688 176.978 290.052 176.978C289.417 176.978 288.903 176.464 288.903 175.829V158.893" fill="#FBD7AD"/>
<path d="M318.722 167.875L318.631 156.776H325.466L328.944 166.091" fill="#B9C6E4"/>
<path d="M325.466 156.776H318.631L318.661 160.345C319.841 161.222 321.292 161.675 322.774 161.615C324.196 161.554 325.587 161.04 326.675 160.103L325.466 156.776Z" fill="#495894"/>
<path d="M336.565 276.02L336.413 282.008L330.788 285.123C330.788 285.123 328.823 280.647 328.853 280.587C328.883 280.526 329.518 271.061 329.518 271.061L336.565 276.02Z" fill="#B9C6E4"/>
<path d="M321.716 159.952C318.661 159.952 315.214 157.411 314.972 153.903L314.518 148.641C314.246 145.647 316.454 143.016 319.448 142.744C319.629 142.744 319.78 142.714 319.962 142.714H322.895C326.071 142.714 328.278 145.435 328.006 148.611L327.885 153.873C327.734 157.2 324.135 159.952 321.716 159.952Z" fill="#B9C6E4"/>
<path d="M317.966 169.115V165.758L328.157 162.855L329.942 166.484L342.22 165.788C344.73 165.637 347.058 166.968 348.238 169.175L357.855 187.441C358.944 189.498 359.125 191.917 358.308 194.125L349.629 218.318L342.371 212.633L347.331 191.524L339.861 179.911L338.47 200.022L317.996 197.875L314.458 190.587L301.665 204.589C299.851 206.796 296.585 207.129 294.377 205.314C293.833 204.861 293.379 204.286 293.046 203.651L287.724 178.187L296.917 177.704L299.79 190.617L306.897 175.284C308.016 173.167 309.952 171.564 312.28 170.869L317.966 169.115Z" fill="#F7C689"/>
<path d="M317.875 197.663L315.304 204.861C313.883 208.792 313.308 212.966 313.581 217.139L317.875 282.643H331.605L330.032 266.766L328.248 215.113L336.262 241.302L329.942 265.919L330.516 271.726L339.256 279.226L349.871 246.444C350.687 243.933 350.718 241.242 349.962 238.702L338.439 200.113L317.875 197.663Z" fill="#495894"/>
<path d="M315.304 192.371L310.829 181.514" stroke="#F27932" stroke-miterlimit="10"/>
<path d="M301.838 152.035C303.381 145.501 299.335 138.953 292.8 137.41C286.266 135.867 279.718 139.914 278.175 146.448C276.632 152.982 280.679 159.53 287.213 161.073C293.747 162.616 300.295 158.57 301.838 152.035Z" fill="white" stroke="#FBD7AD" stroke-miterlimit="9.9984"/>
<path d="M312.643 150.063C313.097 149.337 314.065 149.125 314.79 149.579C314.851 149.609 314.881 149.639 314.911 149.669L315.002 153.873V153.903L312.915 152.089C312.341 151.575 312.22 150.698 312.643 150.063Z" fill="#B9C6E4"/>
<path d="M329.246 207.673L328.248 216.05" stroke="white" stroke-miterlimit="10"/>
<path d="M328.49 213.994L331.998 214.085" stroke="white" stroke-miterlimit="10"/>
<path d="M314.79 151.575L314.155 146.766C314.064 145.042 315.123 143.44 316.756 142.865L319.266 141.958L318.238 140.93C320.143 139.992 322.29 139.659 324.407 139.901C326.706 140.173 328.399 142.139 328.369 144.468L328.006 150.577L327.704 148.218C327.28 146.192 325.435 144.801 323.379 144.952L318.903 145.254C316.877 145.375 315.244 146.948 315.032 148.974L314.911 150.063L314.79 151.575Z" fill="#4B4065"/>
<path d="M342.976 213.147C342.976 213.147 341.192 218.409 340.98 219.014C340.98 219.014 342.099 219.286 343.49 216.958L347.452 230.234C348.177 229.659 348.571 228.752 348.54 227.845C348.54 226.212 348.268 221.706 348.268 221.706L349.629 218.379" fill="#B9C6E4"/>
<path d="M319.478 154.992C320.657 154.992 322.532 154.901 323.681 154.901C323.409 155.445 322.986 155.929 322.502 156.292C322.018 156.595 321.444 156.655 320.899 156.443C320.385 156.232 319.538 155.445 319.478 154.992Z" fill="white"/>
<path d="M299.609 189.649L301.181 194.669" stroke="#F27932" stroke-miterlimit="10"/>
<path d="M347.3 191.554L351.776 192.794" stroke="#F27932" stroke-miterlimit="10"/>
<path d="M312.22 193.067L311.161 182.421L314.427 190.617L312.22 193.067Z" fill="#F27932"/>
<path d="M317.966 169.115L329.911 166.514" stroke="#F27932" stroke-miterlimit="10"/>
<path d="M320.173 282.492L319.871 287.633L311.736 289.69C310.829 289.932 310.073 290.597 309.77 291.504L309.437 292.411L329.821 291.474C330.667 291.413 331.272 290.688 331.212 289.871C331.212 289.841 331.212 289.841 331.212 289.811L330.516 282.401" fill="#B9C6E4"/>
<path d="M331.212 278.591L316.151 277.472L316.907 282.613H331.575L331.212 278.591Z" fill="#495894"/>
<path d="M340.95 273.298L329.911 265.859L341.978 273.964L339.74 279.619L330.516 271.665" fill="#495894"/>
<path d="M308.833 292.986L331.847 291.897V287.693L325.768 287.724C324.982 287.391 324.347 286.726 323.802 286.091C323.258 285.455 322.653 284.76 321.867 284.397C321.081 284.034 320.052 284.004 319.448 284.609C319.206 285.516 318.903 286.544 318.661 287.482C316.212 287.996 313.581 288.661 311.101 289.205C310.466 289.326 309.921 289.72 309.559 290.264C309.044 291.05 308.893 292.048 308.591 292.714C308.53 292.834 308.591 292.955 308.712 293.016C308.742 292.986 308.742 292.986 308.833 292.986Z" fill="#4B4065"/>
<path d="M336.564 281.615L337.683 284.79L343.46 286.363C344.488 286.635 345.093 287.694 344.79 288.722C344.79 288.752 344.79 288.782 344.76 288.782L344.579 289.327H333.54C333.54 289.327 330.667 287.3 330.879 287.361L330.607 283.339L332.482 283.036L334.901 281.131C335.355 280.768 335.99 280.829 336.353 281.282C336.474 281.403 336.534 281.494 336.564 281.615Z" fill="#4B4065"/>
<path opacity="0.37" d="M275.415 258.117H266.131L275.415 263.288V258.117Z" fill="#495894"/>
<path d="M336.262 241.272L340.345 242.119" stroke="#4B4065" stroke-miterlimit="10"/>
<path opacity="0.32" d="M295.869 158.635C301.069 155.421 302.68 148.6 299.466 143.4C296.253 138.2 289.432 136.589 284.232 139.803C279.031 143.016 277.421 149.837 280.634 155.037C283.848 160.238 290.669 161.848 295.869 158.635Z" fill="#F7C689"/>
<path d="M285.153 145.647V146.978C285.153 147.22 285.365 147.431 285.607 147.431C285.849 147.431 286.061 147.22 286.061 146.978V145.647C286.061 145.405 285.849 145.194 285.607 145.194C285.365 145.194 285.153 145.405 285.153 145.647Z" fill="#F27932"/>
<path d="M292.986 145.647V146.978C292.986 147.22 293.198 147.431 293.44 147.431C293.681 147.431 293.893 147.22 293.893 146.978V145.647C293.893 145.405 293.681 145.194 293.44 145.194C293.198 145.194 292.986 145.405 292.986 145.647Z" fill="#F27932"/>
<path d="M293.288 149.7C292.653 151.877 290.385 153.117 288.208 152.452C286.847 152.058 285.788 150.97 285.425 149.609" stroke="#F27932" stroke-width="2" stroke-miterlimit="10" stroke-linecap="round" stroke-linejoin="round"/>
<path d="M317.663 152.936C318.883 152.936 319.871 151.947 319.871 150.728C319.871 149.509 318.883 148.52 317.663 148.52C316.444 148.52 315.456 149.509 315.456 150.728C315.456 151.947 316.444 152.936 317.663 152.936Z" stroke="#495894" stroke-miterlimit="10"/>
<path d="M324.891 152.936C326.11 152.936 327.099 151.947 327.099 150.728C327.099 149.509 326.11 148.52 324.891 148.52C323.672 148.52 322.684 149.509 322.684 150.728C322.684 151.947 323.672 152.936 324.891 152.936Z" stroke="#495894" stroke-miterlimit="10"/>
<path d="M319.871 150.637C320.718 150.032 321.867 150.032 322.744 150.637" stroke="#495894" stroke-miterlimit="10"/>
<path d="M317.512 277.562L331.212 278.591" stroke="#4B4065" stroke-miterlimit="10"/>
<path d="M341.978 273.964L329.972 265.859" stroke="#4B4065" stroke-miterlimit="10"/>
<path d="M287.512 164.821L291.655 167.27C291.595 167.996 290.96 168.51 290.234 168.45C290.052 168.419 289.871 168.359 289.69 168.268L285.909 166.03L286 165.516C286.091 164.972 286.635 164.609 287.179 164.73C287.27 164.73 287.421 164.76 287.512 164.821Z" fill="#B9C6E4"/>
<path d="M286 165.667L292.079 169.115C292.018 170.083 290.869 170.567 289.962 170.053L285.698 167.603L286 165.667Z" fill="#B9C6E4"/>
<path d="M285.758 167.028L291.141 170.204C291.081 170.93 290.446 171.444 289.72 171.383C289.538 171.353 289.357 171.292 289.175 171.202L285.395 168.964L285.758 167.028Z" fill="#B9C6E4"/>
<path d="M285.456 168.692L290.143 171.474C290.083 172.109 289.538 172.563 288.903 172.502C288.752 172.472 288.571 172.442 288.419 172.351L285.123 170.385L285.456 168.692Z" fill="#B9C6E4"/>
<path d="M294.014 172.804L295.798 168.994C295.889 168.631 295.889 168.238 295.738 167.905L293.863 162.976L288.51 162.159C288.51 162.159 287.815 164.155 291.383 164.609L292.744 168.268L294.014 172.804Z" fill="#B9C6E4"/>
<path d="M285.456 168.692L290.143 171.474" stroke="#495894" stroke-width="0.25" stroke-miterlimit="10"/>
<path d="M285.758 167.028L291.413 170.294" stroke="#495894" stroke-width="0.25" stroke-miterlimit="10"/>
<path d="M286.03 165.516L291.292 168.45" stroke="#495894" stroke-width="0.25" stroke-miterlimit="10"/>
<path d="M319.569 151.061C319.145 149.911 317.875 149.337 316.756 149.76C316.333 149.911 315.94 150.214 315.698 150.607C316.877 151.514 318.268 151.514 319.569 151.061Z" fill="white"/>
<path d="M321.262 149.337L320.385 152.694L321.262 153.298" stroke="#4B4065" stroke-miterlimit="10" stroke-linecap="round" stroke-linejoin="round"/>
<path d="M317.966 150.395C317.966 150.093 317.875 149.851 317.724 149.609C317.391 149.579 317.058 149.609 316.726 149.73C316.302 149.881 315.909 150.183 315.667 150.577C316.272 151.06 316.968 151.302 317.663 151.333C317.875 151.091 317.966 150.758 317.966 150.395Z" fill="#4B4065"/>
<path d="M326.887 150.637C326.222 149.609 324.861 149.306 323.863 149.972C323.47 150.214 323.167 150.577 322.986 151C324.317 151.665 325.738 151.363 326.887 150.637Z" fill="white"/>
<path d="M325.224 150.335C325.163 150.063 325.012 149.821 324.831 149.609C324.498 149.639 324.196 149.76 323.893 149.942C323.5 150.183 323.198 150.546 323.016 150.97C323.712 151.302 324.437 151.393 325.133 151.302C325.224 151.03 325.284 150.698 325.224 150.335Z" fill="#4B4065"/>
<path d="M319.054 147.976C318.087 147.25 316.786 147.28 315.879 148.036C316.968 147.976 317.966 148.006 319.054 147.976Z" fill="#4B4065" stroke="#4B4065" stroke-linecap="round" stroke-linejoin="round"/>
<path d="M323.288 147.976C324.256 147.25 325.557 147.28 326.464 148.036C325.375 147.976 324.377 148.006 323.288 147.976Z" fill="#4B4065" stroke="#4B4065" stroke-linecap="round" stroke-linejoin="round"/>
<path opacity="0.32" d="M268.278 171.746C269.306 171.474 270.304 171.05 271.212 170.506C270.304 169.931 269.306 169.508 268.278 169.236C267.22 168.964 266.403 168.147 266.131 167.089C265.859 166.061 265.466 165.063 264.891 164.155C264.317 165.063 263.893 166.061 263.651 167.089C263.379 168.147 262.562 168.964 261.504 169.236C260.476 169.508 259.478 169.931 258.571 170.476C259.478 171.05 260.476 171.474 261.504 171.716C262.562 171.988 263.379 172.804 263.651 173.863C263.923 174.891 264.347 175.889 264.891 176.796C265.466 175.889 265.889 174.891 266.161 173.863C266.433 172.835 267.22 172.018 268.278 171.746Z" fill="#F7C689"/>
<path opacity="0.32" d="M366.565 237.069C367.593 236.796 368.591 236.373 369.498 235.829C368.591 235.254 367.593 234.831 366.565 234.558C365.506 234.286 364.69 233.47 364.417 232.411C364.145 231.383 363.752 230.385 363.177 229.478C362.603 230.385 362.179 231.383 361.938 232.411C361.665 233.47 360.849 234.286 359.79 234.558C358.762 234.831 357.764 235.254 356.857 235.798C357.764 236.373 358.762 236.796 359.79 237.038C360.849 237.31 361.665 238.127 361.938 239.185C362.21 240.214 362.633 241.212 363.177 242.119C363.752 241.212 364.175 240.214 364.448 239.185C364.72 238.157 365.506 237.341 366.565 237.069Z" fill="#F7C689"/>
<path d="M279.952 126.716L280.859 128.016C280.919 128.077 280.98 128.137 281.04 128.137L282.552 128.621C282.734 128.682 282.855 128.893 282.794 129.075C282.794 129.105 282.764 129.135 282.734 129.196L281.796 130.466C281.736 130.526 281.736 130.617 281.736 130.678L281.766 132.25C281.766 132.462 281.615 132.613 281.403 132.613C281.373 132.613 281.312 132.613 281.282 132.583L279.77 132.099C279.71 132.069 279.619 132.069 279.528 132.099L278.016 132.613C277.835 132.673 277.623 132.583 277.562 132.401C277.562 132.371 277.532 132.311 277.532 132.28L277.562 130.708C277.562 130.617 277.532 130.557 277.502 130.496L276.565 129.226C276.444 129.075 276.474 128.833 276.625 128.712C276.655 128.682 276.685 128.682 276.746 128.651L278.258 128.167C278.349 128.137 278.409 128.107 278.44 128.046L279.347 126.746C279.468 126.565 279.679 126.534 279.861 126.655C279.891 126.655 279.921 126.686 279.952 126.716Z" fill="#F7C689"/>
<path d="M288.994 126.716L289.901 128.016C289.931 128.077 290.022 128.137 290.083 128.137L291.595 128.621C291.776 128.681 291.897 128.893 291.837 129.075C291.837 129.105 291.806 129.135 291.776 129.196L290.839 130.466C290.778 130.526 290.778 130.617 290.778 130.677L290.808 132.25C290.808 132.462 290.657 132.613 290.446 132.613C290.415 132.613 290.355 132.613 290.325 132.583L288.843 132.099C288.782 132.069 288.692 132.069 288.601 132.099L287.089 132.613C286.907 132.673 286.696 132.583 286.635 132.401C286.635 132.371 286.605 132.31 286.605 132.28L286.635 130.708C286.635 130.617 286.605 130.556 286.575 130.496L285.637 129.226C285.516 129.075 285.546 128.833 285.698 128.712C285.728 128.681 285.758 128.681 285.819 128.651L287.331 128.167C287.421 128.137 287.482 128.107 287.512 128.046L288.419 126.746C288.51 126.564 288.752 126.534 288.903 126.625C288.903 126.625 288.964 126.655 288.994 126.716Z" fill="#F7C689"/>
<path d="M298.006 126.716L298.913 128.016C298.944 128.077 299.034 128.137 299.095 128.137L300.607 128.621C300.788 128.681 300.909 128.893 300.849 129.074C300.849 129.105 300.819 129.165 300.788 129.195L299.851 130.466C299.79 130.526 299.79 130.617 299.79 130.677L299.821 132.25C299.821 132.462 299.669 132.613 299.458 132.613C299.427 132.613 299.367 132.613 299.337 132.583L297.825 132.068C297.764 132.038 297.673 132.038 297.583 132.068L296.101 132.583C295.919 132.643 295.708 132.552 295.647 132.371C295.647 132.341 295.617 132.28 295.617 132.25L295.647 130.677C295.647 130.587 295.617 130.526 295.587 130.466L294.649 129.195C294.528 129.044 294.558 128.802 294.74 128.681C294.77 128.651 294.8 128.651 294.861 128.621L296.373 128.137C296.464 128.107 296.524 128.077 296.554 128.016L297.462 126.716C297.583 126.564 297.794 126.504 297.976 126.625C297.946 126.655 297.976 126.685 298.006 126.716Z" fill="#F7C689"/>
</svg>
