<svg width="225" height="68" viewBox="0 0 225 68" fill="none" xmlns="http://www.w3.org/2000/svg">
<rect x="0.25" y="0.25" width="224.5" height="67.323" rx="9.75" fill="white" stroke="black" stroke-width="0.5"/>
<path d="M40.1283 23.1136C40.1029 22.931 39.9415 22.8296 39.8075 22.8186C39.6745 22.8076 37.0692 22.7684 37.0692 22.7684C37.0692 22.7684 34.8904 20.6771 34.6752 20.4643C34.4599 20.2516 34.0396 20.3158 33.8761 20.3639C33.8741 20.365 33.467 20.4894 32.7816 20.6991C32.6669 20.3318 32.4984 19.8802 32.2577 19.4266C31.482 17.9635 30.3459 17.1897 28.9732 17.1877C28.9712 17.1877 28.9702 17.1877 28.9682 17.1877C28.8727 17.1877 28.7783 17.1968 28.6829 17.2048C28.6423 17.1566 28.6016 17.1095 28.559 17.0633C27.961 16.4311 27.1944 16.123 26.2756 16.1501C24.5029 16.2003 22.7373 17.4657 21.3057 19.7137C20.2985 21.2952 19.532 23.2822 19.3147 24.8207C17.279 25.4439 15.8556 25.8794 15.8241 25.8894C14.7966 26.2086 14.7641 26.2397 14.6301 27.1971C14.5306 27.9206 11.8421 48.4691 11.8421 48.4691L34.3726 52.3207L44.1377 49.9212C44.1377 49.9212 40.1537 23.2963 40.1283 23.1136ZM31.6536 21.0443C31.1348 21.2029 30.5449 21.3835 29.9053 21.5792C29.8921 20.6921 29.7855 19.4577 29.3672 18.391C30.7124 18.6429 31.3744 20.1472 31.6536 21.0443ZM28.7265 21.9405C27.5457 22.3018 26.2573 22.6962 24.9648 23.0916C25.3283 21.7157 26.0177 20.3459 26.8645 19.4477C27.1792 19.1135 27.6198 18.7412 28.1417 18.5285C28.6321 19.54 28.7387 20.9721 28.7265 21.9405ZM26.3111 17.3162C26.7274 17.3072 27.0777 17.3975 27.3772 17.5922C26.898 17.838 26.435 18.1913 26.0004 18.6519C24.8745 19.8461 24.0115 21.6997 23.6673 23.488C22.5941 23.8161 21.5443 24.1383 20.5777 24.4333C21.1879 21.6184 23.5749 17.3945 26.3111 17.3162Z" fill="#070707"/>
<path d="M39.8085 22.8197C39.6755 22.8086 37.0702 22.7695 37.0702 22.7695C37.0702 22.7695 34.8914 20.6781 34.6762 20.4654C34.5959 20.3861 34.4873 20.3449 34.3736 20.3279L34.3746 52.3197L44.1387 49.9213C44.1387 49.9213 40.1547 23.2974 40.1293 23.1147C40.1039 22.9321 39.9415 22.8307 39.8085 22.8197Z" fill="#070707"/>
<path d="M28.961 27.7822L27.827 31.976C27.827 31.976 26.5619 31.407 25.0623 31.5004C22.8632 31.6378 22.8398 33.0087 22.8621 33.3529C22.9819 35.2285 27.9742 35.638 28.2544 40.0315C28.4747 43.4876 26.3994 45.852 23.4094 46.0386C19.8203 46.2624 17.8445 44.1701 17.8445 44.1701L18.605 40.9728C18.605 40.9728 20.594 42.456 22.186 42.3567C23.2256 42.2914 23.5972 41.4555 23.5597 40.8644C23.4033 38.4178 19.338 38.5623 19.0812 34.5421C18.8649 31.1592 21.1128 27.7311 26.0725 27.422C27.9833 27.3005 28.961 27.7822 28.961 27.7822Z" fill="white"/>
<path d="M62.6445 17.6045H58.4678V22H57.1553V12.0469H63.3213V13.127H58.4678V16.5312H62.6445V17.6045ZM66.3018 22H64.9893V12.0469H66.3018V22ZM76.3574 22H75.0381L70.0273 14.3301V22H68.708V12.0469H70.0273L75.0518 19.751V12.0469H76.3574V22ZM78.6885 22V12.0469H81.498C82.3639 12.0469 83.1296 12.2383 83.7949 12.6211C84.4603 13.0039 84.973 13.5485 85.333 14.2549C85.6976 14.9613 85.8822 15.7725 85.8867 16.6885V17.3242C85.8867 18.263 85.7044 19.0856 85.3398 19.792C84.9798 20.4984 84.4626 21.0407 83.7881 21.4189C83.1182 21.7972 82.3366 21.9909 81.4434 22H78.6885ZM80.001 13.127V20.9268H81.3818C82.3936 20.9268 83.1797 20.6123 83.7402 19.9834C84.3053 19.3545 84.5879 18.459 84.5879 17.2969V16.7158C84.5879 15.5856 84.3213 14.7083 83.7881 14.084C83.2594 13.4551 82.5075 13.1361 81.5322 13.127H80.001ZM98.3555 12.0469V18.8145C98.3509 19.7533 98.0547 20.5212 97.4668 21.1182C96.8835 21.7152 96.0905 22.0501 95.0879 22.123L94.7393 22.1367C93.6501 22.1367 92.7819 21.8428 92.1348 21.2549C91.4876 20.667 91.1595 19.8581 91.1504 18.8281V12.0469H92.4492V18.7871C92.4492 19.5072 92.6475 20.0677 93.0439 20.4688C93.4404 20.8652 94.0055 21.0635 94.7393 21.0635C95.4821 21.0635 96.0495 20.8652 96.4414 20.4688C96.8379 20.0723 97.0361 19.514 97.0361 18.7939V12.0469H98.3555ZM103.359 17.5635C102.234 17.2399 101.413 16.8434 100.898 16.374C100.388 15.9001 100.133 15.3167 100.133 14.624C100.133 13.8402 100.445 13.193 101.069 12.6826C101.698 12.1676 102.514 11.9102 103.517 11.9102C104.2 11.9102 104.809 12.0423 105.342 12.3066C105.88 12.571 106.294 12.9355 106.586 13.4004C106.882 13.8652 107.03 14.3734 107.03 14.9248H105.711C105.711 14.3232 105.52 13.8516 105.137 13.5098C104.754 13.1634 104.214 12.9902 103.517 12.9902C102.869 12.9902 102.364 13.1338 101.999 13.4209C101.639 13.7035 101.459 14.0977 101.459 14.6035C101.459 15.0091 101.63 15.3532 101.972 15.6357C102.318 15.9137 102.904 16.1689 103.729 16.4014C104.558 16.6338 105.205 16.8913 105.67 17.1738C106.139 17.4518 106.486 17.7777 106.709 18.1514C106.937 18.5251 107.051 18.9648 107.051 19.4707C107.051 20.2773 106.736 20.9245 106.107 21.4121C105.479 21.8952 104.638 22.1367 103.585 22.1367C102.901 22.1367 102.263 22.0068 101.671 21.7471C101.078 21.4827 100.62 21.1227 100.297 20.667C99.9779 20.2113 99.8184 19.694 99.8184 19.1152H101.138C101.138 19.7168 101.359 20.193 101.801 20.5439C102.247 20.8903 102.842 21.0635 103.585 21.0635C104.278 21.0635 104.809 20.9222 105.178 20.6396C105.547 20.3571 105.731 19.972 105.731 19.4844C105.731 18.9967 105.561 18.6208 105.219 18.3564C104.877 18.0876 104.257 17.8232 103.359 17.5635ZM119.868 17.3447C119.868 18.32 119.704 19.1722 119.376 19.9014C119.048 20.626 118.583 21.1797 117.981 21.5625C117.38 21.9453 116.678 22.1367 115.876 22.1367C115.092 22.1367 114.397 21.9453 113.791 21.5625C113.185 21.1751 112.713 20.626 112.376 19.915C112.043 19.1995 111.872 18.3724 111.863 17.4336V16.7158C111.863 15.7588 112.03 14.9134 112.362 14.1797C112.695 13.446 113.164 12.8854 113.771 12.498C114.381 12.1061 115.078 11.9102 115.862 11.9102C116.66 11.9102 117.362 12.1038 117.968 12.4912C118.578 12.874 119.048 13.4323 119.376 14.166C119.704 14.8952 119.868 15.7451 119.868 16.7158V17.3447ZM118.562 16.7021C118.562 15.5218 118.326 14.6172 117.852 13.9883C117.378 13.3548 116.715 13.0381 115.862 13.0381C115.033 13.0381 114.379 13.3548 113.9 13.9883C113.426 14.6172 113.183 15.4922 113.169 16.6133V17.3447C113.169 18.4886 113.408 19.3887 113.887 20.0449C114.37 20.6966 115.033 21.0225 115.876 21.0225C116.724 21.0225 117.38 20.7148 117.845 20.0996C118.31 19.4798 118.549 18.5934 118.562 17.4404V16.7021ZM129.486 22H128.167L123.156 14.3301V22H121.837V12.0469H123.156L128.181 19.751V12.0469H129.486V22ZM141.894 13.127H138.694V22H137.389V13.127H134.196V12.0469H141.894V13.127ZM151.02 22H149.7V17.3994H144.683V22H143.37V12.0469H144.683V16.3262H149.7V12.0469H151.02V22ZM158.977 17.3994H154.663V20.9268H159.674V22H153.351V12.0469H159.605V13.127H154.663V16.3262H158.977V17.3994Z" fill="#070707"/>
<path d="M64.877 45.3379C64.877 44.7129 64.6556 44.2311 64.2129 43.8926C63.7767 43.554 62.9857 43.2122 61.8398 42.8672C60.694 42.5221 59.7826 42.138 59.1055 41.7148C57.8099 40.901 57.1621 39.8398 57.1621 38.5312C57.1621 37.3854 57.6276 36.4414 58.5586 35.6992C59.4961 34.957 60.7103 34.5859 62.2012 34.5859C63.1908 34.5859 64.0729 34.7682 64.8477 35.1328C65.6224 35.4974 66.2311 36.0182 66.6738 36.6953C67.1165 37.3659 67.3379 38.1113 67.3379 38.9316H64.877C64.877 38.1895 64.6426 37.61 64.1738 37.1934C63.7116 36.7702 63.0475 36.5586 62.1816 36.5586C61.3743 36.5586 60.7461 36.7311 60.2969 37.0762C59.8542 37.4212 59.6328 37.903 59.6328 38.5215C59.6328 39.0423 59.8737 39.4785 60.3555 39.8301C60.8372 40.1751 61.6315 40.5137 62.7383 40.8457C63.8451 41.1712 64.7337 41.5456 65.4043 41.9688C66.0749 42.3854 66.5664 42.8672 66.8789 43.4141C67.1914 43.9544 67.3477 44.5892 67.3477 45.3184C67.3477 46.5033 66.8919 47.4473 65.9805 48.1504C65.0755 48.847 63.8451 49.1953 62.2891 49.1953C61.2604 49.1953 60.3132 49.0065 59.4473 48.6289C58.5879 48.2448 57.9173 47.7174 57.4355 47.0469C56.9603 46.3763 56.7227 45.5951 56.7227 44.7031H59.1934C59.1934 45.5104 59.4603 46.1354 59.9941 46.5781C60.528 47.0208 61.293 47.2422 62.2891 47.2422C63.1484 47.2422 63.793 47.0697 64.2227 46.7246C64.6589 46.373 64.877 45.9108 64.877 45.3379ZM71.625 39.5859C72.3997 38.6875 73.3796 38.2383 74.5645 38.2383C76.8171 38.2383 77.9596 39.5241 77.9922 42.0957V49H75.6191V42.1836C75.6191 41.4544 75.4596 40.9401 75.1406 40.6406C74.8281 40.3346 74.3659 40.1816 73.7539 40.1816C72.8034 40.1816 72.0938 40.6048 71.625 41.4512V49H69.252V34H71.625V39.5859ZM79.9551 43.6191C79.9551 42.584 80.1602 41.653 80.5703 40.8262C80.9805 39.9928 81.5566 39.3548 82.2988 38.9121C83.041 38.4629 83.8939 38.2383 84.8574 38.2383C86.2832 38.2383 87.4388 38.6973 88.3242 39.6152C89.2161 40.5332 89.6979 41.7507 89.7695 43.2676L89.7793 43.8242C89.7793 44.8659 89.5775 45.7969 89.1738 46.6172C88.7767 47.4375 88.2038 48.0723 87.4551 48.5215C86.7129 48.9707 85.8535 49.1953 84.877 49.1953C83.3861 49.1953 82.1914 48.7005 81.293 47.7109C80.401 46.7148 79.9551 45.39 79.9551 43.7363V43.6191ZM82.3281 43.8242C82.3281 44.9115 82.5527 45.7643 83.002 46.3828C83.4512 46.9948 84.0762 47.3008 84.877 47.3008C85.6777 47.3008 86.2995 46.9883 86.7422 46.3633C87.1914 45.7383 87.416 44.8236 87.416 43.6191C87.416 42.5514 87.1849 41.7051 86.7227 41.0801C86.2669 40.4551 85.6452 40.1426 84.8574 40.1426C84.0827 40.1426 83.4674 40.4518 83.0117 41.0703C82.556 41.6823 82.3281 42.6003 82.3281 43.8242ZM101.039 43.8242C101.039 45.4583 100.668 46.7637 99.9258 47.7402C99.1836 48.7103 98.1875 49.1953 96.9375 49.1953C95.7786 49.1953 94.8509 48.8145 94.1543 48.0527V53.0625H91.7812V38.4336H93.9688L94.0664 39.5078C94.763 38.6615 95.7103 38.2383 96.9082 38.2383C98.1973 38.2383 99.2064 38.7201 99.9355 39.6836C100.671 40.6406 101.039 41.972 101.039 43.6777V43.8242ZM98.6758 43.6191C98.6758 42.5645 98.4642 41.7279 98.041 41.1094C97.6243 40.4909 97.0254 40.1816 96.2441 40.1816C95.2741 40.1816 94.5775 40.582 94.1543 41.3828V46.0703C94.584 46.8906 95.2871 47.3008 96.2637 47.3008C97.0189 47.3008 97.6081 46.998 98.0312 46.3926C98.4609 45.7806 98.6758 44.8561 98.6758 43.6191ZM105.58 49H103.207V38.4336H105.58V49ZM103.061 35.6895C103.061 35.3249 103.174 35.0221 103.402 34.7812C103.637 34.5404 103.969 34.4199 104.398 34.4199C104.828 34.4199 105.16 34.5404 105.395 34.7812C105.629 35.0221 105.746 35.3249 105.746 35.6895C105.746 36.0475 105.629 36.347 105.395 36.5879C105.16 36.8223 104.828 36.9395 104.398 36.9395C103.969 36.9395 103.637 36.8223 103.402 36.5879C103.174 36.347 103.061 36.0475 103.061 35.6895ZM109.008 49V40.1914H107.396V38.4336H109.008V37.4668C109.008 36.2949 109.333 35.39 109.984 34.752C110.635 34.1139 111.547 33.7949 112.719 33.7949C113.135 33.7949 113.578 33.8535 114.047 33.9707L113.988 35.8262C113.728 35.7741 113.425 35.748 113.08 35.748C111.947 35.748 111.381 36.3307 111.381 37.4961V38.4336H113.529V40.1914H111.381V49H109.008ZM118.959 45.6016L121.107 38.4336H123.637L119.438 50.6016C118.793 52.3789 117.699 53.2676 116.156 53.2676C115.811 53.2676 115.43 53.209 115.014 53.0918V51.2559L115.463 51.2852C116.062 51.2852 116.511 51.1745 116.811 50.9531C117.117 50.7383 117.357 50.3737 117.533 49.8594L117.875 48.9512L114.164 38.4336H116.723L118.959 45.6016ZM138.178 45.6895H132.67L131.518 49H128.949L134.32 34.7812H136.537L141.918 49H139.34L138.178 45.6895ZM133.363 43.6973H137.484L135.424 37.7988L133.363 43.6973ZM152.094 43.8242C152.094 45.4583 151.723 46.7637 150.98 47.7402C150.238 48.7103 149.242 49.1953 147.992 49.1953C146.833 49.1953 145.906 48.8145 145.209 48.0527V53.0625H142.836V38.4336H145.023L145.121 39.5078C145.818 38.6615 146.765 38.2383 147.963 38.2383C149.252 38.2383 150.261 38.7201 150.99 39.6836C151.726 40.6406 152.094 41.972 152.094 43.6777V43.8242ZM149.73 43.6191C149.73 42.5645 149.519 41.7279 149.096 41.1094C148.679 40.4909 148.08 40.1816 147.299 40.1816C146.329 40.1816 145.632 40.582 145.209 41.3828V46.0703C145.639 46.8906 146.342 47.3008 147.318 47.3008C148.074 47.3008 148.663 46.998 149.086 46.3926C149.516 45.7806 149.73 44.8561 149.73 43.6191ZM163.363 43.8242C163.363 45.4583 162.992 46.7637 162.25 47.7402C161.508 48.7103 160.512 49.1953 159.262 49.1953C158.103 49.1953 157.175 48.8145 156.479 48.0527V53.0625H154.105V38.4336H156.293L156.391 39.5078C157.087 38.6615 158.035 38.2383 159.232 38.2383C160.521 38.2383 161.531 38.7201 162.26 39.6836C162.995 40.6406 163.363 41.972 163.363 43.6777V43.8242ZM161 43.6191C161 42.5645 160.788 41.7279 160.365 41.1094C159.949 40.4909 159.35 40.1816 158.568 40.1816C157.598 40.1816 156.902 40.582 156.479 41.3828V46.0703C156.908 46.8906 157.611 47.3008 158.588 47.3008C159.343 47.3008 159.932 46.998 160.355 46.3926C160.785 45.7806 161 44.8561 161 43.6191ZM178.021 45.3379C178.021 44.7129 177.8 44.2311 177.357 43.8926C176.921 43.554 176.13 43.2122 174.984 42.8672C173.839 42.5221 172.927 42.138 172.25 41.7148C170.954 40.901 170.307 39.8398 170.307 38.5312C170.307 37.3854 170.772 36.4414 171.703 35.6992C172.641 34.957 173.855 34.5859 175.346 34.5859C176.335 34.5859 177.217 34.7682 177.992 35.1328C178.767 35.4974 179.376 36.0182 179.818 36.6953C180.261 37.3659 180.482 38.1113 180.482 38.9316H178.021C178.021 38.1895 177.787 37.61 177.318 37.1934C176.856 36.7702 176.192 36.5586 175.326 36.5586C174.519 36.5586 173.891 36.7311 173.441 37.0762C172.999 37.4212 172.777 37.903 172.777 38.5215C172.777 39.0423 173.018 39.4785 173.5 39.8301C173.982 40.1751 174.776 40.5137 175.883 40.8457C176.99 41.1712 177.878 41.5456 178.549 41.9688C179.219 42.3854 179.711 42.8672 180.023 43.4141C180.336 43.9544 180.492 44.5892 180.492 45.3184C180.492 46.5033 180.036 47.4473 179.125 48.1504C178.22 48.847 176.99 49.1953 175.434 49.1953C174.405 49.1953 173.458 49.0065 172.592 48.6289C171.732 48.2448 171.062 47.7174 170.58 47.0469C170.105 46.3763 169.867 45.5951 169.867 44.7031H172.338C172.338 45.5104 172.605 46.1354 173.139 46.5781C173.673 47.0208 174.438 47.2422 175.434 47.2422C176.293 47.2422 176.938 47.0697 177.367 46.7246C177.803 46.373 178.021 45.9108 178.021 45.3379ZM185.404 35.8652V38.4336H187.27V40.1914H185.404V46.0898C185.404 46.4935 185.482 46.7865 185.639 46.9688C185.801 47.1445 186.088 47.2324 186.498 47.2324C186.771 47.2324 187.048 47.1999 187.328 47.1348V48.9707C186.788 49.1204 186.267 49.1953 185.766 49.1953C183.943 49.1953 183.031 48.1895 183.031 46.1777V40.1914H181.293V38.4336H183.031V35.8652H185.404ZM188.354 43.6191C188.354 42.584 188.559 41.653 188.969 40.8262C189.379 39.9928 189.955 39.3548 190.697 38.9121C191.439 38.4629 192.292 38.2383 193.256 38.2383C194.682 38.2383 195.837 38.6973 196.723 39.6152C197.615 40.5332 198.096 41.7507 198.168 43.2676L198.178 43.8242C198.178 44.8659 197.976 45.7969 197.572 46.6172C197.175 47.4375 196.602 48.0723 195.854 48.5215C195.111 48.9707 194.252 49.1953 193.275 49.1953C191.785 49.1953 190.59 48.7005 189.691 47.7109C188.799 46.7148 188.354 45.39 188.354 43.7363V43.6191ZM190.727 43.8242C190.727 44.9115 190.951 45.7643 191.4 46.3828C191.85 46.9948 192.475 47.3008 193.275 47.3008C194.076 47.3008 194.698 46.9883 195.141 46.3633C195.59 45.7383 195.814 44.8236 195.814 43.6191C195.814 42.5514 195.583 41.7051 195.121 41.0801C194.665 40.4551 194.044 40.1426 193.256 40.1426C192.481 40.1426 191.866 40.4518 191.41 41.0703C190.954 41.6823 190.727 42.6003 190.727 43.8242ZM205.717 40.6016C205.404 40.5495 205.082 40.5234 204.75 40.5234C203.663 40.5234 202.93 40.9401 202.553 41.7734V49H200.18V38.4336H202.445L202.504 39.6152C203.077 38.6973 203.871 38.2383 204.887 38.2383C205.225 38.2383 205.505 38.2839 205.727 38.375L205.717 40.6016ZM211.674 49.1953C210.17 49.1953 208.949 48.7233 208.012 47.7793C207.081 46.8288 206.615 45.5658 206.615 43.9902V43.6973C206.615 42.6426 206.817 41.7018 207.221 40.875C207.631 40.0417 208.204 39.3939 208.939 38.9316C209.675 38.4694 210.495 38.2383 211.4 38.2383C212.839 38.2383 213.949 38.6973 214.73 39.6152C215.518 40.5332 215.912 41.832 215.912 43.5117V44.4688H209.008C209.079 45.3411 209.369 46.0312 209.877 46.5391C210.391 47.0469 211.036 47.3008 211.811 47.3008C212.898 47.3008 213.783 46.8613 214.467 45.9824L215.746 47.2031C215.323 47.8346 214.757 48.3262 214.047 48.6777C213.344 49.0228 212.553 49.1953 211.674 49.1953ZM211.391 40.1426C210.74 40.1426 210.212 40.3704 209.809 40.8262C209.411 41.2819 209.158 41.9167 209.047 42.7305H213.568V42.5547C213.516 41.7604 213.305 41.1615 212.934 40.7578C212.562 40.3477 212.048 40.1426 211.391 40.1426Z" fill="#070707"/>
</svg>
