<svg width="209" height="63" viewBox="0 0 209 63" fill="none" xmlns="http://www.w3.org/2000/svg">
<rect width="209" height="63" rx="10" fill="#5E8E3E"/>
<path d="M37.2748 21.4699C37.2512 21.3003 37.1012 21.2061 36.9767 21.1958C36.8532 21.1856 34.4332 21.1492 34.4332 21.1492C34.4332 21.1492 32.4093 19.2066 32.2094 19.009C32.0094 18.8113 31.619 18.871 31.4672 18.9157C31.4653 18.9167 31.0871 19.0323 30.4505 19.2271C30.3439 18.8859 30.1874 18.4664 29.9639 18.0451C29.2433 16.686 28.188 15.9673 26.9129 15.9654C26.911 15.9654 26.9101 15.9654 26.9082 15.9654C26.8196 15.9654 26.7318 15.9738 26.6432 15.9812C26.6055 15.9365 26.5677 15.8927 26.5281 15.8498C25.9727 15.2625 25.2606 14.9764 24.4071 15.0015C22.7605 15.0481 21.1204 16.2236 19.7906 18.3117C18.8551 19.7808 18.143 21.6265 17.9412 23.0555C16.0503 23.6344 14.7281 24.039 14.6988 24.0483C13.7444 24.3447 13.7142 24.3736 13.5898 25.2629C13.4973 25.935 11 45.0223 11 45.0223L31.9283 48.6L40.9991 46.3712C40.9991 46.3712 37.2983 21.6396 37.2748 21.4699ZM29.4027 19.5478C28.9208 19.695 28.3728 19.8628 27.7787 20.0446C27.7664 19.2206 27.6674 18.074 27.2788 17.0831C28.5285 17.3171 29.1434 18.7144 29.4027 19.5478ZM26.6838 20.3802C25.5869 20.7158 24.3901 21.0821 23.1896 21.4494C23.5272 20.1714 24.1676 18.899 24.9541 18.0647C25.2465 17.7542 25.6558 17.4084 26.1405 17.2108C26.596 18.1504 26.6951 19.4806 26.6838 20.3802ZM24.4401 16.0847C24.8268 16.0763 25.1522 16.1602 25.4304 16.3411C24.9852 16.5694 24.5552 16.8976 24.1515 17.3254C23.1056 18.4347 22.304 20.1565 21.9843 21.8176C20.9874 22.1224 20.0123 22.4217 19.1144 22.6957C19.6812 20.081 21.8985 16.1574 24.4401 16.0847Z" fill="white"/>
<path d="M36.9777 21.1968C36.8541 21.1865 34.4341 21.1502 34.4341 21.1502C34.4341 21.1502 32.4102 19.2075 32.2103 19.0099C32.1358 18.9363 32.0349 18.898 31.9293 18.8822L31.9302 48.5991L41 46.3712C41 46.3712 37.2993 21.6405 37.2757 21.4709C37.2521 21.3012 37.1012 21.2071 36.9777 21.1968Z" fill="white"/>
<path d="M26.9016 25.8064L25.8482 29.7019C25.8482 29.7019 24.673 29.1734 23.2801 29.2601C21.2373 29.3878 21.2156 30.6612 21.2364 30.9809C21.3477 32.7231 25.9849 33.1035 26.2452 37.1845C26.4498 40.3949 24.5222 42.5912 21.7447 42.7645C18.4109 42.9724 16.5756 41.0288 16.5756 41.0288L17.282 38.0589C17.282 38.0589 19.1295 39.4367 20.6083 39.3444C21.574 39.2838 21.9192 38.5073 21.8843 37.9582C21.7391 35.6856 17.9629 35.8198 17.7243 32.0855C17.5234 28.9432 19.6114 25.7588 24.2185 25.4717C25.9934 25.3589 26.9016 25.8064 26.9016 25.8064Z" fill="#5E8E3E"/>
<path d="M57.6953 15.2324H54.1152V19H52.9902V10.4688H58.2754V11.3945H54.1152V14.3125H57.6953V15.2324ZM60.8301 19H59.7051V10.4688H60.8301V19ZM69.4492 19H68.3184L64.0234 12.4258V19H62.8926V10.4688H64.0234L68.3301 17.0723V10.4688H69.4492V19ZM71.4473 19V10.4688H73.8555C74.5977 10.4688 75.2539 10.6328 75.8242 10.9609C76.3945 11.2891 76.834 11.7559 77.1426 12.3613C77.4551 12.9668 77.6133 13.6621 77.6172 14.4473V14.9922C77.6172 15.7969 77.4609 16.502 77.1484 17.1074C76.8398 17.7129 76.3965 18.1777 75.8184 18.502C75.2441 18.8262 74.5742 18.9922 73.8086 19H71.4473ZM72.5723 11.3945V18.0801H73.7559C74.623 18.0801 75.2969 17.8105 75.7773 17.2715C76.2617 16.7324 76.5039 15.9648 76.5039 14.9688V14.4707C76.5039 13.502 76.2754 12.75 75.8184 12.2148C75.3652 11.6758 74.7207 11.4023 73.8848 11.3945H72.5723ZM88.3047 10.4688V16.2695C88.3008 17.0742 88.0469 17.7324 87.543 18.2441C87.043 18.7559 86.3633 19.043 85.5039 19.1055L85.2051 19.1172C84.2715 19.1172 83.5273 18.8652 82.9727 18.3613C82.418 17.8574 82.1367 17.1641 82.1289 16.2812V10.4688H83.2422V16.2461C83.2422 16.8633 83.4121 17.3438 83.752 17.6875C84.0918 18.0273 84.5762 18.1973 85.2051 18.1973C85.8418 18.1973 86.3281 18.0273 86.6641 17.6875C87.0039 17.3477 87.1738 16.8691 87.1738 16.252V10.4688H88.3047ZM92.5938 15.1973C91.6289 14.9199 90.9258 14.5801 90.4844 14.1777C90.0469 13.7715 89.8281 13.2715 89.8281 12.6777C89.8281 12.0059 90.0957 11.4512 90.6309 11.0137C91.1699 10.5723 91.8691 10.3516 92.7285 10.3516C93.3145 10.3516 93.8359 10.4648 94.293 10.6914C94.7539 10.918 95.1094 11.2305 95.3594 11.6289C95.6133 12.0273 95.7402 12.4629 95.7402 12.9355H94.6094C94.6094 12.4199 94.4453 12.0156 94.1172 11.7227C93.7891 11.4258 93.3262 11.2773 92.7285 11.2773C92.1738 11.2773 91.7402 11.4004 91.4277 11.6465C91.1191 11.8887 90.9648 12.2266 90.9648 12.6602C90.9648 13.0078 91.1113 13.3027 91.4043 13.5449C91.7012 13.7832 92.2031 14.002 92.9102 14.2012C93.6211 14.4004 94.1758 14.6211 94.5742 14.8633C94.9766 15.1016 95.2734 15.3809 95.4648 15.7012C95.6602 16.0215 95.7578 16.3984 95.7578 16.832C95.7578 17.5234 95.4883 18.0781 94.9492 18.4961C94.4102 18.9102 93.6895 19.1172 92.7871 19.1172C92.2012 19.1172 91.6543 19.0059 91.1465 18.7832C90.6387 18.5566 90.2461 18.248 89.9688 17.8574C89.6953 17.4668 89.5586 17.0234 89.5586 16.5273H90.6895C90.6895 17.043 90.8789 17.4512 91.2578 17.752C91.6406 18.0488 92.1504 18.1973 92.7871 18.1973C93.3809 18.1973 93.8359 18.0762 94.1523 17.834C94.4688 17.5918 94.627 17.2617 94.627 16.8438C94.627 16.4258 94.4805 16.1035 94.1875 15.877C93.8945 15.6465 93.3633 15.4199 92.5938 15.1973ZM106.744 15.0098C106.744 15.8457 106.604 16.5762 106.322 17.2012C106.041 17.8223 105.643 18.2969 105.127 18.625C104.611 18.9531 104.01 19.1172 103.322 19.1172C102.65 19.1172 102.055 18.9531 101.535 18.625C101.016 18.293 100.611 17.8223 100.322 17.2129C100.037 16.5996 99.8906 15.8906 99.8828 15.0859V14.4707C99.8828 13.6504 100.025 12.9258 100.311 12.2969C100.596 11.668 100.998 11.1875 101.518 10.8555C102.041 10.5195 102.639 10.3516 103.311 10.3516C103.994 10.3516 104.596 10.5176 105.115 10.8496C105.639 11.1777 106.041 11.6562 106.322 12.2852C106.604 12.9102 106.744 13.6387 106.744 14.4707V15.0098ZM105.625 14.459C105.625 13.4473 105.422 12.6719 105.016 12.1328C104.609 11.5898 104.041 11.3184 103.311 11.3184C102.6 11.3184 102.039 11.5898 101.629 12.1328C101.223 12.6719 101.014 13.4219 101.002 14.3828V15.0098C101.002 15.9902 101.207 16.7617 101.617 17.3242C102.031 17.8828 102.6 18.1621 103.322 18.1621C104.049 18.1621 104.611 17.8984 105.01 17.3711C105.408 16.8398 105.613 16.0801 105.625 15.0918V14.459ZM114.988 19H113.857L109.562 12.4258V19H108.432V10.4688H109.562L113.869 17.0723V10.4688H114.988V19ZM125.623 11.3945H122.881V19H121.762V11.3945H119.025V10.4688H125.623V11.3945ZM133.445 19H132.314V15.0566H128.014V19H126.889V10.4688H128.014V14.1367H132.314V10.4688H133.445V19ZM140.266 15.0566H136.568V18.0801H140.863V19H135.443V10.4688H140.805V11.3945H136.568V14.1367H140.266V15.0566Z" fill="white"/>
<path d="M59.9893 36.7041C59.9893 36.1416 59.79 35.708 59.3916 35.4033C58.999 35.0986 58.2871 34.791 57.2559 34.4805C56.2246 34.1699 55.4043 33.8242 54.7949 33.4434C53.6289 32.7109 53.0459 31.7559 53.0459 30.5781C53.0459 29.5469 53.4648 28.6973 54.3027 28.0293C55.1465 27.3613 56.2393 27.0273 57.5811 27.0273C58.4717 27.0273 59.2656 27.1914 59.9629 27.5195C60.6602 27.8477 61.208 28.3164 61.6064 28.9258C62.0049 29.5293 62.2041 30.2002 62.2041 30.9385H59.9893C59.9893 30.2705 59.7783 29.749 59.3564 29.374C58.9404 28.9932 58.3428 28.8027 57.5635 28.8027C56.8369 28.8027 56.2715 28.958 55.8672 29.2686C55.4688 29.5791 55.2695 30.0127 55.2695 30.5693C55.2695 31.0381 55.4863 31.4307 55.9199 31.7471C56.3535 32.0576 57.0684 32.3623 58.0645 32.6611C59.0605 32.9541 59.8604 33.291 60.4639 33.6719C61.0674 34.0469 61.5098 34.4805 61.791 34.9727C62.0723 35.459 62.2129 36.0303 62.2129 36.6865C62.2129 37.7529 61.8027 38.6025 60.9824 39.2354C60.168 39.8623 59.0605 40.1758 57.6602 40.1758C56.7344 40.1758 55.8818 40.0059 55.1025 39.666C54.3291 39.3203 53.7256 38.8457 53.292 38.2422C52.8643 37.6387 52.6504 36.9355 52.6504 36.1328H54.874C54.874 36.8594 55.1143 37.4219 55.5947 37.8203C56.0752 38.2188 56.7637 38.418 57.6602 38.418C58.4336 38.418 59.0137 38.2627 59.4004 37.9521C59.793 37.6357 59.9893 37.2197 59.9893 36.7041ZM66.0625 31.5273C66.7598 30.7188 67.6416 30.3145 68.708 30.3145C70.7354 30.3145 71.7637 31.4717 71.793 33.7861V40H69.6572V33.8652C69.6572 33.209 69.5137 32.7461 69.2266 32.4766C68.9453 32.2012 68.5293 32.0635 67.9785 32.0635C67.123 32.0635 66.4844 32.4443 66.0625 33.2061V40H63.9268V26.5H66.0625V31.5273ZM73.5596 35.1572C73.5596 34.2256 73.7441 33.3877 74.1133 32.6436C74.4824 31.8936 75.001 31.3193 75.6689 30.9209C76.3369 30.5166 77.1045 30.3145 77.9717 30.3145C79.2549 30.3145 80.2949 30.7275 81.0918 31.5537C81.8945 32.3799 82.3281 33.4756 82.3926 34.8408L82.4014 35.3418C82.4014 36.2793 82.2197 37.1172 81.8564 37.8555C81.499 38.5938 80.9834 39.165 80.3096 39.5693C79.6416 39.9736 78.8682 40.1758 77.9893 40.1758C76.6475 40.1758 75.5723 39.7305 74.7637 38.8398C73.9609 37.9434 73.5596 36.751 73.5596 35.2627V35.1572ZM75.6953 35.3418C75.6953 36.3203 75.8975 37.0879 76.3018 37.6445C76.7061 38.1953 77.2686 38.4707 77.9893 38.4707C78.71 38.4707 79.2695 38.1895 79.668 37.627C80.0723 37.0645 80.2744 36.2412 80.2744 35.1572C80.2744 34.1963 80.0664 33.4346 79.6504 32.8721C79.2402 32.3096 78.6807 32.0283 77.9717 32.0283C77.2744 32.0283 76.7207 32.3066 76.3105 32.8633C75.9004 33.4141 75.6953 34.2402 75.6953 35.3418ZM92.5352 35.3418C92.5352 36.8125 92.2012 37.9873 91.5332 38.8662C90.8652 39.7393 89.9688 40.1758 88.8438 40.1758C87.8008 40.1758 86.9658 39.833 86.3389 39.1475V43.6562H84.2031V30.4902H86.1719L86.2598 31.457C86.8867 30.6953 87.7393 30.3145 88.8174 30.3145C89.9775 30.3145 90.8857 30.748 91.542 31.6152C92.2041 32.4766 92.5352 33.6748 92.5352 35.21V35.3418ZM90.4082 35.1572C90.4082 34.208 90.2178 33.4551 89.8369 32.8984C89.4619 32.3418 88.9229 32.0635 88.2197 32.0635C87.3467 32.0635 86.7197 32.4238 86.3389 33.1445V37.3633C86.7256 38.1016 87.3584 38.4707 88.2373 38.4707C88.917 38.4707 89.4473 38.1982 89.8281 37.6533C90.2148 37.1025 90.4082 36.2705 90.4082 35.1572ZM96.6221 40H94.4863V30.4902H96.6221V40ZM94.3545 28.0205C94.3545 27.6924 94.457 27.4199 94.6621 27.2031C94.873 26.9863 95.1719 26.8779 95.5586 26.8779C95.9453 26.8779 96.2441 26.9863 96.4551 27.2031C96.666 27.4199 96.7715 27.6924 96.7715 28.0205C96.7715 28.3428 96.666 28.6123 96.4551 28.8291C96.2441 29.04 95.9453 29.1455 95.5586 29.1455C95.1719 29.1455 94.873 29.04 94.6621 28.8291C94.457 28.6123 94.3545 28.3428 94.3545 28.0205ZM99.707 40V32.0723H98.2568V30.4902H99.707V29.6201C99.707 28.5654 100 27.751 100.586 27.1768C101.172 26.6025 101.992 26.3154 103.047 26.3154C103.422 26.3154 103.82 26.3682 104.242 26.4736L104.189 28.1436C103.955 28.0967 103.683 28.0732 103.372 28.0732C102.353 28.0732 101.843 28.5977 101.843 29.6465V30.4902H103.776V32.0723H101.843V40H99.707ZM108.663 36.9414L110.597 30.4902H112.873L109.094 41.4414C108.514 43.041 107.529 43.8408 106.141 43.8408C105.83 43.8408 105.487 43.7881 105.112 43.6826V42.0303L105.517 42.0566C106.056 42.0566 106.46 41.957 106.729 41.7578C107.005 41.5645 107.222 41.2363 107.38 40.7734L107.688 39.9561L104.348 30.4902H106.65L108.663 36.9414ZM125.96 37.0205H121.003L119.966 40H117.654L122.488 27.2031H124.483L129.326 40H127.006L125.96 37.0205ZM121.627 35.2275H125.336L123.481 29.9189L121.627 35.2275ZM138.484 35.3418C138.484 36.8125 138.15 37.9873 137.482 38.8662C136.814 39.7393 135.918 40.1758 134.793 40.1758C133.75 40.1758 132.915 39.833 132.288 39.1475V43.6562H130.152V30.4902H132.121L132.209 31.457C132.836 30.6953 133.688 30.3145 134.767 30.3145C135.927 30.3145 136.835 30.748 137.491 31.6152C138.153 32.4766 138.484 33.6748 138.484 35.21V35.3418ZM136.357 35.1572C136.357 34.208 136.167 33.4551 135.786 32.8984C135.411 32.3418 134.872 32.0635 134.169 32.0635C133.296 32.0635 132.669 32.4238 132.288 33.1445V37.3633C132.675 38.1016 133.308 38.4707 134.187 38.4707C134.866 38.4707 135.396 38.1982 135.777 37.6533C136.164 37.1025 136.357 36.2705 136.357 35.1572ZM148.627 35.3418C148.627 36.8125 148.293 37.9873 147.625 38.8662C146.957 39.7393 146.061 40.1758 144.936 40.1758C143.893 40.1758 143.058 39.833 142.431 39.1475V43.6562H140.295V30.4902H142.264L142.352 31.457C142.979 30.6953 143.831 30.3145 144.909 30.3145C146.069 30.3145 146.978 30.748 147.634 31.6152C148.296 32.4766 148.627 33.6748 148.627 35.21V35.3418ZM146.5 35.1572C146.5 34.208 146.31 33.4551 145.929 32.8984C145.554 32.3418 145.015 32.0635 144.312 32.0635C143.438 32.0635 142.812 32.4238 142.431 33.1445V37.3633C142.817 38.1016 143.45 38.4707 144.329 38.4707C145.009 38.4707 145.539 38.1982 145.92 37.6533C146.307 37.1025 146.5 36.2705 146.5 35.1572ZM161.819 36.7041C161.819 36.1416 161.62 35.708 161.222 35.4033C160.829 35.0986 160.117 34.791 159.086 34.4805C158.055 34.1699 157.234 33.8242 156.625 33.4434C155.459 32.7109 154.876 31.7559 154.876 30.5781C154.876 29.5469 155.295 28.6973 156.133 28.0293C156.977 27.3613 158.069 27.0273 159.411 27.0273C160.302 27.0273 161.096 27.1914 161.793 27.5195C162.49 27.8477 163.038 28.3164 163.437 28.9258C163.835 29.5293 164.034 30.2002 164.034 30.9385H161.819C161.819 30.2705 161.608 29.749 161.187 29.374C160.771 28.9932 160.173 28.8027 159.394 28.8027C158.667 28.8027 158.102 28.958 157.697 29.2686C157.299 29.5791 157.1 30.0127 157.1 30.5693C157.1 31.0381 157.316 31.4307 157.75 31.7471C158.184 32.0576 158.898 32.3623 159.895 32.6611C160.891 32.9541 161.69 33.291 162.294 33.6719C162.897 34.0469 163.34 34.4805 163.621 34.9727C163.902 35.459 164.043 36.0303 164.043 36.6865C164.043 37.7529 163.633 38.6025 162.812 39.2354C161.998 39.8623 160.891 40.1758 159.49 40.1758C158.564 40.1758 157.712 40.0059 156.933 39.666C156.159 39.3203 155.556 38.8457 155.122 38.2422C154.694 37.6387 154.48 36.9355 154.48 36.1328H156.704C156.704 36.8594 156.944 37.4219 157.425 37.8203C157.905 38.2188 158.594 38.418 159.49 38.418C160.264 38.418 160.844 38.2627 161.23 37.9521C161.623 37.6357 161.819 37.2197 161.819 36.7041ZM168.464 28.1787V30.4902H170.143V32.0723H168.464V37.3809C168.464 37.7441 168.534 38.0078 168.675 38.1719C168.821 38.3301 169.079 38.4092 169.448 38.4092C169.694 38.4092 169.943 38.3799 170.195 38.3213V39.9736C169.709 40.1084 169.24 40.1758 168.789 40.1758C167.148 40.1758 166.328 39.2705 166.328 37.46V32.0723H164.764V30.4902H166.328V28.1787H168.464ZM171.118 35.1572C171.118 34.2256 171.303 33.3877 171.672 32.6436C172.041 31.8936 172.56 31.3193 173.228 30.9209C173.896 30.5166 174.663 30.3145 175.53 30.3145C176.813 30.3145 177.854 30.7275 178.65 31.5537C179.453 32.3799 179.887 33.4756 179.951 34.8408L179.96 35.3418C179.96 36.2793 179.778 37.1172 179.415 37.8555C179.058 38.5938 178.542 39.165 177.868 39.5693C177.2 39.9736 176.427 40.1758 175.548 40.1758C174.206 40.1758 173.131 39.7305 172.322 38.8398C171.52 37.9434 171.118 36.751 171.118 35.2627V35.1572ZM173.254 35.3418C173.254 36.3203 173.456 37.0879 173.86 37.6445C174.265 38.1953 174.827 38.4707 175.548 38.4707C176.269 38.4707 176.828 38.1895 177.227 37.627C177.631 37.0645 177.833 36.2412 177.833 35.1572C177.833 34.1963 177.625 33.4346 177.209 32.8721C176.799 32.3096 176.239 32.0283 175.53 32.0283C174.833 32.0283 174.279 32.3066 173.869 32.8633C173.459 33.4141 173.254 34.2402 173.254 35.3418ZM186.745 32.4414C186.464 32.3945 186.174 32.3711 185.875 32.3711C184.896 32.3711 184.237 32.7461 183.897 33.4961V40H181.762V30.4902H183.801L183.854 31.5537C184.369 30.7275 185.084 30.3145 185.998 30.3145C186.303 30.3145 186.555 30.3555 186.754 30.4375L186.745 32.4414ZM192.106 40.1758C190.753 40.1758 189.654 39.751 188.811 38.9014C187.973 38.0459 187.554 36.9092 187.554 35.4912V35.2275C187.554 34.2783 187.735 33.4316 188.099 32.6875C188.468 31.9375 188.983 31.3545 189.646 30.9385C190.308 30.5225 191.046 30.3145 191.86 30.3145C193.155 30.3145 194.154 30.7275 194.857 31.5537C195.566 32.3799 195.921 33.5488 195.921 35.0605V35.9219H189.707C189.771 36.707 190.032 37.3281 190.489 37.7852C190.952 38.2422 191.532 38.4707 192.229 38.4707C193.208 38.4707 194.005 38.0752 194.62 37.2842L195.771 38.3828C195.391 38.9512 194.881 39.3936 194.242 39.71C193.609 40.0205 192.897 40.1758 192.106 40.1758ZM191.852 32.0283C191.266 32.0283 190.791 32.2334 190.428 32.6436C190.07 33.0537 189.842 33.625 189.742 34.3574H193.812V34.1992C193.765 33.4844 193.574 32.9453 193.24 32.582C192.906 32.2129 192.443 32.0283 191.852 32.0283Z" fill="white"/>
</svg>
