<svg width="540" height="600" viewBox="0 0 540 600" fill="none" xmlns="http://www.w3.org/2000/svg">
<g clip-path="url(#clip0)">
<path d="M64.9459 521.556L94.7432 368.889H226.824L255.284 521.556H64.9459Z" fill="#C2D9F0"/>
<path d="M129.892 367.556C129.892 352.333 143.392 340 160.054 340C176.716 340 190.216 352.333 190.216 367.556" fill="white"/>
<path d="M129.892 367.556C129.892 352.333 143.392 340 160.054 340C176.716 340 190.216 352.333 190.216 367.556" stroke="#B9C6E4" stroke-miterlimit="10"/>
<path d="M166.743 557.444L185.23 462.556H267.324L285.081 557.444H166.743Z" fill="white" stroke="#EF749B" stroke-miterlimit="10"/>
<path d="M207.122 461.667C207.122 452.222 215.513 444.556 225.851 444.556C236.189 444.556 244.581 452.222 244.581 461.667" stroke="#EF749B" stroke-miterlimit="10"/>
<path d="M181.338 447.667C183.527 447.111 185.716 446.333 187.662 445.222C185.716 444.111 183.527 443.222 181.338 442.778C179.027 442.222 177.324 440.556 176.716 438.556C176.108 436.445 175.257 434.556 174.041 432.778C172.824 434.556 171.851 436.556 171.365 438.556C170.757 440.667 168.932 442.222 166.743 442.778C164.432 443.333 162.365 444.111 160.419 445.222C162.365 446.333 164.554 447.222 166.743 447.667C169.054 448.222 170.757 449.889 171.365 452C171.973 454 172.824 456 174.041 457.778C175.257 456 176.23 454 176.716 452C177.203 449.889 179.027 448.222 181.338 447.667Z" fill="white"/>
<path d="M140.473 475.444C142.152 475.444 143.513 474.201 143.513 472.667C143.513 471.133 142.152 469.889 140.473 469.889C138.794 469.889 137.432 471.133 137.432 472.667C137.432 474.201 138.794 475.444 140.473 475.444Z" fill="white"/>
<path d="M135.486 448.889H28.4595V533.778H135.486V448.889Z" fill="#FBD7AD"/>
<path opacity="0.37" d="M28.4595 466.222L135.486 471.889V462.556H28.4595V466.222Z" fill="#F27932"/>
<path d="M97.7838 462.556C97.7838 470.333 90.973 476.555 82.4595 476.555C73.9459 476.555 67.1351 470.333 67.1351 462.556" fill="white"/>
<path d="M139.013 445H24.0811V462.556H139.013V445Z" fill="white" stroke="#F7C689" stroke-miterlimit="10"/>
<path d="M114.446 503H50.473V512.889H114.446V503Z" fill="white"/>
<path d="M230.351 196H252.243" stroke="#B9C6E4" stroke-miterlimit="10"/>
<path d="M145.946 73.7779C148.378 73.2223 150.689 72.3334 152.757 71.1112C150.689 69.889 148.378 69.0001 145.946 68.4445C143.514 67.889 141.568 66.1112 140.959 63.889C140.351 61.6667 139.378 59.5556 138.041 57.6667C136.703 59.5556 135.73 61.6667 135.122 63.889C134.514 66.1112 132.568 67.889 130.135 68.4445C127.703 69.0001 125.392 69.889 123.324 71.1112C125.392 72.3334 127.703 73.2223 130.135 73.7779C132.568 74.3334 134.514 76.1112 135.122 78.3334C135.73 80.5556 136.703 82.6667 138.041 84.5556C139.378 82.6667 140.351 80.5556 140.959 78.3334C141.568 76.1112 143.514 74.4445 145.946 73.7779Z" fill="#F27932"/>
<path d="M503.514 348.555C507.812 348.555 511.297 345.372 511.297 341.444C511.297 337.517 507.812 334.333 503.514 334.333C499.215 334.333 495.73 337.517 495.73 341.444C495.73 345.372 499.215 348.555 503.514 348.555Z" stroke="#4B4065" stroke-width="2" stroke-miterlimit="10"/>
<path d="M177.446 142.889L163.459 153" stroke="#4B4065" stroke-width="0.75" stroke-miterlimit="10"/>
<path d="M286.419 57.1111C286.419 57.1111 285.081 93 288.486 98.8889C291.284 104.111 297.73 106.778 303.811 105.333L304.662 124.667C304.662 124.667 324 149.111 346.986 122.222L344.068 90.1111C344.068 90.1111 349.176 93.2222 354.892 84.1111C360.608 75 355.014 62.3333 344.919 70.7778L342.851 72.5555L342.243 59.6666L286.419 57.1111Z" fill="#C2D9F0"/>
<path d="M282.649 58.0001C282.649 58.0001 281.189 50.1112 286.054 44.2223C290.919 38.3334 315.243 30.5556 328.5 35.0001C341.757 39.4445 342.608 54.3334 342.851 60.2223L282.649 58.0001Z" fill="#B9C6E4" stroke="#495894" stroke-miterlimit="10"/>
<path d="M321.081 531.222H283.013V568.667H321.081V531.222Z" fill="#C2D9F0"/>
<path d="M428.351 531.222H390.284V568.667H428.351V531.222Z" fill="#C2D9F0"/>
<path opacity="0.46" d="M253.459 138.333C253.459 138.333 263.797 125.111 275.959 120L304.176 112.889L304.541 121.889C304.541 121.889 326.676 137.222 346.135 120.111V112C346.135 112 387.608 123.556 402.324 135.556C412.297 143.667 428.23 185.556 428.23 185.556L386.392 194.556L283.5 195V275H272.432L270.243 195.111" fill="#EF749B"/>
<path d="M213.324 231.778L235.459 262.889C239.838 269 247.135 272.667 255.162 272.667C261.608 272.667 267.689 270.333 272.068 266.111L275.351 192.556L270.243 195.111L260.514 156.667L213.324 231.778Z" fill="#C2D9F0"/>
<path d="M159.081 134.444L183.77 228.889C185.473 235.555 192.892 239.778 200.189 238.111C200.554 238 200.919 237.889 201.284 237.778L264.162 218.889C270.973 216.889 274.865 210.333 273.162 204L247.622 110.667C245.797 104 238.378 99.8888 231.081 101.555C230.838 101.667 230.595 101.667 230.351 101.778L168.324 119.555C161.513 121.555 157.5 128 159.081 134.444Z" fill="white" stroke="#F27932" stroke-miterlimit="10"/>
<path d="M240.932 159.444L194.23 176.556L186.203 148.333L232.297 131L240.932 159.444Z" stroke="#EF749B" stroke-miterlimit="10"/>
<path d="M241.054 172.111L200.797 186.667L200.068 184L240.203 169.444L241.054 172.111Z" fill="#B9C6E4"/>
<path d="M237.527 182.111L208.703 192.444L207.973 189.667L236.797 179.333L237.527 182.111Z" fill="#B9C6E4"/>
<path d="M187.054 166.111L180.608 176.556L176.351 201.333L169.419 175.222L187.054 166.111Z" fill="#495894"/>
<path d="M176.351 201.333C175.135 200.222 167.96 192.889 162.608 187.444C158.716 183.556 156.284 178.556 155.797 173.333L154.338 158.889C153.851 153.889 156.527 149.111 161.27 146.667L176.108 139C178.176 138 180.73 138.556 181.824 140.444C181.946 140.556 181.946 140.778 182.068 140.889L182.311 141.444C182.919 142.778 182.676 144.222 181.703 145.222L177.446 150.111L185.23 146.333C187.419 145.556 189.73 146.444 190.703 148.444L190.946 148.889C191.676 150.333 191.189 152.111 189.851 153.222L178.054 162.444L181.46 160.889C183.527 160 186.081 160.778 187.054 162.667C187.905 164.333 187.297 166.333 185.716 167.333C182.189 169.667 176.716 173.556 176.473 174C176.23 174.778 173.311 189.889 173.311 189.889L176.351 201.333Z" fill="#C2D9F0"/>
<path d="M255.77 221.444L263.797 236.444" stroke="#4B4065" stroke-width="0.75" stroke-miterlimit="10"/>
<path d="M284.351 281.889L275.351 540.778H323.392L337.865 360.778L387.608 540.778H433.459L383.838 282L284.351 281.889Z" fill="#4B4065"/>
<path d="M323.635 560.667C323.635 560.667 293.838 566.889 289.095 554.555C284.351 542.222 283.987 542.889 278.757 542.333L277.297 549.333L252.73 560.667L220.014 572.889V579H323.514V560.667H323.635Z" fill="#495894"/>
<path d="M414.122 195H283.622V281.889H414.122V195Z" fill="#F7C689" stroke="#F27932" stroke-miterlimit="10"/>
<path d="M335.068 195.667H307.703V224H335.068V195.667Z" fill="white"/>
<path d="M285.932 268.556L445.5 122.778" stroke="#F27932" stroke-miterlimit="10"/>
<path d="M291.77 273.889L451.459 128.111" stroke="#F27932" stroke-miterlimit="10"/>
<path d="M297.608 279.222L457.297 133.445" stroke="#F27932" stroke-miterlimit="10"/>
<path d="M303.446 284.556L463.135 138.778" stroke="#F27932" stroke-miterlimit="10"/>
<path d="M309.284 289.889L468.973 144.111" stroke="#F27932" stroke-miterlimit="10"/>
<path d="M315.122 295.222L474.811 149.445" stroke="#F27932" stroke-miterlimit="10"/>
<path d="M320.959 300.556L480.649 154.778" stroke="#F27932" stroke-miterlimit="10"/>
<path d="M326.797 306L486.486 160.111" stroke="#F27932" stroke-miterlimit="10"/>
<path d="M332.635 311.333L492.324 165.445" stroke="#F27932" stroke-miterlimit="10"/>
<path d="M338.473 316.556L498.162 170.778" stroke="#F27932" stroke-miterlimit="10"/>
<path d="M344.432 322L504 176.111" stroke="#F27932" stroke-miterlimit="10"/>
<path d="M350.27 327.333L509.838 181.445" stroke="#F27932" stroke-miterlimit="10"/>
<path d="M356.108 332.667L515.676 186.778" stroke="#F27932" stroke-miterlimit="10"/>
<path d="M361.946 338L521.513 192.111" stroke="#F27932" stroke-miterlimit="10"/>
<path d="M367.784 343.333L527.351 197.445" stroke="#F27932" stroke-miterlimit="10"/>
<path d="M373.622 348.667L533.189 202.889" stroke="#F27932" stroke-miterlimit="10"/>
<path d="M379.459 354L539.027 208.222" stroke="#F27932" stroke-miterlimit="10"/>
<path d="M385.297 359.333L544.865 213.556" stroke="#F27932" stroke-miterlimit="10"/>
<path d="M391.135 364.667L550.702 218.889" stroke="#F27932" stroke-miterlimit="10"/>
<path d="M396.973 370L556.662 224.222" stroke="#F27932" stroke-miterlimit="10"/>
<path d="M402.811 375.333L562.5 229.556" stroke="#F27932" stroke-miterlimit="10"/>
<path d="M408.649 380.667L568.338 234.889" stroke="#F27932" stroke-miterlimit="10"/>
<path d="M414 195H361.824V281.889H414V195Z" stroke="#F27932" stroke-miterlimit="10"/>
<path d="M423 186.667L437.473 267.778C438.932 277.333 433.824 286.667 424.581 291.444C414 296.889 401.716 303.222 401.473 303.556C401.108 304.222 384.811 295.667 379.703 281.889H397.095L405.608 271.111L386.513 194.556L423 186.667Z" fill="#C2D9F0"/>
<path d="M285.811 66.1111H263.797C263.797 66.1111 263.554 58.1111 283.135 58.1111L286.297 58.2222L285.811 66.1111Z" fill="#4B4065"/>
<path d="M435.527 563.111C433.095 558.333 428.838 545.333 428.838 545.333H389.797C389.797 545.333 385.541 558.444 383.108 563.111C380.676 567.778 381.284 575.556 381.284 575.556C394.176 582.778 430.784 580.778 437.473 575.556C437.473 575.556 437.96 567.889 435.527 563.111Z" fill="#495894"/>
<path d="M373.257 193.445L367.541 145.556" stroke="#EF749B" stroke-miterlimit="10"/>
<path d="M342.973 72.5555L342.365 60.1111C342.365 59.7777 324.365 59.3333 322.419 59.2222C322.541 62.6666 324.122 65.9999 326.676 68.5555C328.743 70.2222 331.297 71.5555 333.851 72.4444L338.595 74.3333C341.149 75.3333 341.514 74.8888 342.973 72.5555Z" fill="#495894"/>
<path d="M343.581 82.4443L352.459 76.4443" stroke="#4B4065" stroke-miterlimit="10" stroke-linecap="round" stroke-linejoin="round"/>
<path d="M294.811 90.5556C299.919 91.3334 305.149 90.1112 309.284 87.2223C309.77 86.889 309.04 86.3334 308.676 86.6667C304.784 89.4445 299.919 90.5556 295.176 89.7779C294.446 89.6668 294.203 90.4445 294.811 90.5556Z" fill="#4B4065"/>
<path d="M270.851 74.2221C274.135 69.7777 280.703 68.6666 285.446 71.5555C287.27 72.6666 288.608 74.2221 289.459 76.111C282.77 79.111 275.473 79.3333 270.851 74.2221Z" fill="white"/>
<path d="M303.811 106L316.946 100.667L304.176 113.556L303.811 106Z" fill="#4B4065"/>
<path d="M301.5 58.5555L286.419 58.2222C286.419 58.3333 286.419 58.4444 286.297 58.4444C284.23 59.3333 282.284 60.6666 280.824 62.3333C279.365 64.3333 279 66.8888 279.851 69.1111C281.068 71.4444 283.257 72.9999 286.054 73.5555C286.176 73.5555 286.054 69.9999 286.054 69.6666C286.297 68.1111 286.662 66.5555 288.365 66.1111C290.068 65.6666 291.892 66.2222 293.595 66.3333C298.703 66.4444 300.284 62.3333 301.743 58.7777C301.743 58.7777 301.622 58.5555 301.5 58.5555Z" fill="#495894"/>
<path d="M316.581 74.5556C313.297 70.5556 307.216 69.6667 302.838 72.6667C301.135 73.7778 299.919 75.3334 299.311 77.1111C305.513 79.5556 311.716 77.8889 316.581 74.5556Z" fill="white"/>
<path d="M294.811 77.7778C294.081 78.889 293.716 80.2223 293.959 81.5556C294.203 82.6667 295.054 83.4445 296.149 83.7779C296.757 83.889 297 83.1112 296.392 83.0001C295.541 82.7778 294.932 82.1112 294.811 81.3334C294.811 80.2223 295.054 79.2223 295.662 78.2223C295.784 78.0001 295.662 77.7778 295.541 77.6667C295.176 77.5556 294.932 77.5556 294.811 77.7778Z" fill="#4B4065"/>
<path d="M316.946 67.3333C313.176 65.4444 308.554 65.5555 304.784 67.4444C308.797 67.3333 312.932 67.3333 316.946 67.3333Z" fill="#4B4065"/>
<path d="M317.189 66.8889C313.176 65 308.432 65 304.541 67C304.297 67.1111 304.297 67.3334 304.419 67.5556C304.541 67.6667 304.662 67.7778 304.784 67.7778C308.797 67.7778 312.933 67.7778 316.946 67.6667C317.189 67.6667 317.311 67.4445 317.311 67.2222C317.311 67 317.068 66.8889 316.946 66.8889C312.933 66.8889 308.797 67 304.784 67L305.027 67.7778C308.676 66 313.054 65.8889 316.703 67.6667C317.311 67.8889 317.676 67.2222 317.189 66.8889Z" fill="#4B4065"/>
<path d="M309.527 77.7778C309.527 76.5555 309.162 75.3333 308.311 74.3333C307.216 73.1111 305.635 72.3333 303.811 72.1111C301.622 73.2222 300.041 75 299.189 77.1111C302.473 78.3333 306.122 78.6666 309.527 77.7778Z" fill="#4B4065"/>
<path d="M182.432 159.667L164.919 172.445" stroke="#4B4065" stroke-width="0.75" stroke-miterlimit="10"/>
<path d="M337.865 360.778L321.324 311.111" stroke="white" stroke-miterlimit="10"/>
<path d="M366.081 291.444L385.905 311.667" stroke="white" stroke-miterlimit="10"/>
<path d="M342.608 53.4446H327.892V59.3335H342.608V53.4446Z" stroke="white" stroke-miterlimit="10"/>
<path d="M178.905 149L161.392 161.778" stroke="#4B4065" stroke-width="0.75" stroke-miterlimit="10"/>
<path d="M381.284 194.667L393.568 274.889L379.581 281.889H396.973L405.486 271.111L386.392 194.556L381.284 194.667Z" fill="#F27932"/>
<path d="M344.067 90.111L337.865 89.3333L344.432 94.4444L344.067 90.111Z" fill="#4B4065"/>
<path d="M324.608 320.667H311.716" stroke="white" stroke-miterlimit="10"/>
<path d="M332.513 56.889C332.916 56.889 333.243 56.5905 333.243 56.2223C333.243 55.8541 332.916 55.5557 332.513 55.5557C332.11 55.5557 331.784 55.8541 331.784 56.2223C331.784 56.5905 332.11 56.889 332.513 56.889Z" fill="white"/>
<path d="M338.959 56.889C339.362 56.889 339.689 56.5905 339.689 56.2223C339.689 55.8541 339.362 55.5557 338.959 55.5557C338.556 55.5557 338.23 55.8541 338.23 56.2223C338.23 56.5905 338.556 56.889 338.959 56.889Z" fill="white"/>
<path opacity="0.21" d="M318.284 90.3333C321.978 90.3333 324.973 87.5973 324.973 84.2222C324.973 80.8471 321.978 78.1111 318.284 78.1111C314.589 78.1111 311.595 80.8471 311.595 84.2222C311.595 87.5973 314.589 90.3333 318.284 90.3333Z" fill="#EF749B"/>
<path d="M381.527 568.667C381.527 568.667 409.5 577.445 437.108 568.667" stroke="white" stroke-miterlimit="10"/>
<path d="M275.351 192.444L277.419 149L273.649 142.889" stroke="#EF749B" stroke-miterlimit="10"/>
<path opacity="0.43" d="M387.486 198.778L425.311 199.556L423 186.667L386.392 194.556L387.486 198.778Z" fill="#495894"/>
<path d="M176.959 88.6668C179.378 88.6668 181.338 86.8759 181.338 84.6667C181.338 82.4576 179.378 80.6667 176.959 80.6667C174.541 80.6667 172.581 82.4576 172.581 84.6667C172.581 86.8759 174.541 88.6668 176.959 88.6668Z" fill="#F27932"/>
<path d="M282.041 58C285.568 58.1111 289.095 58.8889 292.378 60.1111C295.662 61.3333 298.338 63.5556 301.5 65C303.689 66.1111 306 66.7778 308.432 67C310.622 67 312.689 66.5556 314.514 65.5556C316.459 64.6667 325.581 59.8889 326.068 59.5556L282.041 58Z" fill="#B9C6E4" stroke="#495894" stroke-miterlimit="10"/>
<path opacity="0.32" d="M467.878 140.222C472.014 139.222 476.027 137.667 479.676 135.667C476.027 133.555 472.014 132 467.878 131C463.622 130 460.338 127 459.243 123.111C458.149 119.333 456.568 115.667 454.257 112.333C451.946 115.667 450.243 119.333 449.27 123.111C448.176 127 444.892 130 440.635 131C436.5 132 432.487 133.555 428.838 135.555C432.487 137.667 436.5 139.222 440.635 140.111C444.892 141.111 448.176 144.111 449.27 148C450.365 151.778 452.068 155.444 454.257 158.778C456.568 155.444 458.27 151.778 459.365 148C460.46 144.222 463.622 141.222 467.878 140.222Z" fill="#F7C689"/>
<path opacity="0.32" d="M208.824 295.778C212.959 294.778 216.973 293.222 220.622 291.222C216.973 289.111 212.959 287.556 208.824 286.556C204.568 285.556 201.284 282.556 200.189 278.667C199.095 274.889 197.514 271.222 195.203 267.889C192.892 271.222 191.189 274.889 190.216 278.667C189.122 282.556 185.838 285.556 181.581 286.556C177.446 287.556 173.432 289.111 169.784 291.111C173.432 293.222 177.446 294.778 181.581 295.667C185.838 296.667 189.122 299.667 190.216 303.556C191.311 307.333 193.014 311 195.203 314.333C197.514 311 199.216 307.333 200.311 303.556C201.405 299.778 204.568 296.778 208.824 295.778Z" fill="#F7C689"/>
<path d="M222.568 571.667H323.514" stroke="white" stroke-miterlimit="10"/>
</g>
<defs>
<clipPath id="clip0">
<rect width="540" height="600" fill="white"/>
</clipPath>
</defs>
</svg>
