<svg width="137" height="23" viewBox="0 0 137 23" fill="none" xmlns="http://www.w3.org/2000/svg">
<path d="M10.208 13.704C10.208 15.128 9.72 16.232 8.744 17.016C7.768 17.784 6.512 18.168 4.976 18.168C3.28 18.168 1.84 17.824 0.656 17.136V15.048C1.824 15.928 3.248 16.368 4.928 16.368C5.936 16.368 6.728 16.144 7.304 15.696C7.88 15.248 8.168 14.6 8.168 13.752C8.168 13.4 8.096 13.088 7.952 12.816C7.824 12.528 7.6 12.272 7.28 12.048C6.976 11.808 6.68 11.616 6.392 11.472C6.12 11.312 5.744 11.12 5.264 10.896C5.168 10.848 5.024 10.784 4.832 10.704C4.144 10.4 3.616 10.152 3.248 9.96C2.896 9.768 2.472 9.488 1.976 9.12C1.496 8.736 1.144 8.296 0.92 7.8C0.696 7.304 0.584 6.728 0.584 6.072C0.584 4.696 1.072 3.624 2.048 2.856C3.04 2.072 4.28 1.68 5.768 1.68C7.16 1.68 8.344 1.928 9.32 2.424V4.464C8.344 3.824 7.176 3.504 5.816 3.504C4.84 3.504 4.064 3.736 3.488 4.2C2.912 4.648 2.624 5.24 2.624 5.976C2.624 6.36 2.696 6.704 2.84 7.008C3 7.312 3.272 7.6 3.656 7.872C4.04 8.128 4.368 8.328 4.64 8.472C4.912 8.6 5.336 8.792 5.912 9.048C6.456 9.288 6.872 9.48 7.16 9.624C7.448 9.752 7.816 9.968 8.264 10.272C8.728 10.56 9.072 10.848 9.296 11.136C9.536 11.408 9.744 11.776 9.92 12.24C10.112 12.688 10.208 13.176 10.208 13.704ZM19.4339 17.688C18.9059 17.976 18.3139 18.12 17.6579 18.12C15.2579 18.12 14.0579 16.896 14.0579 14.448V7.368H12.1139V5.832H14.0579V2.808H15.9539V5.832H19.3139V7.368H15.9539V14.496C15.9539 15.792 16.5619 16.44 17.7779 16.44C18.4019 16.44 18.9539 16.256 19.4339 15.888V17.688ZM25.9173 16.536C26.7813 16.536 27.4693 16.296 27.9813 15.816C28.4933 15.32 28.7493 14.696 28.7493 13.944V12.384H26.6373C25.6133 12.384 24.8453 12.584 24.3333 12.984C23.8213 13.384 23.5653 13.888 23.5653 14.496C23.5653 15.104 23.7653 15.6 24.1653 15.984C24.5653 16.352 25.1493 16.536 25.9173 16.536ZM28.7733 16.56C28.1493 17.6 27.0133 18.12 25.3653 18.12C24.2293 18.12 23.3093 17.784 22.6053 17.112C21.9173 16.44 21.5733 15.592 21.5733 14.568C21.5733 13.4 22.0133 12.496 22.8933 11.856C23.7893 11.2 25.0053 10.872 26.5413 10.872H28.7493V10.248C28.7493 9.288 28.5333 8.568 28.1013 8.088C27.6693 7.592 26.9413 7.344 25.9173 7.344C24.6213 7.344 23.4693 7.688 22.4613 8.376V6.48C23.3733 5.92 24.5733 5.64 26.0613 5.64C29.1173 5.64 30.6453 7.192 30.6453 10.296V18H28.7733V16.56ZM35.8818 18H33.9858L34.0098 5.832H35.8818V7.968C36.5218 6.464 37.6258 5.712 39.1938 5.712C39.4818 5.712 39.7058 5.728 39.8658 5.76V7.632C39.5298 7.52 39.1858 7.464 38.8338 7.464C37.9858 7.464 37.2818 7.856 36.7218 8.64C36.1618 9.424 35.8818 10.328 35.8818 11.352V18ZM47.9339 17.688C47.4059 17.976 46.8139 18.12 46.1579 18.12C43.7579 18.12 42.5579 16.896 42.5579 14.448V7.368H40.6139V5.832H42.5579V2.808H44.4539V5.832H47.8139V7.368H44.4539V14.496C44.4539 15.792 45.0619 16.44 46.2779 16.44C46.9019 16.44 47.4539 16.256 47.9339 15.888V17.688ZM65.5674 13.704C65.5674 15.128 65.0794 16.232 64.1034 17.016C63.1274 17.784 61.8714 18.168 60.3354 18.168C58.6394 18.168 57.1994 17.824 56.0154 17.136V15.048C57.1834 15.928 58.6074 16.368 60.2874 16.368C61.2954 16.368 62.0874 16.144 62.6634 15.696C63.2394 15.248 63.5274 14.6 63.5274 13.752C63.5274 13.4 63.4554 13.088 63.3114 12.816C63.1834 12.528 62.9594 12.272 62.6394 12.048C62.3354 11.808 62.0394 11.616 61.7514 11.472C61.4794 11.312 61.1034 11.12 60.6234 10.896C60.5274 10.848 60.3834 10.784 60.1914 10.704C59.5034 10.4 58.9754 10.152 58.6074 9.96C58.2554 9.768 57.8314 9.488 57.3354 9.12C56.8554 8.736 56.5034 8.296 56.2794 7.8C56.0554 7.304 55.9434 6.728 55.9434 6.072C55.9434 4.696 56.4314 3.624 57.4074 2.856C58.3994 2.072 59.6394 1.68 61.1274 1.68C62.5194 1.68 63.7034 1.928 64.6794 2.424V4.464C63.7034 3.824 62.5354 3.504 61.1754 3.504C60.1994 3.504 59.4234 3.736 58.8474 4.2C58.2714 4.648 57.9834 5.24 57.9834 5.976C57.9834 6.36 58.0554 6.704 58.1994 7.008C58.3594 7.312 58.6314 7.6 59.0154 7.872C59.3994 8.128 59.7274 8.328 59.9994 8.472C60.2714 8.6 60.6954 8.792 61.2714 9.048C61.8154 9.288 62.2314 9.48 62.5194 9.624C62.8074 9.752 63.1754 9.968 63.6234 10.272C64.0874 10.56 64.4314 10.848 64.6554 11.136C64.8954 11.408 65.1034 11.776 65.2794 12.24C65.4714 12.688 65.5674 13.176 65.5674 13.704ZM77.5773 17.376C76.6333 17.872 75.4813 18.12 74.1213 18.12C72.2813 18.12 70.7933 17.56 69.6573 16.44C68.5373 15.304 67.9773 13.808 67.9773 11.952C67.9773 10.016 68.4813 8.488 69.4893 7.368C70.4973 6.248 71.7933 5.688 73.3773 5.688C74.8973 5.688 76.1053 6.176 77.0013 7.152C77.8973 8.128 78.3453 9.512 78.3453 11.304C78.3453 11.816 78.3053 12.288 78.2253 12.72H69.9213C70.0653 13.92 70.5213 14.84 71.2893 15.48C72.0573 16.12 73.0653 16.44 74.3133 16.44C75.6733 16.44 76.7613 16.16 77.5773 15.6V17.376ZM73.3773 7.344C72.4653 7.344 71.6893 7.672 71.0493 8.328C70.4093 8.984 70.0333 9.92 69.9213 11.136H76.4493V10.656C76.4493 9.648 76.1773 8.848 75.6333 8.256C75.0893 7.648 74.3373 7.344 73.3773 7.344ZM90.8364 18H88.9404V10.128C88.9404 9.232 88.7084 8.552 88.2444 8.088C87.7964 7.608 87.2044 7.368 86.4684 7.368C85.5564 7.368 84.7644 7.72 84.0924 8.424C83.4364 9.128 83.1084 10.104 83.1084 11.352V18H81.2364V5.832H83.1084V7.944C83.8284 6.424 85.1084 5.664 86.9484 5.664C88.1324 5.664 89.0764 6.024 89.7804 6.744C90.4844 7.464 90.8364 8.424 90.8364 9.624V18ZM95.4453 12.048C95.4453 13.36 95.7653 14.424 96.4053 15.24C97.0453 16.056 97.8533 16.464 98.8293 16.464C99.8213 16.464 100.661 16.096 101.349 15.36C102.053 14.624 102.405 13.448 102.405 11.832C102.405 10.296 102.045 9.168 101.325 8.448C100.605 7.728 99.8133 7.368 98.9493 7.368C97.9413 7.368 97.1013 7.776 96.4293 8.592C95.7733 9.392 95.4453 10.544 95.4453 12.048ZM104.301 18H102.405V16.2C101.541 17.528 100.293 18.192 98.6613 18.192C97.0453 18.192 95.7733 17.592 94.8453 16.392C93.9333 15.192 93.4773 13.736 93.4773 12.024C93.4773 10.12 93.9653 8.584 94.9413 7.416C95.9173 6.232 97.1733 5.64 98.7093 5.64C100.293 5.64 101.525 6.32 102.405 7.68V1.032H104.301V18ZM109.807 18H107.911V5.832H109.807V18ZM109.735 1.128C109.975 1.368 110.095 1.664 110.095 2.016C110.095 2.368 109.975 2.664 109.735 2.904C109.495 3.128 109.199 3.24 108.847 3.24C108.495 3.24 108.199 3.128 107.959 2.904C107.735 2.664 107.623 2.368 107.623 2.016C107.623 1.664 107.735 1.368 107.959 1.128C108.199 0.887999 108.495 0.767999 108.847 0.767999C109.199 0.767999 109.495 0.887999 109.735 1.128ZM123.016 18H121.12V10.128C121.12 9.232 120.888 8.552 120.424 8.088C119.976 7.608 119.384 7.368 118.648 7.368C117.736 7.368 116.944 7.72 116.272 8.424C115.616 9.128 115.288 10.104 115.288 11.352V18H113.416V5.832H115.288V7.944C116.008 6.424 117.288 5.664 119.128 5.664C120.312 5.664 121.256 6.024 121.96 6.744C122.664 7.464 123.016 8.424 123.016 9.624V18ZM136.193 17.016C136.193 18.872 135.681 20.264 134.657 21.192C133.633 22.136 132.313 22.608 130.697 22.608C129.225 22.608 127.969 22.36 126.929 21.864V19.968C127.953 20.56 129.153 20.856 130.529 20.856C131.697 20.856 132.617 20.544 133.289 19.92C133.961 19.296 134.297 18.32 134.297 16.992V15.624C133.497 17 132.305 17.688 130.721 17.688C129.329 17.688 128.137 17.176 127.145 16.152C126.169 15.128 125.681 13.704 125.681 11.88C125.681 10.072 126.137 8.584 127.049 7.416C127.961 6.248 129.153 5.664 130.625 5.664C132.289 5.664 133.513 6.392 134.297 7.848V5.832H136.193V17.016ZM127.649 11.832C127.649 13.192 127.985 14.232 128.657 14.952C129.329 15.656 130.089 16.008 130.937 16.008C131.817 16.008 132.593 15.672 133.265 15C133.953 14.312 134.297 13.296 134.297 11.952C134.297 10.4 133.969 9.248 133.313 8.496C132.657 7.744 131.897 7.368 131.033 7.368C129.993 7.368 129.169 7.784 128.561 8.616C127.953 9.432 127.649 10.504 127.649 11.832Z" fill="#FFDD29"/>
</svg>
