<svg width="63" height="131" viewBox="0 0 63 131" fill="none" xmlns="http://www.w3.org/2000/svg">
<path d="M16.5547 110.229L18.3415 112.629L21.7308 117.114C23.9263 119.966 25.9305 122.485 27.7154 124.52C31.1704 128.654 33.4917 130.989 33.875 130.534C34.2584 130.08 32.6232 126.95 29.6795 122.251C28.2043 119.893 26.4019 117.132 24.3545 114.141L21.1198 109.453L20.6695 108.814C23.1439 110.434 25.6843 111.836 28.2677 113.009C31.2867 114.406 34.3638 115.416 37.4435 116.02C41.7755 116.929 46.044 116.663 49.9357 115.241C52.3373 114.326 54.5156 112.881 56.3769 110.97C57.3945 109.901 58.2975 108.684 59.0714 107.339C59.8709 105.899 60.5291 104.334 61.0358 102.668C62.9008 95.2824 62.5399 86.8843 60.0102 78.8038C57.4472 70.6957 53.7825 62.9516 49.1879 55.9343C44.8512 49.0488 40.4155 42.6293 36.0025 36.6283C28.6408 26.3788 20.4177 17.0607 11.5195 8.88539C4.71648 2.81501 0.180082 0.220423 0.0939519 0.559177C0.00782231 0.89793 4.21713 4.3319 10.5624 10.865C18.8899 19.538 26.5977 29.0976 33.5605 39.388C37.6894 45.4178 41.9972 51.9888 46.0081 58.7157C50.061 65.1864 53.2748 72.2718 55.5065 79.6568C57.4855 86.2659 57.7182 93.097 56.1691 99.1024C54.641 103.825 51.5108 107.27 47.4557 108.693C44.1999 109.891 40.6406 110.17 37.0149 109.511C34.2704 109.037 31.5218 108.258 28.8041 107.182C25.9139 106.025 23.7289 105.082 22.0186 104.281C22.6859 103.757 23.333 103.261 23.9667 102.771C26.0764 101.118 27.9429 99.5583 29.4584 98.1761C30.6984 97.0798 31.8674 95.8783 32.9586 94.5782C33.2137 94.3069 33.3585 93.9099 33.3654 93.4636C33.3607 93.3085 33.3141 93.1502 33.2327 93.0128C33.1513 92.8754 33.0395 92.7664 32.9144 92.7024C32.7335 92.6218 32.5469 92.5961 32.3724 92.6279C32.2967 92.592 32.2192 92.5673 32.1418 92.5545C32.0498 92.6215 31.9442 92.6625 31.8311 92.6752C30.3569 93.1961 28.9292 93.8388 27.5566 94.5994C25.795 95.5479 23.7234 96.7389 21.4906 98.1554C20.3708 98.8751 19.2039 99.6335 17.9964 100.408C17.3356 100.868 16.6612 101.333 15.9733 101.804C15.3292 102.073 14.8079 102.599 14.4819 103.309C14.1559 104.02 14.0413 104.878 14.1539 105.767C14.3222 106.686 14.7093 107.571 15.2646 108.307L16.663 110.227" fill="#072333"/>
</svg>
