<svg width="38" height="31" viewBox="0 0 38 31" fill="none" xmlns="http://www.w3.org/2000/svg">
<path d="M11.9544 30.8761C26.2905 30.8761 34.1339 18.9959 34.1339 8.69661C34.1339 8.36262 34.1265 8.02122 34.1117 7.68723C35.6375 6.58381 36.9542 5.21706 38 3.65122C36.579 4.28344 35.0703 4.69635 33.5254 4.87582C35.152 3.90076 36.37 2.36899 36.9535 0.564457C35.4232 1.47138 33.7497 2.11113 32.0046 2.45629C30.8288 1.20696 29.2742 0.379761 27.5812 0.102574C25.8881 -0.174613 24.1509 0.113656 22.6381 0.922812C21.1253 1.73197 19.9212 3.01694 19.2119 4.57907C18.5027 6.1412 18.3278 7.89347 18.7143 9.56497C15.6156 9.40947 12.5842 8.60452 9.81664 7.20232C7.04904 5.80011 4.60701 3.83193 2.64887 1.42539C1.65363 3.1413 1.34909 5.17176 1.79713 7.10414C2.24517 9.03651 3.41218 10.7258 5.06098 11.8286C3.82316 11.7893 2.61246 11.4561 1.52891 10.8564V10.9529C1.5278 12.7536 2.15032 14.4991 3.29066 15.8927C4.43099 17.2863 6.01876 18.242 7.78406 18.5974C6.63742 18.9111 5.43397 18.9568 4.26684 18.731C4.76497 20.2796 5.73416 21.6341 7.03914 22.6054C8.34412 23.5766 9.91978 24.1163 11.5462 24.1489C8.78501 26.3179 5.37411 27.4944 1.86289 27.4888C1.2402 27.4878 0.618132 27.4497 0 27.3745C3.56702 29.6629 7.71642 30.8784 11.9544 30.8761Z" fill="white"/>
</svg>
