<svg width="24" height="24" viewBox="0 0 24 24" fill="none" xmlns="http://www.w3.org/2000/svg">
<g clip-path="url(#clip0)">
<g filter="url(#filter0_d)">
<path d="M17 4.14V2H14V4H10V2H7V4.14C5.28 4.59 4 6.14 4 8V20C4 21.1 4.9 22 6 22H18C19.1 22 20 21.1 20 20V8C20 6.14 18.72 4.59 17 4.14ZM18 20H6V8C6 6.9 6.9 6 8 6H16C17.1 6 18 6.9 18 8V20ZM16.5 12V16H14.5V14H7.5V12H16.5Z" fill="#4D12EE"/>
<path d="M16.5 4.14V4.52602L16.8734 4.62372C18.3832 5.01871 19.5 6.37731 19.5 8V20C19.5 20.8239 18.8239 21.5 18 21.5H6C5.17614 21.5 4.5 20.8239 4.5 20V8C4.5 6.37731 5.61682 5.01871 7.12655 4.62372L7.5 4.52602V4.14V2.5H9.5V4V4.5H10H14H14.5V4V2.5H16.5V4.14ZM18 20.5H18.5V20V8C18.5 6.62386 17.3761 5.5 16 5.5H8C6.62386 5.5 5.5 6.62386 5.5 8V20V20.5H6H18ZM14.5 13.5H8V12.5H16V15.5H15V14V13.5H14.5Z" stroke="#4D12EE"/>
</g>
</g>
<defs>
<filter id="filter0_d" x="0" y="2" width="24" height="28" filterUnits="userSpaceOnUse" color-interpolation-filters="sRGB">
<feFlood flood-opacity="0" result="BackgroundImageFix"/>
<feColorMatrix in="SourceAlpha" type="matrix" values="0 0 0 0 0 0 0 0 0 0 0 0 0 0 0 0 0 0 127 0" result="hardAlpha"/>
<feOffset dy="4"/>
<feGaussianBlur stdDeviation="2"/>
<feComposite in2="hardAlpha" operator="out"/>
<feColorMatrix type="matrix" values="0 0 0 0 0 0 0 0 0 0 0 0 0 0 0 0 0 0 0.25 0"/>
<feBlend mode="normal" in2="BackgroundImageFix" result="effect1_dropShadow"/>
<feBlend mode="normal" in="SourceGraphic" in2="effect1_dropShadow" result="shape"/>
</filter>
<clipPath id="clip0">
<rect width="24" height="24" fill="white"/>
</clipPath>
</defs>
</svg>
