<svg width="24" height="24" viewBox="0 0 24 24" fill="none" xmlns="http://www.w3.org/2000/svg">
<path d="M23.1155 14.5399L22.2877 14.0619C22.4267 13.3704 22.4971 12.678 22.4971 12C22.4971 11.3121 22.4278 10.619 22.2912 9.936L23.1155 9.46004C23.3708 9.31266 23.5535 9.07463 23.6298 8.78987C23.706 8.50511 23.6669 8.20767 23.5195 7.95236L21.2651 4.04759C21.1177 3.79228 20.8797 3.60963 20.5949 3.53335C20.3101 3.45708 20.0127 3.4962 19.7574 3.64363L18.9323 4.11997C17.8902 3.20313 16.6637 2.49356 15.3581 2.05207V1.10372C15.3581 0.495123 14.863 0 14.2544 0H9.7456C9.137 0 8.64188 0.495123 8.64188 1.10372V2.05212C7.34325 2.49182 6.11845 3.20233 5.07246 4.12279L4.2426 3.64363C3.98724 3.4962 3.6898 3.45703 3.40504 3.53335C3.12028 3.60968 2.8823 3.79228 2.73487 4.04759L0.480472 7.95236C0.333043 8.20767 0.29392 8.50511 0.370194 8.78987C0.446468 9.07463 0.629121 9.31266 0.884432 9.46004L1.71227 9.93802C1.57334 10.6295 1.50294 11.3219 1.50294 12C1.50294 12.6878 1.57217 13.3809 1.70884 14.064L0.88448 14.5399C0.357419 14.8442 0.176221 15.5205 0.480472 16.0476L2.73487 19.9524C3.03917 20.4794 3.71549 20.6607 4.2426 20.3564L5.06757 19.88C6.10976 20.7969 7.3362 21.5064 8.64188 21.948V22.8963C8.64188 23.5049 9.137 24 9.7456 24H14.2544C14.863 24 15.3581 23.5049 15.3581 22.8963V21.9479C16.6568 21.5082 17.8816 20.7977 18.9276 19.8773L19.7574 20.3564C20.2844 20.6607 20.9608 20.4794 21.2651 19.9524L23.5195 16.0476C23.8238 15.5205 23.6426 14.8442 23.1155 14.5399ZM22.9094 15.6954L20.655 19.6001C20.5449 19.7908 20.3003 19.8563 20.1097 19.7462L19.058 19.139C18.9244 19.0619 18.756 19.0807 18.6427 19.1855C17.5675 20.1799 16.2738 20.9302 14.9017 21.3553C14.7542 21.401 14.6536 21.5374 14.6536 21.6918V22.8963C14.6536 23.1164 14.4745 23.2955 14.2544 23.2955H9.7456C9.52547 23.2955 9.34638 23.1164 9.34638 22.8963V21.6918C9.34638 21.5374 9.24582 21.401 9.0984 21.3554C7.71776 20.9276 6.42251 20.1783 5.35257 19.1884C5.28583 19.1266 5.19992 19.0947 5.11327 19.0947C5.05287 19.0947 4.99214 19.1102 4.93724 19.1419L3.89035 19.7462C3.69967 19.8563 3.45506 19.7907 3.34502 19.6001L1.09062 15.6954C0.980573 15.5048 1.04614 15.2601 1.23673 15.15L2.28277 14.5461C2.41635 14.4689 2.48421 14.314 2.45026 14.1635C2.28911 13.4493 2.20744 12.7213 2.20744 12C2.20744 11.2908 2.29033 10.5636 2.45387 9.8385C2.48778 9.68806 2.41992 9.53302 2.28639 9.45595L1.23673 8.84994C1.14439 8.79663 1.07836 8.71054 1.05074 8.60755C1.02317 8.50455 1.03731 8.39695 1.09062 8.30461L3.34502 4.39984C3.39833 4.30751 3.48442 4.24142 3.58746 4.21386C3.69041 4.18624 3.79806 4.20042 3.8904 4.25373L4.94208 4.86092C5.07574 4.93813 5.24407 4.91925 5.35736 4.81447C6.43261 3.82004 7.72622 3.06975 9.0984 2.64465C9.24587 2.59895 9.34643 2.46256 9.34643 2.30818V1.10372C9.34643 0.883585 9.52551 0.704501 9.74565 0.704501H14.2545C14.4746 0.704501 14.6537 0.883585 14.6537 1.10372V2.30818C14.6537 2.46256 14.7542 2.59895 14.9017 2.64465C16.2822 3.07233 17.5775 3.82168 18.6475 4.81165C18.7608 4.91648 18.9291 4.93531 19.0628 4.85814L20.1097 4.25373C20.2021 4.20042 20.3097 4.18624 20.4126 4.21386C20.5156 4.24147 20.6017 4.30751 20.6551 4.39984L22.9095 8.30461C22.9628 8.39695 22.977 8.50455 22.9494 8.60755C22.9217 8.71054 22.8557 8.79663 22.7634 8.84994L21.7173 9.45389C21.5837 9.53101 21.5159 9.68604 21.5498 9.83648C21.711 10.5507 21.7927 11.2785 21.7927 12C21.7927 12.7092 21.7098 13.4364 21.5462 14.1615C21.5123 14.3119 21.5802 14.4669 21.7137 14.544L22.7634 15.15C22.9539 15.2601 23.0195 15.5048 22.9094 15.6954Z" fill="#FFBD74"/>
<path d="M12 4.88452C8.0765 4.88452 4.88455 8.07652 4.88455 12C4.88455 15.9234 8.0765 19.1154 12 19.1154C15.9235 19.1154 19.1155 15.9234 19.1155 12C19.1155 8.07652 15.9235 4.88452 12 4.88452ZM12 18.4109C8.46501 18.4109 5.58905 15.535 5.58905 12C5.58905 8.46498 8.46501 5.58902 12 5.58902C15.535 5.58902 18.411 8.46498 18.411 12C18.411 15.535 15.535 18.4109 12 18.4109Z" fill="#FFBD74"/>
<path d="M13.3151 10.1448H12C11.8055 10.1448 11.6478 10.3025 11.6478 10.497V13.5029C11.6478 13.6974 11.8055 13.8551 12 13.8551C12.1946 13.8551 12.3523 13.6974 12.3523 13.5029V12.7279H13.3151C14.0273 12.7279 14.6067 12.1486 14.6067 11.4364C14.6067 10.7242 14.0273 10.1448 13.3151 10.1448ZM13.3151 12.0234H12.3523V10.8493H13.3151C13.6388 10.8493 13.9022 11.1126 13.9022 11.4364C13.9022 11.7601 13.6388 12.0234 13.3151 12.0234Z" fill="#FFBD74"/>
<path d="M10.0754 10.3734C10.0238 10.2359 9.89241 10.1448 9.74559 10.1448H9.36986C9.22304 10.1448 9.09158 10.2358 9.04006 10.3734L7.91285 13.3792C7.84452 13.5614 7.93685 13.7644 8.11899 13.8327C8.30113 13.9011 8.50417 13.8087 8.5725 13.6266L8.76854 13.1037H10.3469L10.5429 13.6266C10.596 13.768 10.7302 13.8552 10.8728 13.8552C10.9139 13.8552 10.9557 13.848 10.9964 13.8327C11.1786 13.7645 11.2709 13.5614 11.2026 13.3792L10.0754 10.3734ZM9.03273 12.3992L9.55773 10.9992L10.0827 12.3992H9.03273Z" fill="#FFBD74"/>
<path d="M15.3816 10.1448C15.1871 10.1448 15.0294 10.3025 15.0294 10.497V13.5029C15.0294 13.6974 15.1871 13.8551 15.3816 13.8551C15.5761 13.8551 15.7339 13.6974 15.7339 13.5029V10.497C15.7339 10.3025 15.5761 10.1448 15.3816 10.1448Z" fill="#FFBD74"/>
<path d="M14.5199 4.10016C14.7643 4.17808 15.008 4.26858 15.2441 4.36909C15.2891 4.38825 15.3359 4.39732 15.3819 4.39732C15.5189 4.39732 15.6492 4.31691 15.7062 4.18296C15.7824 4.00397 15.6991 3.79709 15.5201 3.72091C15.2637 3.6118 14.9992 3.51355 14.7338 3.42896C14.5485 3.36988 14.3503 3.47227 14.2912 3.6576C14.2321 3.84293 14.3345 4.04108 14.5199 4.10016Z" fill="#FFBD74"/>
<path d="M4.71783 15.964C4.62465 15.7932 4.41062 15.7303 4.23989 15.8235C4.06912 15.9167 4.00619 16.1306 4.09937 16.3014C4.24553 16.5693 4.40733 16.8328 4.58026 17.0847C4.64855 17.1841 4.75878 17.2375 4.87094 17.2375C4.93965 17.2375 5.00907 17.2175 5.07003 17.1756C5.23042 17.0655 5.27114 16.8462 5.16101 16.6859C5.00165 16.4538 4.85253 16.2109 4.71783 15.964Z" fill="#FFBD74"/>
<path d="M11.2786 20.2588C9.39108 20.0962 7.59939 19.2782 6.23364 17.9555C6.09387 17.8202 5.87087 17.8238 5.73556 17.9635C5.60025 18.1033 5.60377 18.3263 5.74355 18.4616C7.22535 19.8967 9.16963 20.7842 11.2181 20.9607C11.2284 20.9616 11.2386 20.962 11.2488 20.962C11.4296 20.962 11.5835 20.8235 11.5993 20.64C11.616 20.4462 11.4724 20.2756 11.2786 20.2588Z" fill="#FFBD74"/>
<path d="M17.0689 4.56927C16.9083 4.4595 16.6891 4.50074 16.5793 4.66132C16.4695 4.82195 16.5108 5.04114 16.6714 5.1509C18.3079 6.26932 19.4917 7.93358 20.0047 9.83705C20.047 9.9942 20.1893 10.0977 20.3446 10.0977C20.3749 10.0977 20.4058 10.0938 20.4364 10.0855C20.6243 10.0349 20.7355 9.84156 20.6849 9.65374C20.1282 7.58814 18.844 5.78246 17.0689 4.56927Z" fill="#FFBD74"/>
</svg>
