<svg width="150" height="150" viewBox="0 0 150 150" fill="none" xmlns="http://www.w3.org/2000/svg">
<path d="M117.188 91.4062L133.133 107.351C134.765 108.984 136.06 110.921 136.943 113.054C137.827 115.187 138.281 117.473 138.281 119.781V134.18C138.281 136.511 137.355 138.746 135.707 140.394C134.059 142.043 131.823 142.969 129.492 142.969H121.875V126.562H117.188V91.4062Z" fill="#FA5D3F"/>
<path d="M117.188 91.4062L133.133 107.351C134.765 108.984 136.06 110.921 136.943 113.054C137.827 115.187 138.281 117.473 138.281 119.781V134.18C138.281 136.511 137.355 138.746 135.707 140.394C134.059 142.043 131.823 142.969 129.492 142.969H121.875V126.562H117.188V91.4062Z" stroke="black"/>
<path d="M35.1562 135.938V89.0625L60.9375 72.6562H89.0625L114.844 89.0625V135.938H35.1562Z" fill="#FA5D3F"/>
<path d="M35.1562 135.938V89.0625L60.9375 72.6562H89.0625L114.844 89.0625V135.938H35.1562Z" stroke="black"/>
<path d="M89.0625 72.6562L75 86.7188L60.9375 72.6562L63.2812 63.2812H86.7188L89.0625 72.6562Z" fill="#FFD4CF"/>
<path d="M89.0625 72.6562L75 86.7188L60.9375 72.6562L63.2812 63.2812H86.7188L89.0625 72.6562Z" stroke="black"/>
<path d="M87.6079 66.8385L86.7187 63.2812H63.2812L62.3771 66.8979L70.2668 70.8428C71.7394 71.5791 73.3639 71.9604 75.0103 71.9562C76.6567 71.9521 78.2793 71.5625 79.7481 70.8187L87.6079 66.8385Z" fill="#FBB8B0"/>
<path d="M87.6079 66.8385L86.7187 63.2812H63.2812L62.3771 66.8979L70.2668 70.8428C71.7394 71.5791 73.3639 71.9604 75.0103 71.9562C76.6567 71.9521 78.2793 71.5625 79.7481 70.8187L87.6079 66.8385Z" stroke="black"/>
<path d="M97.2656 35.1563H93.75V25.7812H56.25V35.1563H52.7344C51.1804 35.1563 49.69 35.7736 48.5912 36.8724C47.4923 37.9713 46.875 39.4616 46.875 41.0156V43.3594C46.875 44.9134 47.4923 46.4037 48.5912 47.5026C49.69 48.6014 51.1804 49.2188 52.7344 49.2188H56.25V53.1618C56.25 54.794 56.7045 56.394 57.5626 57.7825C58.4206 59.171 59.6484 60.2931 61.1083 61.0231L72.3633 66.6504C73.1814 67.0595 74.0838 67.2713 74.9985 67.269C75.9131 67.2668 76.8145 67.0504 77.6306 66.6372L88.9318 60.9144C90.3812 60.1803 91.5988 59.059 92.4493 57.6748C93.2998 56.2906 93.7501 54.6977 93.75 53.0731V49.2188H97.2656C98.8196 49.2188 100.31 48.6014 101.409 47.5026C102.508 46.4037 103.125 44.9134 103.125 43.3594V41.0156C103.125 39.4616 102.508 37.9713 101.409 36.8724C100.31 35.7736 98.8196 35.1563 97.2656 35.1563Z" fill="#FFD4CF"/>
<path d="M97.2656 35.1563H93.75V25.7812H56.25V35.1563H52.7344C51.1804 35.1563 49.69 35.7736 48.5912 36.8724C47.4923 37.9713 46.875 39.4616 46.875 41.0156V43.3594C46.875 44.9134 47.4923 46.4037 48.5912 47.5026C49.69 48.6014 51.1804 49.2188 52.7344 49.2188H56.25V53.1618C56.25 54.794 56.7045 56.394 57.5626 57.7825C58.4206 59.171 59.6484 60.2931 61.1083 61.0231L72.3633 66.6504C73.1814 67.0595 74.0838 67.2713 74.9985 67.269C75.9131 67.2668 76.8145 67.0504 77.6306 66.6372L88.9318 60.9144C90.3812 60.1803 91.5988 59.059 92.4493 57.6748C93.2998 56.2906 93.7501 54.6977 93.75 53.0731V49.2188H97.2656C98.8196 49.2188 100.31 48.6014 101.409 47.5026C102.508 46.4037 103.125 44.9134 103.125 43.3594V41.0156C103.125 39.4616 102.508 37.9713 101.409 36.8724C100.31 35.7736 98.8196 35.1563 97.2656 35.1563Z" stroke="black"/>
<path d="M63.2812 37.5H67.9688V42.1875H63.2812V37.5Z" fill="black"/>
<path d="M63.2812 37.5H67.9688V42.1875H63.2812V37.5Z" stroke="black"/>
<path d="M82.0312 37.5H86.7188V42.1875H82.0312V37.5Z" fill="black"/>
<path d="M82.0312 37.5H86.7188V42.1875H82.0312V37.5Z" stroke="black"/>
<path d="M75 58.5938C71.0572 58.5938 67.9688 56.02 67.9688 52.7344H72.6562C72.6562 53.1475 73.546 53.9062 75 53.9062C76.454 53.9062 77.3438 53.1475 77.3438 52.7344H82.0312C82.0312 56.02 78.9428 58.5938 75 58.5938Z" fill="black"/>
<path d="M75 58.5938C71.0572 58.5938 67.9688 56.02 67.9688 52.7344H72.6562C72.6562 53.1475 73.546 53.9062 75 53.9062C76.454 53.9062 77.3438 53.1475 77.3438 52.7344H82.0312C82.0312 56.02 78.9428 58.5938 75 58.5938Z" stroke="black"/>
<path d="M68.5547 7.03125H81.4453C85.3303 7.03125 89.0562 8.57456 91.8033 11.3217C94.5504 14.0688 96.0938 17.7947 96.0938 21.6797V25.7812H53.9062V21.6797C53.9062 17.7947 55.4496 14.0688 58.1967 11.3217C60.9438 8.57456 64.6697 7.03125 68.5547 7.03125Z" fill="#FA5D3F"/>
<path d="M68.5547 7.03125H81.4453C85.3303 7.03125 89.0562 8.57456 91.8033 11.3217C94.5504 14.0688 96.0938 17.7947 96.0938 21.6797V25.7812H53.9062V21.6797C53.9062 17.7947 55.4496 14.0688 58.1967 11.3217C60.9438 8.57456 64.6697 7.03125 68.5547 7.03125Z" stroke="black"/>
<path d="M86.9842 33.7706L81.5004 30.1146C79.5754 28.8313 77.3136 28.1465 75 28.1465C72.6864 28.1465 70.4246 28.8313 68.4996 30.1146L63.0158 33.7706C62.1334 34.3589 61.1078 34.6966 60.0485 34.7478C58.9892 34.799 57.9359 34.5618 57.0008 34.0614C56.0658 33.5609 55.2841 32.8161 54.7391 31.9063C54.1941 30.9965 53.9062 29.9558 53.9062 28.8953V25.781L63.6179 20.3857C67.0996 18.4515 71.0168 17.4365 74.9997 17.4365C78.9826 17.4365 82.8998 18.4515 86.3815 20.3857L96.0938 25.781V28.8953C96.0938 29.9558 95.8059 30.9965 95.2609 31.9063C94.7159 32.8161 93.9342 33.5609 92.9992 34.0614C92.0641 34.5618 91.0108 34.799 89.9515 34.7478C88.8922 34.6966 87.8666 34.3589 86.9842 33.7706Z" fill="#FAC850"/>
<path d="M86.9842 33.7706L81.5004 30.1146C79.5754 28.8313 77.3136 28.1465 75 28.1465C72.6864 28.1465 70.4246 28.8313 68.4996 30.1146L63.0158 33.7706C62.1334 34.3589 61.1078 34.6966 60.0485 34.7478C58.9892 34.799 57.9359 34.5618 57.0008 34.0614C56.0658 33.5609 55.2841 32.8161 54.7391 31.9063C54.1941 30.9965 53.9062 29.9558 53.9062 28.8953V25.781L63.6179 20.3857C67.0996 18.4515 71.0168 17.4365 74.9997 17.4365C78.9826 17.4365 82.8998 18.4515 86.3815 20.3857L96.0938 25.781V28.8953C96.0938 29.9558 95.8059 30.9965 95.2609 31.9063C94.7159 32.8161 93.9342 33.5609 92.9992 34.0614C92.0641 34.5618 91.0108 34.799 89.9515 34.7478C88.8922 34.6966 87.8666 34.3589 86.9842 33.7706Z" stroke="black"/>
<path d="M32.8125 82.0312H117.188V142.969H32.8125V82.0312Z" fill="#FAC850"/>
<path d="M32.8125 82.0312H117.188V142.969H32.8125V82.0312Z" stroke="black"/>
<path d="M37.5 126.562H28.125V142.969H53.9063C53.9063 138.618 52.1777 134.445 49.101 131.368C46.0242 128.291 41.8512 126.562 37.5 126.562Z" fill="#FFD4CF"/>
<path d="M37.5 126.562H28.125V142.969H53.9063C53.9063 138.618 52.1777 134.445 49.101 131.368C46.0242 128.291 41.8512 126.562 37.5 126.562Z" stroke="black"/>
<path d="M65.625 82.0312H84.375V103.125H65.625V82.0312Z" fill="#FA7D29"/>
<path d="M65.625 82.0312H84.375V103.125H65.625V82.0312Z" stroke="black"/>
<path d="M65.625 128.906H84.375V142.969H65.625V128.906Z" fill="#FA7D29"/>
<path d="M65.625 128.906H84.375V142.969H65.625V128.906Z" stroke="black"/>
<path d="M32.8125 91.4062L16.8674 107.351C15.2351 108.984 13.9402 110.921 13.0568 113.054C12.1734 115.187 11.7187 117.473 11.7188 119.781V134.18C11.7188 136.511 12.6447 138.746 14.293 140.394C15.9413 142.043 18.1768 142.969 20.5078 142.969H28.125V126.562H32.8125V91.4062Z" fill="#FA5D3F"/>
<path d="M32.8125 91.4062L16.8674 107.351C15.2351 108.984 13.9402 110.921 13.0568 113.054C12.1734 115.187 11.7187 117.473 11.7188 119.781V134.18C11.7188 136.511 12.6447 138.746 14.293 140.394C15.9413 142.043 18.1768 142.969 20.5078 142.969H28.125V126.562H32.8125V91.4062Z" stroke="black"/>
<path d="M112.5 126.562H121.875V142.969H96.0938C96.0938 138.618 97.8223 134.445 100.899 131.368C103.976 128.291 108.149 126.562 112.5 126.562Z" fill="#FFD4CF"/>
<path d="M112.5 126.562H121.875V142.969H96.0938C96.0938 138.618 97.8223 134.445 100.899 131.368C103.976 128.291 108.149 126.562 112.5 126.562Z" stroke="black"/>
<path d="M39.8438 89.0625H44.5312V93.75H39.8438V89.0625Z" fill="black"/>
<path d="M39.8438 89.0625H44.5312V93.75H39.8438V89.0625Z" stroke="black"/>
<path d="M49.2188 89.0625H58.5938V93.75H49.2188V89.0625Z" fill="black"/>
<path d="M49.2188 89.0625H58.5938V93.75H49.2188V89.0625Z" stroke="black"/>
<path d="M39.8438 98.4375H58.5938V103.125H39.8438V98.4375Z" fill="black"/>
<path d="M39.8438 98.4375H58.5938V103.125H39.8438V98.4375Z" stroke="black"/>
<path d="M99.6094 91.4062H107.812V97.2656C107.812 98.8196 107.195 100.31 106.096 101.409C104.997 102.508 103.507 103.125 101.953 103.125H93.75V97.2656C93.75 95.7116 94.3673 94.2213 95.4662 93.1224C96.565 92.0236 98.0554 91.4062 99.6094 91.4062Z" fill="#FFFFFE"/>
<path d="M99.6094 91.4062H107.812V97.2656C107.812 98.8196 107.195 100.31 106.096 101.409C104.997 102.508 103.507 103.125 101.953 103.125H93.75V97.2656C93.75 95.7116 94.3673 94.2213 95.4662 93.1224C96.565 92.0236 98.0554 91.4062 99.6094 91.4062Z" stroke="black"/>
<path d="M101.953 105.469H93.75C93.1284 105.469 92.5323 105.222 92.0927 104.782C91.6532 104.343 91.4062 103.747 91.4062 103.125V97.2656C91.4087 95.0908 92.2738 93.0057 93.8116 91.4679C95.3495 89.93 97.4345 89.065 99.6094 89.0625H107.812C108.434 89.0625 109.03 89.3094 109.47 89.749C109.909 90.1885 110.156 90.7846 110.156 91.4062V97.2656C110.154 99.4405 109.289 101.526 107.751 103.063C106.213 104.601 104.128 105.466 101.953 105.469ZM96.0938 100.781H101.953C102.885 100.78 103.779 100.41 104.438 99.7504C105.097 99.0913 105.468 98.1977 105.469 97.2656V93.75H99.6094C98.6773 93.751 97.7837 94.1217 97.1246 94.7808C96.4655 95.4399 96.0948 96.3335 96.0938 97.2656V100.781Z" fill="black"/>
<path d="M101.953 105.469H93.75C93.1284 105.469 92.5323 105.222 92.0927 104.782C91.6532 104.343 91.4062 103.747 91.4062 103.125V97.2656C91.4087 95.0908 92.2738 93.0057 93.8116 91.4679C95.3495 89.93 97.4345 89.065 99.6094 89.0625H107.812C108.434 89.0625 109.03 89.3094 109.47 89.749C109.909 90.1885 110.156 90.7846 110.156 91.4062V97.2656C110.154 99.4405 109.289 101.526 107.751 103.063C106.213 104.601 104.128 105.466 101.953 105.469ZM96.0938 100.781H101.953C102.885 100.78 103.779 100.41 104.438 99.7504C105.097 99.0913 105.468 98.1977 105.469 97.2656V93.75H99.6094C98.6773 93.751 97.7837 94.1217 97.1246 94.7808C96.4655 95.4399 96.0948 96.3335 96.0938 97.2656V100.781Z" stroke="black"/>
<path d="M134.79 105.694L125.876 96.7802L122.561 100.095L131.476 109.009C132.895 110.42 134.02 112.099 134.785 113.948C135.551 115.797 135.943 117.78 135.937 119.781V134.18C135.936 135.888 135.256 137.527 134.048 138.735C132.839 139.943 131.201 140.623 129.492 140.625H124.219V128.906H128.906V124.219H119.531V82.0312C119.531 81.4096 119.284 80.8135 118.845 80.374C118.405 79.9344 117.809 79.6875 117.187 79.6875H104.477L91.1094 71.1806L89.1694 63.4207L89.9897 63.005C91.8296 62.0803 93.3754 60.6611 94.4536 58.9067C95.5318 57.1524 96.0997 55.1322 96.0937 53.073V51.5625H97.2656C99.4404 51.56 101.525 50.695 103.063 49.1571C104.601 47.6193 105.466 45.5342 105.469 43.3594V41.0156C105.466 38.8715 104.625 36.8133 103.126 35.2809C101.626 33.7485 99.5864 32.8633 97.4428 32.8146C98.0965 31.6118 98.4385 30.2644 98.4375 28.8955V21.6797C98.4324 17.1747 96.6405 12.8556 93.4549 9.67005C90.2694 6.4845 85.9503 4.69262 81.4453 4.6875H68.5547C64.0496 4.69262 59.7306 6.4845 56.545 9.67005C53.3595 12.8556 51.5676 17.1747 51.5625 21.6797V28.8955C51.5619 30.2646 51.9044 31.6119 52.5586 32.8146C50.4147 32.863 48.3749 33.748 46.8749 35.2804C45.3749 36.8129 44.5337 38.8712 44.5312 41.0156V43.3594C44.5337 45.5342 45.3988 47.6193 46.9366 49.1571C48.4745 50.695 50.5595 51.56 52.7344 51.5625H53.9062V53.1618C53.8992 55.2308 54.472 57.2603 55.5598 59.0203C56.6475 60.7803 58.2066 62.2003 60.0603 63.1192L60.8121 63.4951L58.8905 71.1806L45.5226 79.6875H32.8125C32.1909 79.6875 31.5947 79.9344 31.1552 80.374C30.7157 80.8135 30.4687 81.4096 30.4687 82.0312V90.4354L21.7802 99.1239L25.0948 102.439L30.4687 97.0646V124.219H21.0937V128.906H25.7812V140.625H20.5078C18.799 140.623 17.1607 139.943 15.9524 138.735C14.7441 137.527 14.0644 135.888 14.0625 134.18V119.781C14.057 117.78 14.4486 115.797 15.2144 113.948C15.9802 112.099 17.1052 110.42 18.5241 109.009L20.407 107.126L17.093 103.811L15.2097 105.694C13.3541 107.54 11.8829 109.735 10.8813 112.153C9.8798 114.571 9.3678 117.164 9.37498 119.781V134.18C9.37832 137.131 10.5523 139.961 12.6394 142.048C14.7265 144.135 17.5562 145.309 20.5078 145.312H129.492C132.444 145.309 135.273 144.135 137.361 142.048C139.448 139.961 140.622 137.131 140.625 134.18V119.781C140.632 117.164 140.12 114.571 139.119 112.153C138.117 109.735 136.646 107.54 134.79 105.694ZM67.9687 84.375H82.0312V100.781H67.9687V84.375ZM85.3459 79.6875L89.3903 75.6445L95.746 79.6875H85.3459ZM58.1068 31.9951C57.5421 31.6993 57.07 31.2534 56.7424 30.7065C56.4148 30.1596 56.2444 29.533 56.25 28.8955V27.1603L64.7557 22.4347C67.8857 20.6824 71.4129 19.7623 75 19.7623C78.5871 19.7623 82.1142 20.6824 85.2442 22.4347L93.75 27.1603V28.8955C93.7499 29.5318 93.5772 30.1562 93.2502 30.702C92.9232 31.2478 92.4542 31.6947 91.8932 31.9949C91.3322 32.2951 90.7002 32.4375 90.0646 32.4068C89.4291 32.3761 88.8138 32.1734 88.2843 31.8205L82.8006 28.1648C80.4924 26.62 77.7774 25.7953 75 25.7953C72.2225 25.7953 69.5076 26.62 67.1994 28.1648L61.7156 31.8205C61.1883 32.1787 60.5725 32.3846 59.9358 32.4154C59.2991 32.4462 58.6662 32.3008 58.1068 31.9951ZM100.781 41.0156V43.3594C100.78 44.2915 100.409 45.1851 99.7504 45.8442C99.0913 46.5033 98.1977 46.874 97.2656 46.875H96.0937V37.5H97.2656C98.1977 37.501 99.0913 37.8717 99.7504 38.5308C100.409 39.1899 100.78 40.0835 100.781 41.0156ZM68.5547 9.375H81.4453C84.7076 9.37864 87.8352 10.6762 90.142 12.983C92.4488 15.2898 93.7463 18.4174 93.75 21.6797V21.7969L87.5203 18.3372C83.6949 16.1955 79.3841 15.0709 75 15.0709C70.6159 15.0709 66.305 16.1955 62.4797 18.3372L56.25 21.7969V21.6797C56.2536 18.4174 57.5512 15.2898 59.858 12.983C62.1648 10.6762 65.2924 9.37864 68.5547 9.375ZM52.7344 46.875C51.8023 46.874 50.9086 46.5033 50.2495 45.8442C49.5905 45.1851 49.2197 44.2915 49.2187 43.3594V41.0156C49.2197 40.0835 49.5905 39.1899 50.2495 38.5308C50.9086 37.8717 51.8023 37.501 52.7344 37.5H53.9062V46.875H52.7344ZM58.5937 53.1618V37.016C60.5956 37.3062 62.634 36.8448 64.3157 35.7208L69.7995 32.0648C71.3383 31.0352 73.1482 30.4855 74.9997 30.4855C76.8512 30.4855 78.6611 31.0352 80.1999 32.0648L85.6837 35.7208C87.3658 36.8444 89.4042 37.3057 91.4062 37.0157V53.073C91.4098 54.2652 91.081 55.4348 90.4568 56.4505C89.8326 57.4661 88.9376 58.2878 87.8724 58.8231L76.5718 64.5457C76.0818 64.7925 75.5411 64.9218 74.9924 64.9232C74.4438 64.9246 73.9024 64.7982 73.4112 64.5539L62.1568 58.9269C61.0836 58.3948 60.1809 57.5727 59.5511 56.5537C58.9214 55.5347 58.5897 54.3597 58.5937 53.1618ZM71.3147 68.7477C72.4609 69.3178 73.7241 69.6129 75.0042 69.6096C76.2843 69.6064 77.5461 69.3049 78.6893 68.729L84.8806 65.5942L86.4671 71.9391L78.7166 79.6875H71.2834L63.5329 71.9373L65.1067 65.6426L71.3147 68.7477ZM60.6096 75.6442L64.6541 79.6875H54.2537L60.6096 75.6442ZM35.1562 84.375H63.2812V103.125C63.2812 103.747 63.5282 104.343 63.9677 104.782C64.4072 105.222 65.0034 105.469 65.625 105.469H84.375C84.9966 105.469 85.5927 105.222 86.0323 104.782C86.4718 104.343 86.7187 103.747 86.7187 103.125V84.375H114.844V124.219H112.5C107.935 124.225 103.528 125.894 100.104 128.913C96.6801 131.933 94.4733 136.096 93.8965 140.625H86.7187V128.906C86.7187 128.285 86.4718 127.689 86.0323 127.249C85.5927 126.809 84.9966 126.562 84.375 126.562H65.625C65.0034 126.562 64.4072 126.809 63.9677 127.249C63.5282 127.689 63.2812 128.285 63.2812 128.906V140.625H56.1035C55.5266 136.096 53.3198 131.933 49.8959 128.913C46.4719 125.894 42.0652 124.225 37.5 124.219H35.1562V84.375ZM30.4687 140.625V128.906H37.5C40.8222 128.91 44.036 130.089 46.5735 132.233C49.111 134.378 50.8089 137.35 51.3671 140.625H30.4687ZM67.9687 140.625V131.25H82.0312V140.625H67.9687ZM119.531 140.625H98.6329C99.1911 137.35 100.889 134.378 103.426 132.233C105.964 130.089 109.178 128.91 112.5 128.906H119.531V140.625Z" fill="black"/>
</svg>
