<svg width="426" height="293" viewBox="0 0 426 293" fill="none" xmlns="http://www.w3.org/2000/svg">
<path d="M408.868 3.73227C413.038 3.73227 417.038 5.38894 419.986 8.33783C422.935 11.2867 424.592 15.2863 424.592 19.4566V168.59C424.592 172.76 422.935 176.76 419.986 179.709C417.038 182.658 413.038 184.314 408.868 184.314H215.381C211.21 184.314 207.211 182.658 204.262 179.709C201.313 176.76 199.656 172.76 199.656 168.59V19.4566C199.656 15.2863 201.313 11.2867 204.262 8.33783C207.211 5.38894 211.21 3.73227 215.381 3.73227H408.868ZM408.868 2.32422H215.381C210.838 2.32888 206.483 4.13539 203.272 7.34733C200.06 10.5593 198.253 14.9143 198.248 19.4566V168.59C198.253 173.132 200.06 177.487 203.272 180.699C206.483 183.911 210.838 185.718 215.381 185.722H408.868C413.41 185.718 417.765 183.911 420.977 180.699C424.189 177.487 425.995 173.132 426 168.59V19.4566C425.995 14.9143 424.189 10.5593 420.977 7.34733C417.765 4.13539 413.41 2.32888 408.868 2.32422Z" fill="white"/>
<path d="M408.868 3.73193H215.381C206.697 3.73193 199.656 10.772 199.656 19.4563V168.59C199.656 177.274 206.697 184.314 215.381 184.314H408.868C417.552 184.314 424.592 177.274 424.592 168.59V19.4563C424.592 10.772 417.552 3.73193 408.868 3.73193Z" fill="#F5EBDD"/>
<path d="M210.685 110.04C214.855 110.04 218.855 111.697 221.804 114.645C224.753 117.594 226.409 121.594 226.409 125.764V274.898C226.409 279.068 224.753 283.067 221.804 286.016C218.855 288.965 214.855 290.622 210.685 290.622H17.1982C13.0278 290.622 9.02823 288.965 6.07934 286.016C3.13045 283.067 1.47378 279.068 1.47378 274.898V125.764C1.47378 121.594 3.13045 117.594 6.07934 114.645C9.02823 111.697 13.0278 110.04 17.1982 110.04H210.685ZM210.685 108.632H17.1982C12.6558 108.636 8.30079 110.443 5.08885 113.655C1.87691 116.867 0.0703942 121.222 0.0657349 125.764V274.898C0.0703942 279.44 1.87691 283.795 5.08885 287.007C8.30079 290.219 12.6558 292.025 17.1982 292.03H210.685C215.227 292.025 219.582 290.219 222.794 287.007C226.006 283.795 227.813 279.44 227.817 274.898V125.764C227.813 121.222 226.006 116.867 222.794 113.655C219.582 110.443 215.227 108.636 210.685 108.632Z" fill="white"/>
<path d="M210.685 110.04H17.1981C8.51379 110.04 1.47375 117.08 1.47375 125.764V274.898C1.47375 283.582 8.51379 290.622 17.1981 290.622H210.685C219.369 290.622 226.409 283.582 226.409 274.898V125.764C226.409 117.08 219.369 110.04 210.685 110.04Z" fill="#F5EBDD"/>
<path d="M255.041 158.581L263.318 112.162H300.007L307.912 158.581H255.041Z" fill="#C2D9F0"/>
<path d="M273.081 111.757C273.081 107.128 276.831 103.378 281.459 103.378C286.088 103.378 289.838 107.128 289.838 111.757" fill="white"/>
<path d="M273.081 111.757C273.081 107.128 276.831 103.378 281.459 103.378C286.088 103.378 289.838 107.128 289.838 111.757" stroke="#B9C6E4" stroke-miterlimit="10"/>
<path d="M283.318 169.493L288.453 140.642H311.257L316.189 169.493H283.318Z" fill="white" stroke="#EF749B" stroke-miterlimit="10"/>
<path d="M294.534 140.371C294.534 137.5 296.865 135.169 299.736 135.169C302.608 135.169 304.939 137.5 304.939 140.371" stroke="#EF749B" stroke-miterlimit="10"/>
<path d="M287.372 136.115C287.98 135.946 288.588 135.71 289.128 135.372C288.588 135.034 287.98 134.764 287.372 134.628C286.73 134.46 286.257 133.953 286.088 133.345C285.919 132.703 285.682 132.128 285.345 131.588C285.007 132.128 284.736 132.737 284.601 133.345C284.432 133.987 283.926 134.46 283.318 134.628C282.676 134.797 282.101 135.034 281.561 135.372C282.101 135.71 282.709 135.98 283.318 136.115C283.959 136.284 284.432 136.791 284.601 137.432C284.77 138.041 285.007 138.649 285.345 139.189C285.682 138.649 285.953 138.041 286.088 137.432C286.223 136.791 286.73 136.284 287.372 136.115Z" fill="white"/>
<path d="M276.02 144.561C276.487 144.561 276.865 144.183 276.865 143.716C276.865 143.25 276.487 142.872 276.02 142.872C275.554 142.872 275.176 143.25 275.176 143.716C275.176 144.183 275.554 144.561 276.02 144.561Z" fill="white"/>
<path d="M274.635 136.487H244.905V162.297H274.635V136.487Z" fill="#FBD7AD"/>
<path opacity="0.37" d="M244.905 141.757L274.635 143.48V140.642H244.905V141.757Z" fill="#F27932"/>
<path d="M264.162 140.642C264.162 143.007 262.27 144.899 259.905 144.899C257.541 144.899 255.649 143.007 255.649 140.642" fill="white"/>
<path d="M275.615 135.304H243.689V140.642H275.615V135.304Z" fill="white" stroke="#F7C689" stroke-miterlimit="10"/>
<path d="M268.791 152.939H251.02V155.946H268.791V152.939Z" fill="white"/>
<path d="M300.986 59.5947H307.068" stroke="#B9C6E4" stroke-miterlimit="10"/>
<path d="M277.541 22.4326C278.216 22.2637 278.858 21.9934 279.432 21.6218C278.858 21.2502 278.216 20.9799 277.541 20.811C276.865 20.642 276.324 20.1015 276.155 19.4258C275.986 18.7502 275.716 18.1083 275.345 17.5339C274.973 18.1083 274.703 18.7502 274.534 19.4258C274.365 20.1015 273.824 20.642 273.149 20.811C272.473 20.9799 271.831 21.2502 271.257 21.6218C271.831 21.9934 272.473 22.2637 273.149 22.4326C273.824 22.6015 274.365 23.142 274.534 23.8177C274.703 24.4934 274.973 25.1353 275.345 25.7096C275.716 25.1353 275.986 24.4934 276.155 23.8177C276.324 23.142 276.865 22.6353 277.541 22.4326Z" fill="#F27932"/>
<path d="M376.865 105.98C378.059 105.98 379.027 105.012 379.027 103.818C379.027 102.624 378.059 101.656 376.865 101.656C375.671 101.656 374.703 102.624 374.703 103.818C374.703 105.012 375.671 105.98 376.865 105.98Z" stroke="#4B4065" stroke-width="2" stroke-miterlimit="10"/>
<path d="M286.29 43.4458L282.405 46.5201" stroke="#4B4065" stroke-width="0.75" stroke-miterlimit="10"/>
<path d="M316.561 17.365C316.561 17.365 316.189 28.2772 317.135 30.0677C317.912 31.6555 319.703 32.4663 321.392 32.0272L321.628 37.9055C321.628 37.9055 327 45.338 333.385 37.1623L332.574 27.3988C332.574 27.3988 333.993 28.3447 335.581 25.5744C337.169 22.8042 335.615 18.9528 332.811 21.5204L332.237 22.0609L332.068 18.142L316.561 17.365Z" fill="#C2D9F0"/>
<path d="M315.514 17.635C315.514 17.635 315.108 15.2363 316.459 13.4458C317.811 11.6552 324.568 9.29038 328.25 10.6417C331.932 11.9931 332.169 16.5201 332.237 18.3106L315.514 17.635Z" fill="#B9C6E4" stroke="#495894" stroke-miterlimit="10"/>
<path d="M326.189 161.52H315.615V172.905H326.189V161.52Z" fill="#C2D9F0"/>
<path d="M355.986 161.52H345.412V172.905H355.986V161.52Z" fill="#C2D9F0"/>
<path opacity="0.46" d="M307.405 42.061C307.405 42.061 310.277 38.0407 313.655 36.4866L321.493 34.3245L321.595 37.061C321.595 37.061 327.743 41.7231 333.149 36.5204V34.0542C333.149 34.0542 344.669 37.5677 348.757 41.2164C351.527 43.6826 355.953 56.4191 355.953 56.4191L344.331 59.1556L315.75 59.2907V83.615H312.676L312.067 59.3245" fill="#EF749B"/>
<path d="M296.257 70.4731L302.405 79.9326C303.622 81.7907 305.649 82.9055 307.878 82.9055C309.669 82.9055 311.358 82.1961 312.574 80.9123L313.486 58.5474L312.068 59.3244L309.365 47.6353L296.257 70.4731Z" fill="#C2D9F0"/>
<path d="M281.189 40.8781L288.047 69.5944C288.52 71.6214 290.581 72.9052 292.608 72.3984C292.709 72.3646 292.811 72.3309 292.912 72.2971L310.378 66.5538C312.27 65.9457 313.351 63.9525 312.878 62.0268L305.784 33.6484C305.277 31.6214 303.216 30.3714 301.189 30.8781C301.122 30.9119 301.054 30.9119 300.987 30.9457L283.757 36.3511C281.865 36.9592 280.75 38.9187 281.189 40.8781Z" fill="white" stroke="#F27932" stroke-miterlimit="10"/>
<path d="M303.926 48.4799L290.953 53.6826L288.723 45.1016L301.527 39.8313L303.926 48.4799Z" stroke="#EF749B" stroke-miterlimit="10"/>
<path d="M303.959 52.3311L292.777 56.7567L292.574 55.9459L303.723 51.5203L303.959 52.3311Z" fill="#B9C6E4"/>
<path d="M302.98 55.3717L294.973 58.5136L294.77 57.669L302.777 54.5271L302.98 55.3717Z" fill="#B9C6E4"/>
<path d="M288.959 50.5068L287.169 53.6825L285.986 61.2163L284.061 53.2771L288.959 50.5068Z" fill="#495894"/>
<path d="M285.987 61.2161C285.649 60.8783 283.655 58.6486 282.169 56.9932C281.088 55.8107 280.412 54.2905 280.277 52.7026L279.872 48.3107C279.737 46.7905 280.48 45.3377 281.797 44.5945L285.919 42.2634C286.493 41.9594 287.203 42.1283 287.507 42.7026C287.541 42.7364 287.541 42.804 287.574 42.8378L287.642 43.0067C287.811 43.4121 287.743 43.8513 287.473 44.1553L286.291 45.6418L288.453 44.4932C289.061 44.2567 289.703 44.5269 289.973 45.135L290.041 45.2702C290.243 45.7094 290.108 46.2499 289.737 46.5877L286.459 49.3918L287.405 48.9188C287.98 48.6486 288.689 48.885 288.959 49.4594C289.196 49.9661 289.027 50.5742 288.588 50.8783C287.608 51.5878 286.088 52.7702 286.02 52.9053C285.953 53.1418 285.142 57.7364 285.142 57.7364L285.987 61.2161Z" fill="#C2D9F0"/>
<path d="M308.047 67.3313L310.277 71.8921" stroke="#4B4065" stroke-width="0.75" stroke-miterlimit="10"/>
<path d="M315.986 85.7092L313.486 164.425H326.831L330.851 109.696L344.669 164.425H357.405L343.622 85.743L315.986 85.7092Z" fill="#4B4065"/>
<path d="M326.899 170.473C326.899 170.473 318.622 172.365 317.304 168.615C315.986 164.865 315.885 165.067 314.432 164.898L314.027 167.027L307.203 170.473L298.115 174.189V176.047H326.865V170.473H326.899Z" fill="#495894"/>
<path d="M352.034 59.2905H315.784V85.7094H352.034V59.2905Z" fill="#F7C689" stroke="#F27932" stroke-miterlimit="10"/>
<path d="M330.074 59.4932H322.473V68.108H330.074V59.4932Z" fill="white"/>
<path d="M352 59.2905H337.507V85.7094H352V59.2905Z" stroke="#F27932" stroke-miterlimit="10"/>
<path d="M354.5 56.7568L358.52 81.419C358.926 84.3244 357.507 87.1622 354.939 88.6149C352 90.2703 348.588 92.196 348.52 92.2974C348.419 92.5001 343.892 89.8987 342.473 85.7095H347.304L349.669 82.4325L344.365 59.1555L354.5 56.7568Z" fill="#C2D9F0"/>
<path d="M316.392 20.1016H310.277C310.277 20.1016 310.209 17.6692 315.649 17.6692L316.527 17.703L316.392 20.1016Z" fill="#4B4065"/>
<path d="M357.98 171.216C357.304 169.764 356.122 165.811 356.122 165.811H345.277C345.277 165.811 344.095 169.798 343.419 171.216C342.743 172.635 342.912 175 342.912 175C346.493 177.196 356.662 176.588 358.52 175C358.52 175 358.655 172.669 357.98 171.216Z" fill="#495894"/>
<path d="M340.682 58.8174L339.095 44.2566" stroke="#EF749B" stroke-miterlimit="10"/>
<path d="M332.27 22.0611L332.101 18.2774C332.101 18.176 327.101 18.0409 326.561 18.0071C326.595 19.0544 327.034 20.0679 327.743 20.8449C328.318 21.3517 329.027 21.7571 329.737 22.0273L331.054 22.6017C331.764 22.9057 331.865 22.7706 332.27 22.0611Z" fill="#495894"/>
<path d="M332.439 25.0677L334.905 23.2434" stroke="#4B4065" stroke-miterlimit="10" stroke-linecap="round" stroke-linejoin="round"/>
<path d="M318.892 27.5335C320.311 27.77 321.764 27.3984 322.912 26.52C323.047 26.4186 322.845 26.2497 322.743 26.3511C321.662 27.1957 320.311 27.5335 318.993 27.297C318.791 27.2632 318.723 27.4997 318.892 27.5335Z" fill="#4B4065"/>
<path d="M312.237 22.5676C313.149 21.2162 314.973 20.8784 316.291 21.7568C316.797 22.0946 317.169 22.5676 317.405 23.1419C315.547 24.0541 313.52 24.1217 312.237 22.5676Z" fill="white"/>
<path d="M321.392 32.2295L325.04 30.6079L321.493 34.5268L321.392 32.2295Z" fill="#4B4065"/>
<path d="M320.75 17.804L316.561 17.7026C316.561 17.7364 316.561 17.7702 316.527 17.7702C315.953 18.0405 315.412 18.4459 315.007 18.9526C314.601 19.5607 314.5 20.3378 314.736 21.0134C315.074 21.7229 315.682 22.1959 316.459 22.3648C316.493 22.3648 316.459 21.2837 316.459 21.1824C316.527 20.7094 316.628 20.2364 317.101 20.1013C317.574 19.9661 318.081 20.1351 318.554 20.1689C319.973 20.2026 320.412 18.9526 320.818 17.8716C320.818 17.8716 320.784 17.804 320.75 17.804Z" fill="#495894"/>
<path d="M324.939 22.6692C324.027 21.453 322.338 21.1827 321.122 22.0949C320.649 22.4327 320.311 22.9057 320.142 23.4463C321.865 24.1895 323.588 23.6827 324.939 22.6692Z" fill="white"/>
<path d="M318.892 23.6485C318.689 23.9863 318.588 24.3917 318.655 24.7972C318.723 25.135 318.959 25.3715 319.263 25.4728C319.432 25.5066 319.5 25.2701 319.331 25.2363C319.095 25.1688 318.926 24.9661 318.892 24.7296C318.892 24.3917 318.959 24.0877 319.128 23.7836C319.162 23.7161 319.128 23.6485 319.095 23.6147C318.993 23.5809 318.926 23.5809 318.892 23.6485Z" fill="#4B4065"/>
<path d="M325.041 20.4728C323.993 19.8985 322.709 19.9323 321.662 20.5066C322.777 20.4728 323.926 20.4728 325.041 20.4728Z" fill="#4B4065"/>
<path d="M325.108 20.3382C323.993 19.7639 322.676 19.7639 321.594 20.372C321.527 20.4058 321.527 20.4734 321.561 20.5409C321.594 20.5747 321.628 20.6085 321.662 20.6085C322.777 20.6085 323.926 20.6085 325.04 20.5747C325.108 20.5747 325.142 20.5072 325.142 20.4396C325.142 20.372 325.074 20.3382 325.04 20.3382C323.926 20.3382 322.777 20.372 321.662 20.372L321.73 20.6085C322.743 20.068 323.959 20.0342 324.973 20.5747C325.142 20.6423 325.243 20.4396 325.108 20.3382Z" fill="#4B4065"/>
<path d="M322.98 23.6488C322.98 23.2771 322.878 22.9055 322.642 22.6015C322.338 22.2298 321.899 21.9933 321.392 21.9258C320.784 22.2636 320.345 22.8042 320.108 23.4461C321.02 23.8177 322.034 23.919 322.98 23.6488Z" fill="#4B4065"/>
<path d="M287.676 48.5471L282.811 52.4323" stroke="#4B4065" stroke-width="0.75" stroke-miterlimit="10"/>
<path d="M330.851 109.696L326.257 94.5945" stroke="white" stroke-miterlimit="10"/>
<path d="M338.689 88.615L344.196 94.7636" stroke="white" stroke-miterlimit="10"/>
<path d="M332.169 16.25H328.081V18.0405H332.169V16.25Z" stroke="white" stroke-miterlimit="10"/>
<path d="M286.696 45.304L281.831 49.1891" stroke="#4B4065" stroke-width="0.75" stroke-miterlimit="10"/>
<path d="M342.912 59.1891L346.324 83.5809L342.439 85.7093H347.27L349.635 82.4323L344.331 59.1553L342.912 59.1891Z" fill="#F27932"/>
<path d="M332.574 27.3988L330.851 27.1624L332.676 28.7164L332.574 27.3988Z" fill="#4B4065"/>
<path d="M327.169 97.5H323.588" stroke="white" stroke-miterlimit="10"/>
<path d="M329.365 17.2973C329.477 17.2973 329.568 17.2065 329.568 17.0945C329.568 16.9826 329.477 16.8918 329.365 16.8918C329.253 16.8918 329.162 16.9826 329.162 17.0945C329.162 17.2065 329.253 17.2973 329.365 17.2973Z" fill="white"/>
<path d="M331.155 17.2973C331.267 17.2973 331.358 17.2065 331.358 17.0945C331.358 16.9826 331.267 16.8918 331.155 16.8918C331.044 16.8918 330.953 16.9826 330.953 17.0945C330.953 17.2065 331.044 17.2973 331.155 17.2973Z" fill="white"/>
<path opacity="0.21" d="M325.412 27.4665C326.438 27.4665 327.27 26.6346 327.27 25.6083C327.27 24.5821 326.438 23.7502 325.412 23.7502C324.386 23.7502 323.554 24.5821 323.554 25.6083C323.554 26.6346 324.386 27.4665 325.412 27.4665Z" fill="#EF749B"/>
<path d="M342.98 172.906C342.98 172.906 350.75 175.575 358.419 172.906" stroke="white" stroke-miterlimit="10"/>
<path d="M313.486 58.5134L314.061 45.3039L313.013 43.4458" stroke="#EF749B" stroke-miterlimit="10"/>
<path opacity="0.43" d="M344.635 60.4393L355.142 60.6758L354.5 56.7568L344.331 59.1555L344.635 60.4393Z" fill="#495894"/>
<path d="M286.155 26.9593C286.827 26.9593 287.372 26.4148 287.372 25.7431C287.372 25.0714 286.827 24.5269 286.155 24.5269C285.484 24.5269 284.939 25.0714 284.939 25.7431C284.939 26.4148 285.484 26.9593 286.155 26.9593Z" fill="#F27932"/>
<path d="M315.345 17.635C316.324 17.6688 317.304 17.9053 318.216 18.2769C319.128 18.6485 319.872 19.3242 320.75 19.7634C321.358 20.1012 322 20.3039 322.676 20.3715C323.284 20.3715 323.858 20.2364 324.365 19.9323C324.905 19.662 327.439 18.2093 327.574 18.108L315.345 17.635Z" fill="#B9C6E4" stroke="#495894" stroke-miterlimit="10"/>
<path opacity="0.32" d="M366.966 42.635C368.115 42.3309 369.23 41.858 370.243 41.2499C369.23 40.608 368.115 40.135 366.966 39.8309C365.784 39.5269 364.872 38.6147 364.568 37.4323C364.264 36.2837 363.824 35.1688 363.182 34.1553C362.541 35.1688 362.068 36.2837 361.797 37.4323C361.493 38.6147 360.581 39.5269 359.399 39.8309C358.25 40.135 357.135 40.608 356.122 41.2161C357.135 41.858 358.25 42.3309 359.399 42.6012C360.581 42.9053 361.493 43.8174 361.797 44.9999C362.101 46.1485 362.574 47.2634 363.182 48.2769C363.824 47.2634 364.297 46.1485 364.601 44.9999C364.905 43.8512 365.784 42.9391 366.966 42.635Z" fill="#F7C689"/>
<path opacity="0.32" d="M295.007 89.9324C296.155 89.6283 297.27 89.1553 298.284 88.5472C297.27 87.9053 296.155 87.4324 295.007 87.1283C293.824 86.8243 292.912 85.9121 292.608 84.7297C292.304 83.581 291.865 82.4661 291.223 81.4526C290.581 82.4661 290.108 83.581 289.838 84.7297C289.534 85.9121 288.622 86.8243 287.439 87.1283C286.291 87.4324 285.176 87.9053 284.162 88.5134C285.176 89.1553 286.291 89.6283 287.439 89.8986C288.622 90.2026 289.534 91.1148 289.838 92.2972C290.142 93.4459 290.615 94.5607 291.223 95.5742C291.865 94.5607 292.338 93.4459 292.642 92.2972C292.946 91.1486 293.824 90.2364 295.007 89.9324Z" fill="#F7C689"/>
<path d="M298.824 173.818H326.865" stroke="white" stroke-miterlimit="10"/>
<path d="M154.719 133.858H103.31C101.073 133.858 99.2602 135.671 99.2602 137.908V195.757C99.2602 197.994 101.073 199.807 103.31 199.807H154.719C156.955 199.807 158.769 197.994 158.769 195.757V137.908C158.769 135.671 156.955 133.858 154.719 133.858Z" fill="#C5DCDD" stroke="black" stroke-width="2" stroke-linecap="round" stroke-linejoin="round"/>
<path d="M149.312 140.097C148.662 139.449 147.835 139.008 146.934 138.83C146.034 138.651 145.101 138.744 144.253 139.095C143.405 139.446 142.68 140.041 142.17 140.803C141.659 141.566 141.386 142.462 141.384 143.38V156.907H150.679V143.38C150.679 142.77 150.558 142.165 150.323 141.602C150.089 141.038 149.745 140.527 149.312 140.097V140.097ZM146.028 143.518C145.83 143.518 145.636 143.46 145.471 143.35C145.305 143.24 145.177 143.083 145.1 142.9C145.024 142.717 145.004 142.515 145.043 142.32C145.081 142.125 145.177 141.947 145.317 141.806C145.457 141.666 145.636 141.57 145.831 141.531C146.025 141.492 146.227 141.512 146.41 141.588C146.594 141.664 146.751 141.792 146.861 141.957C146.971 142.122 147.03 142.316 147.03 142.515C147.03 142.781 146.925 143.036 146.737 143.224C146.549 143.412 146.294 143.518 146.028 143.518V143.518Z" stroke="#070707" stroke-width="2" stroke-linecap="round" stroke-linejoin="round"/>
<path d="M148.682 139.231C148.032 138.584 147.205 138.143 146.304 137.964C145.404 137.786 144.471 137.879 143.623 138.23C142.776 138.581 142.051 139.175 141.54 139.938C141.029 140.701 140.756 141.597 140.754 142.515V156.042H150.049V142.515C150.049 141.905 149.928 141.3 149.693 140.737C149.459 140.173 149.115 139.662 148.682 139.231ZM145.399 142.653C145.2 142.653 145.006 142.595 144.841 142.484C144.676 142.374 144.547 142.218 144.471 142.035C144.394 141.851 144.374 141.65 144.413 141.455C144.451 141.26 144.547 141.081 144.687 140.941C144.827 140.8 145.006 140.705 145.201 140.666C145.395 140.627 145.597 140.647 145.781 140.723C145.964 140.799 146.121 140.927 146.231 141.092C146.341 141.257 146.4 141.451 146.4 141.65C146.4 141.915 146.295 142.17 146.107 142.358C145.919 142.546 145.664 142.652 145.399 142.653Z" fill="#F4F1ED" stroke="#070707" stroke-width="2" stroke-linecap="round" stroke-linejoin="round"/>
<path d="M145.399 141.273V133.204C145.399 132.588 145.643 131.998 146.079 131.562C146.514 131.127 147.105 130.882 147.721 130.882V130.882C148.337 130.882 148.927 131.127 149.363 131.562C149.798 131.998 150.043 132.588 150.043 133.204V133.437" stroke="#070707" stroke-width="2" stroke-linecap="round" stroke-linejoin="round"/>
<path d="M147.286 149.521C147.203 149.327 147.077 149.154 146.918 149.015C146.771 148.876 146.599 148.767 146.411 148.694C146.222 148.628 145.968 148.553 145.647 148.47H145.626V146.867H145.647C145.797 146.91 145.933 146.991 146.041 147.104C146.149 147.217 146.225 147.357 146.261 147.508C146.278 147.625 146.337 147.731 146.428 147.807C146.518 147.883 146.633 147.922 146.751 147.919C146.815 147.919 146.878 147.907 146.936 147.883C146.995 147.859 147.048 147.823 147.092 147.778C147.137 147.735 147.173 147.683 147.197 147.625C147.221 147.568 147.234 147.507 147.234 147.444C147.229 147.311 147.197 147.181 147.139 147.061C147.07 146.914 146.979 146.777 146.87 146.656C146.731 146.489 146.554 146.358 146.355 146.271C146.129 146.179 145.89 146.122 145.647 146.101H145.626V145.601C145.626 145.538 145.601 145.477 145.556 145.431C145.511 145.386 145.45 145.361 145.386 145.361C145.322 145.361 145.261 145.386 145.216 145.431C145.171 145.477 145.145 145.538 145.145 145.601V146.09C144.611 146.136 144.206 146.301 143.929 146.584C143.697 146.842 143.552 147.167 143.515 147.512C143.478 147.857 143.55 148.205 143.722 148.507C143.863 148.72 144.058 148.892 144.286 149.005C144.562 149.14 144.849 149.247 145.145 149.326V151.119C144.995 151.08 144.855 151.007 144.735 150.907C144.637 150.822 144.558 150.718 144.501 150.601C144.432 150.444 144.372 150.284 144.32 150.121C144.294 150.029 144.237 149.949 144.16 149.893C144.072 149.838 143.97 149.81 143.867 149.813C143.799 149.811 143.733 149.824 143.671 149.849C143.608 149.875 143.552 149.913 143.506 149.962C143.461 150.005 143.424 150.056 143.399 150.114C143.375 150.171 143.362 150.233 143.362 150.295C143.363 150.471 143.4 150.645 143.469 150.806C143.549 150.992 143.662 151.162 143.802 151.308C143.963 151.476 144.154 151.612 144.365 151.71C144.613 151.824 144.879 151.896 145.15 151.922V152.292C145.15 152.356 145.176 152.417 145.221 152.462C145.266 152.507 145.327 152.532 145.391 152.532C145.454 152.532 145.515 152.507 145.561 152.462C145.606 152.417 145.631 152.356 145.631 152.292V151.915H145.647C145.986 151.895 146.315 151.796 146.609 151.625C146.864 151.476 147.074 151.259 147.216 150.999C147.353 150.746 147.424 150.463 147.423 150.175C147.424 149.95 147.378 149.727 147.286 149.521ZM144.642 148.036C144.582 147.975 144.536 147.903 144.507 147.823C144.478 147.744 144.466 147.659 144.472 147.574C144.465 147.486 144.478 147.397 144.509 147.314C144.54 147.23 144.59 147.155 144.653 147.093C144.801 146.975 144.972 146.888 145.155 146.84V148.315C144.968 148.256 144.794 148.161 144.642 148.036ZM146.245 150.842C146.084 151.011 145.873 151.124 145.642 151.162H145.621V149.459H145.642C145.864 149.52 146.071 149.626 146.251 149.77C146.321 149.836 146.376 149.917 146.411 150.007C146.447 150.096 146.462 150.193 146.456 150.289C146.462 150.493 146.388 150.691 146.251 150.842H146.245Z" fill="#070707"/>
<path d="M93.725 156.093H85.7124C85.7124 156.093 78.0202 149.271 74.6549 145.255C74.1965 144.701 73.7782 144.116 73.4033 143.502C73.0479 142.927 72.8521 142.267 72.8359 141.592C72.8197 140.916 72.9838 140.248 73.3113 139.656C73.6387 139.065 74.1178 138.571 74.6993 138.226C75.2807 137.881 75.9435 137.697 76.6196 137.693H76.7046C84.8374 137.696 93.7362 152.428 93.725 156.093Z" fill="#1C0E0C"/>
<path d="M98.1496 156.093H92.5119C92.5119 156.093 87.0986 151.297 84.7316 148.47C84.4082 148.081 84.1126 147.67 83.847 147.239C83.5968 146.835 83.4588 146.371 83.4474 145.895C83.4359 145.42 83.5513 144.95 83.7818 144.533C84.0122 144.117 84.3494 143.77 84.7585 143.527C85.1677 143.285 85.6341 143.155 86.1098 143.153H86.1707C91.8917 143.151 98.1528 153.515 98.1496 156.093Z" fill="#F4F1ED"/>
<path d="M81.3856 130.001C94.8709 129.86 99.5615 149.13 99.2682 156.093H93.725C93.725 152.428 84.831 137.696 76.6982 137.696C73.8136 137.696 72.1149 140.26 72.9835 142.595C72.9899 142.595 67.4019 130.148 81.3856 130.001Z" fill="#EFAF00" stroke="black" stroke-width="2" stroke-linecap="round" stroke-linejoin="round"/>
<path d="M122.633 153.359C123.583 151.082 122.313 148.46 119.936 147.75C108.949 144.432 97.7314 156.093 97.7314 156.093H94.975C94.975 156.093 100.744 139.106 117.731 141.63C121.436 142.183 126.319 145.765 122.633 153.359Z" fill="#EFAF00" stroke="black" stroke-width="2" stroke-linecap="round" stroke-linejoin="round"/>
<path d="M122.617 153.398C122.106 154.59 121.481 155.709 121.039 156.093H114.789C114.789 156.093 116.284 155.587 117.728 153.398C119.491 150.739 118.67 147.447 116.265 147.223C117.505 147.234 118.738 147.41 119.931 147.746C122.317 148.47 123.598 151.111 122.617 153.398Z" fill="#1C0E0C"/>
<path d="M125.029 155.518H84.222C79.2737 155.518 75.2623 159.529 75.2623 164.478V212.319C75.2623 217.268 79.2737 221.279 84.222 221.279H125.029C129.977 221.279 133.989 217.268 133.989 212.319V164.478C133.989 159.529 129.977 155.518 125.029 155.518Z" fill="#1C0E0C"/>
<path d="M114.053 155.518H74.9514C70.0031 155.518 65.9916 159.529 65.9916 164.478V212.319C65.9916 217.268 70.0031 221.279 74.9514 221.279H114.053C119.001 221.279 123.013 217.268 123.013 212.319V164.478C123.013 159.529 119.001 155.518 114.053 155.518Z" fill="#F4F1ED" stroke="#070707" stroke-width="2" stroke-linecap="round" stroke-linejoin="round"/>
<path d="M200 143.459H188.364C185.524 143.46 182.759 144.369 180.474 146.055C178.188 147.74 176.502 150.113 175.662 152.826L156.962 213.303C155.807 217.042 153.484 220.313 150.335 222.636C147.185 224.958 143.375 226.212 139.461 226.212H74.7527C72.1716 226.211 69.6647 227.075 67.6329 228.667C65.601 230.259 64.1616 232.486 63.5446 234.992L61.1809 247.535C60.8418 248.911 60.8202 250.346 61.1177 251.732C61.4152 253.118 62.024 254.418 62.898 255.533C63.7721 256.649 64.8884 257.551 66.1626 258.172C67.4369 258.792 68.8355 259.115 70.2528 259.115H149.153" stroke="#070707" stroke-width="2" stroke-linecap="round" stroke-linejoin="round"/>
<path d="M139.521 226.212H79.4994C75.5854 226.212 71.7742 224.959 68.6241 222.636C65.4741 220.313 63.1509 217.043 61.9949 213.303L50 164.939H171.917L157.025 213.284C155.872 217.027 153.551 220.302 150.4 222.629C147.25 224.955 143.437 226.211 139.521 226.212V226.212Z" stroke="#070707" stroke-width="2" stroke-linecap="round" stroke-linejoin="round"/>
<path d="M99.6271 226.212L80.6804 164.939" stroke="#070707" stroke-width="2" stroke-linecap="round" stroke-linejoin="round"/>
<path d="M115.62 226.212L134.567 164.939" stroke="#070707" stroke-width="2" stroke-linecap="round" stroke-linejoin="round"/>
<path d="M163.062 193.58H57.3797" stroke="#070707" stroke-width="2" stroke-linecap="round" stroke-linejoin="round"/>
<path d="M140.283 283.369C145.395 283.369 149.538 279.226 149.538 274.115C149.538 269.004 145.395 264.86 140.283 264.86C135.172 264.86 131.029 269.004 131.029 274.115C131.029 279.226 135.172 283.369 140.283 283.369Z" fill="#C5DCDD"/>
<path d="M77.4481 283.369C82.5593 283.369 86.7027 279.226 86.7027 274.115C86.7027 269.004 82.5593 264.86 77.4481 264.86C72.3369 264.86 68.1935 269.004 68.1935 274.115C68.1935 279.226 72.3369 283.369 77.4481 283.369Z" fill="#C5DCDD"/>
<path d="M138.359 281.743C143.47 281.743 147.613 277.599 147.613 272.488C147.613 267.377 143.47 263.233 138.359 263.233C133.247 263.233 129.104 267.377 129.104 272.488C129.104 277.599 133.247 281.743 138.359 281.743Z" stroke="#070707" stroke-width="2" stroke-linecap="round" stroke-linejoin="round"/>
<path d="M75.5235 281.743C80.6347 281.743 84.7781 277.599 84.7781 272.488C84.7781 267.377 80.6347 263.233 75.5235 263.233C70.4123 263.233 66.2689 267.377 66.2689 272.488C66.2689 277.599 70.4123 281.743 75.5235 281.743Z" stroke="#070707" stroke-width="2" stroke-linecap="round" stroke-linejoin="round"/>
<path d="M147.746 202.695H138.423C136.97 202.695 135.793 203.872 135.793 205.325V218.65C135.793 220.102 136.97 221.279 138.423 221.279H147.746C149.199 221.279 150.376 220.102 150.376 218.65V205.325C150.376 203.872 149.199 202.695 147.746 202.695Z" fill="#F46F40" stroke="black" stroke-width="2" stroke-linecap="round" stroke-linejoin="round"/>
</svg>
