<svg width="152" height="155" viewBox="0 0 152 155" fill="none" xmlns="http://www.w3.org/2000/svg">
<path d="M105.719 4.85815H54.3098C52.0732 4.85815 50.2602 6.67122 50.2602 8.90775V66.7575C50.2602 68.994 52.0732 70.8071 54.3098 70.8071H105.719C107.955 70.8071 109.769 68.994 109.769 66.7575V8.90775C109.769 6.67122 107.955 4.85815 105.719 4.85815Z" fill="#C5DCDD" stroke="black" stroke-width="2" stroke-linecap="round" stroke-linejoin="round"/>
<path d="M100.312 11.0966C99.6619 10.4488 98.8346 10.008 97.9343 9.82972C97.034 9.65146 96.1011 9.74374 95.2532 10.0949C94.4053 10.4461 93.6804 11.0405 93.1698 11.8031C92.6593 12.5657 92.3859 13.4625 92.3843 14.3802V27.9072H101.679V14.3802C101.679 13.7698 101.558 13.1654 101.323 12.6019C101.089 12.0384 100.745 11.5268 100.312 11.0966V11.0966ZM97.0284 14.518C96.8299 14.5183 96.6358 14.4598 96.4706 14.3497C96.3054 14.2397 96.1766 14.0831 96.1004 13.8999C96.0243 13.7166 96.0042 13.5148 96.0427 13.3201C96.0812 13.1254 96.1766 12.9465 96.3169 12.806C96.4571 12.6656 96.6359 12.5699 96.8305 12.531C97.0251 12.4922 97.2269 12.512 97.4103 12.5879C97.5937 12.6637 97.7505 12.7923 97.8608 12.9573C97.9711 13.1223 98.03 13.3164 98.03 13.5148C98.03 13.7806 97.9245 14.0355 97.7367 14.2236C97.5489 14.4117 97.2942 14.5176 97.0284 14.518V14.518Z" stroke="#070707" stroke-width="2" stroke-linecap="round" stroke-linejoin="round"/>
<path d="M99.6822 10.2314C99.0321 9.58358 98.2047 9.14275 97.3045 8.96449C96.4042 8.78623 95.4713 8.87851 94.6234 9.2297C93.7755 9.58089 93.0506 10.1753 92.54 10.9379C92.0294 11.7005 91.7561 12.5972 91.7545 13.515V27.0419H101.049V13.515C101.049 12.9046 100.928 12.3002 100.693 11.7367C100.459 11.1732 100.115 10.6616 99.6822 10.2314ZM96.3986 13.6528C96.2001 13.6531 96.006 13.5945 95.8408 13.4845C95.6756 13.3745 95.5468 13.2179 95.4706 13.0346C95.3945 12.8513 95.3744 12.6496 95.4129 12.4549C95.4514 12.2602 95.5468 12.0813 95.6871 11.9408C95.8273 11.8004 96.006 11.7047 96.2007 11.6658C96.3953 11.627 96.5971 11.6467 96.7805 11.7226C96.9639 11.7985 97.1207 11.9271 97.231 12.0921C97.3413 12.2571 97.4002 12.4511 97.4002 12.6496C97.4002 12.9154 97.2947 13.1703 97.1069 13.3584C96.9191 13.5465 96.6644 13.6524 96.3986 13.6528Z" fill="#F4F1ED" stroke="#070707" stroke-width="2" stroke-linecap="round" stroke-linejoin="round"/>
<path d="M96.3986 12.2729V4.20415C96.3986 3.5883 96.6433 2.99767 97.0787 2.5622C97.5142 2.12672 98.1048 1.88208 98.7207 1.88208V1.88208C99.3365 1.88208 99.9272 2.12672 100.363 2.5622C100.798 2.99767 101.043 3.5883 101.043 4.20415V4.43651" stroke="#070707" stroke-width="2" stroke-linecap="round" stroke-linejoin="round"/>
<path d="M98.2864 20.5213C98.2029 20.327 98.0769 20.154 97.9178 20.0149C97.7714 19.8761 97.5994 19.7673 97.4114 19.6943C97.2223 19.6281 96.9675 19.5533 96.647 19.47H96.6262V17.8675H96.647C96.7972 17.9097 96.9334 17.9915 97.0414 18.1042C97.1493 18.2169 97.2251 18.3565 97.2608 18.5085C97.278 18.6251 97.3375 18.7313 97.4279 18.8069C97.5183 18.8826 97.6333 18.9223 97.7511 18.9187C97.8146 18.9194 97.8775 18.9073 97.9362 18.883C97.9949 18.8588 98.048 18.823 98.0925 18.7777C98.1372 18.7345 98.1728 18.6827 98.197 18.6254C98.2213 18.5682 98.2337 18.5066 98.2335 18.4444C98.2291 18.3115 98.1969 18.181 98.1389 18.0614C98.0696 17.9138 97.9788 17.7772 97.8697 17.6559C97.7305 17.4894 97.5544 17.3577 97.3553 17.2713C97.1291 17.1794 96.8903 17.1222 96.647 17.1015H96.6262V16.6015C96.6262 16.5377 96.6008 16.4766 96.5558 16.4315C96.5107 16.3864 96.4495 16.3611 96.3858 16.3611C96.322 16.3611 96.2609 16.3864 96.2158 16.4315C96.1707 16.4766 96.1454 16.5377 96.1454 16.6015V17.0902C95.6112 17.1362 95.2058 17.3007 94.9291 17.5838C94.6969 17.842 94.552 18.1667 94.5149 18.5119C94.4778 18.8571 94.5504 19.2052 94.7224 19.5068C94.863 19.72 95.0576 19.892 95.2864 20.0052C95.5617 20.1397 95.8493 20.2471 96.1454 20.3257V22.119C95.9947 22.0796 95.8546 22.0074 95.7352 21.9074C95.6375 21.8221 95.5579 21.718 95.5012 21.6014C95.4323 21.4444 95.3719 21.284 95.3201 21.1206C95.294 21.0288 95.2375 20.9486 95.1598 20.893C95.0722 20.8378 94.9701 20.8099 94.8666 20.8129C94.7994 20.8112 94.7326 20.8235 94.6705 20.8492C94.6084 20.8749 94.5524 20.9133 94.506 20.9619C94.4605 21.0047 94.4243 21.0564 94.3995 21.1137C94.3747 21.171 94.3618 21.2328 94.3618 21.2953C94.3635 21.4711 94.4 21.6448 94.4692 21.8065C94.5495 21.9922 94.6624 22.1621 94.8025 22.3081C94.9633 22.4759 95.1541 22.6124 95.365 22.7103C95.6131 22.824 95.8785 22.8955 96.1502 22.9218V23.292C96.1502 23.3558 96.1755 23.4169 96.2206 23.462C96.2657 23.5071 96.3268 23.5324 96.3906 23.5324C96.4543 23.5324 96.5155 23.5071 96.5606 23.462C96.6056 23.4169 96.631 23.3558 96.631 23.292V22.9154H96.647C96.9858 22.8954 97.3151 22.796 97.6085 22.6254C97.8643 22.4758 98.0743 22.2591 98.2159 21.9988C98.3529 21.7459 98.424 21.4627 98.4226 21.1751C98.4241 20.9499 98.3777 20.7271 98.2864 20.5213ZM95.6422 19.0357C95.5824 18.9755 95.5363 18.9031 95.507 18.8234C95.4777 18.7438 95.4659 18.6588 95.4723 18.5742C95.4652 18.4856 95.4778 18.3966 95.5091 18.3135C95.5404 18.2304 95.5897 18.1553 95.6534 18.0934C95.801 17.9747 95.9719 17.8884 96.155 17.8402V19.3145C95.9677 19.2555 95.7936 19.1609 95.6422 19.0357ZM97.2447 21.8417C97.084 22.0112 96.8725 22.1237 96.6422 22.1622H96.6214V20.4588H96.6422C96.8642 20.5199 97.0714 20.6257 97.2512 20.7696C97.3212 20.836 97.3758 20.9168 97.4113 21.0065C97.4467 21.0962 97.4621 21.1926 97.4563 21.2889C97.462 21.4927 97.3885 21.6909 97.2512 21.8417H97.2447Z" fill="#070707"/>
<path d="M44.725 27.0931H36.7124C36.7124 27.0931 29.0202 20.2711 25.6549 16.2552C25.1965 15.7014 24.7782 15.1155 24.4033 14.502C24.0479 13.9269 23.8521 13.2675 23.8359 12.5916C23.8197 11.9157 23.9838 11.2476 24.3113 10.6561C24.6387 10.0646 25.1178 9.57098 25.6993 9.22594C26.2807 8.88091 26.9435 8.69691 27.6196 8.69287H27.7046C35.8374 8.69608 44.7362 23.4281 44.725 27.0931Z" fill="#1C0E0C"/>
<path d="M49.1496 27.0933H43.5119C43.5119 27.0933 38.0986 22.2969 35.7316 19.47C35.4082 19.0811 35.1126 18.6698 34.847 18.2393C34.5968 17.8347 34.4588 17.3708 34.4474 16.8952C34.4359 16.4196 34.5513 15.9496 34.7818 15.5334C35.0122 15.1173 35.3494 14.77 35.7585 14.5273C36.1677 14.2847 36.6341 14.1554 37.1098 14.1528H37.1707C42.8917 14.1512 49.1528 24.5148 49.1496 27.0933Z" fill="#F4F1ED"/>
<path d="M32.3856 1.00077C45.8709 0.859747 50.5615 20.1302 50.2682 27.0932H44.725C44.725 23.4282 35.831 8.69612 27.6982 8.69612C24.8136 8.69612 23.1149 11.2602 23.9835 13.5951C23.9899 13.5951 18.4019 1.1482 32.3856 1.00077Z" fill="#EFAF00" stroke="black" stroke-width="2" stroke-linecap="round" stroke-linejoin="round"/>
<path d="M73.6331 24.3592C74.5834 22.082 73.3126 19.4603 70.936 18.7504C59.9491 15.4315 48.7314 27.0931 48.7314 27.0931H45.975C45.975 27.0931 51.7441 10.1063 68.7309 12.6303C72.436 13.1832 77.3189 16.7648 73.6331 24.3592Z" fill="#EFAF00" stroke="black" stroke-width="2" stroke-linecap="round" stroke-linejoin="round"/>
<path d="M73.6171 24.3977C73.1058 25.59 72.4809 26.7085 72.0386 27.0931H65.7887C65.7887 27.0931 67.2839 26.5867 68.7277 24.3977C70.4905 21.7391 69.67 18.4475 67.2646 18.2231C68.5046 18.2341 69.7376 18.4098 70.9312 18.7456C73.3174 19.4699 74.5978 22.1109 73.6171 24.3977Z" fill="#1C0E0C"/>
<path d="M76.0288 26.5178H35.222C30.2737 26.5178 26.2623 30.5292 26.2623 35.4776V83.3195C26.2623 88.2678 30.2737 92.2792 35.222 92.2792H76.0288C80.9772 92.2792 84.9886 88.2678 84.9886 83.3195V35.4776C84.9886 30.5292 80.9772 26.5178 76.0288 26.5178Z" fill="#1C0E0C"/>
<path d="M65.0531 26.5178H25.9514C21.0031 26.5178 16.9916 30.5292 16.9916 35.4776V83.3195C16.9916 88.2678 21.0031 92.2792 25.9514 92.2792H65.0531C70.0014 92.2792 74.0129 88.2678 74.0129 83.3195V35.4776C74.0129 30.5292 70.0014 26.5178 65.0531 26.5178Z" fill="#F4F1ED" stroke="#070707" stroke-width="2" stroke-linecap="round" stroke-linejoin="round"/>
<path d="M151 14.4587H139.364C136.524 14.4596 133.759 15.3694 131.474 17.0548C129.188 18.7402 127.502 21.1129 126.662 23.8255L107.962 84.3034C106.807 88.0422 104.484 91.3127 101.335 93.6356C98.1852 95.9585 94.3746 97.2117 90.4612 97.2118H25.7527C23.1716 97.2108 20.6647 98.0753 18.6329 99.667C16.601 101.259 15.1616 103.486 14.5446 105.992L12.1809 118.535C11.8418 119.911 11.8202 121.346 12.1177 122.732C12.4152 124.118 13.024 125.418 13.898 126.533C14.7721 127.649 15.8884 128.551 17.1626 129.172C18.4369 129.792 19.8355 130.115 21.2528 130.115H100.153" stroke="#070707" stroke-width="2" stroke-linecap="round" stroke-linejoin="round"/>
<path d="M90.5205 97.2117H30.4994C26.5854 97.2123 22.7742 95.9594 19.6241 93.6364C16.4741 91.3135 14.1509 88.0427 12.9949 84.3033L1 35.939H122.917L108.025 84.2841C106.872 88.027 104.551 91.3021 101.4 93.6287C98.25 95.9553 94.4369 97.2111 90.5205 97.2117V97.2117Z" stroke="#070707" stroke-width="2" stroke-linecap="round" stroke-linejoin="round"/>
<path d="M50.6271 97.2117L31.6804 35.939" stroke="#070707" stroke-width="2" stroke-linecap="round" stroke-linejoin="round"/>
<path d="M66.6204 97.2117L85.5671 35.939" stroke="#070707" stroke-width="2" stroke-linecap="round" stroke-linejoin="round"/>
<path d="M114.062 64.5796H8.37967" stroke="#070707" stroke-width="2" stroke-linecap="round" stroke-linejoin="round"/>
<path d="M91.2833 154.369C96.3945 154.369 100.538 150.226 100.538 145.115C100.538 140.004 96.3945 135.86 91.2833 135.86C86.1721 135.86 82.0287 140.004 82.0287 145.115C82.0287 150.226 86.1721 154.369 91.2833 154.369Z" fill="#C5DCDD"/>
<path d="M28.4481 154.369C33.5593 154.369 37.7027 150.226 37.7027 145.115C37.7027 140.004 33.5593 135.86 28.4481 135.86C23.3369 135.86 19.1935 140.004 19.1935 145.115C19.1935 150.226 23.3369 154.369 28.4481 154.369Z" fill="#C5DCDD"/>
<path d="M89.3587 152.743C94.4699 152.743 98.6133 148.599 98.6133 143.488C98.6133 138.377 94.4699 134.233 89.3587 134.233C84.2475 134.233 80.1041 138.377 80.1041 143.488C80.1041 148.599 84.2475 152.743 89.3587 152.743Z" stroke="#070707" stroke-width="2" stroke-linecap="round" stroke-linejoin="round"/>
<path d="M26.5235 152.743C31.6347 152.743 35.7781 148.599 35.7781 143.488C35.7781 138.377 31.6347 134.233 26.5235 134.233C21.4123 134.233 17.2689 138.377 17.2689 143.488C17.2689 148.599 21.4123 152.743 26.5235 152.743Z" stroke="#070707" stroke-width="2" stroke-linecap="round" stroke-linejoin="round"/>
<path d="M98.7463 73.6948H89.4228C87.9704 73.6948 86.793 74.8722 86.793 76.3246V89.6496C86.793 91.102 87.9704 92.2794 89.4228 92.2794H98.7463C100.199 92.2794 101.376 91.102 101.376 89.6496V76.3246C101.376 74.8722 100.199 73.6948 98.7463 73.6948Z" fill="#F46F40" stroke="black" stroke-width="2" stroke-linecap="round" stroke-linejoin="round"/>
</svg>
