<svg width="154" height="151" viewBox="0 0 154 151" fill="none" xmlns="http://www.w3.org/2000/svg">
<path d="M139.332 13.9995H29.7612C22.7646 13.9995 17.0928 19.6714 17.0928 26.668V136.238C17.0928 143.235 22.7646 148.907 29.7612 148.907H139.332C146.328 148.907 152 143.235 152 136.238V26.668C152 19.6714 146.328 13.9995 139.332 13.9995Z" fill="#C5DCDD" stroke="black" stroke-width="3" stroke-linecap="round" stroke-linejoin="round"/>
<path d="M124.239 2H14.6685C7.67186 2 2 7.67186 2 14.6685V124.239C2 131.235 7.67186 136.907 14.6685 136.907H124.239C131.235 136.907 136.907 131.235 136.907 124.239V14.6685C136.907 7.67186 131.235 2 124.239 2Z" fill="#F4F1ED" stroke="#070707" stroke-width="3" stroke-linecap="round" stroke-linejoin="round"/>
<path d="M90.6864 38.0847H19.2654V93.2475H90.6864V38.0847Z" fill="#F4F1ED" stroke="#070707" stroke-width="3" stroke-linecap="round" stroke-linejoin="round"/>
<path d="M120.93 93.2546H90.6864V51.8752H105.808L120.93 73.7807V93.2546Z" fill="#F4F1ED" stroke="#070707" stroke-width="3" stroke-linecap="round" stroke-linejoin="round"/>
<path d="M96.1609 59.5369H103.88L111.599 70.7162H96.1609V59.5369Z" fill="#F4F1ED" stroke="#070707" stroke-width="3" stroke-linecap="round" stroke-linejoin="round"/>
<path d="M40.3363 101.549C44.6193 101.549 48.0913 98.0771 48.0913 93.7941C48.0913 89.5111 44.6193 86.0391 40.3363 86.0391C36.0533 86.0391 32.5813 89.5111 32.5813 93.7941C32.5813 98.0771 36.0533 101.549 40.3363 101.549Z" fill="#EFAF00" stroke="black" stroke-width="3" stroke-linecap="round" stroke-linejoin="round"/>
<path d="M105.707 101.549C109.99 101.549 113.462 98.0771 113.462 93.7941C113.462 89.5111 109.99 86.0391 105.707 86.0391C101.424 86.0391 97.9522 89.5111 97.9522 93.7941C97.9522 98.0771 101.424 101.549 105.707 101.549Z" fill="#EFAF00" stroke="black" stroke-width="3" stroke-linecap="round" stroke-linejoin="round"/>
<path d="M76.3489 51.8752H53.573" stroke="#070707" stroke-width="3" stroke-linecap="round" stroke-linejoin="round"/>
<path d="M68.1336 61.2993H45.3577" stroke="#070707" stroke-width="3" stroke-linecap="round" stroke-linejoin="round"/>
<path d="M76.3489 70.7161H53.573" stroke="#070707" stroke-width="3" stroke-linecap="round" stroke-linejoin="round"/>
</svg>
