<svg width="24" height="29" viewBox="0 0 24 29" fill="none" xmlns="http://www.w3.org/2000/svg">
<path d="M19.7908 14.8905C19.7773 12.5809 20.8237 10.8403 22.9369 9.55676C21.755 7.8635 19.9669 6.93221 17.6099 6.75272C15.3782 6.57662 12.9365 8.05314 12.0425 8.05314C11.0976 8.05314 8.93703 6.81368 7.23699 6.81368C3.72856 6.86786 0 9.61094 0 15.1919C0 16.8412 0.3014 18.5446 0.904201 20.2988C1.71019 22.6084 4.61583 28.2673 7.64676 28.1758C9.23165 28.1386 10.3526 27.0515 12.415 27.0515C14.4164 27.0515 15.4527 28.1758 17.2205 28.1758C20.2785 28.1318 22.9064 22.9877 23.6718 20.6713C19.5707 18.7376 19.7908 15.0091 19.7908 14.8905ZM16.2316 4.56164C17.9486 2.52296 17.7928 0.667145 17.742 0C16.2248 0.0880495 14.4706 1.03289 13.4716 2.19447C12.371 3.4407 11.7241 4.98157 11.863 6.71886C13.5021 6.84416 14.9989 6.00091 16.2316 4.56164Z" fill="#181818"/>
</svg>
