<svg width="60" height="42" viewBox="0 0 60 42" fill="none" xmlns="http://www.w3.org/2000/svg">
<path d="M58.2328 2.10559C54.5963 0.580303 50.957 1.12757e-07 47.3196 1.12757e-07C35.7726 -0.000937373 24.2265 5.84428 12.6795 5.84428C9.7836 5.84428 6.88958 5.47679 3.99369 4.55805C3.66838 4.45493 3.34214 4.40618 3.02339 4.40618C1.40998 4.40618 0 5.65491 0 7.38832V37.131C0 38.315 0.677802 39.4372 1.76622 39.8928C5.40273 41.419 9.04205 41.9993 12.6795 41.9993C24.2265 41.9993 35.7735 36.1541 47.3205 36.1541C50.2164 36.1541 53.1104 36.5216 56.0063 37.4403C56.3316 37.5435 56.6579 37.5922 56.9766 37.5922C58.59 37.5922 60 36.3435 60 34.6101V4.86836C59.9991 3.68338 59.3213 2.56215 58.2328 2.10559ZM4.49993 9.39548C6.38615 9.86797 8.35487 10.1052 10.3798 10.2327C9.8286 12.9879 7.40613 15.0645 4.49993 15.0645V9.39548ZM4.49993 36.1138V31.6345C7.72207 31.6345 10.3292 34.191 10.4726 37.3907C8.36049 37.221 6.38615 36.7991 4.49993 36.1138ZM29.9995 29.9995C25.8568 29.9995 22.4996 25.9693 22.4996 20.9997C22.4996 16.0291 25.8577 11.9998 29.9995 11.9998C34.1413 11.9998 37.4994 16.0291 37.4994 20.9997C37.4994 25.9712 34.1404 29.9995 29.9995 29.9995ZM55.4991 32.6039C53.8567 32.1923 52.1514 31.9617 50.4067 31.8126C50.957 29.3677 52.9848 27.5114 55.4991 27.1927V32.6039ZM55.4991 10.4689C52.6032 10.1023 50.3561 7.68457 50.267 4.69868C52.0989 4.90211 53.8379 5.28273 55.4991 5.88553V10.4689Z" fill="#FFDD29"/>
</svg>
