<svg width="59" height="56" viewBox="0 0 59 56" fill="none" xmlns="http://www.w3.org/2000/svg">
<path d="M15.25 16.8833L10.1912 11.76L13.54 8.3525L18.575 13.5L15.25 16.8833ZM31.875 2.625V9.875H27.125V2.625H31.875ZM48.8087 11.76L43.75 16.8833L40.425 13.5L45.46 8.3525L48.8087 11.76ZM11.6875 25.5833V30.4167H4.5625V25.5833H11.6875ZM47.3125 25.5833H54.4375V30.4167H47.3125V25.5833ZM15.25 48.5417H43.75C45.0098 48.5417 46.218 49.0509 47.1088 49.9573C47.9996 50.8637 48.5 52.0931 48.5 53.375H10.5C10.5 52.0931 11.0004 50.8637 11.8912 49.9573C12.782 49.0509 13.9902 48.5417 15.25 48.5417ZM29.5 12.2917C33.2793 12.2917 36.9039 13.8193 39.5763 16.5386C42.2487 19.2579 43.75 22.946 43.75 26.7917V46.125H15.25V26.7917C15.25 22.946 16.7513 19.2579 19.4237 16.5386C22.0961 13.8193 25.7207 12.2917 29.5 12.2917Z" fill="#FFDD29"/>
</svg>
