<svg width="181" height="152" viewBox="0 0 181 152" fill="none" xmlns="http://www.w3.org/2000/svg">
<path d="M115.61 23.9403L115.6 23.9333L115.589 23.9274L107.854 19.6266L107.846 19.6224L107.839 19.6186L99.9337 15.7222L99.8293 15.9274L99.9173 15.7146L91.8782 12.2584L91.8693 12.2546L91.8601 12.2513L83.7179 9.27767L83.4708 9.92583L99.6275 16.3458L130.066 34.2469L143.773 45.3605L144.217 44.8276L137.515 39.0914L137.508 39.0854L137.5 39.0798L130.475 33.686L130.333 33.8668L130.461 33.6757L123.159 28.6308L123.153 28.626L123.145 28.6215L115.61 23.9403Z" fill="#FFDD29" stroke="white" stroke-width="0.693723"/>
<path d="M99.0603 53.5654L98.8597 52.7622L98.4278 53.4686L95.8076 57.7544L93.7919 50.6956L93.5722 49.9263L93.1609 50.6126L90.168 55.6062L89.9816 55.9172L90.3006 56.0896L95.5169 58.9099L100.557 62.0473L105.399 65.4918L106.124 66.0071L105.94 65.1373L104.165 56.7528L103.987 55.9107L103.531 56.6411L100.887 60.881L99.0603 53.5654Z" fill="#0C0C0C" stroke="white" stroke-width="0.693723"/>
<path d="M155.977 57.8533L156.458 57.3545L144.239 44.8489L144.225 44.8345L144.21 44.8219L130.483 33.6919L130.031 34.2177L155.977 57.8533Z" fill="#FFDD29" stroke="white" stroke-width="0.693723"/>
<path d="M104.12 57.0081L104.304 56.7136L104.009 56.5301L99.1993 53.5368L99.2103 53.5189L98.8984 53.3496L98.1798 52.9023L98.1962 52.9684L93.624 50.4861L92.8982 50.092L93.125 50.8861L95.3578 58.7051L95.5749 59.4653L95.9873 58.7908L98.588 54.5368L100.413 61.8425L100.611 62.6359L101.044 61.942L104.12 57.0081ZM109.067 60.2364L108.916 59.3492L108.433 60.1088L105.308 65.023L105.142 65.2838L105.382 65.4785L109.985 69.2135L110.701 69.7942L110.545 68.8857L109.067 60.2364Z" fill="#0C0C0C" stroke="white" stroke-width="0.693723"/>
<path d="M130.121 34.2771L130.44 33.6622L99.9561 15.7344L99.9239 15.7155L99.8883 15.7038L67.2383 4.99836L66.9869 5.64385L130.121 34.2771Z" fill="#FFDD29" stroke="white" stroke-width="0.693723"/>
<path d="M87.928 47.8261L87.4956 47.6243L87.5151 47.6853L82.861 45.8633L82.6632 45.3003L82.435 45.6965L82.0084 45.5295L82.2065 46.0931L79.3592 51.0355L79.1569 51.3867L79.5351 51.5323L84.8356 53.5736L85.0302 54.1275L85.2495 53.7543L90.1817 56.0352L90.3688 56.6209L90.603 56.2301L91.0361 56.4303L90.8439 55.8282L93.5852 51.2542L98.5495 53.9493L103.517 57.0409L105.261 65.2809L105.437 66.1124L105.893 65.3952L108.535 61.2404L109.839 68.869L109.754 68.9998L109.882 69.1182L110.011 69.8782L110.27 69.4792L114.278 73.203L114.979 73.8542L114.858 72.9051L113.741 64.1245L113.842 63.9684L113.708 63.8599L113.606 63.0584L113.299 63.5311L109.185 60.2191L109.195 60.2025L109.037 60.0905L107.296 51.7341L107.119 50.8876L106.662 51.6213L103.967 55.943L102.146 48.5202L101.948 47.7113L101.513 48.4219L98.8435 52.7889L96.8376 45.6168L96.6205 44.8404L96.2061 45.5319L93.3219 50.3442L88.5594 48.1209L88.5722 48.0991L88.3474 48.0111L88.1615 47.4288L87.928 47.8261Z" fill="#0C0C0C" stroke="white" stroke-width="0.693723"/>
<path d="M155.962 57.8391L156.466 57.3623L150.574 50.9351L150.567 50.927L150.559 50.9194L144.231 44.8409L143.743 45.3335L155.962 57.8391Z" fill="#FFDD29" stroke="white" stroke-width="0.693723"/>
<path d="M107.25 51.9884L107.434 51.6938L107.139 51.5104L101.993 48.3084L101.27 47.8586L101.472 48.6855L103.489 56.9072L103.685 57.7061L104.12 57.0081L107.25 51.9884Z" fill="#0C0C0C" stroke="white" stroke-width="0.693723"/>
<path d="M99.6722 16.3631L99.9084 15.7111L83.7269 9.28133L83.7069 9.27337L83.686 9.26795L67.2174 4.99233L67.0221 5.65765L99.6722 16.3631Z" fill="#FFDD29" stroke="white" stroke-width="0.693723"/>
<path d="M101.687 49.4684L101.923 49.082L106.647 52.0209L108.357 60.2276L108.266 60.3704L108.411 60.4871L108.56 61.2013L108.81 60.8081L113.055 64.2248L114.154 72.865L114.074 72.9854L114.184 73.1034L114.288 73.9204L114.561 73.5078L118.147 77.3602L118.217 78.2295L118.527 77.7683L118.909 78.1782L118.839 77.3052L122.067 72.5074L122.222 72.2771L122.031 72.0755L118.189 68.0141L118.201 67.997L118.083 67.8891L118.014 67.0217L117.975 67.0797L117.065 59.8588L117.105 59.8907L116.978 59.1306L117.076 58.9799L116.941 58.8717L116.839 58.0695L116.809 58.116L115.482 50.15L115.333 49.2566L114.847 50.0209L112.096 54.3468L112.072 54.3851L110.509 46.763L110.619 46.5859L110.451 46.4813L110.306 45.7765L110.03 46.2195L105.424 43.3549L105.434 43.3381L105.25 43.2371L105.09 42.5718L104.835 42.9885L104.413 42.7262L104.428 42.7871L99.8977 40.3067L99.7221 39.6652L99.476 40.0758L99.0517 39.8435L99.2284 40.489L96.3772 45.2462L95.9482 45.0124L95.9651 45.073L91.5679 43.0004L91.5802 42.9795L91.3583 42.8911L91.1743 42.301L90.9378 42.7035L90.5103 42.502L90.5287 42.5609L85.8412 40.6953L85.6455 40.1233L85.414 40.5253L84.9924 40.3575L85.1855 40.9219L82.4249 45.7139L77.3171 44.1079L77.1137 43.5758L76.8892 43.9733L76.473 43.8425L76.6708 44.3599L73.8504 49.3517L73.638 49.7276L74.0508 49.854L79.3962 51.4907L79.5961 52.0138L79.8224 51.6212L80.2373 51.7482L80.0426 51.2389L82.738 46.5601L87.791 48.5383L87.9835 49.101L88.2063 48.7217L93.173 51.0403L93.3579 51.6333L93.5952 51.2374L94.0235 51.4373L93.8359 50.8358L96.3866 46.58L98.3899 53.7428L98.6044 54.5099L99.0199 53.8303L101.687 49.4684Z" fill="#0C0C0C" stroke="white" stroke-width="0.693723"/>
<path d="M130.321 34.3034L131.448 34.117L130.407 33.6453L67.2735 5.01207L66.9468 5.62234L116.498 36.5024L116.609 36.5715L116.738 36.5502L130.321 34.3034Z" fill="#FFDD29" stroke="white" stroke-width="0.693723"/>
<path d="M94.4706 37.8394L94.2404 37.0828L93.8397 37.7647L90.7774 42.9767L90.5849 43.3042L90.9286 43.4662L96.3557 46.0241L97.0631 46.3575L96.8354 45.6094L94.4706 37.8394ZM115.433 50.3933L115.61 50.1137L115.339 49.9233L110.34 46.4133L109.626 45.9116L109.801 46.7669L111.565 55.3647L111.737 56.2048L112.197 55.4811L115.433 50.3933ZM121.329 63.2614L121.493 63.0132L121.273 62.8134L116.847 58.7982L116.153 58.1681L116.27 59.0985L117.404 68.0961L117.521 69.0257L118.038 68.2439L121.329 63.2614Z" fill="#0C0C0C" stroke="white" stroke-width="0.693723"/>
<path d="M130.46 34.2476L130.208 33.619L116.625 35.8658L115.783 36.0051L116.484 36.4927L121.586 40.043L121.782 40.1796L121.98 40.0446L130.46 34.2476ZM83.5117 9.93931L83.6975 9.27106L75.4832 6.83292L75.4716 6.82949L75.4599 6.82687L67.2056 4.98939L67.043 5.66369L83.5117 9.93931Z" fill="#FFDD29" stroke="white" stroke-width="0.693723"/>
<path d="M99.8996 40.7186L100.096 40.3911L99.7511 40.2271L94.2878 37.6271L93.5781 37.2893L93.8069 38.0413L96.1717 45.8112L96.3993 46.5589L96.8011 45.8885L99.8996 40.7186ZM122.153 73.2137L122.203 73.2671L122.125 72.2949L122.094 71.2246L122.045 71.2962L121.385 63.0425L121.305 62.0389L120.75 62.8789L117.459 67.8614L117.307 68.091L117.496 68.291L121.336 72.3506L118.196 77.0186L118.054 77.2289L118.212 77.4275L121.786 81.9409L122.435 82.7613L122.404 81.7153L122.153 73.2137ZM77.2169 44.8036L82.4824 46.4592L83.1577 46.6715L82.9117 46.0078L80.3303 39.0431L80.0707 38.3425L79.7031 38.993L76.8788 43.9917L71.5828 42.757L70.9267 42.604L71.1833 43.2269L73.8317 49.6545L74.1035 50.3141L74.4544 49.693L77.2169 44.8036Z" fill="#0C0C0C" stroke="white" stroke-width="0.693723"/>
<path d="M130.589 34.0831L130.975 33.0552L130.068 33.6748L121.588 39.4719L121.196 39.7401L121.571 40.032L126.449 43.8285L126.821 44.1181L126.986 43.6767L130.589 34.0831Z" fill="#FFDD29" stroke="white" stroke-width="0.693723"/>
<path d="M71.8248 42.9628L71.5502 42.2964L71.2007 42.9268L68.3212 48.121L68.0963 48.5267L68.549 48.6277L74.0769 49.8611L74.7268 50.0061L74.4731 49.3905L71.8248 42.9628ZM120.231 53.7958L120.131 52.9928L119.821 53.471L115.455 50.0142L113.723 41.4305L113.55 40.5751L113.088 41.3156L110.287 45.8073L108.481 38.1621L108.288 37.3417L107.848 38.0609L105.075 42.597L103.091 35.1892L102.879 34.3985L102.458 35.1006L99.3046 40.3622L99.1192 40.6716L99.4355 40.8448L104.774 43.7675L109.95 46.9867L114.822 50.4076L116.25 58.9794L116.163 59.1139L116.292 59.231L116.419 59.994L116.683 59.5862L120.807 63.3272L121.5 63.9562L121.384 63.0274L120.264 54.0622L120.367 53.9035L120.231 53.7958ZM82.8871 46.3017L85.7154 41.3921L90.7983 43.4151L90.9885 43.9869L91.2247 43.5849L91.641 43.7505L91.4553 43.1924L94.4379 38.1162L94.6415 37.7697L94.2689 37.619L88.8743 35.4359L88.6809 34.8547L88.446 35.2626L88.0295 35.094L88.2175 35.6591L85.4042 40.5425L80.1117 38.8338L79.4315 38.6142L79.6799 39.2844L82.2613 46.2491L82.5181 46.9421L82.8871 46.3017Z" fill="#0C0C0C" stroke="white" stroke-width="0.693723"/>
<path d="M130.61 33.9357L129.939 33.8393L126.337 43.4329L126.253 43.6579L126.434 43.816L131.042 47.8433L131.678 48.3994L131.616 47.5565L130.61 33.9357Z" fill="#FFDD29" stroke="white" stroke-width="0.693723"/>
<path d="M113.573 41.2093L112.871 40.7183L112.883 40.7803L108.619 38.1289L108.629 38.1127L108.319 37.9422L107.613 37.5032L107.627 37.5615L103.238 35.1483L103.248 35.1309L102.914 34.9703L102.21 34.583L102.225 34.639L97.5443 32.3895L97.3608 31.7716L97.1181 32.1847L96.7002 31.9839L96.8801 32.5898L93.8396 37.7646L93.6478 38.0909L93.9896 38.2536L99.3134 40.7872L99.4939 41.3954L99.7374 40.989L100.156 41.1882L99.9778 40.5879L102.632 36.1592L104.614 43.5575L104.823 44.3386L105.244 43.6487L108 39.1418L109.803 46.7769L109.995 47.5871L110.435 46.8807L113.215 42.4229L114.772 50.1388L114.679 50.2849L114.825 50.4002L114.97 51.1202L115.226 50.7179L119.577 54.1633L120.679 62.986L120.597 63.1105L120.704 63.2213L121.423 72.2209L121.348 72.3328L121.435 72.4411L121.711 81.736L121.742 82.8L122.344 81.9217L125.441 77.3978L125.796 77.8367L125.768 76.9201L125.85 76.8004L125.761 76.6903L125.506 68.2181L125.555 68.2692L125.488 67.4218L125.576 67.2901L125.475 67.1846L125.447 66.2401L125.399 66.3106L124.744 58.0907L124.843 57.9406L124.724 57.8334L124.655 56.9675L124.321 57.4726L120.226 53.8027L118.796 45.1034L118.903 44.9349L118.751 44.8285L118.627 44.0761L118.334 44.5371L113.851 41.4032L113.86 41.3878L113.573 41.2093Z" fill="#0C0C0C" stroke="white" stroke-width="0.693723"/>
<path d="M130.597 33.8625L129.918 33.9866L130.924 47.6075L130.934 47.7371L131.026 47.8285L135.317 52.0737L135.893 51.7285L130.597 33.8625Z" fill="#FFDD29" stroke="white" stroke-width="0.693723"/>
<path d="M80.1676 39.5808L85.2957 41.2364L85.4912 41.7808L85.7249 41.375L86.1294 41.5056L85.9452 40.9926L88.7453 36.1321L93.8584 38.2012L94.0463 38.7822L94.286 38.3742L94.6973 38.5407L94.5165 37.9818L97.3928 33.0864L102.597 35.5873L107.846 38.4738L108.014 39.1179L108.257 38.7208L113.077 41.7175L113.233 42.3933L113.483 41.9927L118.114 45.2296L119.54 53.9034L119.452 54.0398L119.582 54.1563L119.707 54.9207L119.974 54.5085L124.054 58.165L124.786 67.3477L125.068 76.7149L121.771 81.5297L121.64 81.7216L121.768 81.916L124.791 86.5242L125.389 87.4357L125.428 86.3462L125.761 76.9304L129.125 72.0173L129.273 71.8019L129.107 71.6006L125.565 67.3075L128.834 62.4477L128.992 62.2135L128.794 62.0117L124.833 57.9569L128.088 53.0285L128.254 52.7772L128.029 52.5776L123.706 48.7517L123.716 48.7364L123.579 48.629L123.48 47.8253L123.451 47.8699L122.148 39.833L122.255 39.6636L122.103 39.5575L121.98 38.8029L121.685 39.267L117.15 36.1116L117.16 36.0967L116.993 35.9928L116.851 35.2805L116.58 35.7149L116.174 35.4322L116.186 35.4913L111.871 32.8095L111.881 32.7939L111.699 32.6934L111.542 32.0177L111.282 32.4432L110.869 32.1867L110.882 32.2424L106.263 29.6913L106.092 29.0371L105.84 29.4575L105.425 29.2283L105.593 29.8698L102.867 34.4174L100.761 27.1391L100.537 26.3649L100.129 27.0598L97.1089 32.2002L91.9615 30.082L91.7704 29.4913L91.5319 29.9052L91.1204 29.7359L91.3035 30.3018L88.4362 35.279L83.2791 33.5693L83.0802 33.0155L82.8481 33.4264L82.4424 33.2919L82.6296 33.8131L79.832 38.7647L74.6909 37.5131L74.4865 36.9992L74.2598 37.4081L73.8643 37.3118L74.0518 37.7832L71.3165 42.7172L66.2175 41.9784L66.0103 41.5089L65.7885 41.9163L65.4074 41.861L65.5915 42.2782L62.8094 47.3897L62.5683 47.8328L63.0683 47.8994L68.3856 48.6072L68.589 49.068L68.813 48.6641L69.1912 48.7144L69.0112 48.3066L71.6802 43.4921L76.7975 44.6852L76.9984 45.1901L77.227 44.7854L77.6205 44.8771L77.4365 44.4147L80.1676 39.5808Z" fill="#0C0C0C" stroke="white" stroke-width="0.693723"/>
<path d="M111.22 33.2217L105.798 30.2268L105.789 30.2218L105.78 30.2162L66.9469 5.62242L66.9469 5.6224L66.9448 5.62108L67.3064 5.04554L67.3066 5.04531M111.22 33.2217L67.3066 5.04531M111.22 33.2217L116.498 36.5024L116.499 36.5026L116.865 35.9137L116.865 35.9135L116.864 35.9131L67.322 5.03874L67.3159 5.03501L111.22 33.2217ZM67.3066 5.04531L67.3139 5.03369L67.3138 5.03367L67.3066 5.04531ZM130.498 33.7049L130.243 33.9499L129.932 34.0599L135.228 51.9259L135.25 51.9992L135.301 52.0565L139.22 56.5094L139.801 56.1479L131.44 35.9008L171.439 83.5194L172.002 83.1172L156.507 57.4178L156.481 57.3745L156.444 57.3405L130.498 33.7049Z" fill="#FFDD29" stroke="white" stroke-width="0.693723"/>
<path d="M106.263 30.1013L106.458 29.7764L106.117 29.611L100.58 26.9234L99.8786 26.583L100.095 27.3319L102.422 35.3752L102.644 36.1402L103.053 35.4571L106.263 30.1013ZM128.794 81.6064L128.93 81.4115L128.797 81.2146L125.706 76.6238L125.109 75.7378L125.072 76.8052L124.735 86.3216L124.693 87.4991L125.366 86.5321L128.794 81.6064ZM128.92 63.1331L128.968 63.1819L128.893 62.235L128.86 61.1663L128.814 61.2356L128.145 52.8098L128.065 51.8052L127.509 52.6461L124.1 57.808L123.946 58.0415L124.141 58.2416L128.101 62.2946L124.845 67.135L124.7 67.3498L124.865 67.5494L128.572 72.042L129.217 72.8241L129.186 71.8107L128.92 63.1331ZM83.1715 34.2644L88.4865 36.0265L89.1544 36.2479L88.9233 35.5833L86.3965 28.3172L86.1445 27.5923L85.7669 28.2605L82.8383 33.444L77.6785 32.1331L77.4763 31.6063L77.2452 32.0231L76.8551 31.924L77.0372 32.3983L74.1316 37.6395L73.9112 38.0372L74.3529 38.1447L79.7463 39.4577L79.9449 39.9752L80.1779 39.5628L80.5659 39.6573L80.3874 39.192L83.1715 34.2644Z" fill="#0C0C0C" stroke="white" stroke-width="0.693723"/>
<path d="M67.3158 5.03483L66.9395 5.61764L66.9446 5.6209L100.238 27.5252L100.257 27.5376L100.277 27.5475L105.814 30.235L106.151 29.63L67.3208 5.03809L67.3158 5.03483Z" fill="#FFDD29" stroke="white" stroke-width="0.693723"/>
<path d="M126.989 43.3696L126.89 42.565L126.577 43.0488L121.997 39.4845L121.301 38.9422L121.442 39.8138L122.889 48.7371L122.8 48.8754L122.93 48.9913L123.055 49.7572L123.325 49.3404L127.569 53.097L128.255 53.7038L128.143 52.7951L127.022 43.6377L127.126 43.4765L126.989 43.3696ZM91.9817 30.5148L92.1923 30.1492L91.7929 30.0132L86.1809 28.1028L85.508 27.8738L85.7415 28.5451L88.2682 35.8112L88.5175 36.5281L88.8964 35.8704L91.9817 30.5148ZM129.186 71.8333L129.227 70.6412L128.553 71.6254L125.132 76.6216L124.999 76.8159L125.131 77.0113L128.222 81.6021L128.819 82.4896L128.856 81.4203L129.186 71.8333Z" fill="#0C0C0C" stroke="white" stroke-width="0.693723"/>
<path d="M165.491 70.8745L166.06 70.477L161.717 63.9789L161.709 63.9671L161.7 63.956L156.482 57.3811L155.93 57.8015L165.491 70.8745Z" fill="#FFDD29" stroke="white" stroke-width="0.693723"/>
<path d="M74.7384 37.9761L74.979 37.5422L74.4889 37.4652L69.1377 36.6249L68.9324 36.1407L68.7058 36.5571L68.3304 36.4981L68.5088 36.9189L65.6733 42.1285L65.4351 42.5662L65.9282 42.6376L71.2609 43.4103L71.4624 43.8855L71.6913 43.4726L72.0637 43.5266L71.8894 43.1153L74.7384 37.9761ZM94.6742 24.4514L94.2675 24.2812L94.4456 24.8481L91.3805 30.1686L91.1828 30.5118L91.5491 30.6625L96.9734 32.8947L97.1589 33.4851L97.4021 33.0711L97.8085 33.2383L97.6327 32.6787L100.728 27.4114L100.929 27.069L100.562 26.9157L95.1048 24.6316L94.9162 24.0313L94.6742 24.4514Z" fill="#0C0C0C" stroke="white" stroke-width="0.693723"/>
<path d="M67.3209 5.03826L66.9301 5.61134L94.622 25.1726L94.6531 25.1945L94.6882 25.2092L100.295 27.5556L100.619 26.9458L67.3209 5.03826Z" fill="#FFDD29" stroke="white" stroke-width="0.693723"/>
<path d="M128.854 81.4476L128.225 81.2103L124.797 86.1359L124.677 86.308L124.774 86.494L127.128 91.0279L127.653 92.0373L127.781 90.9071L128.854 81.4476ZM132.31 57.2815L132.469 57.0453L132.268 56.8434L128.045 52.593L127.378 51.922L127.453 52.8649L128.2 62.2733L128.493 71.8321L128.525 72.8943L129.126 72.0174L132.608 66.9308L132.757 66.7131L132.587 66.5113L128.98 62.2308L132.31 57.2815ZM66.2826 42.4601L66.5473 41.9738L65.9942 41.9478L60.7021 41.6999L60.1425 41.6737L60.3684 42.1863L62.7969 47.6956L63.0815 48.3414L63.4189 47.7215L66.2826 42.4601Z" fill="#0C0C0C" stroke="white" stroke-width="0.693723"/>
<path d="M130.578 33.8136L129.943 34.0935L139.16 56.4124L139.176 56.453L139.203 56.4882L142.584 60.9947L143.176 60.6391L130.578 33.8136Z" fill="#FFDD29" stroke="white" stroke-width="0.693723"/>
<path d="M131.605 47.4137L131.536 46.5494L131.199 47.0595L126.89 43.2935L126.207 42.6968L126.317 43.5968L127.439 52.7526L127.354 52.8815L127.469 52.9973L127.569 53.8143L127.853 53.3841L131.575 57.1302L128.259 62.0603L128.113 62.2774L128.281 62.4775L132.057 66.9581L132.7 67.7211L132.669 66.7238L132.396 57.9562L132.442 58.0028L132.368 57.0686L132.335 56.0006L132.289 56.0688L131.625 47.6735L131.727 47.5202L131.605 47.4137ZM61.0031 41.9062L60.7159 41.2546L60.3799 41.8824L57.526 47.2157L57.2629 47.7074L57.8203 47.726L63.1026 47.9021L63.6542 47.9205L63.4316 47.4155L61.0031 41.9062ZM132.285 76.5913L132.422 76.3938L132.285 76.1959L129.125 71.6239L128.529 70.7619L128.493 71.8093L128.163 81.3963L128.122 82.5716L128.794 81.6063L132.285 76.5913Z" fill="#0C0C0C" stroke="white" stroke-width="0.693723"/>
<path d="M67.3302 5.04456L66.9138 5.59903L88.9673 23.1894L89.0134 23.2262L89.0691 23.2457L94.7075 25.2165L95.0221 24.6058L67.3302 5.04456Z" fill="#FFDD29" stroke="white" stroke-width="0.693723"/>
<path d="M86.2295 28.8521L91.407 30.6145L91.5976 31.1812L91.8392 30.7617L92.2335 30.8959L92.0597 30.3791L95.1227 25.0622L95.3315 24.6996L94.9366 24.5616L89.4584 22.6467L89.2644 22.0702L89.0244 22.495L88.6289 22.3568L88.8057 22.8822L85.8988 28.0271L80.7202 26.6551L80.5205 26.115L80.285 26.5397L79.9002 26.4378L80.0768 26.9153L77.2348 32.0419L72.1108 31.1731L71.9077 30.6738L71.6761 31.0994L71.3064 31.0367L71.4791 31.4613L68.6943 36.5777L63.6131 36.2688L63.0561 36.2349L63.2723 36.7493L65.6581 42.4284L65.9376 43.0936L66.2826 42.4598L69.0812 37.318L74.1876 38.1198L74.3869 38.6098L74.6208 38.1879L74.9876 38.2455L74.8189 37.8306L77.5927 32.827L82.7478 34.1366L82.944 34.667L83.1815 34.2468L83.5642 34.344L83.391 33.8759L86.2295 28.8521ZM132.669 66.7461L132.709 65.5563L132.036 66.5386L128.553 71.6252L128.418 71.8221L128.554 72.0184L131.578 76.3925L128.548 80.7461L128.29 80.2663L128.175 81.282L128.103 81.3847L128.153 81.4768L127.092 90.8286L127.72 91.0678L130.891 86.5761L131.152 87.0619L131.266 86.0451L131.339 85.9427L131.288 85.849L132.241 77.3524L132.312 77.4539L132.347 76.4047L132.669 66.7461ZM135.849 52.0207L136.009 51.7824L135.805 51.5805L131.514 47.3353L130.851 46.679L130.924 47.6092L131.676 57.115L131.755 58.1065L132.31 57.2812L135.849 52.0207Z" fill="#0C0C0C" stroke="white" stroke-width="0.693723"/>
<path d="M67.3465 5.05672L66.8879 5.57606L83.3093 21.611L83.3732 21.6734L83.4592 21.6972L89.0914 23.2526L89.4 22.6471L67.3465 5.05672Z" fill="#FFDD29" stroke="white" stroke-width="0.693723"/>
<path d="M136.155 61.751L136.306 61.5309L136.132 61.3287L132.285 56.8613L131.645 56.118L131.675 57.0984L131.976 66.7453L132.009 67.8066L132.608 66.9305L136.155 61.751Z" fill="#0C0C0C" stroke="white" stroke-width="0.693723"/>
<path d="M130.576 33.8084L129.95 34.1086L142.548 60.9341L142.556 60.952L142.567 60.9688L145.279 65.364L145.885 65.0292L130.576 33.8084Z" fill="#FFDD29" stroke="white" stroke-width="0.693723"/>
<path d="M63.9119 36.4808L63.6299 35.8095L63.2863 36.4515L60.3801 41.8826L60.1208 42.367L60.6697 42.3927L65.9618 42.6407L66.5106 42.6664L66.2978 42.1599L63.9119 36.4808ZM135.839 71.4845L135.978 71.2844L135.837 71.0856L132.605 66.5339L132.01 65.6957L131.976 66.7231L131.653 76.3817L131.614 77.5548L132.285 76.5915L135.839 71.4845ZM135.908 51.8163L135.874 50.741L135.273 51.6336L131.734 56.8942L131.587 57.1137L131.759 57.3141L135.606 61.7815L136.246 62.5254L136.215 61.5442L135.908 51.8163Z" fill="#0C0C0C" stroke="white" stroke-width="0.693723"/>
<path d="M67.0975 5.67326L67.1785 4.98447L59.1774 3.86044L59.1614 3.85818L59.1452 3.85743L51.6917 3.51308L51.6429 4.20488L67.0975 5.67326Z" fill="#FFDD29" stroke="white" stroke-width="0.693723"/>
<path d="M131.258 86.0573L134.775 81.0772L134.9 80.8992L134.795 80.7087L132.303 76.2249L131.776 75.2765L131.655 76.3547L130.597 85.7908L127.153 90.6679L127.047 90.8185L127.112 90.9909L128.79 95.4194L129.223 96.5611L129.455 95.3625L131.258 86.0573ZM89.4859 23.089L89.7044 22.7023L89.2762 22.5841L83.818 21.0767L83.6208 20.523L83.3808 20.9559L83.0013 20.8511L83.1724 21.3318L80.2749 26.5586L75.1388 25.6214L74.9381 25.1066L74.7013 25.5416L74.3372 25.4752L74.5043 25.9037L71.5578 31.3172L71.3256 31.7438L71.8045 31.825L77.1674 32.7343L77.3643 33.2395L77.6034 32.8082L77.9647 32.8695L77.8015 32.4509L80.6299 27.349L85.8037 28.7198L85.9973 29.2635L86.2393 28.8352L86.6168 28.9352L86.449 28.4641L89.4859 23.089ZM60.9918 42.21L61.2867 41.6587L60.6629 41.7002L56.0582 42.0064L55.8731 41.5432L55.6132 42.036L55.3305 42.0548L55.4481 42.3492L52.6724 47.6143L52.3777 48.1732L53.0075 48.1218L57.605 47.7461L57.7864 48.2L58.0487 47.7098L58.3285 47.687L58.2141 47.4008L60.9918 42.21ZM136.215 61.5664L136.254 60.3789L135.583 61.3593L132.036 66.5388L131.899 66.7384L132.039 66.9356L135.272 71.4873L135.868 72.327L135.901 71.2977L136.215 61.5664Z" fill="#0C0C0C" stroke="white" stroke-width="0.693723"/>
<path d="M67.3726 5.07987L66.8495 5.53167L77.6849 20.473L77.765 20.5836L77.899 20.6098L83.4849 21.7034L84.6253 21.9267L83.7939 21.1148L67.3726 5.07987Z" fill="#FFDD29" stroke="white" stroke-width="0.693723"/>
<path d="M135.899 71.3246L135.27 71.0882L131.715 76.1951L131.592 76.3727L131.697 76.5617L134.188 81.0455L134.716 81.9961L134.836 80.9153L135.899 71.3246Z" fill="#0C0C0C" stroke="white" stroke-width="0.693723"/>
<path d="M171.507 83.5811L171.971 83.0729L130.53 33.7379L129.953 34.1137L145.263 65.3345L145.302 65.4155L145.376 65.4668L171.507 83.5811Z" fill="#FFDD29" stroke="white" stroke-width="0.693723"/>
<path d="M72.1668 31.6488L72.4234 31.1774L71.8881 31.1371L66.5779 30.7376L66.0233 30.6959L66.2299 31.2123L68.5712 37.0664L68.8452 37.7514L69.1979 37.1034L72.1668 31.6488ZM139.766 56.4761L139.919 56.2535L139.741 56.051L135.821 51.5981L135.184 50.8738L135.214 51.8382L135.522 61.5661L135.555 62.6265L136.155 61.7511L139.766 56.4761Z" fill="#0C0C0C" stroke="white" stroke-width="0.693723"/>
<path d="M171.408 83.4751L172.019 83.1485L166.086 70.5221L166.071 70.4919L166.052 70.4649L156.49 57.3919L155.913 57.7757L171.408 83.4751Z" fill="#FFDD29" stroke="white" stroke-width="0.693723"/>
<path d="M66.8742 30.9544L66.5976 30.263L66.2463 30.9195L63.3787 36.2784L58.9684 36.5021L58.7859 36.0175L58.5183 36.525L58.241 36.539L58.3535 36.8376L55.5227 42.2071L55.2332 42.7562L55.8525 42.715L60.4519 42.4091L60.6308 42.8839L60.9008 42.3793L61.1751 42.361L61.0658 42.0709L63.793 36.9746L68.8724 37.2835L69.4188 37.3167L69.2155 36.8084L66.8742 30.9544ZM132.588 91.0347L132.792 91.5488L133.002 90.4555L133.068 90.3634L133.036 90.2817L134.818 81.0157L138.4 75.9423L138.528 75.7613L138.418 75.5693L135.965 71.3038L139.181 66.6824L139.489 67.1051L139.518 66.1985L139.6 66.08L139.525 65.9765L139.827 56.2907L139.864 55.1055L139.194 56.0839L135.86 60.9541L135.554 60.536L135.525 61.4425L135.444 61.5612L135.518 61.6629L135.208 71.2614L134.156 80.7497L131.018 85.1943L130.817 84.6873L130.605 85.7786L130.54 85.8711L130.572 85.9513L128.774 95.2301L129.397 95.4979L132.588 91.0347ZM83.855 21.5308L84.0861 21.1138L83.6183 21.0222L78.2228 19.9659L78.0247 19.4351L77.7827 19.8797L77.4239 19.8095L77.5854 20.2421L74.5812 25.7617L74.3521 26.1828L74.8236 26.2688L80.2013 27.25L80.3957 27.7708L80.64 27.33L80.9959 27.395L80.8382 26.9725L83.855 21.5308Z" fill="#0C0C0C" stroke="white" stroke-width="0.693723"/>
<path d="M72.316 19.8312L72.3921 20.0297L72.6035 20.052L77.9294 20.6144L78.7037 20.6961L78.2466 20.0658L67.4111 5.12445L66.8065 5.45219L72.316 19.8312Z" fill="#FFDD29" stroke="white" stroke-width="0.693723"/>
<path d="M139.134 56.2692L138.831 65.9713L135.269 71.0881L135.144 71.2686L135.253 71.4592L137.706 75.7233L134.57 80.1634L134.369 79.6774L134.165 80.738L134.097 80.8332L134.131 80.9137L132.35 90.1756L128.832 95.0945L128.741 95.2218L128.776 95.3742L129.764 99.6597L130.436 99.6747L132.994 90.4676L136.223 85.9516L136.427 86.4444L136.63 85.3819L136.698 85.2871L136.664 85.205L138.282 76.7258L138.346 76.8366L138.452 75.8692L142.094 70.7117L142.224 70.5276L142.108 70.3341L139.587 66.0996L143.147 60.9847L143.29 60.7789L143.139 60.5784L139.758 56.0718L139.164 55.2812L139.134 56.2692ZM75.1904 26.0935L75.4429 25.6297L74.9169 25.5823L69.8145 25.1223L69.6209 24.6131L69.3699 25.0822L69.046 25.053L69.1871 25.4239L66.3404 30.7436L61.9331 30.8951L61.7535 30.3883L61.4781 30.9108L61.206 30.9201L61.3134 31.2232L58.4261 36.6998L58.1419 37.2388L58.7505 37.208L63.3513 36.9745L63.5273 37.4711L63.8053 36.9515L64.0743 36.9379L63.97 36.6436L66.7512 31.4462L71.6163 31.8122L71.8061 32.3114L72.0597 31.8456L72.3804 31.8697L72.2431 31.5086L75.1904 26.0935ZM56.1362 42.5308L56.477 41.8844L55.7607 42.029L51.672 42.8547L51.5089 42.375L51.2107 42.9479L50.9864 42.9932L51.0657 43.2264L48.2807 48.5764L47.9385 49.2338L48.6625 49.0754L52.7503 48.181L52.91 48.6505L53.2106 48.0803L53.4323 48.0317L53.3554 47.8056L56.1362 42.5308Z" fill="#0C0C0C" stroke="white" stroke-width="0.693723"/>
<path d="M67.431 19.7218L67.4459 20.053L67.7774 20.053L72.6399 20.0538L73.1443 20.0539L72.9638 19.5828L67.4543 5.20385L66.7839 5.34355L67.431 19.7218Z" fill="#FFDD29" stroke="white" stroke-width="0.693723"/>
<path d="M133.571 95.3739L133.709 95.9335L134.045 94.7171L134.103 94.6373L134.086 94.5694L136.638 85.3346L136.022 85.0405L132.832 89.5016L132.695 88.9503L132.358 90.1639L132.301 90.244L132.317 90.3107L129.768 99.4891L130.383 99.7851L133.571 95.3739ZM143.207 60.8239L142.577 60.5885L138.89 65.8869L138.762 66.0704L138.876 66.2625L141.512 70.6892L142.044 71.5813L142.155 70.549L143.207 60.8239ZM78.2703 20.4351L78.5186 19.9789L78.002 19.9243L72.6762 19.362L72.1255 19.3038L72.3135 19.8247L74.5595 26.0456L74.8215 26.7714L75.1904 26.0937L78.2703 20.4351Z" fill="#0C0C0C" stroke="white" stroke-width="0.693723"/>
<path d="M67.1331 5.67478L67.163 4.98262L51.7084 3.51423L51.6694 3.51053L51.6306 3.5156L38.5801 5.22158L38.6279 5.91236L67.1331 5.67478Z" fill="#FFDD29" stroke="white" stroke-width="0.693723"/>
<path d="M59.0399 37.0234L59.3734 36.3908L58.6702 36.5205L54.2864 37.329L53.9006 37.4001L54.0185 37.7743L55.4987 42.4734L55.7486 43.2665L56.1364 42.5309L59.0399 37.0234ZM72.9661 19.5891L72.7016 18.8564L72.3341 19.5433L69.2617 25.2847L69.0145 25.7468L69.5364 25.7938L74.8547 26.2733L75.397 26.3222L75.2121 25.81L72.9661 19.5891Z" fill="#0C0C0C" stroke="white" stroke-width="0.693723"/>
<path d="M171.391 83.4437L172.027 83.1674L169.533 76.9306L169.526 76.9123L169.517 76.895L166.077 70.5054L165.458 70.8174L171.391 83.4437Z" fill="#FFDD29" stroke="white" stroke-width="0.693723"/>
<path d="M139.926 80.7727L140.131 81.2445L140.327 80.2126L140.397 80.1149L140.361 80.0326L142.137 70.6502L145.857 65.382L145.99 65.1948L145.869 64.9997L143.157 60.6045L142.626 59.7435L142.517 60.7493L141.475 70.385L138.189 75.0388L137.987 74.5736L137.79 75.6037L137.721 75.7018L137.756 75.7826L135.966 85.1633L133.41 94.4119L129.821 99.3787L129.747 99.4803L129.756 99.6053L130.033 103.704L130.705 103.8L134.037 94.7289L137.703 89.6552L137.8 89.5219L137.757 89.3629L136.681 85.311L139.926 80.7727ZM54.6801 37.5659L54.4284 36.7668L54.0416 37.5099L51.1959 42.9766L47.443 44.3731L47.1512 44.4817L47.2278 44.7835L48.2523 48.8219L48.476 49.7039L48.8962 48.8968L51.6731 43.5624L55.8982 42.7091L56.2762 42.6328L56.1604 42.2649L54.6801 37.5659ZM69.8734 25.612L70.152 25.0912L69.5615 25.1015L64.9541 25.1819L64.7778 24.652L64.4943 25.1899L64.2272 25.1945L64.3296 25.5022L61.3843 31.0888L61.1055 31.6178L61.7031 31.5972L66.3049 31.439L66.4776 31.958L66.7637 31.4232L67.0277 31.4141L66.9284 31.1155L69.8734 25.612Z" fill="#0C0C0C" stroke="white" stroke-width="0.693723"/>
<path d="M63.0745 20.1788L62.952 20.6708L63.4549 20.6067L67.8214 20.0502L68.1384 20.0098L68.1241 19.6905L67.477 5.31232L66.7939 5.24409L63.0745 20.1788Z" fill="#FFDD29" stroke="white" stroke-width="0.693723"/>
<path d="M47.9768 44.9145L51.1916 43.7182L51.3134 44.2532L51.688 43.5335L51.8475 43.4742L51.8084 43.3022L54.5788 37.9803L58.4877 37.2594L58.6398 37.7822L58.9615 37.172L59.1734 37.133L59.1053 36.8992L61.5852 32.1953L61.9981 31.4122L62.3242 30.7936L64.9166 25.8762L69.3138 25.7995L69.4828 26.3417L69.7773 25.7914L70.0365 25.7869L69.942 25.4837L72.9457 19.8704L73.2189 19.36L72.64 19.3599L68.0326 19.3591L67.86 18.8055L67.5682 19.359L67.3059 19.359L67.4034 19.6716L64.4807 25.2154L60.2817 25.8336L59.8964 25.8903L59.9972 26.2665L61.2573 30.9709L57.5592 31.5855L57.4037 31.0512L57.0845 31.6644L56.87 31.7L56.9403 31.9415L54.1048 37.3884L50.7336 38.5784L50.6091 38.0309L50.2365 38.7539L50.0751 38.8109L50.1155 38.9887L47.675 43.7252L47.2557 44.5391L46.8453 45.3355L44.3929 50.0952L43.9726 50.9109L44.8273 50.5772L48.7147 49.0596L49.0001 48.9481L48.9247 48.6511L47.9768 44.9145ZM139.674 79.9332L139.621 80.0071L136.022 85.0402L135.927 85.1731L135.969 85.3311L137.045 89.3819L133.447 94.3612L133.371 94.4652L133.376 94.5168L130.054 103.561L130.66 103.884L134.347 98.8245L134.423 98.7201L134.419 98.6676L137.37 90.6048L137.417 90.7813L137.74 89.6042L141.05 85.0242L141.194 85.5318L141.505 84.3936L141.567 84.3083L141.548 84.2395L143.848 75.8216L143.905 75.9463L144.093 74.9447L144.165 74.844L147.888 69.6384L148.007 69.4719L147.919 69.2872L145.887 65.0323L145.429 64.0734L145.247 65.0434L141.876 69.8179L141.673 69.3731L141.484 70.3729L141.412 70.4741L141.449 70.5551L139.674 79.9332Z" fill="#0C0C0C" stroke="white" stroke-width="0.693723"/>
<path d="M51.7207 4.20355L51.6532 3.51349L44.7961 3.96105L44.7726 3.96258L44.7496 3.96726L38.5561 5.22568L38.6702 5.90953L51.7207 4.20355Z" fill="#FFDD29" stroke="white" stroke-width="0.693723"/>
<path d="M60.6673 26.0871L60.4365 25.2254L60.0246 26.0167L57.0046 31.8181L56.6838 32.4344L57.3692 32.3205L61.7482 31.5927L62.1253 31.53L62.0264 31.1608L60.6673 26.0871ZM134.381 98.7665L133.787 98.4161L130.099 103.476L130.046 103.549L130.035 103.64L129.579 107.5L130.238 107.686L134.381 98.7665Z" fill="#0C0C0C" stroke="white" stroke-width="0.693723"/>
<path d="M171.532 83.5967L171.903 83.0109L145.772 64.8967L144.698 64.1527L145.261 65.3312L147.293 69.5862L147.339 69.6836L147.433 69.7374L171.532 83.5967Z" fill="#FFDD29" stroke="white" stroke-width="0.693723"/>
<path d="M47.8723 44.8572L48.4311 43.7728L50.7271 39.3167L54.0886 38.1301L54.2041 38.7004L54.5938 37.9518L54.7491 37.8969L54.7136 37.7216L57.6199 32.1387L58.0155 31.3787L57.2026 31.6494L53.7184 32.8098L53.6001 32.2261L53.2126 32.9782L53.0553 33.0306L53.0921 33.2121L50.2199 38.7864L47.0056 40.6528L46.8119 40.7652L46.8347 40.9881L47.1964 44.5145L44.5213 46.1217L44.4463 45.5365L43.981 46.4463L43.8719 46.5119L43.887 46.6302L41.0571 52.1644L40.4899 53.2735L41.5487 52.6171L44.4257 50.8334L44.4988 51.4044L44.9655 50.4987L45.0736 50.4317L45.0589 50.3174L47.338 45.8943L47.8723 44.8572ZM134.007 102.526L138.126 93.6399L138.184 93.5603L138.178 93.5074L141.497 84.4059L144.897 79.7L145.045 80.1824L145.344 79.0827L145.407 78.9943L145.386 78.9252L147.94 69.528L147.323 69.2353L143.893 74.0322L143.748 73.5572L143.448 74.6544L143.385 74.7432L143.406 74.811L140.869 84.0897L137.141 89.249L137.064 89.3558L137.069 89.4077L133.758 98.4556L133.731 98.4917L133.728 98.5269L129.609 107.394L130.203 107.746L133.948 102.638L134.004 102.562L134.007 102.526ZM68.0842 19.868L68.3954 19.2779L67.7336 19.3622L63.674 19.8795L63.5283 19.2862L63.1871 19.9416L62.9813 19.9678L63.0429 20.2185L60.0245 26.0169L59.711 26.6191L60.3827 26.5202L64.4438 25.9224L64.5864 26.5028L64.9302 25.8508L65.1332 25.8209L65.0737 25.5785L68.0842 19.868Z" fill="#0C0C0C" stroke="white" stroke-width="0.693723"/>
<path d="M171.568 83.6149L171.878 82.9955L147.778 69.1362L146.995 68.6858L147.276 69.5446L148.609 73.6237L148.657 73.7728L148.801 73.8347L171.568 83.6149Z" fill="#FFDD29" stroke="white" stroke-width="0.693723"/>
<path d="M137.827 97.3154L141.957 88.3819L142.017 88.2996L145.844 83.0485L145.926 82.9355L145.907 82.797L145.388 79.0212L149.219 73.7192L149.323 73.5761L149.268 73.4083L147.935 69.3292L147.575 68.2267L147.271 69.346L144.707 78.7787L140.906 84.0386L140.827 84.1482L140.833 84.2005L137.516 93.2983L137.488 93.3364L137.485 93.3719L133.368 102.255L129.643 107.335L129.612 107.378L129.595 107.428L128.378 110.991L129.008 111.275L133.96 102.622L137.767 97.4295L137.824 97.3517L137.827 97.3154ZM47.5248 40.9172L47.4051 39.7501L46.871 40.7947L43.9634 46.4808L41.3034 48.9783L41.2024 49.0732L41.1986 49.1388L38.3301 54.7751L38.8791 55.1829L41.6058 52.5728L41.7045 52.4783L41.7081 52.4149L44.5084 46.9387L47.7426 44.9956L47.9315 44.8821L47.909 44.6629L47.5248 40.9172ZM60.6399 26.3372L61.025 25.5974L60.2289 25.8459L56.7612 26.9283L56.65 26.3068L56.2472 27.0887L56.0937 27.1366L56.1269 27.3221L53.1958 33.0108L50.0034 34.7968L49.8096 34.9052L49.827 35.1266L50.136 39.0625L50.2315 40.2785L50.7902 39.1942L53.6999 33.547L57.0414 32.4342L57.15 33.0413L57.555 32.2631L57.7065 32.2127L57.6745 32.0337L60.6399 26.3372Z" fill="#0C0C0C" stroke="white" stroke-width="0.693723"/>
<path d="M171.616 83.6313L171.842 82.9775L149.075 73.1973L148.498 72.9492L148.596 73.5701L149.206 77.4308L149.241 77.6536L149.459 77.7118L171.616 83.6313Z" fill="#FFDD29" stroke="white" stroke-width="0.693723"/>
<path d="M149.264 73.6339L148.657 73.3127L144.744 78.7274L144.663 78.8401L144.682 78.9778L145.22 82.8913L145.89 82.9621L149.264 73.6339ZM50.5186 35.0722L50.4226 33.8491L49.864 34.9414L46.8993 40.7392L44.2654 43.1611L44.165 43.2534L44.1544 43.3894L43.8989 46.6653L44.5536 46.8502L47.4422 41.2012L50.656 39.3352L50.8447 39.2256L50.8276 39.0081L50.5186 35.0722ZM63.7187 20.4227L64.0931 19.7033L63.3143 19.9294L59.8637 20.931L59.7604 20.2701L59.3418 21.0825L59.192 21.126L59.2216 21.3158L56.1807 27.2176L55.801 27.9546L56.5924 27.7076L60.0516 26.6278L60.1525 27.2733L60.5733 26.465L60.7211 26.4188L60.6925 26.2359L63.7187 20.4227ZM132.784 106.147L132.817 106.103L132.823 106.084L137.788 97.3964L137.207 97.0192L133.389 102.227L133.356 102.271L133.35 102.29L128.406 110.931L128.986 111.309L132.784 106.147Z" fill="#0C0C0C" stroke="white" stroke-width="0.693723"/>
<path d="M173.264 95.1184L173.952 95.0382L173.54 89.297L173.538 89.2674L173.531 89.2386L172.042 83.2127L171.363 83.3513L173.264 95.1184Z" fill="#FFDD29" stroke="white" stroke-width="0.693723"/>
<path d="M141.661 92.1183L141.72 92.0381L141.723 92.0015L145.864 83.0206L149.828 77.581L149.913 77.4647L149.891 77.3226L149.281 73.4618L148.612 73.3979L145.254 82.6797L141.377 88.0009L141.318 88.0808L141.316 88.1167L137.172 97.0788L137.767 97.4294L141.661 92.1183ZM44.846 43.4434L44.191 43.2591L41.2317 49.0737L41.7783 49.4839L44.4822 46.9452L44.5801 46.8533L44.5906 46.7193L44.846 43.4434ZM56.7974 27.5354L57.3091 26.5423L56.3249 27.071L53.0613 28.824L52.8668 28.9285L52.8791 29.1489L53.11 33.2818L53.181 34.554L53.7646 33.4213L56.7974 27.5354Z" fill="#0C0C0C" stroke="white" stroke-width="0.693723"/>
<path d="M63.402 20.6093L63.6802 20.6165L63.7475 20.3464L67.4668 5.4117L67.6158 4.81349L67.0272 4.99669L22.4209 18.8794L22.515 19.5573L63.402 20.6093Z" fill="#FFDD29" stroke="white" stroke-width="0.693723"/>
<path d="M53.5717 29.1103L53.5002 27.8303L52.9166 28.9717L49.8639 34.9415L49.3424 35.9614L50.3421 35.4021L53.6256 33.5652L53.8146 33.4594L53.8026 33.2432L53.5717 29.1103Z" fill="#0C0C0C" stroke="white" stroke-width="0.693723"/>
<path d="M67.2334 5.65924L67.1275 4.9812L38.6223 5.21878L38.4967 5.21983L38.4009 5.30101L22.2998 18.9461L22.6271 19.5419L67.2334 5.65924ZM171.669 83.6412L171.795 82.9611L149.638 77.0417L149.219 76.9298L149.202 77.3631L149.059 80.9557L149.046 81.2807L149.37 81.3145L171.669 83.6412Z" fill="#FFDD29" stroke="white" stroke-width="0.693723"/>
<path d="M136.661 100.88L136.692 100.838L136.698 100.818L141.673 92.1025L145.633 86.7012L145.694 86.6185L145.696 86.5815L149.863 77.5217L149.268 77.1725L145.283 82.64L145.223 82.7224L145.221 82.7587L141.081 91.7364L137.207 97.0194L137.174 97.0648L137.168 97.0839L132.214 105.753L128.428 110.898L128.42 110.908L128.413 110.919L126.408 114.118L126.77 114.357L126.982 114.508L130.826 109.288L130.834 109.278L130.836 109.273L136.661 100.88ZM42.1793 46.307L41.2272 49.077L39.2266 52.1149L39.2017 52.1528L39.1954 52.1714L36.2755 57.9176L36.875 58.2646L38.9297 55.1222L38.9542 55.0847L38.9602 55.0667L41.8501 49.3885L44.7811 43.6296L47.4147 41.208L47.5122 41.1183L47.5187 41.0519L50.4817 35.2574L49.941 34.8416L47.2872 37.2272L47.187 37.3173L47.1802 37.3862L44.2002 43.2414L42.2183 46.2279L42.1937 46.265L42.1793 46.307ZM59.8903 21.5331L60.3858 20.5713L59.4235 21.0657L56.6676 22.4813L56.6403 21.69L56.0818 22.7822L55.9855 22.8316L55.99 22.9617L52.9168 28.9718L52.4109 29.961L53.3897 29.4353L56.1617 27.9463L56.1883 28.7178L56.7482 27.6312L56.8432 27.5802L56.8389 27.4551L59.8903 21.5331Z" fill="#0C0C0C" stroke="white" stroke-width="0.693723"/>
<path d="M171.719 83.6426L171.741 82.951L149.442 80.6243L149.152 80.594L149.072 80.8745L148.144 84.1417L148.013 84.6024L148.492 84.583L171.719 83.6426Z" fill="#FFDD29" stroke="white" stroke-width="0.693723"/>
<path d="M140.61 95.5134L140.644 95.4663L140.65 95.4466L145.645 86.6851L149.685 81.1745L149.748 81.089L149.752 80.9831L149.895 77.3905L149.233 77.2318L145.053 86.3192L141.101 91.7082L141.067 91.7551L141.061 91.7744L136.077 100.506L136.658 100.883L140.61 95.5134ZM42.835 46.5324L42.1978 46.2625L39.2068 52.1484L39.8057 52.4963L41.8304 49.4219L41.8545 49.3853L41.8687 49.3439L42.835 46.5324ZM53.5342 29.2875L52.9966 28.8688L50.3701 31.1725L50.2697 31.2606L50.2615 31.3314L47.2097 37.3278L47.7507 37.743L50.4045 35.3574L50.5021 35.2697L50.51 35.2017L53.5342 29.2875Z" fill="#0C0C0C" stroke="white" stroke-width="0.693723"/>
<path d="M38.7811 5.87526L38.5006 5.24168L33.0577 7.33483L33.0243 7.34766L32.9943 7.367L28.4085 10.3216L28.7523 10.923L38.7811 5.87526Z" fill="#FFDD29" stroke="white" stroke-width="0.693723"/>
<path d="M134.748 103.963L134.756 103.952L134.759 103.948L140.615 95.5054L140.051 95.1021L136.099 100.472L136.091 100.483L136.089 100.487L130.262 108.885L130.826 109.288L134.748 103.963ZM47.8281 37.6423L47.2307 37.292L45.2711 40.2203L45.2467 40.2567L45.2322 40.2979L44.1731 43.301L44.8094 43.5737L47.8281 37.6423Z" fill="#0C0C0C" stroke="white" stroke-width="0.693723"/>
<path d="M170.503 105.295L171.184 105.398L173.941 95.1532L173.961 95.0813L173.949 95.0077L172.047 83.2406L171.358 83.2825L170.503 105.295Z" fill="#FFDD29" stroke="white" stroke-width="0.693723"/>
<path d="M144.642 90.0339L144.678 89.9851L144.683 89.9653L149.707 81.1407L149.126 80.7641L145.073 86.2907L145.038 86.3392L145.032 86.3587L140.029 95.1358L140.609 95.5132L144.642 90.0339ZM45.8861 40.5285L45.2497 40.256L42.1976 46.2623L42.7959 46.6112L44.7889 43.6081L44.8127 43.5722L44.827 43.5316L45.8861 40.5285ZM56.6482 23.1972L56.1141 22.7755L53.5166 24.9934L53.4156 25.0797L53.3981 25.2113L52.8814 29.0835L53.534 29.2873L56.6482 23.1972Z" fill="#0C0C0C" stroke="white" stroke-width="0.693723"/>
<path d="M171.757 83.639L171.691 82.9496L148.464 83.89L148.278 83.8975L148.181 84.0563L146.432 86.9329L146.046 87.5683L146.781 87.456L171.757 83.639Z" fill="#FFDD29" stroke="white" stroke-width="0.693723"/>
<path d="M54.0859 25.3032L53.433 25.1L50.2898 31.2759L50.8276 31.694L53.4541 29.3903L53.552 29.3044L53.5692 29.1754L54.0859 25.3032ZM138.751 98.5287L138.759 98.5172L138.762 98.513L144.648 90.0261L144.083 89.6228L140.051 95.1021L140.042 95.1136L140.04 95.1177L134.184 103.56L134.748 103.963L138.751 98.5287Z" fill="#0C0C0C" stroke="white" stroke-width="0.693723"/>
<path d="M59.5616 21.7203L59.6212 21.7237L59.6785 21.7071L63.5077 20.5956L63.4199 19.9157L22.533 18.8638L22.5039 19.5568L59.5616 21.7203Z" fill="#FFDD29" stroke="white" stroke-width="0.693723"/>
<path d="M50.908 31.5906L50.3115 31.2391L48.3869 34.0889L48.3627 34.1247L48.3554 34.145L45.25 40.2562L45.8475 40.6062L47.8072 37.6779L47.8308 37.6427L47.8378 37.6231L50.908 31.5906ZM148.757 84.4421L148.794 84.3916L148.811 84.3313L149.739 81.0641L149.104 80.7977L144.061 89.6568L144.642 90.034L148.757 84.4421Z" fill="#0C0C0C" stroke="white" stroke-width="0.693723"/>
<path d="M171.781 83.6345L171.653 82.9533L146.676 86.7702L146.571 86.7863L146.493 86.8586L143.886 89.2719L142.938 90.1493L144.198 89.8648L171.781 83.6345Z" fill="#FFDD29" stroke="white" stroke-width="0.693723"/>
<path d="M142.837 92.9819L142.845 92.97L142.848 92.9657L148.763 84.4342L148.198 84.031L144.083 89.623L144.075 89.6348L144.072 89.639L138.187 98.1255L138.751 98.5288L142.837 92.9819ZM54.0513 25.4148L53.4556 25.0621L51.5681 27.8294L51.544 27.8647L51.5291 27.9049L50.2735 31.3135L50.9081 31.5907L54.0513 25.4148Z" fill="#0C0C0C" stroke="white" stroke-width="0.693723"/>
<path d="M56.3007 23.3844L56.4049 23.3962L56.4982 23.3482L59.7404 21.6828L60.8709 21.1021L59.6021 21.028L22.5444 18.8645L22.4851 19.5554L56.3007 23.3844Z" fill="#FFDD29" stroke="white" stroke-width="0.693723"/>
<path d="M52.18 28.1446L51.5453 27.8675L48.3651 34.1258L48.9618 34.4771L50.8863 31.6273L50.9098 31.5925L50.9243 31.5531L52.18 28.1446Z" fill="#0C0C0C" stroke="white" stroke-width="0.693723"/>
<path d="M38.8494 5.83015L38.4692 5.2557L28.4405 10.3034L28.3631 10.3424L28.3131 10.4131L22.2407 19.0105L22.7483 19.4753L38.8494 5.83015ZM170.514 105.218L171.17 105.44L173.177 100.561L173.194 100.52L173.2 100.477L173.95 95.1113L173.271 94.9731L170.514 105.218ZM171.792 83.6318L171.629 82.9578L144.045 89.1881L144 89.1984L143.958 89.2205L140.459 91.0909L140.71 91.7324L171.792 83.6318Z" fill="#FFDD29" stroke="white" stroke-width="0.693723"/>
<path d="M147.008 87.3188L147.017 87.3065L147.025 87.2934L148.774 84.4168L148.192 84.0389L142.272 92.5785L142.836 92.9819L147.008 87.3188Z" fill="#0C0C0C" stroke="white" stroke-width="0.693723"/>
<path d="M53.676 25.598L53.8401 25.6297L53.9672 25.5212L56.5647 23.3033L57.172 22.7847L56.3785 22.6949L22.5629 18.866L22.4579 19.5512L53.676 25.598Z" fill="#FFDD29" stroke="white" stroke-width="0.693723"/>
<path d="M11.2389 44.9509L10.5951 44.6945L7.84153 50.7708L7.8279 50.8009L7.82019 50.833L6.32683 57.053L6.99197 57.2472L11.2389 44.9509Z" fill="#0C0C0C" stroke="white" stroke-width="0.693723"/>
<path d="M171.793 83.6314L171.618 82.9603L171.617 82.9605L140.535 91.0609L140.535 91.0608L140.529 91.0626L136.111 92.3027L136.105 92.3042L136.287 92.9736L136.293 92.9721L171.793 83.6316L171.793 83.6314ZM51.7549 28.3567L51.9982 28.4298L52.1413 28.22L54.0288 25.4527L54.326 25.017L53.8082 24.9167L22.5901 18.8699L22.4243 19.5426L51.7549 28.3567Z" fill="#FFDD29" stroke="white" stroke-width="0.693723"/>
<path d="M150.022 131.741L149.54 131.248L144.721 134.966L144.664 134.887L144.403 135.212L144.171 135.39L144.213 135.449L140.117 140.544L140.601 141.034L145.477 137.223L145.532 137.3L145.794 136.975L146.024 136.795L145.985 136.739L150.022 131.741ZM14.0506 38.7465L13.4067 38.4904L10.5951 44.6947L10.5811 44.7257L10.5774 44.7415L6.33632 57.021L6.97984 57.278L9.79095 51.1059L9.80517 51.0747L9.80897 51.0584L14.0506 38.7465Z" fill="#0C0C0C" stroke="white" stroke-width="0.693723"/>
<path d="M28.8798 10.8131L28.3434 10.3758L24.7418 14.2186L24.7091 14.2535L24.6871 14.2959L22.2163 19.0505L22.8074 19.4106L28.8798 10.8131Z" fill="#FFDD29" stroke="white" stroke-width="0.693723"/>
<path d="M154.313 126.427L153.834 125.933L148.79 129.77L148.56 129.945L148.691 130.203L149.443 131.68L149.686 132.157L150.022 131.741L154.313 126.427Z" fill="#0C0C0C" stroke="white" stroke-width="0.693723"/>
<path d="M50.6116 31.6539L50.9581 31.8027L51.0775 31.4451L52.1835 28.1345L52.2968 27.7953L51.9544 27.6924L22.6238 18.8782L22.3871 19.5291L50.6116 31.6539Z" fill="#FFDD29" stroke="white" stroke-width="0.693723"/>
<path d="M16.9218 32.4096L16.2778 32.1537L13.4064 38.4901L13.392 38.522L13.3842 38.5561L12.0088 44.579L12.675 44.769L16.9218 32.4096Z" fill="#0C0C0C" stroke="white" stroke-width="0.693723"/>
<path d="M147.886 116.878L148.33 117.385L171.009 105.616L171.188 105.523L171.196 105.322L172.052 83.3094L172.098 82.1256L171.42 83.0977L147.886 116.878Z" fill="#FFDD29" stroke="white" stroke-width="0.693723"/>
<path d="M12.6628 44.7999L12.6774 44.7678L12.6853 44.7334L14.0607 38.7104L13.3946 38.5202L9.15265 50.8331L6.3484 56.9901L6.31823 57.0564L6.31724 57.1291L6.21999 64.2163L6.90563 64.2953L9.80611 51.072L12.6628 44.7999ZM149.309 129.888L149.066 129.41L148.73 129.828L144.377 135.243L144.859 135.735L149.964 131.797L150.191 131.621L150.061 131.365L149.309 129.888ZM158.697 121L158.219 120.504L153.241 124.234L153.037 124.386L153.121 124.626L153.716 126.324L153.922 126.911L154.313 126.427L158.697 121Z" fill="#0C0C0C" stroke="white" stroke-width="0.693723"/>
<path d="M50.3288 35.4797L50.8112 35.755L50.8469 35.2007L51.0947 31.3576L51.1105 31.1132L50.8855 31.0166L22.6609 18.8918L22.3521 19.5118L50.3288 35.4797Z" fill="#FFDD29" stroke="white" stroke-width="0.693723"/>
<path d="M19.8552 25.9366L19.2111 25.681L16.2779 32.1538L16.2631 32.1866L16.2595 32.2028L12.0191 44.5436L12.6627 44.8001L15.5975 38.3565L15.6126 38.3234L15.6162 38.3068L19.8552 25.9366ZM144.918 135.678L144.502 135.146L137.906 138.184L137.446 138.396L137.81 138.748L140.146 141.01L140.419 141.275L140.658 140.978L144.918 135.678ZM153.776 124.397L153.57 123.808L153.178 124.294L148.73 129.829L149.21 130.322L154.253 126.485L154.454 126.333L154.371 126.095L153.776 124.397Z" fill="#0C0C0C" stroke="white" stroke-width="0.693723"/>
<path d="M147.859 117.23L148.118 117.759L148.455 117.275L171.99 83.4944L172.529 82.7208L171.617 82.9607L136.11 92.303L135.701 92.4107L135.887 92.791L147.859 117.23Z" fill="#FFDD29" stroke="white" stroke-width="0.693723"/>
<path d="M12.6859 44.7299L12.0313 44.5123L9.15936 50.818L9.12844 50.8859L9.12831 50.9235L6.22786 64.1467L6.88167 64.3662L9.76497 58.1111L9.79655 58.0426L9.79669 58.0038L12.6859 44.7299ZM138.293 138.25L138.018 137.984L137.78 138.283L133.481 143.687L133.901 144.217L140.536 141.074L140.988 140.86L140.628 140.511L138.293 138.25ZM163.175 115.456L162.699 114.959L157.79 118.575L157.608 118.71L157.657 118.93L158.088 120.858L158.245 121.559L158.697 121L163.175 115.456ZM22.8521 19.3226L22.208 19.0672L19.211 25.6808L19.1956 25.7147L19.1878 25.7512L17.9422 31.5538L18.6096 31.7387L22.8521 19.3226Z" fill="#0C0C0C" stroke="white" stroke-width="0.693723"/>
<path d="M50.9901 39.8197L51.6622 40.2962L51.5333 39.4825L50.8433 35.1242L50.8173 34.9597L50.6726 34.8772L22.6959 18.9093L22.3233 19.4935L50.9901 39.8197Z" fill="#FFDD29" stroke="white" stroke-width="0.693723"/>
<path d="M18.5971 31.7705L18.6126 31.7363L18.6205 31.6996L19.8662 25.897L19.1989 25.7117L14.9537 38.1003L15.5975 38.3565L18.5971 31.7705ZM149.271 130.263L148.859 129.729L142.305 132.657L141.873 132.85L142.187 133.204L144.388 135.691L144.66 135.999L144.918 135.678L149.271 130.263Z" fill="#0C0C0C" stroke="white" stroke-width="0.693723"/>
<path d="M162.407 112.819L162.849 113.352L167.684 109.854L167.723 109.825L167.753 109.788L171.121 105.524L170.611 105.057L162.407 112.819Z" fill="#FFDD29" stroke="white" stroke-width="0.693723"/>
<path d="M158.384 119L162.631 115.87L162.658 116.095L163.147 115.491L163.273 115.397L163.267 115.342L167.751 109.79L167.277 109.292L162.92 112.444L162.892 112.211L162.404 112.817L162.277 112.91L162.283 112.967L158.177 118.076L157.781 118.569L151.403 121.226L151.02 121.385L151.245 121.734L152.935 124.356L147.052 126.898L146.947 126.759L146.723 127.041L146.397 127.182L146.501 127.319L142.432 132.435L142.175 132.758L137.854 138.19L129.986 140.072L129.845 139.946L129.691 140.143L129.165 140.269L129.417 140.494L125.302 145.755L124.678 146.553L125.66 146.305L133.659 144.285L133.795 144.407L133.951 144.211L134.47 144.08L134.228 143.863L138.272 138.78L144.793 135.776L145.217 135.581L144.907 135.231L143.019 133.098L148.89 130.475L148.992 130.61L149.218 130.328L149.54 130.184L149.44 130.052L153.418 125.104L153.692 124.763L158.635 121.06L158.814 120.925L158.765 120.707L158.384 119ZM11.9996 44.5823L11.9999 44.6202L9.11915 57.8553L9.08781 57.9233L6.25173 64.076L6.20551 64.1762L6.22575 64.2848L7.70226 72.2063L8.00566 72.1933L8.35715 72.2903L11.3289 65.9684L11.3775 65.8651L11.3652 65.8033L12.7369 51.664L12.7447 51.647L15.7258 45.1797L15.7591 45.1075L15.7584 45.068L18.6127 31.7363L21.6637 25.0373L21.6799 25.0019L21.6877 24.9638L22.8636 19.2809L22.1957 19.0985L17.9587 31.4985L14.9661 38.069L14.9335 38.1406L12.0314 44.5126L11.9996 44.5823Z" fill="#0C0C0C" stroke="white" stroke-width="0.693723"/>
<path d="M22.8701 19.2353L22.1845 19.1403L21.0086 24.8232L20.9998 24.8657L21.0017 24.909L21.2991 31.5245L21.9915 31.5336L22.8701 19.2353Z" fill="#FFDD29" stroke="white" stroke-width="0.693723"/>
<path d="M21.6873 24.9656L21.0324 24.7498L17.9657 31.4831L17.9321 31.5568L17.9333 31.5955L15.0716 44.962L15.7258 45.1798L18.8077 38.4938L18.8419 38.4195L18.8407 38.3795L21.6873 24.9656ZM142.718 133.19L143.331 132.419L142.37 132.636L134.227 134.47L133.607 134.61L134.06 135.056L137.808 138.746L138.083 139.017L138.323 138.715L142.718 133.19ZM151.828 121.358L151.566 120.952L151.265 121.33L146.669 127.109L147.078 127.643L153.586 124.83L153.962 124.668L153.74 124.324L151.828 121.358Z" fill="#0C0C0C" stroke="white" stroke-width="0.693723"/>
<path d="M148.011 116.769L148.263 117.411L162.738 113.405L162.821 113.382L162.884 113.323L171.088 105.561L170.689 105.001L148.011 116.769Z" fill="#FFDD29" stroke="white" stroke-width="0.693723"/>
<path d="M15.756 45.0673L15.0957 44.8894L12.0822 51.427L12.034 51.5317L12.0468 51.592L10.6755 65.7277L7.72926 71.9953L7.66733 72.127L7.71799 72.2635L10.9463 80.9624L11.6182 80.8358L11.3631 65.8956L14.3683 59.5027L14.4179 59.3971L14.4047 59.3349L15.756 45.0673ZM134.547 134.561L134.269 134.289L134.03 134.595L129.712 140.116L120.402 140.761L119.612 140.816L120.188 141.36L125.337 146.221L125.614 146.482L125.848 146.182L130.088 140.761L138.132 138.837L138.74 138.691L138.295 138.252L134.547 134.561ZM162.916 113.288L163.744 112.258L162.516 112.749L156.396 115.198L156.293 115.009L156.025 115.346L155.748 115.457L155.824 115.598L151.265 121.33L151.67 121.866L157.841 119.295L157.94 119.478L158.211 119.141L158.485 119.027L158.411 118.892L162.916 113.288ZM147.212 127.541L147.811 126.787L146.869 126.985L138.747 128.695L138.15 128.821L138.563 129.27L142.191 133.209L142.465 133.507L142.718 133.19L147.212 127.541ZM21.9603 31.6542L21.9956 31.5777L21.9918 31.4935L21.6945 24.878L21.0087 24.8216L18.1533 38.2766L18.8076 38.4938L21.9603 31.6542Z" fill="#0C0C0C" stroke="white" stroke-width="0.693723"/>
<path d="M147.89 117.28L148.482 116.924L136.51 92.4857L136.404 92.2697L136.165 92.293L130.793 92.8159L130.19 92.8746L130.546 93.3648L147.89 117.28Z" fill="#FFDD29" stroke="white" stroke-width="0.693723"/>
<path d="M18.8381 38.3803L18.1777 38.2032L15.0958 44.8892L15.0464 44.9963L15.0603 45.0571L13.7148 59.262L10.7011 65.6731L10.6381 65.8072L10.6693 65.8881L10.9247 80.8474L11.5838 80.9924L14.662 74.6235L14.7274 74.4881L14.6953 74.4048L14.4028 59.4291L17.4778 52.8878L17.5286 52.7798L17.5143 52.7172L18.8381 38.3803ZM139.074 128.8L138.797 128.499L138.545 128.821L134.03 134.595L133.431 135.36L134.38 135.147L142.523 133.312L143.108 133.181L142.701 132.739L139.074 128.8ZM120.664 140.855L120.384 140.591L120.151 140.897L115.847 146.531L115.374 147.15L116.151 147.087L125.604 146.314L126.38 146.251L125.813 145.716L120.664 140.855ZM151.808 121.762L152.394 121.025L151.47 121.205L143.373 122.785L142.798 122.897L143.173 123.348L146.674 127.547L146.947 127.874L147.212 127.54L151.808 121.762Z" fill="#0C0C0C" stroke="white" stroke-width="0.693723"/>
<path d="M22.8657 19.1514L22.1779 19.1858L21.2994 31.4841L21.2941 31.5575L21.3191 31.6266L27.079 47.5773L27.747 47.4004L22.8657 19.1514ZM131.107 92.9575L131.009 92.8221L130.842 92.8146L124.711 92.5402L123.838 92.5012L124.446 93.1283L147.921 117.318L148.451 116.873L131.107 92.9575Z" fill="#FFDD29" stroke="white" stroke-width="0.693723"/>
<path d="M134.576 135.022L135.048 134.419L134.284 134.462L124.967 134.987L124.797 134.814L124.652 135.004L124.043 135.039L124.372 135.371L120.151 140.897L119.685 141.506L120.45 141.453L129.755 140.809L129.921 140.976L130.068 140.787L130.669 140.745L130.351 140.425L134.576 135.022ZM21.9908 31.5399L21.3303 31.3637L18.1777 38.2032L18.1271 38.313L18.142 38.3741L16.824 52.6479L13.7405 59.2074L13.6763 59.344L13.7088 59.4251L14.0012 74.3964L10.9592 80.6906L10.8815 80.8514L10.9672 81.0081L15.9431 90.0997L16.5916 89.8909L14.7063 74.5317L17.8118 68.1063L17.8784 67.9685L17.8449 67.8848L17.5124 52.8142L20.6595 46.1192L20.7115 46.0085L20.6962 45.9455L21.9908 31.5399ZM143.706 122.904L143.431 122.574L143.167 122.912L138.545 128.821L137.96 129.57L138.89 129.374L147.012 127.664L147.576 127.545L147.207 127.102L143.706 122.904Z" fill="#0C0C0C" stroke="white" stroke-width="0.693723"/>
<path d="M162.553 112.737L148.276 116.688L124.944 92.6453L124.864 92.5629L124.751 92.5445L118.137 91.4697L116.893 91.2677L117.858 92.0777L147.947 117.343L148.162 117.112L148.231 117.418L156.3 115.976L156.335 115.969L156.368 115.956L162.774 113.393L162.553 112.737ZM51.5323 39.4765L51.5075 39.3362L51.3913 39.2538L22.7245 18.9277L22.2227 19.3826L58.5246 82.9695L59.1674 82.7373L51.5323 39.4765Z" fill="#FFDD29" stroke="white" stroke-width="0.693723"/>
<path d="M120.702 141.318L121.092 140.807L120.451 140.761L110.247 140.039L110.056 139.837L109.923 140.016L109.222 139.966L109.636 140.403L105.544 145.919L105.162 146.434L105.802 146.472L115.965 147.079L116.151 147.276L116.286 147.099L116.978 147.14L116.578 146.717L120.702 141.318ZM156.511 115.85L157.083 115.131L156.178 115.293L148.319 116.698L148.175 116.507L147.979 116.759L147.554 116.835L147.733 117.073L143.167 122.912L142.594 123.644L143.506 123.466L151.39 121.928L151.529 122.113L151.729 121.862L152.147 121.78L151.975 121.552L156.511 115.85ZM139.092 129.248L139.555 128.656L138.804 128.688L129.485 129.086L129.314 128.901L129.162 129.1L128.576 129.125L128.887 129.461L124.555 135.131L124.097 135.73L124.85 135.688L134.16 135.164L134.325 135.343L134.48 135.146L135.058 135.113L134.758 134.79L139.092 129.248ZM19.757 83.6964L19.8394 83.5317L19.7826 83.4305L17.8563 68.0142L21.0358 61.4355L21.1037 61.2951L21.0687 61.2111L20.6944 46.0452L23.9163 39.1911L23.9696 39.0776L23.9381 38.9563L21.9811 31.4218L21.2999 31.478L20.0056 45.8797L16.8498 52.5929L16.7845 52.732L16.8184 52.8135L17.1508 67.8797L14.0373 74.3218L13.9585 74.4849L14.0137 74.583L15.903 89.9756L16.043 91.1164L16.5575 90.0886L19.757 83.6964Z" fill="#0C0C0C" stroke="white" stroke-width="0.693723"/>
<path d="M118.304 91.5465L118.245 91.4966L118.17 91.4768L111.196 89.6325L110.902 90.2478L147.966 117.357L148.393 116.811L118.304 91.5465ZM53.2414 44.3318L53.2365 44.2999L53.2258 44.2694L51.5179 39.4216L50.8491 39.5971L58.4831 82.8505L58.4843 82.8578L59.1687 82.7447L59.1675 82.7373L53.2414 44.3318Z" fill="#FFDD29" stroke="white" stroke-width="0.693723"/>
<path d="M19.786 83.4679L19.578 82.5043L19.1367 83.3858L15.9372 89.778L15.8431 89.9661L15.9664 90.1366L22.4943 99.162L23.1144 98.8855L19.786 83.4679ZM125.106 135.552L125.492 135.048L124.859 134.996L114.484 134.142L113.612 134.07L114.198 134.72L120.169 141.34L120.449 141.65L120.702 141.318L125.106 135.552Z" fill="#0C0C0C" stroke="white" stroke-width="0.693723"/>
<path d="M111.312 89.6878L111.271 89.6581L111.224 89.6411L104.026 87.0716L103.716 87.6864L147.977 117.365L148.375 116.797L111.312 89.6878Z" fill="#FFDD29" stroke="white" stroke-width="0.693723"/>
<path d="M143.713 123.339L144.168 122.758L143.43 122.779L133.946 123.049L133.217 123.07L133.693 123.622L138.556 129.261L138.832 129.581L139.092 129.248L143.713 123.339ZM114.713 134.255L114.429 133.941L114.177 134.281L109.81 140.169L109.433 140.677L110.064 140.721L120.402 141.453L121.26 141.514L120.684 140.875L114.713 134.255ZM23.0327 77.152L23.1163 76.985L23.0578 76.8837L21.0677 61.2407L20.9202 60.0807L20.4113 61.1335L17.1873 67.8044L17.1073 67.9698L17.1641 68.0681L19.1027 83.584L19.2447 84.72L19.7571 83.6962L23.0327 77.152Z" fill="#0C0C0C" stroke="white" stroke-width="0.693723"/>
<path d="M21.9716 31.3911L21.3097 31.5961L23.2667 39.1306L23.2742 39.1593L23.2863 39.1862L27.0892 47.6024L27.7315 47.3417L21.9716 31.3911Z" fill="#FFDD29" stroke="white" stroke-width="0.693723"/>
<path d="M23.9493 39.0338L23.2887 38.8957L20.0319 45.8239L19.9652 45.9657L20.0276 46.1095L23.7065 54.5923L24.3715 54.4448L23.9493 39.0338Z" fill="#0C0C0C" stroke="white" stroke-width="0.693723"/>
<path d="M104.103 87.1103L104.078 87.0937L104.05 87.0815L96.7724 83.844L96.4447 84.4533L147.977 117.365L147.984 117.369L148.364 116.789L148.357 116.785L104.103 87.1103ZM56.0467 49.6541L56.0402 49.5855L56.008 49.5246L53.2054 44.2227L52.5559 44.4377L58.4832 82.8506L59.1714 82.7651L56.0467 49.6541Z" fill="#FFDD29" stroke="white" stroke-width="0.693723"/>
<path d="M24.3368 54.6053L24.406 54.4622L24.3428 54.3164L20.6638 45.8335L19.9988 45.9801L20.3768 61.293L21.0359 61.4353L24.3368 54.6053ZM134.219 123.169L133.94 122.846L133.68 123.185L129.064 129.229L128.614 129.817L129.354 129.786L138.833 129.381L139.549 129.351L139.081 128.808L134.219 123.169ZM110.367 140.582L110.695 140.139L110.153 140.035L99.1544 137.923L98.1805 137.736L98.8256 138.49L105.559 146.351L105.842 146.681L106.101 146.332L110.367 140.582Z" fill="#0C0C0C" stroke="white" stroke-width="0.693723"/>
<path d="M96.818 83.8686L96.8064 83.8612L96.7942 83.8548L89.5855 80.0185L89.2386 80.6187L147.984 117.369L147.986 117.371L148.357 116.785L148.354 116.783L96.818 83.8686Z" fill="#FFDD29" stroke="white" stroke-width="0.693723"/>
<path d="M99.3525 138.038L99.0648 137.702L98.8071 138.062L94.6053 143.927L94.2865 144.372L94.8249 144.47L105.76 146.467L106.722 146.643L106.086 145.9L99.3525 138.038Z" fill="#0C0C0C" stroke="white" stroke-width="0.693723"/>
<path d="M89.6066 80.0304L89.6061 80.0301L82.6193 75.6759L82.6181 75.6752L82.6176 75.6749L82.2503 76.2633L82.2507 76.2636L147.986 117.371L147.987 117.371L148.17 117.077L148.354 116.783L148.354 116.783L148.35 116.78L89.6066 80.0304Z" fill="#FFDD29" stroke="white" stroke-width="0.693723"/>
<path d="M26.4136 92.7284L26.5136 92.5365L26.4292 92.422L23.0614 76.9233L22.8526 75.9621L22.4123 76.8417L19.1367 83.386L19.0415 83.5761L19.1235 83.6872L22.4362 99.0321L22.6389 99.971L23.0829 99.1192L26.4136 92.7284ZM129.615 129.65L129.995 129.153L129.372 129.094L118.961 128.113L118.106 128.032L118.665 128.684L124.567 135.568L124.846 135.893L125.106 135.552L129.615 129.65ZM148.444 117.291L148.89 116.72L148.166 116.73L138.68 116.859L137.969 116.869L138.414 117.423L143.169 123.343L143.443 123.684L143.713 123.34L148.444 117.291Z" fill="#0C0C0C" stroke="white" stroke-width="0.693723"/>
<path d="M59.885 55.2237L59.888 55.1103L59.8232 55.017L55.9863 49.4888L55.2316 48.4015L55.356 49.7191L58.4807 82.8301L59.1727 82.8065L59.885 55.2237Z" fill="#FFDD29" stroke="white" stroke-width="0.693723"/>
<path d="M119.192 128.232L118.909 127.902L118.65 128.251L114.177 134.281L113.805 134.782L114.427 134.833L124.802 135.687L125.644 135.757L125.094 135.116L119.192 128.232ZM26.438 92.4671L26.1912 91.6542L25.7985 92.4076L22.4678 98.7983L22.3562 99.0124L22.5183 99.1914L30.4494 107.953L31.0384 107.619L26.438 92.4671ZM26.3872 70.4503L26.472 70.2808L26.4118 70.1794L24.3687 54.4099L24.2191 53.2552L23.7124 54.3035L20.4114 61.1335L20.3303 61.3014L20.3887 61.3997L22.3785 77.0405L22.5224 78.1716L23.0328 77.152L26.3872 70.4503Z" fill="#0C0C0C" stroke="white" stroke-width="0.693723"/>
<path d="M22.8252 19.0386L22.1822 19.2696L27.0635 47.5186L27.0803 47.6161L27.1461 47.69L58.5667 83.0279L59.1272 82.6255L22.8252 19.0386Z" fill="#FFDD29" stroke="white" stroke-width="0.693723"/>
<path d="M27.7175 47.6104L27.788 47.4645L27.7213 47.3167L23.9184 38.9006L23.2556 39.0529L23.6777 54.4639L24.3368 54.6054L27.7175 47.6104ZM138.955 116.988L138.678 116.643L138.409 116.995L133.68 123.185L133.239 123.763L133.966 123.742L143.45 123.472L144.147 123.453L143.71 122.909L138.955 116.988ZM114.734 134.694L115.059 134.256L114.524 134.148L103.582 131.941L103.373 131.688L103.241 131.873L102.503 131.724L102.955 132.272L98.9516 137.86L87.8817 134.516L87.6589 134.228L87.5333 134.41L86.7364 134.17L87.2459 134.828L83.275 140.594L83.0036 140.988L83.4626 141.123L94.6815 144.43L94.8979 144.709L95.0255 144.531L95.8183 144.765L95.3196 144.121L99.2416 138.646L109.9 140.692L110.102 140.938L110.237 140.757L110.968 140.897L110.528 140.364L114.734 134.694ZM29.8247 86.1829L29.9259 85.9888L29.7942 85.814L22.9995 76.7881L22.3834 77.0704L25.7669 92.6415L25.9704 93.5782L26.4135 92.7282L29.8247 86.1829Z" fill="#0C0C0C" stroke="white" stroke-width="0.693723"/>
<path d="M64.5777 60.7894L64.6201 60.6165L64.5043 60.4812L59.8017 54.9892L59.2148 54.3038L59.1915 55.2059L58.4792 82.7886L59.1628 82.8802L64.5777 60.7894Z" fill="#FFDD29" stroke="white" stroke-width="0.693723"/>
<path d="M40.1722 115.89L34.5568 101.379L34.5986 101.302L34.4842 101.178L29.8532 85.9352L26.442 70.3408L29.8233 63.5854L29.9094 63.4134L29.809 63.2492L24.3206 54.2737L23.6807 54.4992L25.7194 70.2347L22.4124 76.8417L22.3162 77.0338L22.4454 77.2055L29.1086 86.0565L25.7985 92.4077L25.686 92.6235L25.7971 92.7444L30.3323 107.682L30.2713 107.794L30.4024 107.913L30.615 108.613L30.8 108.273L39.6157 116.272L40.1722 115.89ZM134.232 123.606L134.606 123.116L133.993 123.051L123.69 121.951L123.498 121.716L123.35 121.915L122.71 121.847L123.071 122.291L118.65 128.252L118.283 128.746L118.896 128.804L129.162 129.771L129.348 130L129.498 129.803L130.131 129.863L129.781 129.433L134.232 123.606Z" fill="#0C0C0C" stroke="white" stroke-width="0.693723"/>
<path d="M69.9968 66.2524L70.1515 66.0144L69.9488 65.8156L64.4837 60.4591L64.0489 60.033L63.904 60.6242L58.4891 82.715L59.1167 82.9866L69.9968 66.2524Z" fill="#FFDD29" stroke="white" stroke-width="0.693723"/>
<path d="M27.7493 47.4143L27.5977 46.2649L27.0932 47.3087L23.7125 54.3036L23.6301 54.474L23.7289 54.6355L29.2173 63.6111L29.8571 63.3848L27.7493 47.4143ZM75.9856 129.679L75.1639 129.344L75.6994 130.113L71.8214 135.995L71.5878 136.35L71.9816 136.508L83.3355 141.074L83.5626 141.4L83.6892 141.216L84.5101 141.546L83.9829 140.79L87.9613 135.012L88.206 134.657L87.8065 134.494L76.3444 129.825L76.1105 129.49L75.9856 129.679ZM119.207 128.665L119.529 128.231L119 128.119L107.996 125.789L107.788 125.527L107.652 125.717L106.932 125.564L107.368 126.114L103.111 132.055L102.799 132.491L103.324 132.597L114.263 134.803L114.465 135.058L114.603 134.871L115.317 135.015L114.893 134.481L119.207 128.665Z" fill="#0C0C0C" stroke="white" stroke-width="0.693723"/>
<path d="M76.0102 71.4703L76.388 71.212L76.0373 70.9181L69.9288 65.7975L69.6286 65.5459L69.4152 65.8743L58.5351 82.6085L59.0217 83.0839L76.0102 71.4703ZM128.226 115.605L128.165 116.296L138.644 117.55L138.666 117.553L138.689 117.553L148.175 117.424L148.19 116.731L128.226 115.605Z" fill="#FFDD29" stroke="white" stroke-width="0.693723"/>
<path d="M43.7434 109.485L43.49 108.942L43.371 109.15L34.4071 101.096L33.8518 101.479L39.4657 115.986L39.3961 116.108L39.561 116.232L39.7883 116.82L39.9545 116.529L49.764 123.922L50.287 123.498L43.8493 109.712L43.899 109.625L43.7434 109.485ZM91.7501 128.287L90.9692 128.045L91.4638 128.703L87.3899 134.619L87.1204 135.01L87.5752 135.148L98.8802 138.563L99.096 138.85L99.2265 138.668L100.004 138.903L99.5194 138.259L103.675 132.459L103.955 132.068L103.496 131.926L92.1009 128.396L91.8787 128.101L91.7501 128.287ZM33.3196 79.4774L33.4219 79.2812L33.2871 79.1057L26.352 70.0836L25.7381 70.3691L29.1785 86.0967L29.3829 87.0311L29.8249 86.1829L33.3196 79.4774Z" fill="#0C0C0C" stroke="white" stroke-width="0.693723"/>
<path d="M82.5304 76.3026L83.2136 76.105L82.6372 75.6883L76.0176 70.9029L75.82 70.76L75.6186 70.8976L58.6301 82.5113L58.9222 83.1308L82.5304 76.3026Z" fill="#FFDD29" stroke="white" stroke-width="0.693723"/>
<path d="M38.0337 94.9986L38.1533 94.779L37.9829 94.5961L29.7711 85.7862L29.1854 86.1236L33.8434 101.455L34.084 102.247L34.4799 101.52L38.0337 94.9986ZM64.9987 124.069L64.706 123.597L64.4104 124.067L60.8412 129.739L54.0278 117.225L53.7377 116.693L53.4256 117.213L49.6753 123.467L49.5002 123.759L49.7889 123.939L60.3406 130.534L60.3238 130.561L60.6485 130.727L61.7558 131.419L61.66 131.243L71.9532 136.495L73.0621 137.061L72.4056 136.003L64.9987 124.069ZM29.8518 63.3555L29.6412 62.3992L29.2029 63.2749L25.7668 70.1399L25.6695 70.3342L25.802 70.5065L32.7371 79.5286L33.3508 79.2426L29.8518 63.3555ZM138.961 117.416L139.329 116.933L138.726 116.861L128.248 115.607L127.426 115.509L127.932 116.163L133.682 123.608L133.958 123.965L134.232 123.606L138.961 117.416Z" fill="#0C0C0C" stroke="white" stroke-width="0.693723"/>
<path d="M82.6181 75.6752L82.4867 75.593L82.3378 75.6361L58.7296 82.4643L57.7373 82.7513L58.7017 83.1213L148.046 117.401L148.354 116.783L82.6181 75.6752Z" fill="#FFDD29" stroke="white" stroke-width="0.693723"/>
<path d="M88.0959 134.817L92.0321 129.101L103.18 132.555L103.395 132.849L103.529 132.663L104.29 132.898L103.821 132.255L107.952 126.489L118.731 128.771L118.932 129.035L119.074 128.844L119.771 128.991L119.362 128.455L123.671 122.647L133.919 123.741L134.727 123.827L134.231 123.184L128.481 115.739L128.201 115.377L127.928 115.745L123.366 121.894L112.52 119.485L112.312 119.213L112.172 119.408L111.469 119.251L111.89 119.802L107.667 125.696L96.4245 122.124L96.2031 121.821L96.0714 122.012L95.3062 121.769L95.7861 122.426L91.7643 128.267L80.453 123.598L80.2201 123.256L80.0927 123.449L79.2853 123.116L79.8072 123.882L76.1296 129.46L68.9808 117.745L68.6892 117.268L68.3911 117.741L64.7273 123.563L57.8719 110.818L57.5828 110.281L57.269 110.804L53.7624 116.651L47.5483 103.237L47.599 103.148L47.4427 103.009L47.1905 102.465L47.0693 102.677L38.1655 94.7566L41.6755 88.3153L41.7961 88.094L41.6229 87.9109L33.4338 79.2584L36.9009 72.606L37.0043 72.4074L36.9148 72.2935L33.3992 56.441L33.4315 56.3764L33.3595 56.262L33.161 55.367L32.9993 55.6901L27.6988 47.2748L27.0614 47.5051L29.1552 63.3701L29.1044 63.4715L29.1816 63.5697L29.3171 64.5966L29.3849 64.4611L32.6461 79.2688L29.2096 85.8624L29.0963 86.0799L29.2635 86.2593L37.3048 94.8862L33.8706 101.188L33.7395 101.429L33.9434 101.612L43.0189 109.767L43.0058 109.79L43.1711 109.913L43.3979 110.502L43.4279 110.449L49.6584 123.792L49.9345 124.383L50.2701 123.824L53.7085 118.09L60.5148 130.59L60.7978 131.11L61.113 130.609L64.7018 124.906L71.8161 136.369L72.102 136.83L72.4004 136.377L76.2366 130.558L77.0561 130.979L76.9632 130.826L87.4477 135.097L87.6739 135.43L87.8029 135.242L88.6095 135.571L88.0959 134.817Z" fill="#0C0C0C" stroke="white" stroke-width="0.693723"/>
<path d="M27.6873 47.2577L27.1119 47.6446L32.7405 56.5809L32.7511 56.5977L32.7635 56.6132L39.9941 65.6189L40.5465 65.1996L27.6873 47.2577ZM105.243 109.053L105.087 109.728L128.111 116.285L128.148 116.296L128.187 116.298L148.151 117.423L148.231 116.736L105.243 109.053Z" fill="#FFDD29" stroke="white" stroke-width="0.693723"/>
<path d="M92.3099 128.698L96.3512 122.829L107.586 126.399L107.8 126.701L107.937 126.51L108.683 126.747L108.228 126.104L112.469 120.184L123.308 122.592L123.509 122.866L123.655 122.669L124.335 122.82L123.941 122.283L128.485 116.158L128.8 115.734L128.285 115.614L117.157 113.022L116.95 112.739L116.806 112.94L116.12 112.78L116.525 113.333L112.187 119.388L100.857 115.695L100.636 115.384L100.501 115.579L99.7518 115.335L100.217 115.992L96.0853 121.992L84.6646 117.215L84.4326 116.866L84.3027 117.063L83.5095 116.731L84.018 117.495L80.2386 123.228L73.063 111.263L72.7726 110.779L72.472 111.257L68.71 117.235L61.8127 104.25L61.5247 103.707L61.2089 104.234L57.607 110.24L51.3398 96.6004L51.3916 96.5097L51.2346 96.3715L50.9836 95.8253L50.86 96.0417L41.808 88.0722L45.4088 81.4643L45.5304 81.2412L45.3543 81.058L37.016 72.3851L40.572 65.5621L40.6767 65.3612L40.5349 65.1846L33.3043 56.1789L32.6952 56.4712L36.2272 72.3975L32.7043 79.1571L32.59 79.3763L32.76 79.5559L40.9457 88.2048L37.4244 94.6668L37.2925 94.9088L37.4984 95.092L46.7175 103.293L46.7047 103.315L46.8704 103.439L47.0966 104.028L47.126 103.976L53.4082 117.537L53.6836 118.132L54.0204 117.57L57.55 111.684L64.3983 124.416L64.6803 124.941L64.9973 124.437L68.6801 118.585L75.8221 130.289L76.1069 130.755L76.4078 130.299L80.3427 124.33L81.1493 124.746L81.0613 124.6L91.6609 128.975L91.8861 129.313L92.0177 129.122L92.8101 129.449L92.3099 128.698Z" fill="#0C0C0C" stroke="white" stroke-width="0.693723"/>
<path d="M148.295 116.753L59.0291 82.5041L27.6646 47.2293L27.1234 47.6618L39.9827 65.6038L40.0025 65.6315L40.0274 65.6548L58.5888 83.0508L58.7513 82.8925L58.6534 83.0986L105.009 109.695L105.062 109.725L105.121 109.736L148.109 117.419L148.295 116.753Z" fill="#FFDD29" stroke="white" stroke-width="0.693723"/>
<path d="M84.3165 117.042L72.9376 111.14L61.702 104.125L51.2381 96.3646L45.4326 81.1854L40.5964 65.3004L40.3492 64.4886L39.957 65.2412L36.2858 72.2852L36.1706 72.5062L36.3433 72.6859L44.6782 81.3553L41.0664 87.9832L40.9339 88.2265L41.1418 88.4095L50.6658 96.7946L57.2513 111.127L57.5258 111.724L57.864 111.161L61.4882 105.117L68.3784 118.089L68.6594 118.618L68.9783 118.111L72.7585 112.104L79.9274 124.057L80.2109 124.53L80.5144 124.07L84.5655 117.925L95.9789 122.699L96.2031 123.044L96.3373 122.849L97.1156 123.175L96.6287 122.426L100.926 116.186L101.167 115.836L100.776 115.67L88.9832 110.669L88.7522 110.314L88.6197 110.515L87.8406 110.185L88.3356 110.946L84.3165 117.042Z" fill="#0C0C0C" stroke="white" stroke-width="0.693723"/>
<path d="M105.277 109.06L105.072 109.723L116.843 113.659L116.859 113.664L116.875 113.668L128.128 116.289L128.301 115.618L105.277 109.06Z" fill="#FFDD29" stroke="white" stroke-width="0.693723"/>
<path d="M65.4455 97.1691L55.1261 89.5587L49.3136 74.2984L49.3599 74.2136L49.2311 74.0819L48.9886 73.4451L48.8527 73.6945L40.5127 65.159L39.9327 65.5024L44.7302 81.2598L44.6665 81.3766L44.8015 81.4942L45.0134 82.1899L45.0491 82.1244L50.5677 96.5534L50.4964 96.6781L50.6624 96.8012L50.888 97.3911L51.0576 97.0943L61.0473 104.503L61.0338 104.526L61.2342 104.651L61.4645 105.156L61.6224 104.893L72.2867 111.551L72.2713 111.575L72.5091 111.699L72.7383 112.136L72.8751 111.918L73.6667 112.413L73.5851 112.257L84.186 117.756L84.4176 118.149L84.5518 117.946L85.3455 118.357L84.8428 117.504L89.0398 111.138L89.2513 110.817L88.9107 110.64L77.1989 104.53L76.9602 104.125L76.8409 104.314L65.8102 97.4303L65.567 96.9665L65.4455 97.1691ZM105.044 108.982L104.31 108.737L104.761 109.394L100.355 115.792L100.091 116.175L100.533 116.319L112.102 120.089L112.315 120.4L112.455 120.204L113.185 120.442L112.745 119.8L117.235 113.532L117.509 113.15L117.063 113.001L105.402 109.102L105.183 108.782L105.044 108.982Z" fill="#0C0C0C" stroke="white" stroke-width="0.693723"/>
<path d="M40.5018 65.1485L40.0165 65.6439L48.6846 74.5152L48.695 74.5259L48.7062 74.5356L58.5996 83.0603L59.0632 82.5445L40.5018 65.1485Z" fill="#FFDD29" stroke="white" stroke-width="0.693723"/>
<path d="M93.0602 103.779L81.493 97.7096L81.2555 97.299L81.1202 97.5139L80.3423 97.1057L80.8379 97.9625L76.9797 104.093L70.0881 90.7764L70.1511 90.6712L69.9617 90.5323L69.7134 90.0523L69.5893 90.2592L59.1045 82.5717L58.8621 82.035L58.7335 82.26L49.159 74.01L48.6084 74.3963L54.4557 89.7478L54.3839 89.8735L54.5503 89.9962L54.7753 90.5869L54.946 90.288L65.087 97.7669L65.0739 97.7887L65.2738 97.9135L65.5034 98.4215L65.6479 98.1805L66.4094 98.7421L66.3339 98.575L76.4713 104.901L76.4565 104.925L76.778 105.093L77.8397 105.755L77.7627 105.606L88.2491 111.077L88.2314 111.104L88.508 111.221L88.7309 111.607L88.8674 111.4L89.6482 111.807L89.5699 111.672L100.405 116.266L100.628 116.618L100.765 116.419L101.53 116.743L101.056 115.997L105.468 109.591L105.707 109.243L105.319 109.075L93.4125 103.956L93.1826 103.594L93.0602 103.779Z" fill="#0C0C0C" stroke="white" stroke-width="0.693723"/>
<path d="M58.9987 82.4967L58.6317 83.0848L81.0488 98.2574L81.0703 98.272L81.0879 98.2804L93.016 104.54L93.0279 104.546L93.0402 104.551L105.045 109.713L105.143 109.497L105.355 109.093L58.9987 82.4967Z" fill="#FFDD29" stroke="white" stroke-width="0.693723"/>
<path d="M81.5366 98.1549L81.7221 97.8601L81.4266 97.6758L69.8747 90.4697L68.8019 89.8005L69.383 90.9234L76.6423 104.951L76.921 105.489L77.244 104.976L81.5366 98.1549Z" fill="#0C0C0C" stroke="white" stroke-width="0.693723"/>
<path d="M59.0204 82.5102L58.6209 83.0772L69.4861 91.0436L69.4965 91.0513L69.5076 91.0582L81.0595 98.2643L81.4375 97.6828L59.0204 82.5102Z" fill="#FFDD29" stroke="white" stroke-width="0.693723"/>
</svg>
