<svg width="225" height="219" viewBox="0 0 225 219" fill="none" xmlns="http://www.w3.org/2000/svg">
<path d="M201.206 87.1646L205.5 92.7145L204.315 87.3246L201.206 87.1646ZM201.112 93.197L205.407 98.7428L205.5 92.7145L201.112 93.197ZM199.793 99.7694L204.089 105.311L205.407 98.7428L199.793 99.7694ZM197.304 106.783L201.601 112.32L204.089 105.311L197.304 106.783ZM193.699 114.14L197.998 119.671L201.601 112.32L193.699 114.14ZM189.032 121.74L193.334 127.267L197.998 119.671L189.032 121.74ZM183.358 129.486L187.665 135.007L193.334 127.267L183.358 129.486ZM176.732 137.279L181.043 142.795L187.665 135.007L176.732 137.279ZM169.208 145.019L173.524 150.53L181.043 142.795L169.208 145.019ZM160.841 152.609L165.163 158.114L173.524 150.53L160.841 152.609ZM151.686 159.949L156.014 165.449L165.163 158.114L151.686 159.949ZM142.107 166.726L146.441 172.222L156.014 165.449L142.107 166.726ZM132.505 172.677L136.846 178.169L146.441 172.222L132.505 172.677ZM122.991 177.776L127.338 183.264L136.846 178.169L122.991 177.776ZM113.674 181.997L118.028 187.483L127.338 183.264L113.674 181.997ZM104.664 185.316L109.024 190.799L118.028 187.483L104.664 185.316ZM96.0715 187.707L100.437 193.189L109.024 190.799L96.0715 187.707ZM88.0061 189.145L92.3776 194.626L100.437 193.189L88.0061 189.145ZM80.5778 189.605L84.9543 195.085L92.3776 194.626L80.5778 189.605ZM73.8965 189.061L78.2775 194.542L84.9543 195.085L73.8965 189.061ZM68.072 187.488L72.4569 192.97L78.2775 194.542L68.072 187.488ZM63.2143 184.861L67.6025 190.345L72.4569 192.97L63.2143 184.861ZM59.4333 181.155L63.8241 186.641L67.6025 190.345L59.4333 181.155ZM200.019 81.771L204.315 87.3246L201.796 82.6716L200.019 81.771ZM200.019 81.771L201.206 87.1646L204.315 87.3246L200.019 81.771ZM201.206 87.1646L201.112 93.197L205.5 92.7145L201.206 87.1646ZM201.112 93.197L199.793 99.7694L205.407 98.7428L201.112 93.197ZM199.793 99.7694L197.304 106.783L204.089 105.311L199.793 99.7694ZM197.304 106.783L193.699 114.14L201.601 112.32L197.304 106.783ZM193.699 114.14L189.032 121.74L197.998 119.671L193.699 114.14ZM189.032 121.74L183.358 129.486L193.334 127.267L189.032 121.74ZM183.358 129.486L176.732 137.279L187.665 135.007L183.358 129.486ZM176.732 137.279L169.208 145.019L181.043 142.795L176.732 137.279ZM169.208 145.019L160.841 152.609L173.524 150.53L169.208 145.019ZM160.841 152.609L151.686 159.949L165.163 158.114L160.841 152.609ZM151.686 159.949L142.107 166.726L156.014 165.449L151.686 159.949ZM142.107 166.726L132.505 172.677L146.441 172.222L142.107 166.726ZM132.505 172.677L122.991 177.776L136.846 178.169L132.505 172.677ZM122.991 177.776L113.674 181.997L127.338 183.264L122.991 177.776ZM113.674 181.997L104.664 185.316L118.028 187.483L113.674 181.997ZM104.664 185.316L96.0715 187.707L109.024 190.799L104.664 185.316ZM96.0715 187.707L88.0061 189.145L100.437 193.189L96.0715 187.707ZM88.0061 189.145L80.5778 189.605L92.3776 194.626L88.0061 189.145ZM80.5778 189.605L73.8965 189.061L84.9543 195.085L80.5778 189.605ZM73.8965 189.061L68.072 187.488L78.2775 194.542L73.8965 189.061ZM68.072 187.488L63.2143 184.861L72.4569 192.97L68.072 187.488ZM63.2143 184.861L59.4333 181.155L67.6025 190.345L63.2143 184.861ZM197.499 77.1148L200.019 81.771L201.796 82.6716L197.499 77.1148ZM196.905 81.6071L201.206 87.1646L200.019 81.771L196.905 81.6071ZM196.812 87.6436L201.112 93.197L201.206 87.1646L196.812 87.6436ZM195.492 94.2205L199.793 99.7694L201.112 93.197L195.492 94.2205ZM193.001 101.239L197.304 106.783L199.793 99.7694L193.001 101.239ZM189.393 108.601L193.699 114.14L197.304 106.783L189.393 108.601ZM184.723 116.206L189.032 121.74L193.699 114.14L184.723 116.206ZM179.046 123.958L183.358 129.486L189.032 121.74L179.046 123.958ZM172.415 131.755L176.732 137.279L183.358 129.486L172.415 131.755ZM164.886 139.501L169.208 145.019L176.732 137.279L164.886 139.501ZM156.514 147.096L160.841 152.609L169.208 145.019L156.514 147.096ZM147.352 154.441L151.686 159.949L160.841 152.609L147.352 154.441ZM137.766 161.223L142.107 166.726L151.686 159.949L137.766 161.223ZM128.158 167.178L132.505 172.677L142.107 166.726L128.158 167.178ZM118.637 172.28L122.991 177.776L132.505 172.677L118.637 172.28ZM109.314 176.504L113.674 181.997L122.991 177.776L109.314 176.504ZM100.298 179.825L104.664 185.316L113.674 181.997L100.298 179.825ZM91.6996 182.218L96.0715 187.707L104.664 185.316L91.6996 182.218ZM83.6288 183.657L88.0061 189.145L96.0715 187.707L83.6288 183.657ZM76.1954 184.117L80.5778 189.605L88.0061 189.145L76.1954 184.117ZM69.5095 183.573L73.8965 189.061L80.5778 189.605L69.5095 183.573ZM63.6811 181.999L68.072 187.488L73.8965 189.061L63.6811 181.999ZM58.82 179.37L63.2143 184.861L68.072 187.488L58.82 179.37ZM55.0365 175.661L59.4333 181.155L63.2143 184.861L55.0365 175.661ZM195.718 76.2098L200.019 81.771L197.499 77.1148L195.718 76.2098ZM195.718 76.2098L196.905 81.6071L200.019 81.771L195.718 76.2098ZM196.905 81.6071L196.812 87.6436L201.206 87.1646L196.905 81.6071ZM196.812 87.6436L195.492 94.2205L201.112 93.197L196.812 87.6436ZM195.492 94.2205L193.001 101.239L199.793 99.7694L195.492 94.2205ZM193.001 101.239L189.393 108.601L197.304 106.783L193.001 101.239ZM189.393 108.601L184.723 116.206L193.699 114.14L189.393 108.601ZM184.723 116.206L179.046 123.958L189.032 121.74L184.723 116.206ZM179.046 123.958L172.415 131.755L183.358 129.486L179.046 123.958ZM172.415 131.755L164.886 139.501L176.732 137.279L172.415 131.755ZM164.886 139.501L156.514 147.096L169.208 145.019L164.886 139.501ZM156.514 147.096L147.352 154.441L160.841 152.609L156.514 147.096ZM147.352 154.441L137.766 161.223L151.686 159.949L147.352 154.441ZM137.766 161.223L128.158 167.178L142.107 166.726L137.766 161.223ZM128.158 167.178L118.637 172.28L132.505 172.677L128.158 167.178ZM118.637 172.28L109.314 176.504L122.991 177.776L118.637 172.28ZM109.314 176.504L100.298 179.825L113.674 181.997L109.314 176.504ZM100.298 179.825L91.6996 182.218L104.664 185.316L100.298 179.825ZM91.6996 182.218L83.6288 183.657L96.0715 187.707L91.6996 182.218ZM83.6288 183.657L76.1954 184.117L88.0061 189.145L83.6288 183.657ZM76.1954 184.117L69.5095 183.573L80.5778 189.605L76.1954 184.117ZM69.5095 183.573L63.6811 181.999L73.8965 189.061L69.5095 183.573ZM63.6811 181.999L58.82 179.37L68.072 187.488L63.6811 181.999ZM58.82 179.37L55.0365 175.661L63.2143 184.861L58.82 179.37ZM193.196 71.5505L195.718 76.2098L197.499 77.1148L193.196 71.5505ZM192.599 76.042L196.905 81.6071L195.718 76.2098L192.599 76.042ZM192.506 82.0827L196.812 87.6436L196.905 81.6071L192.506 82.0827ZM191.185 88.6641L195.492 94.2205L196.812 87.6436L191.185 88.6641ZM188.692 95.6875L193.001 101.239L195.492 94.2205L188.692 95.6875ZM185.082 103.054L189.393 108.601L193.001 101.239L185.082 103.054ZM180.409 110.665L184.723 116.206L189.393 108.601L180.409 110.665ZM174.727 118.421L179.046 123.958L184.723 116.206L174.727 118.421ZM168.092 126.224L172.415 131.755L179.046 123.958L168.092 126.224ZM160.558 133.975L164.886 139.501L172.415 131.755L160.558 133.975ZM152.18 141.575L156.514 147.096L164.886 139.501L152.18 141.575ZM143.012 148.925L147.352 154.441L156.514 147.096L143.012 148.925ZM133.42 155.712L137.766 161.223L147.352 154.441L133.42 155.712ZM123.805 161.671L128.158 167.178L137.766 161.223L123.805 161.671ZM114.278 166.777L118.637 172.28L128.158 167.178L114.278 166.777ZM104.948 171.004L109.314 176.504L118.637 172.28L104.948 171.004ZM95.926 174.327L100.298 179.825L109.314 176.504L95.926 174.327ZM87.3218 176.722L91.6996 182.218L100.298 179.825L87.3218 176.722ZM79.2455 178.161L83.6288 183.657L91.6996 182.218L79.2455 178.161ZM71.8071 178.622L76.1954 184.117L83.6288 183.657L71.8071 178.622ZM65.1166 178.077L69.5095 183.573L76.1954 184.117L65.1166 178.077ZM59.2842 176.502L63.6811 181.999L69.5095 183.573L59.2842 176.502ZM54.4198 173.872L58.82 179.37L63.6811 181.999L54.4198 173.872ZM50.6337 170.16L55.0365 175.661L58.82 179.37L50.6337 170.16ZM191.411 70.6411L195.718 76.2098L193.196 71.5505L191.411 70.6411ZM191.411 70.6411L192.599 76.042L195.718 76.2098L191.411 70.6411ZM192.599 76.042L192.506 82.0827L196.905 81.6071L192.599 76.042ZM192.506 82.0827L191.185 88.6641L196.812 87.6436L192.506 82.0827ZM191.185 88.6641L188.692 95.6875L195.492 94.2205L191.185 88.6641ZM188.692 95.6875L185.082 103.054L193.001 101.239L188.692 95.6875ZM185.082 103.054L180.409 110.665L189.393 108.601L185.082 103.054ZM180.409 110.665L174.727 118.421L184.723 116.206L180.409 110.665ZM174.727 118.421L168.092 126.224L179.046 123.958L174.727 118.421ZM168.092 126.224L160.558 133.975L172.415 131.755L168.092 126.224ZM160.558 133.975L152.18 141.575L164.886 139.501L160.558 133.975ZM152.18 141.575L143.012 148.925L156.514 147.096L152.18 141.575ZM143.012 148.925L133.42 155.712L147.352 154.441L143.012 148.925ZM133.42 155.712L123.805 161.671L137.766 161.223L133.42 155.712ZM123.805 161.671L114.278 166.777L128.158 167.178L123.805 161.671ZM114.278 166.777L104.948 171.004L118.637 172.28L114.278 166.777ZM104.948 171.004L95.926 174.327L109.314 176.504L104.948 171.004ZM95.926 174.327L87.3218 176.722L100.298 179.825L95.926 174.327ZM87.3218 176.722L79.2455 178.161L91.6996 182.218L87.3218 176.722ZM79.2455 178.161L71.8071 178.622L83.6288 183.657L79.2455 178.161ZM71.8071 178.622L65.1166 178.077L76.1954 184.117L71.8071 178.622ZM65.1166 178.077L59.2842 176.502L69.5095 183.573L65.1166 178.077ZM59.2842 176.502L54.4198 173.872L63.6811 181.999L59.2842 176.502ZM54.4198 173.872L50.6337 170.16L58.82 179.37L54.4198 173.872ZM188.887 65.9786L191.411 70.6411L193.196 71.5505L188.887 65.9786ZM188.287 70.4694L192.599 76.042L191.411 70.6411L188.287 70.4694ZM188.193 76.5141L192.506 82.0827L192.599 76.042L188.193 76.5141ZM186.872 83.1L191.185 88.6641L192.506 82.0827L186.872 83.1ZM184.377 90.1282L188.692 95.6875L191.185 88.6641L184.377 90.1282ZM180.765 97.4998L185.082 103.054L188.692 95.6875L180.765 97.4998ZM176.088 105.116L180.409 110.665L185.082 103.054L176.088 105.116ZM170.403 112.878L174.727 118.421L180.409 110.665L170.403 112.878ZM163.763 120.686L168.092 126.224L174.727 118.421L163.763 120.686ZM156.224 128.442L160.558 133.975L168.092 126.224L156.224 128.442ZM147.84 136.047L152.18 141.575L160.558 133.975L147.84 136.047ZM138.666 143.402L143.012 148.925L152.18 141.575L138.666 143.402ZM129.067 150.194L133.42 155.712L143.012 148.925L129.067 150.194ZM119.446 156.157L123.805 161.671L133.42 155.712L119.446 156.157ZM109.912 161.266L114.278 166.777L123.805 161.671L109.912 161.266ZM100.576 165.496L104.948 171.004L114.278 166.777L100.576 165.496ZM91.5481 168.821L95.926 174.327L104.948 171.004L91.5481 168.821ZM82.938 171.217L87.3218 176.722L95.926 174.327L82.938 171.217ZM74.8562 172.658L79.2455 178.161L87.3218 176.722L74.8562 172.658ZM67.4127 173.119L71.8071 178.622L79.2455 178.161L67.4127 173.119ZM60.7177 172.574L65.1166 178.077L71.8071 178.622L60.7177 172.574ZM54.8813 170.998L59.2842 176.502L65.1166 178.077L54.8813 170.998ZM50.0136 168.366L54.4198 173.872L59.2842 176.502L50.0136 168.366ZM46.2249 164.652L50.6337 170.16L54.4198 173.872L46.2249 164.652ZM187.098 65.0648L191.411 70.6411L188.887 65.9786L187.098 65.0648ZM187.098 65.0648L188.287 70.4694L191.411 70.6411L187.098 65.0648ZM188.287 70.4694L188.193 76.5141L192.599 76.042L188.287 70.4694ZM188.193 76.5141L186.872 83.1L192.506 82.0827L188.193 76.5141ZM186.872 83.1L184.377 90.1282L191.185 88.6641L186.872 83.1ZM184.377 90.1282L180.765 97.4998L188.692 95.6875L184.377 90.1282ZM180.765 97.4998L176.088 105.116L185.082 103.054L180.765 97.4998ZM176.088 105.116L170.403 112.878L180.409 110.665L176.088 105.116ZM170.403 112.878L163.763 120.686L174.727 118.421L170.403 112.878ZM163.763 120.686L156.224 128.442L168.092 126.224L163.763 120.686ZM156.224 128.442L147.84 136.047L160.558 133.975L156.224 128.442ZM147.84 136.047L138.666 143.402L152.18 141.575L147.84 136.047ZM138.666 143.402L129.067 150.194L143.012 148.925L138.666 143.402ZM129.067 150.194L119.446 156.157L133.42 155.712L129.067 150.194ZM119.446 156.157L109.912 161.266L123.805 161.671L119.446 156.157ZM109.912 161.266L100.576 165.496L114.278 166.777L109.912 161.266ZM100.576 165.496L91.5481 168.821L104.948 171.004L100.576 165.496ZM91.5481 168.821L82.938 171.217L95.926 174.327L91.5481 168.821ZM82.938 171.217L74.8562 172.658L87.3218 176.722L82.938 171.217ZM74.8562 172.658L67.4127 173.119L79.2455 178.161L74.8562 172.658ZM67.4127 173.119L60.7177 172.574L71.8071 178.622L67.4127 173.119ZM60.7177 172.574L54.8813 170.998L65.1166 178.077L60.7177 172.574ZM54.8813 170.998L50.0136 168.366L59.2842 176.502L54.8813 170.998ZM50.0136 168.366L46.2249 164.652L54.4198 173.872L50.0136 168.366ZM184.573 60.3991L187.098 65.0648L188.887 65.9786L184.573 60.3991ZM183.969 64.8892L188.287 70.4694L187.098 65.0648L183.969 64.8892ZM183.875 70.938L188.193 76.5141L188.287 70.4694L183.875 70.938ZM182.553 77.5284L186.872 83.1L188.193 76.5141L182.553 77.5284ZM180.057 84.5614L184.377 90.1282L186.872 83.1L180.057 84.5614ZM176.442 91.938L180.765 97.4998L184.377 90.1282L176.442 91.938ZM171.762 99.5593L176.088 105.116L180.765 97.4998L171.762 99.5593ZM166.073 107.326L170.403 112.878L176.088 105.116L166.073 107.326ZM159.429 115.14L163.763 120.686L170.403 112.878L159.429 115.14ZM151.884 122.901L156.224 128.442L163.763 120.686L151.884 122.901ZM143.495 130.512L147.84 136.047L156.224 128.442L143.495 130.512ZM134.314 137.872L138.666 143.402L147.84 136.047L134.314 137.872ZM124.709 144.668L129.067 150.194L138.666 143.402L124.709 144.668ZM115.081 150.635L119.446 156.157L129.067 150.194L115.081 150.635ZM105.541 155.747L109.912 161.266L119.446 156.157L105.541 155.747ZM96.1984 159.98L100.576 165.496L109.912 161.266L96.1984 159.98ZM87.1642 163.308L91.5481 168.821L100.576 165.496L87.1642 163.308ZM78.5483 165.706L82.938 171.217L91.5481 168.821L78.5483 165.706ZM70.4609 167.148L74.8562 172.658L82.938 171.217L70.4609 167.148ZM63.0124 167.609L67.4127 173.119L74.8562 172.658L63.0124 167.609ZM56.3128 167.063L60.7177 172.574L67.4127 173.119L56.3128 167.063ZM50.4724 165.486L54.8813 170.998L60.7177 172.574L50.4724 165.486ZM45.6014 162.852L50.0136 168.366L54.8813 170.998L45.6014 162.852ZM41.8101 159.136L46.2249 164.652L50.0136 168.366L41.8101 159.136ZM182.78 59.4808L187.098 65.0648L184.573 60.3991L182.78 59.4808ZM182.78 59.4808L183.969 64.8892L187.098 65.0648L182.78 59.4808ZM183.969 64.8892L183.875 70.938L188.287 70.4694L183.969 64.8892ZM183.875 70.938L182.553 77.5284L188.193 76.5141L183.875 70.938ZM182.553 77.5284L180.057 84.5614L186.872 83.1L182.553 77.5284ZM180.057 84.5614L176.442 91.938L184.377 90.1282L180.057 84.5614ZM176.442 91.938L171.762 99.5593L180.765 97.4998L176.442 91.938ZM171.762 99.5593L166.073 107.326L176.088 105.116L171.762 99.5593ZM166.073 107.326L159.429 115.14L170.403 112.878L166.073 107.326ZM159.429 115.14L151.884 122.901L163.763 120.686L159.429 115.14ZM151.884 122.901L143.495 130.512L156.224 128.442L151.884 122.901ZM143.495 130.512L134.314 137.872L147.84 136.047L143.495 130.512ZM134.314 137.872L124.709 144.668L138.666 143.402L134.314 137.872ZM124.709 144.668L115.081 150.635L129.067 150.194L124.709 144.668ZM115.081 150.635L105.541 155.747L119.446 156.157L115.081 150.635ZM105.541 155.747L96.1984 159.98L109.912 161.266L105.541 155.747ZM96.1984 159.98L87.1642 163.308L100.576 165.496L96.1984 159.98ZM87.1642 163.308L78.5483 165.706L91.5481 168.821L87.1642 163.308ZM78.5483 165.706L70.4609 167.148L82.938 171.217L78.5483 165.706ZM70.4609 167.148L63.0124 167.609L74.8562 172.658L70.4609 167.148ZM63.0124 167.609L56.3128 167.063L67.4127 173.119L63.0124 167.609ZM56.3128 167.063L50.4724 165.486L60.7177 172.574L56.3128 167.063ZM50.4724 165.486L45.6014 162.852L54.8813 170.998L50.4724 165.486ZM45.6014 162.852L41.8101 159.136L50.0136 168.366L45.6014 162.852ZM180.252 54.812L182.78 59.4808L184.573 60.3991L180.252 54.812ZM179.645 59.3013L183.969 64.8892L182.78 59.4808L179.645 59.3013ZM179.552 65.3543L183.875 70.938L183.969 64.8892L179.552 65.3543ZM178.228 71.9492L182.553 77.5284L183.875 70.938L178.228 71.9492ZM175.73 78.987L180.057 84.5614L182.553 77.5284L175.73 78.987ZM172.113 86.3686L176.442 91.938L180.057 84.5614L172.113 86.3686ZM167.43 93.9951L171.762 99.5593L176.442 91.938L167.43 93.9951ZM161.737 101.767L166.073 107.326L171.762 99.5593L161.737 101.767ZM155.088 109.586L159.429 115.14L166.073 107.326L155.088 109.586ZM147.539 117.353L151.884 122.901L159.429 115.14L147.539 117.353ZM139.143 124.969L143.495 130.512L151.884 122.901L139.143 124.969ZM129.957 132.334L134.314 137.872L143.495 130.512L129.957 132.334ZM120.345 139.134L124.709 144.668L134.314 137.872L120.345 139.134ZM110.71 145.105L115.081 150.635L124.709 144.668L110.71 145.105ZM101.163 150.222L105.541 155.747L115.081 150.635L101.163 150.222ZM91.8147 154.457L96.1984 159.98L105.541 155.747L91.8147 154.457ZM82.7743 157.788L87.1642 163.308L96.1984 159.98L82.7743 157.788ZM74.1525 160.187L78.5483 165.706L87.1642 163.308L74.1525 160.187ZM66.0597 161.63L70.4609 167.148L78.5483 165.706L66.0597 161.63ZM58.606 162.091L63.0124 167.609L70.4609 167.148L58.606 162.091ZM51.9018 161.545L56.3128 167.063L63.0124 167.609L51.9018 161.545ZM46.0575 159.967L50.4724 165.486L56.3128 167.063L46.0575 159.967ZM41.1832 157.331L45.6014 162.852L50.4724 165.486L41.1832 157.331ZM37.3893 153.612L41.8101 159.136L45.6014 162.852L37.3893 153.612ZM178.455 53.8893L182.78 59.4808L180.252 54.812L178.455 53.8893ZM178.455 53.8893L179.645 59.3013L182.78 59.4808L178.455 53.8893ZM179.645 59.3013L179.552 65.3543L183.969 64.8892L179.645 59.3013ZM179.552 65.3543L178.228 71.9492L183.875 70.938L179.552 65.3543ZM178.228 71.9492L175.73 78.987L182.553 77.5284L178.228 71.9492ZM175.73 78.987L172.113 86.3686L180.057 84.5614L175.73 78.987ZM172.113 86.3686L167.43 93.9951L176.442 91.938L172.113 86.3686ZM167.43 93.9951L161.737 101.767L171.762 99.5593L167.43 93.9951ZM161.737 101.767L155.088 109.586L166.073 107.326L161.737 101.767ZM155.088 109.586L147.539 117.353L159.429 115.14L155.088 109.586ZM147.539 117.353L139.143 124.969L151.884 122.901L147.539 117.353ZM139.143 124.969L129.957 132.334L143.495 130.512L139.143 124.969ZM129.957 132.334L120.345 139.134L134.314 137.872L129.957 132.334ZM120.345 139.134L110.71 145.105L124.709 144.668L120.345 139.134ZM110.71 145.105L101.163 150.222L115.081 150.635L110.71 145.105ZM101.163 150.222L91.8147 154.457L105.541 155.747L101.163 150.222ZM91.8147 154.457L82.7743 157.788L96.1984 159.98L91.8147 154.457ZM82.7743 157.788L74.1525 160.187L87.1642 163.308L82.7743 157.788ZM74.1525 160.187L66.0597 161.63L78.5483 165.706L74.1525 160.187ZM66.0597 161.63L58.606 162.091L70.4609 167.148L66.0597 161.63ZM58.606 162.091L51.9018 161.545L63.0124 167.609L58.606 162.091ZM51.9018 161.545L46.0575 159.967L56.3128 167.063L51.9018 161.545ZM46.0575 159.967L41.1832 157.331L50.4724 165.486L46.0575 159.967ZM41.1832 157.331L37.3893 153.612L45.6014 162.852L41.1832 157.331ZM175.926 49.2172L178.455 53.8893L180.252 54.812L175.926 49.2172ZM175.316 53.7058L179.645 59.3013L178.455 53.8893L175.316 53.7058ZM175.222 59.7629L179.552 65.3543L179.645 59.3013L175.222 59.7629ZM173.898 66.3623L178.228 71.9492L179.552 65.3543L173.898 66.3623ZM171.398 73.4049L175.73 78.987L178.228 71.9492L171.398 73.4049ZM167.778 80.7916L172.113 86.3686L175.73 78.987L167.778 80.7916ZM163.092 88.4233L167.43 93.9951L172.113 86.3686L163.092 88.4233ZM157.395 96.2008L161.737 101.767L167.43 93.9951L157.395 96.2008ZM150.742 104.025L155.088 109.586L161.737 101.767L150.742 104.025ZM143.187 111.797L147.539 117.353L155.088 109.586L143.187 111.797ZM134.786 119.418L139.143 124.969L147.539 117.353L134.786 119.418ZM125.593 126.788L129.957 132.334L139.143 124.969L125.593 126.788ZM115.975 133.593L120.345 139.134L129.957 132.334L115.975 133.593ZM106.333 139.569L110.71 145.105L120.345 139.134L106.333 139.569ZM96.7802 144.688L101.163 150.222L110.71 145.105L96.7802 144.688ZM87.425 148.927L91.8147 154.457L101.163 150.222L87.425 148.927ZM78.3784 152.259L82.7743 157.788L91.8147 154.457L78.3784 152.259ZM69.7508 154.66L74.1525 160.187L82.7743 157.788L69.7508 154.66ZM61.6524 156.104L66.0597 161.63L74.1525 160.187L61.6524 156.104ZM54.1936 156.566L58.606 162.091L66.0597 161.63L54.1936 156.566ZM47.4849 156.02L51.9018 161.545L58.606 162.091L47.4849 156.02ZM41.6365 154.44L46.0575 159.967L51.9018 161.545L41.6365 154.44ZM36.7589 151.803L41.1832 157.331L46.0575 159.967L36.7589 151.803ZM32.9624 148.081L37.3893 153.612L41.1832 157.331L32.9624 148.081ZM174.125 48.2901L178.455 53.8893L175.926 49.2172L174.125 48.2901ZM174.125 48.2901L175.316 53.7058L178.455 53.8893L174.125 48.2901ZM175.316 53.7058L175.222 59.7629L179.645 59.3013L175.316 53.7058ZM175.222 59.7629L173.898 66.3623L179.552 65.3543L175.222 59.7629ZM173.898 66.3623L171.398 73.4049L178.228 71.9492L173.898 66.3623ZM171.398 73.4049L167.778 80.7916L175.73 78.987L171.398 73.4049ZM167.778 80.7916L163.092 88.4233L172.113 86.3686L167.778 80.7916ZM163.092 88.4233L157.395 96.2008L167.43 93.9951L163.092 88.4233ZM157.395 96.2008L150.742 104.025L161.737 101.767L157.395 96.2008ZM150.742 104.025L143.187 111.797L155.088 109.586L150.742 104.025ZM143.187 111.797L134.786 119.418L147.539 117.353L143.187 111.797ZM134.786 119.418L125.593 126.788L139.143 124.969L134.786 119.418ZM125.593 126.788L115.975 133.593L129.957 132.334L125.593 126.788ZM115.975 133.593L106.333 139.569L120.345 139.134L115.975 133.593ZM106.333 139.569L96.7802 144.688L110.71 145.105L106.333 139.569ZM96.7802 144.688L87.425 148.927L101.163 150.222L96.7802 144.688ZM87.425 148.927L78.3784 152.259L91.8147 154.457L87.425 148.927ZM78.3784 152.259L69.7508 154.66L82.7743 157.788L78.3784 152.259ZM69.7508 154.66L61.6524 156.104L74.1525 160.187L69.7508 154.66ZM61.6524 156.104L54.1936 156.566L66.0597 161.63L61.6524 156.104ZM54.1936 156.566L47.4849 156.02L58.606 162.091L54.1936 156.566ZM47.4849 156.02L41.6365 154.44L51.9018 161.545L47.4849 156.02ZM41.6365 154.44L36.7589 151.803L46.0575 159.967L41.6365 154.44ZM36.7589 151.803L32.9624 148.081L41.1832 157.331L36.7589 151.803ZM171.594 43.6149L174.125 48.2901L175.926 49.2172L171.594 43.6149ZM170.98 48.1027L175.316 53.7058L174.125 48.2901L170.98 48.1027ZM170.886 54.1639L175.222 59.7629L175.316 53.7058L170.886 54.1639ZM169.561 60.7678L173.898 66.3623L175.222 59.7629L169.561 60.7678ZM167.06 67.8153L171.398 73.4049L173.898 66.3623L167.06 67.8153ZM163.437 75.207L167.778 80.7916L171.398 73.4049L163.437 75.207ZM158.748 82.8439L163.092 88.4233L167.778 80.7916L158.748 82.8439ZM153.047 90.6268L157.395 96.2008L163.092 88.4233L153.047 90.6268ZM146.389 98.4565L150.742 104.025L157.395 96.2008L146.389 98.4565ZM138.83 106.234L143.187 111.797L150.742 104.025L138.83 106.234ZM130.423 113.86L134.786 119.418L143.187 111.797L130.423 113.86ZM121.224 121.235L125.593 126.788L134.786 119.418L121.224 121.235ZM111.598 128.045L115.975 133.593L125.593 126.788L111.598 128.045ZM101.951 134.024L106.333 139.569L115.975 133.593L101.951 134.024ZM92.3909 139.147L96.7802 144.688L106.333 139.569L92.3909 139.147ZM83.0293 143.389L87.425 148.927L96.7802 144.688L83.0293 143.389ZM73.9766 146.724L78.3784 152.259L87.425 148.927L73.9766 146.724ZM65.343 149.126L69.7508 154.66L78.3784 152.259L65.343 149.126ZM57.2391 150.571L61.6524 156.104L69.7508 154.66L57.2391 150.571ZM49.7752 151.033L54.1936 156.566L61.6524 156.104L49.7752 151.033ZM43.0619 150.486L47.4849 156.02L54.1936 156.566L43.0619 150.486ZM37.2096 148.906L41.6365 154.44L47.4849 156.02L37.2096 148.906ZM32.3286 146.266L36.7589 151.803L41.6365 154.44L32.3286 146.266ZM28.5295 142.542L32.9624 148.081L36.7589 151.803L28.5295 142.542ZM169.788 42.6833L174.125 48.2901L171.594 43.6149L169.788 42.6833ZM169.788 42.6833L170.98 48.1027L174.125 48.2901L169.788 42.6833ZM170.98 48.1027L170.886 54.1639L175.316 53.7058L170.98 48.1027ZM170.886 54.1639L169.561 60.7678L175.222 59.7629L170.886 54.1639ZM169.561 60.7678L167.06 67.8153L173.898 66.3623L169.561 60.7678ZM167.06 67.8153L163.437 75.207L171.398 73.4049L167.06 67.8153ZM163.437 75.207L158.748 82.8439L167.778 80.7916L163.437 75.207ZM158.748 82.8439L153.047 90.6268L163.092 88.4233L158.748 82.8439ZM153.047 90.6268L146.389 98.4565L157.395 96.2008L153.047 90.6268ZM146.389 98.4565L138.83 106.234L150.742 104.025L146.389 98.4565ZM138.83 106.234L130.423 113.86L143.187 111.797L138.83 106.234ZM130.423 113.86L121.224 121.235L134.786 119.418L130.423 113.86ZM121.224 121.235L111.598 128.045L125.593 126.788L121.224 121.235ZM111.598 128.045L101.951 134.024L115.975 133.593L111.598 128.045ZM101.951 134.024L92.3909 139.147L106.333 139.569L101.951 134.024ZM92.3909 139.147L83.0293 143.389L96.7802 144.688L92.3909 139.147ZM83.0293 143.389L73.9766 146.724L87.425 148.927L83.0293 143.389ZM73.9766 146.724L65.343 149.126L78.3784 152.259L73.9766 146.724ZM65.343 149.126L57.2391 150.571L69.7508 154.66L65.343 149.126ZM57.2391 150.571L49.7752 151.033L61.6524 156.104L57.2391 150.571ZM49.7752 151.033L43.0619 150.486L54.1936 156.566L49.7752 151.033ZM43.0619 150.486L37.2096 148.906L47.4849 156.02L43.0619 150.486ZM37.2096 148.906L32.3286 146.266L41.6365 154.44L37.2096 148.906ZM32.3286 146.266L28.5295 142.542L36.7589 151.803L32.3286 146.266ZM167.255 38.0049L169.788 42.6833L171.594 43.6149L167.255 38.0049ZM166.638 42.4919L170.98 48.1027L169.788 42.6833L166.638 42.4919ZM166.544 48.5573L170.886 54.1639L170.98 48.1027L166.544 48.5573ZM165.218 55.1657L169.561 60.7678L170.886 54.1639L165.218 55.1657ZM162.715 62.2179L167.06 67.8153L169.561 60.7678L162.715 62.2179ZM159.09 69.6147L163.437 75.207L167.06 67.8153L159.09 69.6147ZM154.398 77.2568L158.748 82.8439L163.437 75.207L154.398 77.2568ZM148.693 85.045L153.047 90.6268L158.748 82.8439L148.693 85.045ZM142.031 92.8801L146.389 98.4565L153.047 90.6268L142.031 92.8801ZM134.466 100.663L138.83 106.234L146.389 98.4565L134.466 100.663ZM126.053 108.294L130.423 113.86L138.83 106.234L126.053 108.294ZM116.848 115.674L121.224 121.235L130.423 113.86L116.848 115.674ZM107.216 122.489L111.598 128.045L121.224 121.235L107.216 122.489ZM97.5619 128.472L101.951 134.024L111.598 128.045L97.5619 128.472ZM87.9955 133.599L92.3909 139.147L101.951 134.024L87.9955 133.599ZM78.6276 137.843L83.0293 143.389L92.3909 139.147L78.6276 137.843ZM69.5687 141.18L73.9766 146.724L83.0293 143.389L69.5687 141.18ZM60.9292 143.584L65.343 149.126L73.9766 146.724L60.9292 143.584ZM52.8197 145.03L57.2391 150.571L65.343 149.126L52.8197 145.03ZM45.3508 145.492L49.7752 151.033L57.2391 150.571L45.3508 145.492ZM38.6329 144.946L43.0619 150.486L49.7752 151.033L38.6329 144.946ZM32.7765 143.364L37.2096 148.906L43.0619 150.486L32.7765 143.364ZM27.8923 140.723L32.3286 146.266L37.2096 148.906L27.8923 140.723ZM24.0906 136.996L28.5295 142.542L32.3286 146.266L24.0906 136.996ZM165.446 37.0688L169.788 42.6833L167.255 38.0049L165.446 37.0688ZM165.446 37.0688L166.638 42.4919L169.788 42.6833L165.446 37.0688ZM166.638 42.4919L166.544 48.5573L170.98 48.1027L166.638 42.4919ZM166.544 48.5573L165.218 55.1657L170.886 54.1639L166.544 48.5573ZM165.218 55.1657L162.715 62.2179L169.561 60.7678L165.218 55.1657ZM162.715 62.2179L159.09 69.6147L167.06 67.8153L162.715 62.2179ZM159.09 69.6147L154.398 77.2568L163.437 75.207L159.09 69.6147ZM154.398 77.2568L148.693 85.045L158.748 82.8439L154.398 77.2568ZM148.693 85.045L142.031 92.8801L153.047 90.6268L148.693 85.045ZM142.031 92.8801L134.466 100.663L146.389 98.4565L142.031 92.8801ZM134.466 100.663L126.053 108.294L138.83 106.234L134.466 100.663ZM126.053 108.294L116.848 115.674L130.423 113.86L126.053 108.294ZM116.848 115.674L107.216 122.489L121.224 121.235L116.848 115.674ZM107.216 122.489L97.5619 128.472L111.598 128.045L107.216 122.489ZM97.5619 128.472L87.9955 133.599L101.951 134.024L97.5619 128.472ZM87.9955 133.599L78.6276 137.843L92.3909 139.147L87.9955 133.599ZM78.6276 137.843L69.5687 141.18L83.0293 143.389L78.6276 137.843ZM69.5687 141.18L60.9292 143.584L73.9766 146.724L69.5687 141.18ZM60.9292 143.584L52.8197 145.03L65.343 149.126L60.9292 143.584ZM52.8197 145.03L45.3508 145.492L57.2391 150.571L52.8197 145.03ZM45.3508 145.492L38.6329 144.946L49.7752 151.033L45.3508 145.492ZM38.6329 144.946L32.7765 143.364L43.0619 150.486L38.6329 144.946ZM32.7765 143.364L27.8923 140.723L37.2096 148.906L32.7765 143.364ZM27.8923 140.723L24.0906 136.996L32.3286 146.266L27.8923 140.723ZM162.911 32.3872L165.446 37.0688L167.255 38.0049L162.911 32.3872Z" fill="black" stroke="white" stroke-width="0.577223"/>
<path d="M165.446 37.0688L162.911 32.3872L159.11 28.6606L165.446 37.0688ZM166.544 48.5574L166.638 42.492L165.446 37.0688L166.544 48.5574ZM162.715 62.218L165.218 55.1658L166.544 48.5574L162.715 62.218ZM154.398 77.2569L159.09 69.6148L162.715 62.218L154.398 77.2569ZM142.031 92.8802L148.693 85.0451L154.398 77.2569L142.031 92.8802ZM126.053 108.294L134.466 100.663L142.031 92.8802L126.053 108.294ZM107.216 122.489L116.848 115.674L126.053 108.294L107.216 122.489ZM87.9955 133.599L97.5618 128.472L107.216 122.489L87.9955 133.599ZM69.5686 141.18L78.6276 137.843L87.9955 133.599L69.5686 141.18ZM52.8197 145.03L60.9291 143.584L69.5686 141.18L52.8197 145.03ZM38.6328 144.946L45.3507 145.493L52.8197 145.03L38.6328 144.946ZM27.8922 140.723L32.7765 143.364L38.6328 144.946L27.8922 140.723ZM21.5561 132.315L24.0905 136.996L27.8922 140.723L21.5561 132.315ZM20.4574 120.826L20.3634 126.891L21.5561 132.315L20.4574 120.826ZM24.2864 107.165L21.7834 114.218L20.4574 120.826L24.2864 107.165ZM32.6039 92.1265L27.9115 99.7686L24.2864 107.165L32.6039 92.1265ZM44.971 76.5032L38.3087 84.3383L32.6039 92.1265L44.971 76.5032ZM60.9484 61.0894L52.5358 68.7205L44.971 76.5032L60.9484 61.0894ZM79.7856 46.8946L70.1539 53.7092L60.9484 61.0894L79.7856 46.8946ZM99.0063 35.7847L89.4399 40.9113L79.7856 46.8946L99.0063 35.7847ZM117.433 28.2031L108.374 31.5402L99.0063 35.7847L117.433 28.2031ZM134.182 24.353L126.073 25.7989L117.433 28.2031L134.182 24.353ZM148.369 24.4378L141.651 23.8909L134.182 24.353L148.369 24.4378ZM159.11 28.6606L154.225 26.0192L148.369 24.4378L159.11 28.6606ZM166.544 48.5574L165.446 37.0688L159.11 28.6606L166.544 48.5574ZM154.398 77.2569L162.715 62.218L166.544 48.5574L154.398 77.2569ZM126.053 108.294L142.031 92.8802L154.398 77.2569L126.053 108.294ZM87.9955 133.599L107.216 122.489L126.053 108.294L87.9955 133.599ZM52.8197 145.03L69.5686 141.18L87.9955 133.599L52.8197 145.03ZM27.8922 140.723L38.6328 144.946L52.8197 145.03L27.8922 140.723ZM20.4574 120.826L21.5561 132.315L27.8922 140.723L20.4574 120.826ZM32.6039 92.1265L24.2864 107.165L20.4574 120.826L32.6039 92.1265ZM60.9484 61.0894L44.971 76.5032L32.6039 92.1265L60.9484 61.0894ZM99.0063 35.7847L79.7856 46.8946L60.9484 61.0894L99.0063 35.7847ZM134.182 24.353L117.433 28.2031L99.0063 35.7847L134.182 24.353ZM159.11 28.6606L148.369 24.4378L134.182 24.353L159.11 28.6606ZM154.398 77.2569L166.544 48.5574L159.11 28.6606L154.398 77.2569ZM87.9955 133.599L126.053 108.294L154.398 77.2569L87.9955 133.599ZM27.8922 140.723L52.8197 145.03L87.9955 133.599L27.8922 140.723ZM32.6039 92.1265L20.4574 120.826L27.8922 140.723L32.6039 92.1265ZM99.0063 35.7847L60.9484 61.0894L32.6039 92.1265L99.0063 35.7847ZM159.11 28.6606L134.182 24.353L99.0063 35.7847L129.058 32.2226L159.11 28.6606ZM87.9955 133.599L154.398 77.2569L159.11 28.6606L87.9955 133.599ZM32.6039 92.1265L27.8922 140.723L87.9955 133.599L32.6039 92.1265ZM159.11 28.6606L129.058 32.2226L99.0063 35.7847L32.6039 92.1265L159.11 28.6606ZM32.6039 92.1265L87.9955 133.599L159.11 28.6606L32.6039 92.1265Z" fill="#FFDD29"/>
<path d="M165.446 37.0688L162.911 32.3872L159.11 28.6606M165.446 37.0688L159.11 28.6606M165.446 37.0688L166.638 42.492L166.544 48.5573M165.446 37.0688L166.544 48.5573M159.11 28.6606L154.225 26.0192L148.369 24.4378M159.11 28.6606L148.369 24.4378M159.11 28.6606L166.544 48.5573M159.11 28.6606L134.182 24.353M159.11 28.6606L154.398 77.2569M159.11 28.6606L87.9955 133.599M159.11 28.6606L32.6039 92.1265M159.11 28.6606L129.058 32.2226M166.544 48.5573L165.218 55.1658L162.715 62.218M166.544 48.5573L162.715 62.218M166.544 48.5573L154.398 77.2569M162.715 62.218L159.09 69.6148L154.398 77.2569M162.715 62.218L154.398 77.2569M154.398 77.2569L148.693 85.0451L142.031 92.8802M154.398 77.2569L142.031 92.8802M154.398 77.2569L126.053 108.294M154.398 77.2569L87.9955 133.599M142.031 92.8802L134.466 100.663L126.053 108.294M142.031 92.8802L126.053 108.294M126.053 108.294L116.848 115.674L107.216 122.489M126.053 108.294L107.216 122.489M126.053 108.294L87.9955 133.599M107.216 122.489L97.5618 128.472L87.9955 133.599M107.216 122.489L87.9955 133.599M87.9955 133.599L78.6276 137.843L69.5686 141.18M87.9955 133.599L69.5686 141.18M87.9955 133.599L52.8197 145.03M87.9955 133.599L27.8922 140.723M87.9955 133.599L32.6039 92.1265M87.9955 133.599L84.6665 66.0219M69.5686 141.18L60.9291 143.584L52.8197 145.03M69.5686 141.18L52.8197 145.03M52.8197 145.03L45.3507 145.493L38.6328 144.946M52.8197 145.03L38.6328 144.946M52.8197 145.03L27.8922 140.723M38.6328 144.946L32.7765 143.364L27.8922 140.723M38.6328 144.946L27.8922 140.723M27.8922 140.723L24.0905 136.996L21.5561 132.315M27.8922 140.723L21.5561 132.315M27.8922 140.723L20.4574 120.826M27.8922 140.723L32.6039 92.1265M21.5561 132.315L20.3634 126.891L20.4574 120.826M21.5561 132.315L20.4574 120.826M20.4574 120.826L21.7834 114.218L24.2864 107.165M20.4574 120.826L24.2864 107.165M20.4574 120.826L32.6039 92.1265M24.2864 107.165L27.9115 99.7686L32.6039 92.1265M24.2864 107.165L32.6039 92.1265M32.6039 92.1265L38.3087 84.3383L44.971 76.5032M32.6039 92.1265L44.971 76.5032M32.6039 92.1265L60.9485 61.0894M32.6039 92.1265L99.0063 35.7847M44.971 76.5032L52.5358 68.7205L60.9485 61.0894M44.971 76.5032L60.9485 61.0894M60.9485 61.0894L70.1539 53.7092L79.7856 46.8946M60.9485 61.0894L79.7856 46.8946M60.9485 61.0894L99.0063 35.7847M79.7856 46.8946L89.4399 40.9113L99.0063 35.7847M79.7856 46.8946L99.0063 35.7847M99.0063 35.7847L108.374 31.5402L117.433 28.2031M99.0063 35.7847L117.433 28.2031M99.0063 35.7847L134.182 24.353M99.0063 35.7847L84.6665 66.0219M99.0063 35.7847L109.325 52.7659M99.0063 35.7847L129.058 32.2226M117.433 28.2031L126.073 25.7989L134.182 24.353M117.433 28.2031L134.182 24.353M134.182 24.353L141.651 23.8909L148.369 24.4378M134.182 24.353L148.369 24.4378M84.6665 66.0219L56.3511 109.444M84.6665 66.0219L66.1014 63.356M109.325 52.7659L119.647 86.9995M109.325 52.7659L86.0783 81.0585L102.863 84.029M109.325 52.7659L129.058 32.2226M119.647 86.9995L126.087 45.1072L136.206 60.9764L133.493 94.3197L119.647 86.9995ZM119.647 86.9995L102.863 84.029M56.3511 109.444L48.933 137.35M56.3511 109.444L53.703 81.8809L30.19 116.679L56.3511 109.444ZM101.295 113.148L86.665 99.7564L70.3671 88.2833L67.7865 118.374L61.4092 135.397M102.863 84.029L113.556 66.8846" stroke="white" stroke-width="0.577223"/>
</svg>
