<svg width="212" height="226" viewBox="0 0 212 226" fill="none" xmlns="http://www.w3.org/2000/svg">
<path d="M68.9978 68.8499L68.9871 68.8567L68.9772 68.8646L61.9021 74.1814L61.8952 74.1866L61.8886 74.1921L55.1139 79.8287L55.2589 80.0075L55.1003 79.8406L48.6731 85.7789L48.666 85.7855L48.6592 85.7925L42.631 92.0214L43.1226 92.5107L55.559 80.3621L84.293 59.8362L100.021 51.8348L99.7145 51.2124L91.7482 55.002L91.7399 55.006L91.7318 55.0104L83.9471 59.234L84.0542 59.4379L83.932 59.2427L76.3533 63.8613L76.346 63.8657L76.3391 63.8704L68.9978 68.8499Z" fill="#FFDD29" stroke="white" stroke-width="0.693723"/>
<path d="M89.3302 96.0189L88.5148 95.8755L88.9844 96.5573L91.834 100.694L84.5656 99.6646L83.7734 99.5524L84.2331 100.207L87.5776 104.972L87.7859 105.269L88.0732 105.048L92.7713 101.43L97.6874 98.1017L102.804 95.0789L103.569 94.6266L102.7 94.441L94.3182 92.6519L93.4764 92.4722L93.9584 93.1853L96.7565 97.3252L89.3302 96.0189Z" fill="#0C0C0C" stroke="white" stroke-width="0.693723"/>
<path d="M116.397 45.7672L116.138 45.1243L99.7431 51.2005L99.7243 51.2075L99.7064 51.2166L83.9554 59.2299L84.2519 59.8567L116.397 45.7672Z" fill="#FFDD29" stroke="white" stroke-width="0.693723"/>
<path d="M94.5332 92.7967L94.3388 92.5091L94.0513 92.7038L89.3605 95.8802L89.3486 95.8629L89.067 96.079L88.3661 96.5536L88.4332 96.5654L84.3058 99.7327L83.6506 100.235L84.4683 100.351L92.5194 101.492L93.3022 101.603L92.8537 100.952L90.0253 96.8454L97.4416 98.15L98.247 98.2916L97.7891 97.6141L94.5332 92.7967ZM99.4945 89.5904L98.6223 89.3681L99.1198 90.1183L102.338 94.9718L102.509 95.2293L102.784 95.0893L108.069 92.4033L108.89 91.9856L107.997 91.758L99.4945 89.5904Z" fill="#0C0C0C" stroke="white" stroke-width="0.693723"/>
<path d="M84.3429 59.7985L83.9109 59.2569L55.1341 79.8134L55.1037 79.8351L55.0786 79.8629L32.0187 105.336L32.5062 105.828L84.3429 59.7985Z" fill="#FFDD29" stroke="white" stroke-width="0.693723"/>
<path d="M79.5591 103.854L79.1988 104.167L79.2625 104.174L75.705 107.685L75.1103 107.637L75.3793 108.006L75.0533 108.328L75.6487 108.376L79.0058 112.988L79.2443 113.315L79.5312 113.029L83.5519 109.017L84.137 109.065L83.8853 108.713L87.9751 105.135L88.5863 105.202L88.3245 104.829L88.6836 104.515L88.0554 104.445L84.9918 100.081L89.4731 96.6418L94.3179 93.361L102.555 95.1193L103.386 95.2967L102.916 94.5884L100.195 90.485L107.695 92.3967L107.78 92.5274L107.94 92.4592L108.687 92.6496L108.428 92.251L113.46 90.1041L114.34 89.7286L113.423 89.4529L104.948 86.9021L104.846 86.7461L104.692 86.8252L103.918 86.5924L104.226 87.0646L99.5265 89.4763L99.5156 89.4598L99.349 89.5587L91.0067 87.7508L90.1617 87.5676L90.6458 88.284L93.4978 92.5037L85.9762 91.1478L85.1566 91L85.629 91.6859L88.5326 95.9012L81.1646 94.8165L80.367 94.699L80.8302 95.3589L84.0533 99.9511L80.0852 103.398L80.0705 103.377L79.8987 103.547L79.2911 103.48L79.5591 103.854Z" fill="#0C0C0C" stroke="white" stroke-width="0.693723"/>
<path d="M116.378 45.7748L116.148 45.1207L107.88 47.8888L107.869 47.8923L107.859 47.8965L99.7327 51.2045L99.9841 51.851L116.378 45.7748Z" fill="#FFDD29" stroke="white" stroke-width="0.693723"/>
<path d="M91.2207 87.8955L91.0263 87.6079L90.7388 87.8026L85.7203 91.202L85.0153 91.6795L85.8533 91.8305L94.1844 93.3323L94.9939 93.4782L94.5333 92.7967L91.2207 87.8955Z" fill="#0C0C0C" stroke="white" stroke-width="0.693723"/>
<path d="M55.5929 80.3285L55.0934 79.8476L42.6378 92.0148L42.6224 92.0299L42.609 92.0468L32.0046 105.353L32.533 105.801L55.5929 80.3285Z" fill="#FFDD29" stroke="white" stroke-width="0.693723"/>
<path d="M86.6556 91.9534L86.3987 91.5804L91.0049 88.4603L99.1977 90.2358L99.2913 90.3769L99.4568 90.2919L100.17 90.4464L99.9123 90.0582L104.76 87.5702L113.1 90.0802L113.178 90.2018L113.331 90.1495L114.119 90.3868L113.853 89.97L118.831 88.2602L119.654 88.55L119.359 88.0791L119.888 87.8972L119.062 87.6061L115.992 82.7061L115.845 82.4709L115.583 82.5631L110.31 84.4205L110.299 84.4032L110.153 84.4667L109.332 84.1774L109.37 84.236L102.403 82.1306L102.448 82.1071L101.702 81.9137L101.604 81.7631L101.45 81.8428L100.676 81.609L100.707 81.6554L92.8894 79.6278L92.0127 79.4004L92.5133 80.1552L95.3464 84.4277L95.3714 84.4655L87.7724 82.7936L87.6555 82.6207L87.4915 82.7318L86.7889 82.5773L87.0812 83.0098L82.5909 86.0523L82.5797 86.0362L82.4124 86.1636L81.7395 86.0393L82.0165 86.4415L81.6054 86.72L81.6671 86.7314L77.5584 89.8612L76.9009 89.7607L77.176 90.1525L76.7911 90.4457L77.4527 90.5468L80.639 95.0864L80.2508 95.3832L80.3131 95.3924L76.6312 98.5665L76.6171 98.5467L76.4461 98.7135L75.8321 98.6416L76.1036 99.0213L75.7457 99.3299L75.807 99.3371L72.1961 102.861L71.594 102.807L71.867 103.182L71.5423 103.498L72.1364 103.552L75.3913 108.023L71.8466 112.036L71.2778 112.005L71.5496 112.372L71.2608 112.699L71.8139 112.729L75.227 117.336L75.484 117.682L75.7674 117.357L79.4368 113.139L79.996 113.169L79.7293 112.803L80.0141 112.476L79.4696 112.446L76.2917 108.081L80.1541 104.269L80.7464 104.322L80.4906 103.964L84.6288 100.37L85.2458 100.443L84.9806 100.065L85.3375 99.7548L84.7117 99.6815L81.8612 95.6203L89.2196 96.7036L90.0076 96.8196L89.5558 96.1637L86.6556 91.9534Z" fill="#0C0C0C" stroke="white" stroke-width="0.693723"/>
<path d="M84.4482 59.6266L84.7362 58.5215L83.8822 59.2798L32.0456 105.309L32.4702 105.856L80.8349 73.1485L80.9433 73.0752L80.9762 72.9486L84.4482 59.6266Z" fill="#FFDD29" stroke="white" stroke-width="0.693723"/>
<path d="M73.0969 93.8154L72.3121 93.718L72.772 94.3614L76.2879 99.2789L76.5088 99.5879L76.7965 99.3399L81.3407 95.4223L81.933 94.9117L81.1569 94.8154L73.0969 93.8154ZM93.0915 79.7717L92.9084 79.4956L92.6241 79.6659L87.3844 82.805L86.6354 83.2537L87.4881 83.4413L96.06 85.3272L96.8975 85.5114L96.4236 84.7967L93.0915 79.7717ZM107.245 79.6191L107.085 79.3684L106.813 79.4883L101.345 81.8981L100.487 82.2763L101.385 82.5476L110.066 85.171L110.963 85.442L110.458 84.6523L107.245 79.6191Z" fill="#0C0C0C" stroke="white" stroke-width="0.693723"/>
<path d="M84.4538 59.4768L83.7769 59.4517L80.3049 72.7737L80.0896 73.5998L80.8201 73.1579L86.1388 69.9407L86.3435 69.8168L86.3005 69.5815L84.4538 59.4768ZM43.1515 92.4791L42.6166 92.0375L37.0482 98.5499L37.0404 98.5591L37.0332 98.5688L31.9972 105.362L32.5471 105.785L43.1515 92.4791Z" fill="#FFDD29" stroke="white" stroke-width="0.693723"/>
<path d="M77.9355 90.0268L77.7161 89.7143L77.4261 89.9625L72.8287 93.896L72.2314 94.407L73.0115 94.5037L81.0715 95.5037L81.8471 95.6L81.3981 94.9602L77.9355 90.0268ZM116.672 82.9147L116.742 82.8902L115.822 82.5658L114.831 82.1595L114.877 82.2326L107.068 79.4785L106.119 79.1436L106.661 79.9923L109.874 85.0255L110.022 85.2574L110.281 85.166L115.552 83.3094L118.539 88.0769L118.673 88.2917L118.919 88.2288L124.496 86.7994L125.51 86.5395L124.541 86.1424L116.672 82.9147ZM72.4414 112.41L76.0956 108.273L76.5642 107.743L75.8578 107.697L68.4453 107.223L67.6996 107.175L68.1444 107.775L71.5622 112.389L68.2801 116.725L67.8735 117.262L68.5469 117.281L75.496 117.476L76.2091 117.496L75.7845 116.922L72.4414 112.41Z" fill="#0C0C0C" stroke="white" stroke-width="0.693723"/>
<path d="M84.356 59.292L83.5739 58.5213L83.7713 59.6014L85.6181 69.7061L85.7035 70.1736L86.1227 69.9498L91.5749 67.038L91.9908 66.8159L91.655 66.485L84.356 59.292Z" fill="#FFDD29" stroke="white" stroke-width="0.693723"/>
<path d="M68.5665 116.587L67.846 116.567L68.2797 117.143L71.8536 121.886L72.1328 122.257L72.4092 121.884L75.7844 117.336L76.1812 116.801L75.5156 116.782L68.5665 116.587ZM98.1514 76.7724L97.377 76.5374L97.6878 77.015L92.7541 79.5973L84.2079 77.6886L83.3563 77.4984L83.845 78.2213L86.8091 82.6071L79.0903 81.1472L78.262 80.9906L78.7402 81.6848L81.7562 86.0633L74.1819 84.8627L73.3734 84.7346L73.8436 85.4046L77.3677 90.4255L77.5749 90.7207L77.8618 90.5022L82.7031 86.8142L87.7493 83.3952L92.8561 80.3357L101.268 82.5175L101.355 82.6519L101.515 82.5816L102.263 82.7758L101.998 82.3684L107.093 80.1232L107.95 79.7457L107.054 79.4739L98.4082 76.8503L98.3052 76.6919L98.1514 76.7724ZM76.1161 107.839L72.7814 103.259L76.6969 99.4381L77.2966 99.4969L77.0254 99.1176L77.346 98.8047L76.7607 98.7473L73.3364 93.9579L73.1027 93.631L72.8135 93.91L68.625 97.9503L68.0153 97.8906L68.2924 98.2711L67.969 98.5831L68.5617 98.6411L71.8787 103.197L68.165 107.337L67.6877 107.87L68.401 107.915L75.8135 108.39L76.5511 108.437L76.1161 107.839Z" fill="#0C0C0C" stroke="white" stroke-width="0.693723"/>
<path d="M84.2298 59.2126L83.869 59.7861L91.168 66.9791L91.3391 67.1478L91.5572 67.0468L97.1107 64.4749L97.8776 64.1197L97.0823 63.8337L84.2298 59.2126Z" fill="#FFDD29" stroke="white" stroke-width="0.693723"/>
<path d="M83.9454 77.735L83.211 78.177L83.2728 78.1908L79.1161 81.008L79.1054 80.9924L78.8235 81.2064L78.1352 81.6729L78.1941 81.684L74.2045 84.7116L74.1929 84.695L73.9102 84.9349L73.27 85.4208L73.3273 85.4299L69.3684 88.7909L68.7293 88.7072L69.008 89.097L68.6545 89.397L69.2812 89.4792L72.772 94.3616L72.9921 94.6695L73.2797 94.4235L77.7596 90.5904L78.3887 90.6729L78.1165 90.2851L78.4688 89.9837L77.8478 89.9023L74.8816 85.6762L82.4462 86.8753L83.2449 87.0019L82.7861 86.336L79.7896 81.9858L87.4982 83.4436L88.3162 83.5983L87.85 82.9086L84.9082 78.556L92.5905 80.2718L92.6861 80.416L92.8507 80.3299L93.5676 80.49L93.3041 80.0926L98.2215 77.5188L106.73 80.1007L106.81 80.2265L106.954 80.1743L115.469 83.1772L115.54 83.2916L115.675 83.2557L124.278 86.7846L125.263 87.1886L124.705 86.282L121.832 81.6123L122.378 81.4668L121.529 81.1192L121.453 80.9956L121.316 81.032L113.473 77.8192L113.539 77.7951L112.738 77.5121L112.653 77.3776L112.516 77.4273L111.641 77.0691L111.687 77.141L103.911 74.3961L103.814 74.2445L103.668 74.3102L102.848 74.021L103.174 74.5312L98.156 76.7792L89.6271 74.5475L89.5168 74.3811L89.3576 74.477L88.62 74.284L88.9219 74.7393L84.2353 77.5604L84.2251 77.5453L83.9454 77.735Z" fill="#0C0C0C" stroke="white" stroke-width="0.693723"/>
<path d="M84.1576 59.195L83.9951 59.8653L96.8475 64.4864L96.9698 64.5304L97.0909 64.4831L102.714 62.29L102.633 61.623L84.1576 59.195Z" fill="#FFDD29" stroke="white" stroke-width="0.693723"/>
<path d="M68.8702 107.59L72.4684 103.579L73.0453 103.622L72.7697 103.243L73.0535 102.927L72.51 102.886L69.2085 98.3511L73.1784 94.5218L73.7856 94.5864L73.5104 94.2015L73.8297 93.8935L73.2457 93.8313L69.9434 89.2125L74.3446 85.4759L79.1166 81.8545L79.7736 81.9624L79.5096 81.5791L84.2076 78.395L84.8886 78.5269L84.6243 78.1358L89.4647 75.2219L97.9687 77.4471L98.0574 77.5834L98.2167 77.512L98.9661 77.7081L98.6982 77.2963L103.698 75.0565L112.384 78.1229L121.057 81.6752L124.114 86.6453L124.236 86.8433L124.466 86.8059L129.905 85.918L130.981 85.7424L130.002 85.264L121.535 81.1296L118.415 76.058L118.279 75.8357L118.027 75.9056L112.664 77.3952L109.555 72.4318L109.405 72.1927L109.14 72.2907L103.825 74.2607L100.646 69.2821L100.484 69.0283L100.21 69.1531L94.957 71.5457L94.947 71.5304L94.7934 71.6116L94.0187 71.3756L94.0476 71.4201L86.1754 69.342L86.0644 69.1747L85.9055 69.2708L85.1664 69.0756L85.4703 69.534L80.7432 72.3935L80.7334 72.3789L80.5704 72.4894L79.8622 72.3289L80.1489 72.753L79.7254 73.0092L79.7842 73.0225L75.5793 75.8733L75.569 75.8583L75.4031 75.9836L74.7221 75.8518L75.0051 76.2626L74.6028 76.5353L74.659 76.5462L70.4497 79.7282L69.7824 79.6186L70.064 80.0198L69.6857 80.3057L70.3401 80.4132L73.386 84.7528L65.8804 83.7161L65.0821 83.6058L65.5508 84.2614L69.0184 89.1114L64.9896 92.9523L64.3723 92.8866L64.6534 93.2728L64.3313 93.5798L64.9228 93.6428L68.3034 98.2866L64.644 102.302L64.0572 102.259L64.3382 102.638L64.0503 102.954L64.6026 102.995L67.9881 107.565L64.7537 111.752L64.201 111.73L64.4824 112.103L64.2336 112.426L64.7406 112.446L68.1354 116.952L65.3865 121.309L64.8733 121.308L65.1553 121.676L64.9498 122.002L65.4058 122.003L68.9438 126.624L69.2505 127.024L69.5147 126.594L72.324 122.025L72.8278 122.026L72.5499 121.658L72.7497 121.332L72.3039 121.331L68.9912 116.935L72.1626 112.745L72.7055 112.767L72.4288 112.393L72.6726 112.071L72.1753 112.051L68.8702 107.59Z" fill="#0C0C0C" stroke="white" stroke-width="0.693723"/>
<path d="M75.6911 76.6357L70.7496 80.3712L70.7413 80.3775L70.7326 80.3833L32.4703 105.856L32.4702 105.856L32.4682 105.857L32.0895 105.293L32.0893 105.293M75.6911 76.6357L32.0893 105.293M75.6911 76.6357L80.835 73.1483L80.8353 73.1481L80.4464 72.5736L80.446 72.5739L80.4455 72.5742L32.0896 105.276L32.0838 105.28L75.6911 76.6357ZM32.0893 105.293L32.0817 105.281L32.0817 105.281L32.0893 105.293ZM83.9734 59.2213L84.0935 59.5539L84.0674 59.8829L102.543 62.3108L102.619 62.3208L102.692 62.298L108.354 60.5285L108.26 59.8507L86.3628 59.2534L146.134 42.0806L145.995 41.403L116.215 45.1053L116.165 45.1115L116.119 45.1318L83.9734 59.2213Z" fill="#FFDD29" stroke="white" stroke-width="0.693723"/>
<path d="M70.8243 79.8953L70.6066 79.5852L70.3169 79.8293L65.6096 83.7944L65.0134 84.2967L65.7856 84.4033L74.08 85.5489L74.8689 85.6579L74.4114 85.0061L70.8243 79.8953ZM127.041 80.261L126.918 80.0578L126.684 80.0988L121.233 81.0555L120.181 81.2401L121.141 81.7088L129.697 85.8874L130.756 86.4044L130.146 85.3962L127.041 80.261ZM110.216 72.6319L110.28 72.6082L109.384 72.2918L108.395 71.887L108.439 71.9577L100.47 69.1418L99.5194 68.806L100.062 69.6555L103.39 74.8699L103.541 75.1057L103.803 75.0085L109.117 73.0393L112.214 77.9829L112.352 78.2022L112.601 78.1329L118.213 76.574L119.19 76.3026L118.251 75.9188L110.216 72.6319ZM65.2353 102.684L69.0068 98.5448L69.4808 98.0247L68.7796 97.9655L61.114 97.3185L60.3493 97.2539L60.8062 97.8706L64.3503 102.654L61.0541 106.835L60.4906 106.805L60.7773 107.186L60.5281 107.502L61.0355 107.529L64.6418 112.315L64.9154 112.678L65.1933 112.318L68.5865 107.925L69.14 107.954L68.858 107.573L69.1022 107.257L68.6045 107.231L65.2353 102.684Z" fill="#0C0C0C" stroke="white" stroke-width="0.693723"/>
<path d="M32.0838 105.28L32.4632 105.861L32.4682 105.857L66.0203 84.3518L66.0393 84.3396L66.0566 84.325L70.7639 80.3599L70.3482 79.8059L32.0888 105.276L32.0838 105.28Z" fill="#FFDD29" stroke="white" stroke-width="0.693723"/>
<path d="M91.3751 66.358L90.6 66.1208L90.9144 66.604L85.7958 69.3376L85.0169 69.7536L85.8706 69.9789L94.6112 72.2862L94.701 72.4244L94.8601 72.352L95.6104 72.55L95.3395 72.1336L100.498 69.7843L101.331 69.4049L100.455 69.137L91.6334 66.437L91.5286 66.276L91.3751 66.358ZM65.393 93.1099L65.1447 92.7689L64.8581 93.0784L60.8302 97.4283L60.3473 97.9498L61.0555 98.0096L68.7211 98.6567L69.4774 98.7205L69.0307 98.1069L65.393 93.1099ZM118.272 75.9278L117.199 75.4055L117.824 76.4214L120.997 81.5787L121.121 81.7793L121.353 81.7386L126.804 80.782L127.858 80.597L126.896 80.1285L118.272 75.9278Z" fill="#0C0C0C" stroke="white" stroke-width="0.693723"/>
<path d="M132.163 42.3712L132.031 41.6903L124.328 43.0146L124.314 43.017L124.3 43.0206L116.171 45.1135L116.331 45.7885L132.163 42.3712Z" fill="#FFDD29" stroke="white" stroke-width="0.693723"/>
<path d="M65.1959 111.897L64.8974 111.501L64.6277 111.918L61.6835 116.464L61.1577 116.455L61.4459 116.831L61.2394 117.15L61.6963 117.158L65.3022 121.868L65.6052 122.263L65.871 121.842L68.7459 117.285L69.2619 117.294L68.9779 116.917L69.1787 116.598L68.732 116.59L65.1959 111.897ZM60.9491 88.1842L60.6282 88.4864L61.2185 88.5543L64.8324 93.5185L65.0655 93.8387L65.3521 93.5654L69.5976 89.5179L70.2124 89.5886L69.9332 89.198L70.2512 88.8948L69.6685 88.8278L66.1153 83.8581L65.8844 83.535L65.5953 83.8073L61.2888 87.8641L60.6637 87.7922L60.9491 88.1842Z" fill="#0C0C0C" stroke="white" stroke-width="0.693723"/>
<path d="M32.0888 105.276L32.4534 105.866L61.5868 88.5249L61.6195 88.5055L61.6472 88.4794L66.071 84.3121L65.646 83.7676L32.0888 105.276Z" fill="#FFDD29" stroke="white" stroke-width="0.693723"/>
<path d="M126.92 80.1416L126.447 80.62L129.553 85.7552L129.661 85.9346L129.87 85.922L134.97 85.6148L136.105 85.5464L135.125 84.9696L126.92 80.1416ZM106.249 67.1555L106.097 66.9143L105.831 67.0154L100.231 69.1447L99.3465 69.4808L100.238 69.7959L109.137 72.9403L117.989 76.5609L118.972 76.9632L118.415 76.0581L115.185 70.8075L115.047 70.5827L114.793 70.656L109.416 72.2102L106.249 67.1555ZM65.8529 121.446L65.5163 121.006L65.2676 121.501L62.8886 126.235L62.637 126.735L63.1972 126.737L69.218 126.76L69.9237 126.762L69.4947 126.202L65.8529 121.446Z" fill="#0C0C0C" stroke="white" stroke-width="0.693723"/>
<path d="M84.1055 59.1922L84.1031 59.8857L108.241 60.5442L108.285 60.5454L108.328 60.5356L113.82 59.2794L113.736 58.5945L84.1055 59.1922Z" fill="#FFDD29" stroke="white" stroke-width="0.693723"/>
<path d="M96.9475 63.7857L96.1301 63.4966L96.459 64.0119L91.2658 66.417L90.4429 66.7981L91.31 67.0634L100.13 69.7629L100.213 69.8931L100.366 69.835L101.153 70.0759L100.876 69.6413L105.812 67.7647L108.967 72.7999L109.106 73.0216L109.357 72.949L114.986 71.3221L115.945 71.0451L115.021 70.6678L106.9 67.3509L106.962 67.3276L106.078 67.0151L105.089 66.6111L105.133 66.6807L97.1932 63.8726L97.0943 63.7177L96.9475 63.7857ZM63.1998 126.043L62.4877 126.041L62.9246 126.603L66.636 131.379L66.9782 131.82L67.2219 131.318L69.5313 126.564L69.7724 126.068L69.2206 126.066L63.1998 126.043ZM123.879 75.0323L123.755 74.8264L123.518 74.8709L118.056 75.8987L117.026 76.0925L117.968 76.5514L126.592 80.7521L127.649 81.2671L127.041 80.2608L123.879 75.0323Z" fill="#0C0C0C" stroke="white" stroke-width="0.693723"/>
<path d="M32.0985 105.27L32.4357 105.876L57.4753 92.8843L57.5276 92.8571L57.5681 92.8141L61.6619 88.4648L61.2319 87.929L32.0985 105.27Z" fill="#FFDD29" stroke="white" stroke-width="0.693723"/>
<path d="M61.5347 97.6885L65.2506 93.6755L65.8458 93.7319L65.5609 93.3405L65.8439 93.0349L65.301 92.9835L61.6896 88.0227L61.4434 87.6845L61.1566 87.9891L57.1791 92.2148L56.5736 92.1575L56.864 92.5496L56.5769 92.8547L57.1288 92.9069L60.6465 97.6551L57.2868 101.828L56.7122 101.791L57.0044 102.179L56.7548 102.489L57.2628 102.521L60.7902 107.203L57.9125 111.531L57.3738 111.513L57.6683 111.898L57.4607 112.21L57.9188 112.225L61.4602 116.85L59.1112 121.366L58.8538 121.861L59.4116 121.873L65.5701 122.003L66.2915 122.019L65.8529 121.446L62.2938 116.798L65.1033 112.459L65.632 112.476L65.3417 112.091L65.5435 111.779L65.0959 111.765L61.653 107.195L64.9462 103.019L65.5106 103.055L65.2232 102.667L65.4677 102.357L64.9696 102.325L61.5347 97.6885ZM115.041 70.677L113.97 70.1568L114.594 71.1707L117.824 76.4214L117.949 76.6246L118.184 76.5805L123.41 75.5972L126.155 80.1362L125.611 80.1764L126.492 80.6948L126.557 80.8019L126.661 80.7942L134.773 85.5673L135.247 85.0908L132.434 80.3663L132.984 80.3256L132.101 79.8078L132.037 79.7001L131.931 79.708L124.557 75.3814L124.678 75.3586L123.734 74.8999L115.041 70.677ZM102.882 61.7826L102.73 61.5393L102.462 61.6436L96.8389 63.8367L95.9696 64.1758L96.8492 64.4869L105.839 67.6664L106.777 67.9981L106.249 67.1552L102.882 61.7826Z" fill="#0C0C0C" stroke="white" stroke-width="0.693723"/>
<path d="M32.1162 105.261L32.4041 105.891L53.7319 97.4112L53.8149 97.3782L53.8716 97.3092L57.5834 92.7967L57.1558 92.2685L32.1162 105.261Z" fill="#FFDD29" stroke="white" stroke-width="0.693723"/>
<path d="M111.896 65.4607L111.756 65.2335L111.501 65.3103L105.855 67.0073L104.916 67.2896L105.824 67.6606L114.759 71.3101L115.742 71.7116L115.185 70.8072L111.896 65.4607Z" fill="#0C0C0C" stroke="white" stroke-width="0.693723"/>
<path d="M84.0996 59.1925L84.1194 59.8859L113.75 59.2882L113.769 59.2879L113.789 59.2852L118.907 58.5953L118.848 57.9049L84.0996 59.1925Z" fill="#FFDD29" stroke="white" stroke-width="0.693723"/>
<path d="M59.4264 121.18L58.6984 121.164L59.1452 121.739L62.9246 126.603L63.2617 127.037L63.5085 126.546L65.8875 121.812L66.1342 121.321L65.5849 121.31L59.4264 121.18ZM120.659 69.7082L120.533 69.4996L120.294 69.5477L114.821 70.649L113.813 70.8518L114.738 71.301L123.431 75.5239L124.486 76.0368L123.879 75.0325L120.659 69.7082ZM102.719 61.6457L101.723 61.2394L102.294 62.151L105.661 67.5237L105.801 67.7478L106.055 67.6717L111.7 65.9747L112.64 65.6921L111.731 65.3213L102.719 61.6457Z" fill="#0C0C0C" stroke="white" stroke-width="0.693723"/>
<path d="M32.5778 105.739L31.9816 105.385L27.7004 112.237L27.6918 112.251L27.6845 112.265L24.3383 118.934L24.9505 119.26L32.5778 105.739Z" fill="#FFDD29" stroke="white" stroke-width="0.693723"/>
<path d="M132.109 79.8203L128.989 74.5822L128.878 74.3949L128.661 74.4141L123.551 74.8663L122.471 74.9619L123.407 75.511L131.596 80.3159L134.651 85.4457L134.745 85.6041L134.929 85.6146L139.658 85.8826L140.877 85.9517L139.876 85.2521L132.109 79.8203ZM57.594 92.3696L57.3296 92.0127L57.0475 92.3557L53.4503 96.729L52.8643 96.6839L53.1622 97.0792L52.912 97.3834L53.4208 97.4225L57.0171 102.195L54.072 106.506L53.5201 106.48L53.8212 106.874L53.6124 107.179L54.0718 107.201L57.8188 112.094L58.1141 112.48L58.3831 112.076L61.395 107.546L61.9366 107.572L61.6399 107.178L61.8428 106.873L61.3941 106.852L57.8836 102.193L61.2403 98.0237L61.8157 98.068L61.5229 97.6727L61.7678 97.3685L61.2691 97.3302L57.594 92.3696ZM63.4723 126.177L63.0887 125.684L62.8728 126.271L61.2796 130.602L60.7811 130.582L61.1257 131.02L61.0279 131.286L61.3446 131.298L65.0256 135.976L65.4163 136.472L65.6255 135.876L67.1523 131.523L67.6407 131.542L67.2996 131.103L67.3925 130.838L67.0845 130.826L63.4723 126.177ZM111.751 65.3302L110.682 64.8122L111.305 65.8241L114.594 71.1707L114.721 71.3767L114.958 71.329L120.431 70.2276L121.44 70.0244L120.514 69.5754L111.751 65.3302Z" fill="#0C0C0C" stroke="white" stroke-width="0.693723"/>
<path d="M32.1479 105.246L32.3478 105.908L50.4046 102.086L50.5382 102.058L50.6166 101.946L53.8877 97.2881L54.5555 96.3372L53.4757 96.7665L32.1479 105.246Z" fill="#FFDD29" stroke="white" stroke-width="0.693723"/>
<path d="M120.538 69.5883L120.066 70.0672L123.285 75.3914L123.397 75.5765L123.613 75.5574L128.722 75.1053L129.805 75.0094L128.867 74.4604L120.538 69.5883Z" fill="#0C0C0C" stroke="white" stroke-width="0.693723"/>
<path d="M146.218 42.0436L145.942 41.4138L84.0168 59.2055L84.1255 59.8855L118.874 58.5979L118.964 58.5946L119.041 58.5478L146.218 42.0436Z" fill="#FFDD29" stroke="white" stroke-width="0.693723"/>
<path d="M58.3698 111.673L58.0435 111.247L57.789 111.719L55.2642 116.408L55.0005 116.898L55.5563 116.919L61.8565 117.161L62.5938 117.19L62.1453 116.604L58.3698 111.673ZM108.546 60.0159L108.405 59.7861L108.147 59.8665L102.485 61.636L101.564 61.9238L102.457 62.2882L111.469 65.9639L112.452 66.3645L111.896 65.461L108.546 60.0159Z" fill="#0C0C0C" stroke="white" stroke-width="0.693723"/>
<path d="M146.081 42.0913L146.031 41.4003L132.083 41.6853L132.049 41.6859L132.017 41.693L116.185 45.1103L116.301 45.7936L146.081 42.0913Z" fill="#FFDD29" stroke="white" stroke-width="0.693723"/>
<path d="M55.5828 116.226L54.8386 116.197L55.2955 116.785L59.0247 121.585L57.4353 125.705L56.9183 125.674L57.2731 126.125L57.1732 126.384L57.4917 126.403L61.2456 131.173L61.6294 131.661L61.8437 131.078L63.435 126.752L63.9415 126.782L63.5903 126.33L63.6852 126.072L63.3757 126.053L59.8292 121.489L62.1774 116.975L62.43 116.489L61.883 116.468L55.5828 116.226ZM137.197 80.63L137.75 80.6529L136.836 80.0161L136.779 79.9185L136.691 79.9148L128.951 74.5181L125.774 69.1818L125.66 68.9914L125.44 69.0142L120.545 69.5202L117.632 64.7021L118.143 64.5922L117.327 64.1976L117.252 64.0741L117.127 64.101L108.401 59.8852L107.334 59.3693L107.955 60.3792L111.048 65.4065L110.542 65.5151L111.358 65.9106L111.433 66.0332L111.556 66.0068L120.199 70.1941L128.439 75.0141L131.223 79.6891L130.678 79.6666L131.589 80.3036L131.647 80.4009L131.733 80.4044L139.479 85.8208L139.976 85.3608L137.197 80.63ZM53.8806 96.8801L53.5937 96.4994L53.3197 96.8895L50.1602 101.389L49.5947 101.354L49.9025 101.756L49.6924 102.055L50.1533 102.084L53.9738 107.073L54.2652 107.454L54.5356 107.058L57.6193 102.544L58.1741 102.578L57.8708 102.176L58.0749 101.877L57.6249 101.849L53.8806 96.8801Z" fill="#0C0C0C" stroke="white" stroke-width="0.693723"/>
<path d="M47.6344 106.73L47.8467 106.741L47.9531 106.557L50.6331 101.921L51.0227 101.246L50.2609 101.408L32.2042 105.229L32.2576 105.915L47.6344 106.73Z" fill="#FFDD29" stroke="white" stroke-width="0.693723"/>
<path d="M108.1 60.5098L116.84 64.7327L120.066 70.0673L120.179 70.2554L120.398 70.2328L125.291 69.727L128.072 74.3972L127.546 74.3839L128.432 75.0016L128.492 75.1018L128.579 75.104L136.315 80.4983L139.378 85.7122L139.458 85.8471L139.611 85.877L143.928 86.718L144.215 86.11L136.844 80.0287L134.032 75.2419L134.565 75.2554L133.677 74.638L133.618 74.5375L133.529 74.5352L126.441 69.6081L126.568 69.5949L125.728 69.1047L122.497 63.6799L122.382 63.4863L122.159 63.5129L117.264 64.0943L114.04 58.7618L113.91 58.5472L113.666 58.6032L108.173 59.8593L107.21 60.0797L108.1 60.5098ZM54.5248 106.651L54.2037 106.232L53.9464 106.693L51.4509 111.167L50.907 111.137L51.2334 111.557L51.075 111.841L51.4712 111.863L55.1732 116.627L53.519 120.715L52.9829 120.673L53.3482 121.137L53.2461 121.39L53.5666 121.415L57.3954 126.28L57.7723 126.759L57.9916 126.19L59.6497 121.893L60.1748 121.934L59.8133 121.468L59.9102 121.217L59.599 121.193L55.9821 116.538L58.2953 112.242L58.8285 112.272L58.5061 111.851L58.6586 111.568L58.2729 111.546L54.5248 106.651ZM61.7909 130.744L61.339 130.17L61.1798 130.883L60.2711 134.954L59.7665 134.908L60.1686 135.413L60.1187 135.636L60.364 135.659L64.1187 140.379L64.5801 140.959L64.7299 140.233L65.5754 136.135L66.0693 136.18L65.6706 135.674L65.7165 135.451L65.4786 135.43L61.7909 130.744Z" fill="#0C0C0C" stroke="white" stroke-width="0.693723"/>
<path d="M45.5476 111.148L45.8562 111.269L45.9911 110.967L47.9696 106.525L48.1748 106.064L47.6711 106.037L32.2943 105.222L32.1492 105.891L45.5476 111.148Z" fill="#FFDD29" stroke="white" stroke-width="0.693723"/>
<path d="M141.561 81.497L142.128 81.5981L141.154 80.7962L141.104 80.7111L141.035 80.6989L133.637 74.6115L133.117 75.055L135.895 79.7837L135.336 79.6842L136.308 80.4857L136.358 80.5707L136.425 80.5827L143.773 86.645L144.294 86.2033L141.561 81.497ZM113.917 58.6414L113.446 59.1207L116.786 64.6446L116.902 64.8359L117.124 64.8095L122.24 64.2017L123.271 64.0793L122.374 63.5574L113.917 58.6414ZM50.6079 101.536L50.2921 101.124L50.0322 101.573L47.3522 106.21L47.0751 106.69L47.6275 106.73L54.224 107.208L54.9936 107.264L54.5245 106.651L50.6079 101.536Z" fill="#0C0C0C" stroke="white" stroke-width="0.693723"/>
<path d="M32.5939 105.707L31.9738 105.398L24.3464 118.919L24.3272 118.953L24.316 118.991L20.5664 131.607L21.2169 131.844L32.5939 105.707Z" fill="#FFDD29" stroke="white" stroke-width="0.693723"/>
<path d="M57.9405 125.851L57.4982 125.289L57.3307 125.984L56.2862 130.318L56.1943 130.699L56.5841 130.744L61.4789 131.303L62.3051 131.397L61.7908 130.744L57.9405 125.851ZM47.6778 106.038L46.9008 105.981L47.3788 106.597L51.3742 111.739L51.6958 112.152L51.951 111.695L54.5522 107.031L54.8175 106.556L54.2744 106.516L47.6778 106.038Z" fill="#0C0C0C" stroke="white" stroke-width="0.693723"/>
<path d="M146.045 42.094L146.051 41.4006L139.339 41.1419L139.32 41.1412L139.3 41.1426L132.064 41.6863L132.097 42.3789L146.045 42.094Z" fill="#FFDD29" stroke="white" stroke-width="0.693723"/>
<path d="M130.807 69.7523L131.321 69.7568L130.458 69.1586L130.397 69.055L130.308 69.0542L122.459 63.6151L119.159 58.0739L119.042 57.877L118.815 57.9076L113.696 58.5975L112.694 58.7326L113.568 59.2411L121.947 64.112L124.862 69.007L124.355 69.0026L125.216 69.6011L125.277 69.7043L125.366 69.7051L133.207 75.1561L140.617 81.2526L143.694 86.5517L143.757 86.66L143.875 86.7031L147.732 88.1168L148.093 87.5423L141.161 80.8089L138.017 75.3957L137.935 75.2535L137.772 75.2274L133.633 74.5627L130.807 69.7523ZM56.6628 130.055L55.8305 129.96L56.352 130.615L60.1886 135.438L59.9379 139.435L59.9184 139.746L60.2253 139.798L64.3313 140.505L65.228 140.659L64.6616 139.947L60.9178 135.241L61.8568 131.034L61.9408 130.657L61.5576 130.614L56.6628 130.055ZM51.922 111.313L51.5596 110.846L51.3289 111.39L49.5283 115.632L48.9725 115.577L49.3485 116.055L49.2442 116.301L49.5669 116.333L53.4726 121.296L53.8424 121.765L54.0667 121.211L55.7938 116.943L56.3382 116.996L55.966 116.517L56.0651 116.272L55.7519 116.242L51.922 111.313Z" fill="#0C0C0C" stroke="white" stroke-width="0.693723"/>
<path d="M44.1933 115.314L44.5929 115.626L44.739 115.141L46.0066 110.925L46.0986 110.619L45.8011 110.502L32.4028 105.245L32.0626 105.842L44.1933 115.314Z" fill="#FFDD29" stroke="white" stroke-width="0.693723"/>
<path d="M60.6496 139.167L60.8644 135.744L61.4026 135.85L60.8975 135.215L60.9082 135.045L60.7352 135.011L57.0002 130.316L57.9315 126.452L58.471 126.525L58.0444 125.983L58.0949 125.774L57.8536 125.741L54.565 121.562L54.0176 120.866L53.5851 120.317L50.1473 115.948L51.8657 111.9L52.4298 111.966L52.0469 111.474L52.1482 111.235L51.8327 111.198L47.9264 106.171L47.5712 105.714L47.3357 106.242L45.461 110.451L44.8851 110.384L45.2721 110.875L45.1654 111.115L45.4906 111.153L49.3664 116.078L48.2232 120.165L48.1183 120.54L48.5029 120.601L53.3132 121.364L52.3705 124.992L51.8191 124.917L52.2495 125.458L52.1948 125.668L52.4439 125.702L56.2666 130.508L55.9826 134.072L55.4317 133.963L55.9407 134.597L55.9271 134.768L56.106 134.803L59.4404 138.959L60.0134 139.673L60.574 140.372L63.9247 144.549L64.499 145.264L64.5418 144.348L64.7364 140.179L64.7507 139.873L64.4488 139.821L60.6496 139.167ZM129.937 69.6416L129.983 69.7199L133.117 75.0549L133.2 75.1958L133.361 75.2217L137.5 75.8862L140.585 81.1985L140.65 81.3096L140.698 81.3266L147.609 88.0398L148.151 87.618L145.029 82.1913L144.964 82.0793L144.915 82.062L138.749 76.0868L138.929 76.1157L137.986 75.3414L135.148 70.455L135.67 70.5294L134.757 69.7822L134.704 69.6912L134.633 69.6811L127.879 64.1552L128.016 64.1541L127.178 63.5748L127.115 63.4681L123.873 57.9503L123.77 57.7738L123.565 57.7793L118.852 57.9045L117.79 57.9327L118.602 58.4937L121.592 63.5155L121.103 63.5197L121.94 64.0994L122.003 64.2058L122.092 64.205L129.937 69.6416Z" fill="#0C0C0C" stroke="white" stroke-width="0.693723"/>
<path d="M24.981 119.188L24.3232 118.969L21.943 125.416L21.9348 125.438L21.9298 125.461L20.5603 131.631L21.2314 131.805L24.981 119.188Z" fill="#FFDD29" stroke="white" stroke-width="0.693723"/>
<path d="M48.6117 119.916L47.7306 119.777L48.2859 120.475L52.3575 125.593L52.7899 126.137L52.9646 125.465L54.0809 121.168L54.177 120.798L53.7995 120.738L48.6117 119.916ZM144.99 82.1364L144.428 82.5373L147.55 87.964L147.596 88.0427L147.674 88.0891L151.014 90.076L151.453 89.5499L144.99 82.1364Z" fill="#0C0C0C" stroke="white" stroke-width="0.693723"/>
<path d="M146.242 42.0274L145.858 41.4506L118.681 57.9547L117.565 58.6326L118.87 58.5979L123.584 58.4727L123.692 58.4699L123.779 58.4063L146.242 42.0274Z" fill="#FFDD29" stroke="white" stroke-width="0.693723"/>
<path d="M60.5546 139.239L59.7912 138.288L56.6543 134.378L56.9375 130.824L57.5054 130.951L56.9801 130.29L56.9932 130.126L56.8185 130.087L52.9003 125.161L52.367 124.491L52.2837 125.344L51.9265 128.998L51.3452 128.869L51.8747 129.529L51.8586 129.694L52.0394 129.734L55.9635 134.625L56.3611 138.321L56.3851 138.544L56.598 138.613L59.9666 139.717L60.3468 142.815L59.7817 142.645L60.4236 143.44L60.4391 143.567L60.5533 143.601L64.458 148.437L65.2406 149.407L65.0716 148.172L64.6123 144.819L65.1637 144.984L64.5261 144.189L64.5088 144.063L64.3985 144.03L61.2847 140.149L60.5546 139.239ZM148.272 84.0071L141.829 76.6305L141.78 76.5452L141.73 76.5285L134.765 69.795L131.849 64.7742L132.349 64.836L131.466 64.1157L131.412 64.0213L131.34 64.0125L123.794 57.8572L123.275 58.3017L126.263 63.3863L125.77 63.3256L126.65 64.0458L126.705 64.1399L126.776 64.1486L134.221 70.2395L137.417 75.744L137.484 75.8579L137.533 75.8742L144.452 82.5795L144.474 82.6182L144.505 82.6359L150.93 90.0057L151.493 89.6057L148.35 84.1066L148.303 84.0251L148.272 84.0071ZM45.9468 110.611L45.5342 110.086L45.3421 110.725L44.1635 114.644L43.5622 114.536L44.0222 115.114L43.9624 115.313L44.2165 115.359L48.2859 120.475L48.7085 121.006L48.8914 120.352L49.997 116.399L50.5853 116.505L50.1294 115.926L50.1847 115.728L49.9391 115.684L45.9468 110.611Z" fill="#0C0C0C" stroke="white" stroke-width="0.693723"/>
<path d="M146.273 42.0018L145.834 41.4668L123.37 57.8457L122.64 58.3781L123.539 58.471L127.807 58.9126L127.963 58.9288L128.079 58.8223L146.273 42.0018Z" fill="#FFDD29" stroke="white" stroke-width="0.693723"/>
<path d="M145.066 78.3983L138.584 70.9916L138.534 70.9033L135.293 65.2716L135.223 65.1504L135.089 65.1115L131.428 64.0501L128.143 58.3934L128.054 58.2408L127.879 58.2226L123.61 57.781L122.457 57.6617L123.355 58.3948L130.93 64.5734L134.189 70.1851L134.257 70.302L134.307 70.3177L141.269 77.0485L141.293 77.0893L141.324 77.1067L147.765 84.4809L150.891 89.9499L150.917 89.996L150.956 90.0321L153.716 92.5924L154.232 92.1331L148.34 84.0896L145.145 78.4998L145.097 78.416L145.066 78.3983ZM56.8141 137.954L55.6992 137.589L56.4362 138.502L60.4481 143.471L61.6477 146.917L61.6933 147.047L61.7518 147.078L65.734 151.991L66.3299 151.655L65.0545 148.102L65.0083 147.974L64.9519 147.945L61.0881 143.159L60.6284 139.414L60.6016 139.195L60.3922 139.127L56.8141 137.954ZM48.8289 120.043L48.3097 119.39L48.2129 120.219L47.7913 123.827L47.1784 123.675L47.7288 124.362L47.7102 124.521L47.8931 124.566L51.8978 129.558L52.2309 133.201L52.2511 133.422L52.4605 133.496L56.1818 134.814L57.3314 135.222L56.5682 134.27L52.5927 129.315L52.9352 125.81L53.5339 125.958L52.9878 125.271L53.0034 125.112L52.8268 125.069L48.8289 120.043Z" fill="#0C0C0C" stroke="white" stroke-width="0.693723"/>
<path d="M146.307 41.9653L145.802 41.4926L127.608 58.313L127.146 58.7398L127.753 58.9027L131.528 59.916L131.746 59.9745L131.888 59.7991L146.307 41.9653Z" fill="#FFDD29" stroke="white" stroke-width="0.693723"/>
<path d="M128.083 58.3176L127.543 58.7418L130.898 64.5187L130.968 64.6389L131.101 64.6776L134.896 65.7777L135.233 65.1945L128.083 58.3176ZM52.692 132.842L51.5356 132.432L52.3063 133.387L56.397 138.453L57.5382 141.845L57.5817 141.974L57.7016 142.039L60.5904 143.605L61.0256 143.082L57.0399 138.145L56.6423 134.45L56.619 134.233L56.4133 134.161L52.692 132.842ZM44.678 114.825L44.1731 114.19L44.0629 114.993L43.5744 118.553L42.9286 118.379L43.5005 119.091L43.4793 119.246L43.6647 119.296L47.8195 124.475L48.3383 125.121L48.4345 124.298L48.8551 120.698L49.4859 120.869L48.9185 120.156L48.9365 120.002L48.7578 119.954L44.678 114.825ZM151.083 86.5975L151.056 86.5498L151.041 86.5361L145.124 78.4668L144.543 78.844L147.747 84.4508L147.775 84.4983L147.789 84.5117L153.672 92.543L154.253 92.1664L151.083 86.5975Z" fill="#0C0C0C" stroke="white" stroke-width="0.693723"/>
<path d="M157.472 45.1316L157.679 44.4701L152.266 42.5115L152.238 42.5014L152.209 42.4962L146.099 41.4056L145.949 42.0824L157.472 45.1316Z" fill="#FFDD29" stroke="white" stroke-width="0.693723"/>
<path d="M141.877 72.782L141.828 72.6957L141.796 72.6783L135.276 65.2418L131.919 59.4078L131.847 59.2831L131.708 59.2458L127.933 58.2326L127.603 58.8176L134.716 65.6603L138 71.3672L138.05 71.4529L138.081 71.47L144.583 78.9004L145.145 78.4998L141.877 72.782ZM58.0324 141.429L57.5976 141.952L61.7059 147.021L62.3029 146.688L61.0835 143.186L61.0393 143.059L60.9212 142.995L58.0324 141.429ZM48.3607 124.041L47.6616 123.169L47.7443 124.283L48.0184 127.978L48.0347 128.198L48.2411 128.276L52.1105 129.746L53.3017 130.199L52.5043 129.205L48.3607 124.041Z" fill="#0C0C0C" stroke="white" stroke-width="0.693723"/>
<path d="M44.7197 115.19L44.8394 114.939L44.6201 114.767L32.4894 105.295L32.0035 104.916L31.9314 105.528L26.4709 151.925L27.1285 152.114L44.7197 115.19Z" fill="#FFDD29" stroke="white" stroke-width="0.693723"/>
<path d="M48.4873 127.628L47.2889 127.173L48.0943 128.17L52.3063 133.387L53.0259 134.278L52.9216 133.138L52.579 129.391L52.5593 129.175L52.3568 129.098L48.4873 127.628Z" fill="#0C0C0C" stroke="white" stroke-width="0.693723"/>
<path d="M32.6205 105.609L31.9579 105.43L20.5809 131.567L20.5308 131.683L20.566 131.803L26.4825 152.062L27.1599 152.006L32.6205 105.609ZM146.338 41.9205L145.768 41.5292L131.348 59.3629L131.076 59.7001L131.465 59.892L134.689 61.4835L134.98 61.6274L135.143 61.3456L146.338 41.9205Z" fill="#FFDD29" stroke="white" stroke-width="0.693723"/>
<path d="M147.847 80.9136L147.822 80.8685L147.806 80.8549L141.868 72.765L138.544 66.9501L138.493 66.861L138.46 66.844L131.879 59.352L131.317 59.754L134.692 65.6177L134.743 65.7061L134.775 65.7228L141.292 73.1567L144.543 78.8442L144.571 78.8931L144.586 78.9064L150.49 86.9583L153.65 92.5098L153.657 92.521L153.664 92.5318L155.771 95.6642L156.136 95.4306L156.36 95.2991L153.156 89.6643L153.149 89.6526L153.146 89.6485L147.847 80.9136ZM59.5635 145.03L61.7068 147.027L63.6684 150.09L63.6928 150.128L63.7074 150.141L67.7691 155.146L68.3299 154.739L66.2949 151.584L66.2707 151.547L66.2567 151.534L62.2448 146.584L58.1759 141.564L57.0348 138.173L56.9926 138.048L56.9346 138.015L52.8462 132.951L52.2464 133.276L53.3463 136.671L53.3879 136.799L53.4481 136.833L57.585 141.937L59.5072 144.962L59.531 145L59.5635 145.03ZM44.1352 118.774L43.4581 117.93L43.5183 119.01L43.6906 122.104L42.9566 121.807L43.7273 122.761L43.7333 122.869L43.8539 122.918L48.0944 128.17L48.7924 129.035L48.7102 127.927L48.4774 124.789L49.1931 125.078L48.4281 124.125L48.4201 124.017L48.3041 123.97L44.1352 118.774Z" fill="#0C0C0C" stroke="white" stroke-width="0.693723"/>
<path d="M146.36 41.8752L145.737 41.5739L134.541 60.999L134.396 61.2517L134.62 61.4385L137.227 63.6151L137.595 63.9221L137.772 63.477L146.36 41.8752Z" fill="#FFDD29" stroke="white" stroke-width="0.693723"/>
<path d="M144.551 75.1236L144.522 75.0727L144.507 75.0592L138.534 66.933L135.143 61.0005L135.091 60.9084L134.996 60.8615L131.771 59.2701L131.357 59.8101L137.959 67.325L141.275 73.1266L141.304 73.1771L141.319 73.1904L147.268 81.2948L147.85 80.9179L144.551 75.1236ZM60.0362 144.523L59.5304 144.995L63.6909 150.122L64.2524 149.716L62.2672 146.616L62.2436 146.579L62.2115 146.549L60.0362 144.523ZM48.6339 127.734L48.0328 128.055L49.069 131.392L49.1086 131.519L49.17 131.556L53.4066 136.782L54.0061 136.457L52.9061 133.062L52.8657 132.938L52.8067 132.903L48.6339 127.734Z" fill="#0C0C0C" stroke="white" stroke-width="0.693723"/>
<path d="M21.2452 131.689L20.5523 131.688L20.2506 137.512L20.2488 137.547L20.2542 137.583L21.0882 142.974L21.7774 142.904L21.2452 131.689Z" fill="#FFDD29" stroke="white" stroke-width="0.693723"/>
<path d="M149.886 83.9149L149.879 83.9029L149.877 83.8988L144.546 75.1149L143.948 75.4665L147.247 81.2608L147.254 81.2728L147.256 81.2768L152.558 90.0155L153.156 89.6641L149.886 83.9149ZM53.9457 136.345L53.3827 136.749L55.2608 139.73L55.2841 139.767L55.3159 139.797L57.6286 141.986L58.1365 141.516L53.9457 136.345Z" fill="#0C0C0C" stroke="white" stroke-width="0.693723"/>
<path d="M165.645 51.7934L166.017 51.2129L157.779 44.527L157.721 44.48L157.649 44.461L146.126 41.4118L145.884 42.0583L165.645 51.7934Z" fill="#FFDD29" stroke="white" stroke-width="0.693723"/>
<path d="M141.185 69.2112L141.156 69.1586L141.14 69.1452L135.121 60.9669L134.541 61.3446L137.941 67.2944L137.971 67.3467L137.987 67.3599L143.97 75.5005L144.551 75.1235L141.185 69.2112ZM55.7926 139.293L55.2848 139.764L59.5304 144.995L60.0925 144.59L58.1596 141.548L58.1365 141.512L58.1053 141.482L55.7926 139.293ZM44.337 122.412L43.7345 122.729L44.7042 126.004L44.7419 126.131L44.855 126.201L48.1823 128.248L48.6339 127.734L44.337 122.412Z" fill="#0C0C0C" stroke="white" stroke-width="0.693723"/>
<path d="M146.372 41.8389L145.715 41.6192L137.127 63.2209L137.058 63.3937L137.164 63.5465L139.081 66.3145L139.504 66.9259L139.7 66.2086L146.372 41.8389Z" fill="#FFDD29" stroke="white" stroke-width="0.693723"/>
<path d="M45.2188 125.61L44.7675 126.124L49.131 131.507L49.7317 131.186L48.6955 127.849L48.6569 127.725L48.546 127.657L45.2188 125.61ZM146.55 78.0481L146.543 78.0357L146.54 78.0316L141.181 69.2029L140.583 69.5545L143.948 75.4667L143.955 75.4791L143.958 75.4831L149.288 84.2666L149.886 83.9152L146.55 78.0481Z" fill="#0C0C0C" stroke="white" stroke-width="0.693723"/>
<path d="M44.1727 119.15L44.2001 119.097L44.2082 119.038L44.7503 115.088L44.0935 114.891L26.5023 151.816L27.1235 152.124L44.1727 119.15Z" fill="#FFDD29" stroke="white" stroke-width="0.693723"/>
<path d="M49.6698 131.07L49.1061 131.472L50.9267 134.39L50.9496 134.426L50.9652 134.441L55.2849 139.764L55.8477 139.36L53.9697 136.379L53.9471 136.343L53.932 136.329L49.6698 131.07ZM137.751 63.1775L137.72 63.123L137.672 63.0828L135.064 60.9062L134.563 61.3781L140.605 69.5885L141.186 69.2113L137.751 63.1775Z" fill="#0C0C0C" stroke="white" stroke-width="0.693723"/>
<path d="M146.378 41.8151L145.703 41.6557L139.031 66.0254L139.003 66.128L139.037 66.2288L140.182 69.5917L140.598 70.8145L140.85 69.5478L146.378 41.8151Z" fill="#FFDD29" stroke="white" stroke-width="0.693723"/>
<path d="M143.144 72.0592L143.137 72.0464L143.134 72.0422L137.746 63.1688L137.148 63.5204L140.583 69.5542L140.59 69.567L140.593 69.571L145.952 78.3993L146.55 78.0478L143.144 72.0592ZM45.3064 125.687L44.7418 126.087L46.5021 128.937L46.5246 128.974L46.5553 129.004L49.1585 131.537L49.6698 131.07L45.3064 125.687Z" fill="#0C0C0C" stroke="white" stroke-width="0.693723"/>
<path d="M44.3663 122.806L44.4195 122.716L44.4137 122.611L44.2109 118.972L44.1403 117.703L43.5565 118.832L26.5073 151.806L27.1144 152.141L44.3663 122.806Z" fill="#FFDD29" stroke="white" stroke-width="0.693723"/>
<path d="M47.0392 128.507L46.5279 128.974L50.9517 134.424L51.5152 134.022L49.6946 131.105L49.6724 131.069L49.6423 131.04L47.0392 128.507Z" fill="#0C0C0C" stroke="white" stroke-width="0.693723"/>
<path d="M21.2316 131.608L20.5522 131.722L21.0845 142.937L21.0886 143.023L21.1329 143.098L26.5172 152.142L27.1482 151.867L21.2316 131.608ZM165.58 51.7515L166.05 51.2428L162.408 47.4242L162.378 47.3924L162.341 47.3692L157.744 44.5019L157.342 45.0656L165.58 51.7515ZM146.38 41.8036L145.697 41.6792L140.17 69.4119L140.161 69.4579L140.164 69.5047L140.449 73.4624L141.138 73.494L146.38 41.8036Z" fill="#FFDD29" stroke="white" stroke-width="0.693723"/>
<path d="M139.667 65.9453L139.66 65.932L139.651 65.9194L137.734 63.1514L137.153 63.5289L142.546 72.4108L143.144 72.0593L139.667 65.9453Z" fill="#0C0C0C" stroke="white" stroke-width="0.693723"/>
<path d="M45.321 126.104L45.4168 125.967L45.3694 125.807L44.3997 122.532L44.173 121.766L43.7681 122.454L26.5162 151.789L27.0995 152.164L45.321 126.104Z" fill="#FFDD29" stroke="white" stroke-width="0.693723"/>
<path d="M45.7402 172.744L45.2441 173.228L49.6752 178.215L49.6971 178.24L49.7233 178.26L54.7982 182.154L55.2461 181.625L45.7402 172.744Z" fill="#0C0C0C" stroke="white" stroke-width="0.693723"/>
<path d="M146.38 41.803L145.695 41.6905L145.695 41.6913L140.453 73.3809L140.453 73.3809L140.452 73.3874L139.788 77.9278L139.787 77.9334L140.473 78.0394L140.474 78.0338L146.38 41.8038L146.38 41.803ZM47.06 128.981L47.2257 128.789L47.0922 128.573L45.3319 125.723L45.0547 125.274L44.7525 125.706L26.5309 151.766L27.0781 152.191L47.06 128.981Z" fill="#FFDD29" stroke="white" stroke-width="0.693723"/>
<path d="M181.475 81.2601L180.829 81.4998L182.265 87.4146L182.17 87.434L182.36 87.8048L182.429 88.0892L182.499 88.075L185.488 93.889L186.133 93.6464L184.634 87.6415L184.727 87.6227L184.537 87.2512L184.466 86.9677L184.399 86.9814L181.475 81.2601ZM41.2157 167.652L40.7198 168.136L45.2442 173.228L45.2668 173.253L45.2798 173.263L54.7726 182.132L55.2692 181.649L50.774 176.57L50.7513 176.545L50.738 176.534L41.2157 167.652Z" fill="#0C0C0C" stroke="white" stroke-width="0.693723"/>
<path d="M21.729 142.743L21.1113 143.055L23.1569 147.909L23.1755 147.953L23.2053 147.99L26.5439 152.181L27.1132 151.788L21.729 142.743Z" fill="#FFDD29" stroke="white" stroke-width="0.693723"/>
<path d="M178.366 75.1781L177.72 75.4155L179.173 81.5831L179.24 81.865L179.529 81.85L181.184 81.7641L181.718 81.7363L181.475 81.2598L178.366 75.1781Z" fill="#0C0C0C" stroke="white" stroke-width="0.693723"/>
<path d="M49.6072 131.367L49.8841 131.111L49.606 130.856L47.0314 128.499L46.7676 128.258L46.5343 128.529L26.5524 151.739L27.0507 152.22L49.6072 131.367Z" fill="#FFDD29" stroke="white" stroke-width="0.693723"/>
<path d="M36.5947 162.451L36.099 162.935L40.7197 168.136L40.7429 168.162L40.7709 168.183L45.7137 171.889L46.1582 171.358L36.5947 162.451Z" fill="#0C0C0C" stroke="white" stroke-width="0.693723"/>
<path d="M167.029 77.1663L167.672 76.9662L166.145 51.4616L166.133 51.2602L165.952 51.1711L146.191 41.436L145.128 40.9124L145.741 41.9265L167.029 77.1663Z" fill="#FFDD29" stroke="white" stroke-width="0.693723"/>
<path d="M46.1815 171.382L46.1581 171.355L46.1299 171.334L41.1871 167.628L40.7424 168.159L50.2654 177.042L54.7496 182.108L54.7978 182.163L54.8639 182.193L61.2987 185.165L61.6499 184.571L50.7495 176.542L46.1815 171.382ZM179.493 81.1572L178.957 81.185L179.202 81.6622L182.379 87.8412L183.024 87.6007L181.503 81.3358L181.435 81.0564L181.148 81.0713L179.493 81.1572ZM175.191 68.9663L174.544 69.2013L175.926 75.266L175.983 75.5138L176.236 75.5346L178.029 75.6817L178.649 75.7326L178.366 75.1781L175.191 68.9663Z" fill="#0C0C0C" stroke="white" stroke-width="0.693723"/>
<path d="M52.987 133.181L53.4347 132.853L52.9429 132.594L49.5329 130.805L49.316 130.691L49.1362 130.857L26.5797 151.71L27.0205 152.245L52.987 133.181Z" fill="#FFDD29" stroke="white" stroke-width="0.693723"/>
<path d="M31.8742 157.139L31.3788 157.623L36.0989 162.935L36.1229 162.962L36.1361 162.972L45.6853 171.865L46.1814 171.382L41.4887 166.08L41.4645 166.053L41.4509 166.043L31.8742 157.139ZM182.996 87.5242L182.34 87.6872L182.433 94.9487L182.44 95.4552L182.909 95.2661L185.926 94.0521L186.279 93.9101L186.105 93.5718L182.996 87.5242ZM176.293 74.8433L175.671 74.7923L175.956 75.3476L179.202 81.6623L179.848 81.4242L178.395 75.2565L178.337 75.011L178.085 74.9904L176.293 74.8433Z" fill="#0C0C0C" stroke="white" stroke-width="0.693723"/>
<path d="M167.338 77.3338L167.927 77.3122L167.622 76.8078L146.334 41.568L145.847 40.7609L145.695 41.6915L139.788 77.928L139.72 78.3459L140.143 78.3304L167.338 77.3338Z" fill="#FFDD29" stroke="white" stroke-width="0.693723"/>
<path d="M46.1269 171.332L45.6619 171.842L50.2542 177.03L50.3037 177.086L50.338 177.101L61.2383 185.129L61.7047 184.621L57.1631 179.443L57.1134 179.386L57.0781 179.371L46.1269 171.332ZM182.65 94.6226L182.296 94.7654L182.472 95.1046L185.661 101.23L186.315 101.062L186.143 93.7224L186.131 93.2218L185.667 93.4087L182.65 94.6226ZM171.947 62.6207L171.3 62.8529L172.607 68.8086L172.656 69.0295L172.878 69.0742L174.814 69.4645L175.518 69.6065L175.191 68.9666L171.947 62.6207ZM27.0511 151.711L26.5558 152.195L31.3786 157.623L31.4034 157.651L31.4335 157.673L36.2278 161.171L36.6682 160.637L27.0511 151.711Z" fill="#0C0C0C" stroke="white" stroke-width="0.693723"/>
<path d="M57.2207 134.342L57.9294 133.922L57.1337 133.709L52.8715 132.567L52.7106 132.524L52.5764 132.622L26.6099 151.685L26.992 152.263L57.2207 134.342Z" fill="#FFDD29" stroke="white" stroke-width="0.693723"/>
<path d="M36.6923 160.661L36.6674 160.633L36.637 160.611L31.8427 157.112L31.4021 157.647L40.9929 166.564L41.4889 166.08L36.6923 160.661ZM179.819 81.3452L179.164 81.5042L179.174 88.6826L179.174 89.1552L179.625 89.013L182.792 88.0135L183.184 87.8898L182.996 87.5242L179.819 81.3452Z" fill="#0C0C0C" stroke="white" stroke-width="0.693723"/>
<path d="M169.226 62.2495L169.893 62.0628L168.664 56.2224L168.654 56.1753L168.631 56.1327L166.106 51.3212L165.472 51.5977L169.226 62.2495Z" fill="#FFDD29" stroke="white" stroke-width="0.693723"/>
<path d="M173.236 68.4388L172.105 63.2856L172.321 63.3525L171.968 62.6604L171.934 62.5067L171.881 62.4902L168.633 56.136L167.985 56.3653L169.092 61.6288L168.868 61.5593L169.223 62.2513L169.256 62.4053L169.311 62.4225L172.308 68.2516L172.597 68.8141L172.431 75.7211L172.421 76.1358L172.831 76.0723L175.913 75.5945L175.843 82.0029L175.673 82.0426L175.839 82.362L175.835 82.7171L176.003 82.6778L179.022 88.4758L179.212 88.8424L182.417 94.9984L180.936 102.952L180.764 103.03L180.881 103.25L180.782 103.783L181.09 103.644L184.223 109.543L184.698 110.437L184.871 109.439L186.279 101.311L186.446 101.235L186.33 101.014L186.422 100.486L186.125 100.619L183.126 94.8574L183.034 87.6784L183.028 87.2115L182.583 87.352L179.866 88.2093L179.858 81.779L180.022 81.7406L179.857 81.4197L179.857 81.0669L179.695 81.1046L176.793 75.4582L176.593 75.0694L175.22 69.0473L175.17 68.8287L174.951 68.7844L173.236 68.4388ZM45.7127 171.899L45.7474 171.914L56.6666 179.929L56.7159 179.985L61.1832 185.079L61.256 185.162L61.3633 185.187L69.2006 187.06L69.3121 186.778L69.5437 186.496L64.9771 181.21L64.9024 181.124L64.841 181.11L52.482 174.106L52.4697 174.092L47.7741 168.738L47.7216 168.678L47.6852 168.663L36.667 160.633L31.7882 155.121L31.7624 155.092L31.7308 155.069L27.0175 151.683L26.5792 152.219L36.1838 161.133L40.9691 166.54L41.0213 166.599L45.6619 171.842L45.7127 171.899Z" fill="#0C0C0C" stroke="white" stroke-width="0.693723"/>
<path d="M26.9786 151.659L26.6129 152.246L31.3262 155.632L31.3615 155.657L31.4019 155.673L37.5663 158.092L37.8564 157.464L26.9786 151.659Z" fill="#FFDD29" stroke="white" stroke-width="0.693723"/>
<path d="M31.7323 155.07L31.2688 155.58L36.1726 161.121L36.2263 161.181L36.2622 161.196L47.3091 169.247L47.7742 168.738L42.9197 163.203L42.8658 163.141L42.8288 163.126L31.7323 155.07ZM179.828 88.522L179.373 87.6484L179.18 88.6142L177.544 96.7993L177.419 97.4224L178.011 97.1901L182.907 95.2671L183.266 95.1261L183.088 94.7841L179.828 88.522ZM172.724 75.3867L172.247 75.4607L172.47 75.8896L175.879 82.439L176.534 82.2826L176.611 75.1928L176.616 74.7836L176.211 74.8462L172.724 75.3867Z" fill="#0C0C0C" stroke="white" stroke-width="0.693723"/>
<path d="M166.979 77.0078L167.669 77.0386L169.896 62.1857L169.909 62.1003L169.881 62.0189L166.126 51.3671L165.453 51.5031L166.979 77.0078Z" fill="#FFDD29" stroke="white" stroke-width="0.693723"/>
<path d="M47.6839 168.665L47.2528 169.196L51.9995 174.608L52.0755 174.694L52.1358 174.707L64.4916 181.709L69.019 186.95L69.1142 187.06L69.2595 187.069L78.5193 187.658L78.677 186.993L64.9247 181.149L60.3068 175.804L60.2305 175.716L60.1683 175.702L47.6839 168.665ZM177.757 96.5447L177.395 96.6868L177.578 97.0302L180.866 103.221L177.668 111.988L177.397 112.732L178.128 112.427L184.663 109.7L185.014 109.554L184.836 109.217L181.608 103.139L183.121 95.008L183.236 94.393L182.653 94.6217L177.757 96.5447ZM169.862 61.9758L169.257 60.7998L169.207 62.1211L168.955 68.7082L168.741 68.7254L168.94 69.1078L168.928 69.4063L169.088 69.3934L172.47 75.8898L173.125 75.738L173.286 69.0549L173.493 69.0382L173.295 68.6543L173.302 68.3576L173.149 68.37L169.862 61.9758ZM176.495 82.1189L176.05 81.2645L175.848 82.2063L174.107 90.3213L173.979 90.9177L174.557 90.7227L179.631 89.0111L180.015 88.8816L179.828 88.5223L176.495 82.1189ZM37.9539 157.541L37.8984 157.478L37.8199 157.447L31.6554 155.028L31.3249 155.631L42.4553 163.713L42.9199 163.203L37.9539 157.541Z" fill="#0C0C0C" stroke="white" stroke-width="0.693723"/>
<path d="M167.397 77.3263L167.313 76.6404L140.118 77.637L139.878 77.6458L139.801 77.8739L138.094 82.994L137.903 83.5685L138.495 83.4431L167.397 77.3263Z" fill="#FFDD29" stroke="white" stroke-width="0.693723"/>
<path d="M42.8285 163.129L42.3981 163.66L47.2526 169.195L47.3304 169.284L47.3915 169.296L59.8212 176.303L64.4522 181.664L64.5491 181.776L64.6356 181.78L78.4055 187.631L78.8061 187.088L74.2398 181.686L74.1427 181.571L74.0535 181.566L60.2537 175.742L55.5286 170.273L55.4505 170.182L55.3875 170.17L42.8285 163.129ZM174.335 90.0652L173.948 90.1958L174.14 90.5566L177.578 97.03L178.033 97.8885L178.224 96.9353L179.86 88.7503L179.978 88.1618L179.409 88.3536L174.335 90.0652ZM177.86 111.786L177.505 111.935L177.689 112.273L181.086 118.496L181.459 119.18L181.718 118.444L184.857 109.495L185.114 108.76L184.396 109.06L177.86 111.786ZM173.085 75.5694L172.651 74.7345L172.44 75.6517L170.589 83.6911L170.458 84.2625L171.022 84.1027L176.281 82.6127L176.691 82.4966L176.495 82.1188L173.085 75.5694Z" fill="#0C0C0C" stroke="white" stroke-width="0.693723"/>
<path d="M26.9003 151.628L26.652 152.271L37.5297 158.076L37.5946 158.11L37.6679 158.115L54.5823 159.341L54.6925 158.659L26.9003 151.628ZM138.351 82.7643L138.188 82.799L138.113 82.9486L135.369 88.4382L134.978 89.2198L135.798 88.9189L167.445 77.3126L167.254 76.6476L138.351 82.7643Z" fill="#FFDD29" stroke="white" stroke-width="0.693723"/>
<path d="M178.19 96.7044L177.831 96.0283L177.56 96.7441L174.249 105.468L174.023 105.554L174.137 105.764L173.921 106.334L174.358 106.169L177.69 112.273L178.057 112.946L178.32 112.225L181.516 103.462L181.735 103.379L181.623 103.168L181.829 102.602L181.407 102.762L178.19 96.7044ZM37.8619 157.467L37.4323 157.998L42.3982 163.66L42.4779 163.751L42.5398 163.762L55.0434 170.772L59.7817 176.257L59.8803 176.371L59.9677 176.374L73.7636 182.197L78.2763 187.536L78.3916 187.672L78.5696 187.658L88.8991 186.81L88.9721 186.132L74.174 181.608L69.5672 176.157L69.4684 176.04L69.3783 176.037L55.4753 170.211L50.6392 164.613L50.5593 164.52L50.4955 164.509L37.8619 157.467ZM170.833 83.435L170.42 83.5521L170.621 83.9314L174.14 90.5564L174.586 91.3962L174.785 90.4664L176.526 82.3515L176.647 81.7879L176.092 81.945L170.833 83.435Z" fill="#0C0C0C" stroke="white" stroke-width="0.693723"/>
<path d="M169.21 62.0827L167.013 76.7322L135.559 88.2677L135.451 88.3072L135.389 88.4033L131.716 94.0087L131.026 95.0624L132.158 94.5106L167.477 77.2988L167.354 77.0091L167.662 77.0701L169.626 69.112L169.635 69.0776L169.636 69.0422L169.9 62.1474L169.21 62.0827ZM57.1278 133.707L56.9895 133.673L56.867 133.745L26.6383 151.666L26.8497 152.31L99.7046 145.01L99.7539 144.328L57.1278 133.707Z" fill="#FFDD29" stroke="white" stroke-width="0.693723"/>
<path d="M178.299 111.94L177.99 111.376L177.688 111.944L172.878 120.971L172.615 121.064L172.725 121.258L172.395 121.878L172.961 121.677L176.336 127.66L176.651 128.218L176.946 127.649L181.635 118.611L181.89 118.521L181.783 118.326L182.103 117.71L181.553 117.904L178.299 111.94ZM169.597 68.8689L169.173 68.0539L168.953 68.946L167.04 76.6971L166.807 76.7508L166.957 77.0328L166.854 77.452L167.144 77.385L170.621 83.9317L171.057 84.7525L171.266 83.8468L173.067 76.0188L173.292 75.9669L173.144 75.6828L173.24 75.267L172.961 75.3313L169.597 68.8689ZM174.752 90.2313L174.4 89.5672L174.123 90.2666L170.697 98.9416L170.458 99.0225L170.578 99.242L170.362 99.7877L170.795 99.6406L174.214 105.904L174.575 106.566L174.843 105.861L178.15 97.1433L178.382 97.0648L178.264 96.8436L178.469 96.3024L178.052 96.4441L174.752 90.2313ZM84.6005 180.721L84.4836 180.579L84.3681 180.59L69.5011 176.079L64.7844 170.499L64.6838 170.38L64.5928 170.378L50.5857 164.551L45.6347 158.82L45.5527 158.725L45.4291 158.704L37.75 157.428L37.5242 158.073L50.1544 165.113L55.0037 170.726L55.1042 170.843L55.1924 170.845L69.0913 176.669L73.7101 182.134L73.827 182.272L73.9391 182.261L88.7693 186.796L89.8684 187.132L89.1388 186.244L84.6005 180.721Z" fill="#0C0C0C" stroke="white" stroke-width="0.693723"/>
<path d="M131.855 93.8871L131.785 93.9211L131.736 93.9815L127.215 99.6023L127.658 100.121L167.498 77.2881L167.174 76.6753L131.855 93.8871ZM62.2585 134.121L62.2273 134.112L62.1951 134.11L57.0717 133.698L56.9601 134.381L99.579 144.999L99.5862 145.001L99.7612 144.33L99.754 144.328L62.2585 134.121Z" fill="#FFDD29" stroke="white" stroke-width="0.693723"/>
<path d="M84.4035 180.602L83.4387 180.4L84.0645 181.162L88.6027 186.685L88.7363 186.847L88.9421 186.804L99.8424 184.511L99.842 183.832L84.4035 180.602ZM174.823 105.572L174.519 105.015L174.214 105.571L169.214 114.702L168.794 115.47L169.626 115.199L178.102 112.436L178.499 112.307L178.299 111.94L174.823 105.572Z" fill="#0C0C0C" stroke="white" stroke-width="0.693723"/>
<path d="M127.313 99.5187L127.269 99.5438L127.234 99.5803L121.959 105.111L122.395 105.644L167.51 77.2808L167.153 76.6862L127.313 99.5187Z" fill="#FFDD29" stroke="white" stroke-width="0.693723"/>
<path d="M171.234 83.6061L170.888 82.9542L170.607 83.6367L166.996 92.4104L166.718 93.085L167.417 92.8745L174.546 90.7258L174.95 90.604L174.752 90.231L171.234 83.6061ZM169.411 114.539L169.008 114.67L169.216 115.039L172.818 121.424L173.129 121.974L173.426 121.416L178.3 112.269L178.705 111.51L177.887 111.777L169.411 114.539ZM79.9543 175.067L79.8357 174.923L79.7194 174.935L64.6194 170.39L63.4997 170.053L64.2545 170.946L69.0374 176.605L69.1559 176.745L69.2688 176.733L84.2318 181.273L85.3273 181.606L84.6005 180.721L79.9543 175.067Z" fill="#0C0C0C" stroke="white" stroke-width="0.693723"/>
<path d="M37.7182 157.424L37.6362 158.112L45.3153 159.389L45.3445 159.393L45.3741 159.393L54.6094 159.342L54.6325 158.649L37.7182 157.424Z" fill="#FFDD29" stroke="white" stroke-width="0.693723"/>
<path d="M45.5046 158.726L45.1098 159.273L50.1144 165.066L50.2168 165.185L50.3735 165.187L59.6193 165.276L59.755 164.608L45.5046 158.726Z" fill="#0C0C0C" stroke="white" stroke-width="0.693723"/>
<path d="M122.026 105.056L122 105.072L121.978 105.092L116.06 110.424L116.484 110.971L167.51 77.2806L167.517 77.2764L167.141 76.6933L167.135 76.6975L122.026 105.056ZM68.2616 133.723L68.1963 133.701L68.1275 133.705L62.1441 134.109L62.0764 134.79L99.5791 144.999L99.7809 144.336L68.2616 133.723Z" fill="#FFDD29" stroke="white" stroke-width="0.693723"/>
<path d="M59.8874 164.705L59.7848 164.584L59.6258 164.582L50.38 164.493L50.2435 165.16L64.3862 171.043L64.7843 170.499L59.8874 164.705ZM167.217 92.2104L166.808 92.3337L167.012 92.7087L170.656 99.3844L171.01 100.035L171.283 99.3457L174.768 90.5213L175.032 89.855L174.346 90.0618L167.217 92.2104ZM173.422 121.083L173.151 120.602L172.836 121.055L166.433 130.244L165.866 131.058L166.817 130.775L176.737 127.821L177.154 127.697L176.94 127.319L173.422 121.083Z" fill="#0C0C0C" stroke="white" stroke-width="0.693723"/>
<path d="M116.101 110.393L116.09 110.4L116.079 110.409L109.642 115.434L110.05 115.995L167.517 77.2766L167.519 77.2748L167.134 76.6977L167.132 76.6995L116.101 110.393Z" fill="#FFDD29" stroke="white" stroke-width="0.693723"/>
<path d="M166.619 130.11L166.195 130.236L166.419 130.618L170.067 136.842L170.344 137.314L170.653 136.862L176.925 127.685L177.476 126.878L176.539 127.157L166.619 130.11Z" fill="#0C0C0C" stroke="white" stroke-width="0.693723"/>
<path d="M109.662 115.419L109.661 115.42L102.842 120.032L102.841 120.032L102.84 120.033L103.228 120.608L103.229 120.607L167.519 77.2746L167.519 77.2746L167.326 76.9869L167.132 76.6993L167.132 76.6993L167.127 76.7023L109.662 115.419Z" fill="#FFDD29" stroke="white" stroke-width="0.693723"/>
<path d="M95.559 178.314L95.4243 178.144L95.2854 178.175L79.7569 174.948L78.7938 174.748L79.4183 175.508L84.0645 181.162L84.1994 181.326L84.3343 181.296L99.6999 184.511L100.64 184.708L100.043 183.956L95.559 178.314ZM171.265 99.0521L170.965 98.503L170.658 99.0481L165.527 108.16L165.106 108.908L165.928 108.662L174.617 106.07L175.028 105.948L174.823 105.572L171.265 99.0521ZM167.632 76.8244L167.292 76.185L167.007 76.8503L163.266 85.5682L162.986 86.2216L163.673 86.0404L171.016 84.1044L171.439 83.9928L171.234 83.6063L167.632 76.8244Z" fill="#0C0C0C" stroke="white" stroke-width="0.693723"/>
<path d="M74.911 132.482L74.8086 132.433L74.697 132.454L68.0861 133.711L66.7859 133.958L68.0402 134.38L99.5595 144.993L99.8194 144.351L74.911 132.482Z" fill="#FFDD29" stroke="white" stroke-width="0.693723"/>
<path d="M165.73 107.998L165.314 108.122L165.527 108.5L169.216 115.039L169.523 115.583L169.823 115.035L174.823 105.904L175.228 105.164L174.419 105.405L165.73 107.998ZM95.3305 178.186L94.4875 178.08L95.0161 178.745L99.4996 184.388L99.6498 184.577L99.8792 184.501L111.109 180.819L111.044 180.146L95.3305 178.186ZM75.1965 169.277L75.0762 169.13L74.9591 169.144L59.7219 164.597L58.6061 164.264L59.3578 165.153L64.2547 170.947L64.375 171.089L64.4886 171.076L79.5865 175.619L80.6784 175.948L79.9545 175.067L75.1965 169.277Z" fill="#0C0C0C" stroke="white" stroke-width="0.693723"/>
<path d="M26.7807 151.62L26.7302 152.301L54.5224 159.332L54.6183 159.356L54.7126 159.326L99.7753 144.995L99.6356 144.319L26.7807 151.62Z" fill="#FFDD29" stroke="white" stroke-width="0.693723"/>
<path d="M54.8723 158.772L54.7677 158.648L54.6055 158.649L45.3702 158.7L45.2398 159.367L59.4902 165.25L59.8875 164.705L54.8723 158.772ZM163.497 85.3697L163.068 85.4826L163.281 85.8712L167.012 92.7089L167.361 93.3473L167.638 92.6747L171.248 83.9011L171.514 83.2558L170.839 83.4337L163.497 85.3697ZM169.82 114.698L169.552 114.223L169.235 114.668L162.769 123.767L162.453 123.854L162.568 124.05L162.132 124.663L162.816 124.473L166.293 130.404L158.735 139.156L158.382 139.243L158.497 139.432L157.953 140.062L158.762 139.864L162.414 145.837L162.664 146.245L162.974 145.881L170.558 136.977L170.901 136.893L170.79 136.704L171.326 136.075L170.535 136.268L167.129 130.459L173.333 121.554L173.64 121.469L173.53 121.273L173.955 120.662L173.289 120.847L169.82 114.698ZM90.9671 172.536L90.831 172.364L90.6177 172.413L79.6085 174.949L79.6157 175.627L95.2169 178.869L96.1554 179.065L95.559 178.314L90.9671 172.536Z" fill="#0C0C0C" stroke="white" stroke-width="0.693723"/>
<path d="M81.9041 130.458L81.7634 130.349L81.5927 130.4L74.6628 132.462L73.7979 132.72L74.6125 133.108L99.5209 144.978L99.8826 144.39L81.9041 130.458Z" fill="#FFDD29" stroke="white" stroke-width="0.693723"/>
<path d="M122.314 175.165L106.774 174.393L106.721 174.324L106.561 174.378L90.7522 172.409L75.1186 169.182L70.3226 163.346L70.2004 163.197L70.0096 163.222L59.5777 164.585L59.5234 165.261L74.7277 169.799L79.4184 175.508L79.5549 175.674L79.7643 175.625L90.5602 173.138L95.016 178.745L95.1674 178.936L95.3231 178.884L110.814 180.816L110.891 180.917L111.053 180.846L111.779 180.937L111.544 180.629L122.437 175.829L122.314 175.165ZM167.621 92.3764L167.326 91.8351L167.017 92.3686L161.821 101.334L161.529 101.413L161.65 101.629L161.327 102.187L161.88 102.037L165.527 108.5L165.829 109.036L166.131 108.5L171.191 99.5151L171.475 99.4381L171.357 99.2209L171.669 98.667L171.134 98.8119L167.621 92.3764Z" fill="#0C0C0C" stroke="white" stroke-width="0.693723"/>
<path d="M89.099 127.73L88.9445 127.492L88.6805 127.596L81.5642 130.41L80.9981 130.634L81.4793 131.007L99.4577 144.939L99.9612 144.476L89.099 127.73Z" fill="#FFDD29" stroke="white" stroke-width="0.693723"/>
<path d="M54.706 158.663L53.5943 158.334L54.3427 159.219L59.3578 165.153L59.48 165.297L59.6676 165.273L70.0996 163.91L70.1531 163.233L54.706 158.663ZM149.478 148.057L148.838 148.671L149.758 148.495L153.555 154.43L153.783 154.788L154.088 154.492L162.877 145.977L163.267 145.902L163.151 145.712L163.786 145.096L162.881 145.27L159.221 139.286L158.996 138.918L158.685 139.217L149.757 147.789L149.356 147.866L149.478 148.057ZM166.131 108.16L165.866 107.689L165.548 108.126L158.945 117.232L158.62 117.315L158.738 117.516L158.306 118.112L158.985 117.938L162.682 124.243L162.953 124.706L163.264 124.269L169.728 115.173L170.043 115.092L169.929 114.89L170.351 114.296L169.69 114.466L166.131 108.16Z" fill="#0C0C0C" stroke="white" stroke-width="0.693723"/>
<path d="M96.3115 124.359L96.2292 123.909L95.8181 124.109L88.6557 127.607L88.3037 127.779L88.5169 128.107L99.379 144.853L100.011 144.602L96.3115 124.359ZM157.869 94.6086L158.475 94.945L163.883 85.8826L163.895 85.8628L163.904 85.8416L167.644 77.1238L167.017 76.8283L157.869 94.6086Z" fill="#FFDD29" stroke="white" stroke-width="0.693723"/>
<path d="M117.916 169.298L117.317 169.309L117.459 169.502L106.455 174.415L106.579 175.078L122.115 175.85L122.198 175.963L122.379 175.863L123.008 175.894L122.81 175.624L133.554 169.67L133.379 169.02L118.166 169.293L118.107 169.213L117.916 169.298ZM154.619 133.089L154.08 133.704L154.882 133.52L158.629 139.648L158.877 140.053L159.188 139.693L166.906 130.755L167.256 130.675L167.143 130.481L167.673 129.867L166.888 130.047L163.28 123.892L163.037 123.477L162.72 123.839L154.861 132.813L154.5 132.896L154.619 133.089ZM86.2629 166.615L86.1252 166.442L85.91 166.494L74.8472 169.16L74.8583 169.837L90.6255 173.091L91.5622 173.284L90.9672 172.535L86.2629 166.615Z" fill="#0C0C0C" stroke="white" stroke-width="0.693723"/>
<path d="M103.378 120.368L103.476 119.663L102.86 120.02L95.7963 124.121L95.5854 124.244L95.6292 124.484L99.329 144.727L100.014 144.712L103.378 120.368Z" fill="#FFDD29" stroke="white" stroke-width="0.693723"/>
<path d="M102.359 168.622L102.207 168.423L101.971 168.505L90.5827 172.423L90.6527 173.095L106.553 175.076L107.374 175.178L106.872 174.521L102.359 168.622ZM139.884 155.812L139.334 155.888L139.643 156.349L143.373 161.916L129.17 163.051L128.565 163.099L128.914 163.596L133.101 169.566L133.297 169.845L133.579 169.654L143.896 162.697L143.913 162.723L144.197 162.494L145.279 161.764L145.08 161.78L154.065 154.513L155.033 153.73L153.799 153.9L139.884 155.812ZM70.1241 163.226L69.1648 163.029L69.7865 163.786L74.6604 169.717L74.7984 169.885L75.0096 169.834L86.0725 167.168L86.0609 166.491L70.1241 163.226ZM163.89 85.5388L163.598 85.0055L163.287 85.5272L157.879 94.5896L157.455 95.3L158.259 95.1044L167.399 92.8796L167.838 92.7728L167.621 92.3764L163.89 85.5388Z" fill="#0C0C0C" stroke="white" stroke-width="0.693723"/>
<path d="M102.841 120.032L102.712 120.119L102.691 120.273L99.3266 144.617L99.1852 145.64L99.9155 144.91L167.571 77.2322L167.132 76.6993L102.841 120.032Z" fill="#FFDD29" stroke="white" stroke-width="0.693723"/>
<path d="M159.097 139.083L155.477 133.163L163.166 124.383L163.523 124.306L163.407 124.108L163.932 123.509L163.153 123.676L159.566 117.557L166.035 108.638L166.358 108.561L166.241 108.354L166.659 107.777L166.003 107.932L162.45 101.634L167.617 92.7165L168.024 92.0134L167.235 92.2056L158.095 94.4304L157.65 94.5388L157.875 94.9379L161.637 101.606L155.025 110.535L154.692 110.614L154.813 110.821L154.385 111.4L155.059 111.24L158.725 117.495L150.89 126.312L150.523 126.391L150.644 126.589L150.11 127.189L150.906 127.018L154.606 133.068L145.74 141.502L145.333 141.576L145.457 141.771L144.824 142.373L145.737 142.208L149.337 147.836L135.727 149.602L135.172 149.674L135.484 150.139L139.312 155.854L124.88 156.933L124.272 156.979L124.622 157.478L128.538 163.06L113.756 163.281L113.695 163.198L113.504 163.285L112.905 163.293L113.049 163.491L102.192 168.403L97.7353 162.577L97.5821 162.376L97.3444 162.46L86.1092 166.422L81.4421 160.549L81.3028 160.374L81.1623 160.409L65.2504 157.173L65.2045 157.117L65.0707 157.136L64.1723 156.954L64.4017 157.233L54.5581 158.652L54.5092 159.328L69.8542 163.868L69.9262 163.956L70.0473 163.925L71.0405 164.219L70.9443 164.102L85.7983 167.146L90.4242 172.967L90.5767 173.159L90.8086 173.079L101.96 169.242L106.321 174.943L106.487 175.16L106.738 175.049L117.878 170.074L117.894 170.096L118.074 169.995L118.704 170.027L118.668 169.978L133.392 169.714L134.044 169.702L133.669 169.167L129.83 163.694L144.018 162.561L144.608 162.514L144.279 162.022L140.529 156.424L153.894 154.587L154.431 154.513L154.139 154.057L150.383 148.185L151.101 147.608L150.924 147.631L159.09 139.79L159.486 139.718L159.367 139.524L159.995 138.921L159.097 139.083Z" fill="#0C0C0C" stroke="white" stroke-width="0.693723"/>
<path d="M54.5376 158.656L54.657 159.339L65.11 157.832L65.1297 157.829L65.1489 157.824L76.317 154.881L76.1587 154.206L54.5376 158.656ZM142.535 112.939L143.088 113.357L158.443 94.9898L158.468 94.9603L158.486 94.9261L167.634 77.1458L167.039 76.7924L142.535 112.939Z" fill="#FFDD29" stroke="white" stroke-width="0.693723"/>
<path d="M155.221 132.745L151.504 126.666L159.334 117.854L159.698 117.781L159.579 117.579L160.098 116.994L159.326 117.148L155.643 110.865L162.251 101.943L162.583 101.871L162.463 101.657L162.877 101.098L162.226 101.239L158.479 94.5971L158.219 94.1367L157.901 94.5582L151.007 103.67L150.664 103.744L150.789 103.957L150.364 104.519L151.033 104.374L154.8 110.799L146.819 119.648L146.445 119.723L146.569 119.926L146.041 120.511L146.83 120.353L150.631 126.568L141.621 135.058L141.208 135.129L141.336 135.328L140.71 135.917L141.614 135.763L145.314 141.548L131.465 143.236L130.905 143.305L131.219 143.774L135.15 149.642L120.482 150.661L119.87 150.704L120.222 151.207L124.244 156.94L109.235 157.118L109.173 157.033L108.983 157.121L108.382 157.128L108.529 157.329L97.5668 162.357L92.9948 156.379L92.8404 156.178L92.6014 156.264L81.2868 160.354L76.5001 154.33L76.3592 154.153L76.1401 154.21L64.9721 157.153L64.9913 157.828L80.9774 161.079L85.7197 167.047L85.8735 167.241L86.1066 167.159L97.3373 163.198L101.808 169.044L101.976 169.262L102.227 169.149L113.468 164.062L113.484 164.083L113.664 163.982L114.294 164.015L114.259 163.967L129.203 163.744L129.858 163.734L129.482 163.198L125.54 157.579L139.957 156.502L140.551 156.457L140.219 155.963L136.371 150.218L149.968 148.454L150.51 148.384L150.216 147.923L146.364 141.901L147.072 141.333L146.902 141.354L155.21 133.45L155.611 133.382L155.49 133.184L156.111 132.593L155.221 132.745Z" fill="#0C0C0C" stroke="white" stroke-width="0.693723"/>
<path d="M167.08 76.7419L99.4847 144.36L54.5024 158.665L54.6774 159.335L76.2985 154.885L76.3319 154.879L76.3633 154.865L99.805 144.984L99.7265 144.771L99.8749 144.945L143.027 113.414L143.075 113.379L143.109 113.329L167.613 77.1817L167.08 76.7419Z" fill="#FFDD29" stroke="white" stroke-width="0.693723"/>
<path d="M141.322 135.306L131.302 143.301L120.324 150.712L108.978 157.115L92.7499 156.244L76.2712 154.201L75.429 154.097L75.957 154.761L80.8988 160.98L81.0539 161.175L81.2883 161.091L92.5982 157.003L97.1841 162.998L97.3525 163.218L97.6043 163.102L109.138 157.812L124.91 157.626L125.567 157.618L125.19 157.08L121.143 151.311L135.796 150.292L136.393 150.251L136.06 149.753L132.11 143.856L145.945 142.169L146.493 142.103L146.196 141.638L142.23 135.438L151.234 126.953L151.64 126.889L151.516 126.687L152.13 126.108L151.248 126.248L147.296 119.785L147.074 119.422L146.763 119.712L137.398 128.451L136.98 128.518L137.11 128.72L136.491 129.298L137.388 129.155L141.322 135.306Z" fill="#0C0C0C" stroke="white" stroke-width="0.693723"/>
<path d="M142.556 112.912L143.078 113.368L151.461 104.216L151.472 104.204L151.482 104.191L158.454 94.9767L157.911 94.545L142.556 112.912Z" fill="#FFDD29" stroke="white" stroke-width="0.693723"/>
<path d="M115.492 144.463L104.342 150.794L88.0368 149.897L87.9781 149.821L87.8054 149.885L87.1251 149.847L87.2977 150.073L76.1078 154.22L76.1857 154.89L92.5321 156.916L92.6129 157.022L92.7752 156.946L93.497 157.036L93.4516 156.976L108.878 157.804L108.963 157.92L109.143 157.818L109.773 157.852L109.571 157.576L120.403 151.464L120.418 151.485L120.614 151.353L121.169 151.348L120.993 151.097L131.413 144.063L131.429 144.087L131.638 143.919L132.131 143.888L131.988 143.674L132.761 143.152L132.586 143.163L141.921 135.716L142.375 135.664L142.243 135.459L142.942 134.901L141.958 135.013L137.85 128.59L137.643 128.266L137.342 128.505L126.996 136.719L126.529 136.772L126.654 136.959L115.879 144.236L115.356 144.269L115.492 144.463ZM142.39 113.092L141.867 113.663L142.65 113.518L146.704 120.146L146.946 120.543L147.257 120.198L155.407 111.163L155.777 111.094L155.656 110.887L156.17 110.316L155.404 110.458L151.505 103.806L151.267 103.4L150.95 103.747L142.645 112.814L142.263 112.884L142.39 113.092Z" fill="#0C0C0C" stroke="white" stroke-width="0.693723"/>
<path d="M76.0938 154.226L76.3491 154.871L87.979 150.561L87.993 150.555L88.0064 150.549L99.8182 144.978L99.5355 144.345L76.0938 154.226Z" fill="#FFDD29" stroke="white" stroke-width="0.693723"/>
<path d="M132.762 121.924L122.513 130.022L122.041 130.072L122.182 130.283L121.493 130.828L122.477 130.724L126.509 136.742L111.54 137.621L111.469 137.521L111.266 137.637L110.726 137.669L110.865 137.867L99.5771 144.318L98.9883 144.321L99.1415 144.53L87.7105 149.921L87.8394 150.581L104.242 151.484L104.328 151.6L104.507 151.498L105.139 151.533L104.935 151.256L115.892 145.033L115.907 145.054L116.102 144.922L116.659 144.919L116.498 144.689L117.321 144.222L117.137 144.223L127.04 137.535L127.056 137.558L127.34 137.333L128.377 136.632L128.209 136.642L137.472 129.287L137.49 129.315L137.709 129.11L138.152 129.063L138.018 128.854L138.708 128.306L138.553 128.323L147.157 120.293L147.569 120.232L147.443 120.026L148.05 119.46L147.176 119.589L143.118 112.953L142.897 112.592L142.587 112.879L133.067 121.674L132.643 121.737L132.762 121.924Z" fill="#0C0C0C" stroke="white" stroke-width="0.693723"/>
<path d="M99.4657 144.384L99.8537 144.959L122.832 130.651L122.854 130.637L122.869 130.625L133.439 122.274L133.45 122.265L133.459 122.256L143.058 113.389L142.901 113.212L142.618 112.854L99.4657 144.384Z" fill="#FFDD29" stroke="white" stroke-width="0.693723"/>
<path d="M122.937 130.164L122.743 129.874L122.455 130.069L111.173 137.692L110.125 138.399L111.387 138.325L127.155 137.399L127.76 137.363L127.423 136.86L122.937 130.164Z" fill="#0C0C0C" stroke="white" stroke-width="0.693723"/>
<path d="M99.4869 144.37L99.8424 144.966L111.539 138.28L111.551 138.274L111.561 138.266L122.843 130.644L122.466 130.062L99.4869 144.37Z" fill="#FFDD29" stroke="white" stroke-width="0.693723"/>
</svg>
