<svg width="62" height="62" viewBox="0 0 62 62" fill="none" xmlns="http://www.w3.org/2000/svg">
<path d="M1.01126 30.1761C0.556958 46.7124 13.6398 60.5344 30.1761 60.9887C46.7124 61.443 60.5343 48.3602 60.9886 31.8239C61.4429 15.2876 48.3601 1.46561 31.8238 1.01131C15.2875 0.557002 1.46557 13.6398 1.01126 30.1761ZM33.0213 21.7845L45.1733 34.6231C45.6472 35.1238 45.8746 35.7703 45.857 36.4101C45.8394 37.0498 45.5769 37.6829 45.0762 38.1568C44.0722 39.1071 42.4928 39.0637 41.5425 38.0598L31.1088 27.0365L20.0856 37.4702C19.0817 38.4204 17.5023 38.377 16.552 37.3731C15.6018 36.3691 15.6452 34.7897 16.6491 33.8395L29.4877 21.6874C30.4916 20.7372 32.071 20.7806 33.0213 21.7845Z" fill="#FFDD29"/>
</svg>
