<svg width="56" height="56" viewBox="0 0 56 56" fill="none" xmlns="http://www.w3.org/2000/svg">
<path d="M28 25.0749C28.7758 25.0749 29.5198 25.3831 30.0684 25.9316C30.6169 26.4802 30.9251 27.2242 30.9251 28C30.9251 28.7758 30.6169 29.5198 30.0684 30.0684C29.5198 30.6169 28.7758 30.9251 28 30.9251C27.2242 30.9251 26.4802 30.6169 25.9316 30.0684C25.3831 29.5198 25.0749 28.7758 25.0749 28C25.0749 27.2242 25.3831 26.4802 25.9316 25.9316C26.4802 25.3831 27.2242 25.0749 28 25.0749ZM5.24276 5.24276C9.42565 1.05988 18.4934 2.93194 28 9.16239C37.5066 2.93194 46.5743 1.05988 50.7572 5.24276C54.9401 9.42565 53.0681 18.4934 46.8376 28C53.0681 37.5066 54.9401 46.5743 50.7572 50.7572C46.5743 54.9401 37.5066 53.0681 28 46.8376C18.4934 53.0681 9.42565 54.9401 5.24276 50.7572C1.05988 46.5743 2.93194 37.5066 9.16239 28C2.93194 18.4934 1.05988 9.42565 5.24276 5.24276ZM38.3548 17.6452C40.1391 19.4587 41.7772 21.3015 43.2982 23.1443C47.3349 16.9139 48.7974 11.561 46.6036 9.3964C44.439 7.20258 39.0861 8.66513 32.8557 12.7018C34.6985 14.2228 36.5413 15.8609 38.3548 17.6452ZM17.6452 38.3548C15.8609 36.5413 14.2228 34.6985 12.7018 32.8557C8.66513 39.0861 7.20258 44.439 9.3964 46.6036C11.561 48.7974 16.9139 47.3349 23.1443 43.2982C21.3015 41.7772 19.4587 40.1391 17.6452 38.3548ZM9.3964 9.3964C7.20258 11.561 8.66513 16.9139 12.7018 23.1443C14.2228 21.3015 15.8609 19.4587 17.6452 17.6452C19.4587 15.8609 21.3015 14.2228 23.1443 12.7018C16.9139 8.66513 11.561 7.20258 9.3964 9.3964ZM21.7988 34.2012C23.8464 36.2488 25.9524 38.1208 28 39.7881C30.0476 38.1208 32.1536 36.2488 34.2012 34.2012C36.2488 32.1536 38.1208 30.0476 39.7881 28C38.1208 25.9524 36.2488 23.8464 34.2012 21.7988C32.1536 19.7512 30.0476 17.8792 28 16.2119C25.9524 17.8792 23.8464 19.7512 21.7988 21.7988C19.7512 23.8464 17.8792 25.9524 16.2119 28C17.8792 30.0476 19.7512 32.1536 21.7988 34.2012ZM46.6036 46.6036C48.7974 44.439 47.3349 39.0861 43.2982 32.8557C41.7772 34.6985 40.1391 36.5413 38.3548 38.3548C36.5413 40.1391 34.6985 41.7772 32.8557 43.2982C39.0861 47.3349 44.439 48.7974 46.6036 46.6036Z" fill="#FFDD29"/>
</svg>
