<svg width="26" height="27" viewBox="0 0 26 27" fill="none" xmlns="http://www.w3.org/2000/svg">
<path d="M18.2416 17.8215L14.4126 13.9808L1.61737 26.8878C1.77156 26.8412 1.93519 26.7706 2.10994 26.6744C2.24083 26.6026 2.55922 26.4281 3.0272 26.1718L3.05506 26.1565C5.68856 24.7138 12.9193 20.7525 18.2416 17.8215Z" fill="#181818"/>
<path d="M18.9689 17.4209C19.4615 17.1496 19.9335 16.8892 20.3795 16.6432C20.6956 16.4689 20.9985 16.3018 21.2864 16.1431L21.288 16.1422C23.0764 15.1565 24.2819 14.4921 24.4265 14.4201C25.0945 14.0637 25.7848 13.1208 24.4265 12.3885C24.0058 12.1676 21.8168 10.9636 18.9658 9.38776L14.9743 13.4142L18.9689 17.4209Z" fill="#181818"/>
<path d="M18.2254 9.00136C15.8601 7.7075 2.96399 0.653623 2.10972 0.197961C1.94742 0.10121 1.77454 0.0361141 1.60065 0L14.4109 12.8491L18.2254 9.00136Z" fill="#181818"/>
<path d="M0.621377 0.147814L13.8492 13.4157L0.571984 26.809C0.196555 26.5552 0 26.0245 0 25.3543V1.57876C0 0.837634 0.260541 0.381612 0.621377 0.147814Z" fill="#181818"/>
</svg>
