<svg width="180" height="151" viewBox="0 0 180 151" fill="none" xmlns="http://www.w3.org/2000/svg">
<path d="M115.297 23.5924L115.286 23.5854L115.275 23.5795L107.54 19.2787L107.532 19.2745L107.525 19.2707L99.6198 15.3743L99.5155 15.5795L99.6035 15.3667L91.5643 11.9105L91.5554 11.9067L91.5463 11.9034L83.404 8.92977L83.1569 9.57793L99.3136 15.9979L129.752 33.899L143.459 45.0126L143.903 44.4797L137.201 38.7435L137.194 38.7375L137.186 38.7319L130.162 33.3381L130.019 33.5189L130.148 33.3278L122.846 28.2829L122.839 28.2781L122.832 28.2736L115.297 23.5924Z" fill="#FFDD29" stroke="white" stroke-width="0.693723"/>
<path d="M98.7465 53.2175L98.5458 52.4143L98.114 53.1207L95.4938 57.4065L93.4781 50.3477L93.2584 49.5784L92.847 50.2647L89.8542 55.2583L89.6678 55.5693L89.9867 55.7417L95.2031 58.562L100.243 61.6994L105.085 65.1439L105.81 65.6592L105.626 64.7894L103.851 56.4049L103.673 55.5628L103.218 56.2932L100.574 60.5331L98.7465 53.2175Z" fill="#0C0C0C" stroke="white" stroke-width="0.693723"/>
<path d="M155.663 57.5054L156.145 57.0066L143.925 44.501L143.911 44.4866L143.896 44.474L130.169 33.344L129.717 33.8698L155.663 57.5054Z" fill="#FFDD29" stroke="white" stroke-width="0.693723"/>
<path d="M103.806 56.6602L103.99 56.3657L103.695 56.1822L98.8855 53.1889L98.8965 53.171L98.5846 53.0017L97.8659 52.5544L97.8824 52.6205L93.3101 50.1382L92.5843 49.7441L92.8111 50.5382L95.0439 58.3572L95.261 59.1174L95.6734 58.4429L98.2741 54.1889L100.099 61.4946L100.297 62.288L100.73 61.5941L103.806 56.6602ZM108.753 59.8885L108.602 59.0013L108.119 59.7609L104.994 64.6751L104.828 64.9359L105.068 65.1306L109.671 68.8656L110.387 69.4463L110.232 68.5378L108.753 59.8885Z" fill="#0C0C0C" stroke="white" stroke-width="0.693723"/>
<path d="M129.807 33.9292L130.126 33.3143L99.6423 15.3865L99.61 15.3676L99.5745 15.3559L66.9244 4.65046L66.6731 5.29595L129.807 33.9292Z" fill="#FFDD29" stroke="white" stroke-width="0.693723"/>
<path d="M87.6142 47.4782L87.1818 47.2764L87.2013 47.3374L82.5472 45.5154L82.3494 44.9524L82.1211 45.3486L81.6946 45.1816L81.8927 45.7452L79.0454 50.6876L78.8431 51.0388L79.2213 51.1844L84.5217 53.2257L84.7164 53.7796L84.9356 53.4064L89.8679 55.6873L90.0549 56.273L90.2892 55.8822L90.7223 56.0824L90.53 55.4803L93.2714 50.9063L98.2356 53.6014L103.203 56.693L104.947 64.933L105.123 65.7645L105.579 65.0473L108.221 60.8925L109.525 68.5211L109.44 68.6519L109.568 68.7703L109.698 69.5303L109.956 69.1313L113.964 72.8551L114.665 73.5063L114.545 72.5572L113.427 63.7766L113.529 63.6205L113.394 63.512L113.292 62.7105L112.985 63.1832L108.871 59.8712L108.881 59.8546L108.723 59.7426L106.982 51.3862L106.805 50.5397L106.348 51.2734L103.653 55.5951L101.832 48.1723L101.634 47.3634L101.2 48.074L98.5297 52.441L96.5238 45.2689L96.3067 44.4925L95.8922 45.184L93.008 49.9963L88.2456 47.773L88.2584 47.7512L88.0336 47.6632L87.8476 47.0809L87.6142 47.4782Z" fill="#0C0C0C" stroke="white" stroke-width="0.693723"/>
<path d="M155.648 57.4912L156.152 57.0144L150.26 50.5872L150.253 50.5791L150.245 50.5715L143.918 44.493L143.429 44.9856L155.648 57.4912Z" fill="#FFDD29" stroke="white" stroke-width="0.693723"/>
<path d="M106.937 51.6405L107.12 51.3459L106.825 51.1625L101.679 47.9605L100.956 47.5107L101.159 48.3376L103.175 56.5593L103.371 57.3582L103.806 56.6602L106.937 51.6405Z" fill="#0C0C0C" stroke="white" stroke-width="0.693723"/>
<path d="M99.3584 16.0152L99.5945 15.3632L83.4131 8.93343L83.393 8.92547L83.3721 8.92005L66.9035 4.64442L66.7083 5.30975L99.3584 16.0152Z" fill="#FFDD29" stroke="white" stroke-width="0.693723"/>
<path d="M101.373 49.1205L101.609 48.7341L106.333 51.673L108.043 59.8797L107.952 60.0225L108.097 60.1392L108.246 60.8534L108.496 60.4602L112.741 63.8769L113.84 72.5171L113.76 72.6375L113.87 72.7555L113.974 73.5725L114.247 73.1599L117.834 77.0123L117.903 77.8816L118.214 77.4204L118.595 77.8303L118.525 76.9573L121.753 72.1595L121.908 71.9292L121.717 71.7276L117.876 67.6662L117.887 67.6491L117.769 67.5412L117.7 66.6738L117.662 66.7318L116.751 59.5109L116.791 59.5428L116.664 58.7827L116.762 58.632L116.627 58.5238L116.526 57.7216L116.495 57.7681L115.168 49.8021L115.019 48.9087L114.533 49.673L111.783 53.9989L111.758 54.0372L110.195 46.4151L110.305 46.238L110.137 46.1334L109.992 45.4286L109.716 45.8716L105.11 43.007L105.121 42.9902L104.936 42.8892L104.776 42.2239L104.521 42.6406L104.1 42.3783L104.114 42.4392L99.5839 39.9588L99.4083 39.3173L99.1622 39.7279L98.7378 39.4956L98.9146 40.1411L96.0633 44.8983L95.6343 44.6645L95.6513 44.7251L91.254 42.6525L91.2664 42.6316L91.0445 42.5432L90.8604 41.9531L90.6239 42.3556L90.1964 42.1541L90.2148 42.213L85.5274 40.3474L85.3317 39.7754L85.1001 40.1774L84.6786 40.0096L84.8717 40.574L82.111 45.366L77.0033 43.76L76.7999 43.2279L76.5753 43.6254L76.1592 43.4946L76.3569 44.012L73.5365 49.0038L73.3241 49.3797L73.737 49.5061L79.0824 51.1428L79.2823 51.6659L79.5085 51.2733L79.9234 51.4003L79.7288 50.891L82.4241 46.2122L87.4771 48.1904L87.6696 48.7531L87.8925 48.3738L92.8591 50.6924L93.0441 51.2854L93.2814 50.8895L93.7096 51.0894L93.5221 50.4879L96.0728 46.2321L98.076 53.3949L98.2906 54.162L98.706 53.4824L101.373 49.1205Z" fill="#0C0C0C" stroke="white" stroke-width="0.693723"/>
<path d="M130.007 33.9555L131.134 33.7691L130.094 33.2974L66.9596 4.66417L66.6329 5.27444L116.184 36.1545L116.295 36.2236L116.424 36.2023L130.007 33.9555Z" fill="#FFDD29" stroke="white" stroke-width="0.693723"/>
<path d="M94.1568 37.4915L93.9265 36.7349L93.5259 37.4168L90.4635 42.6288L90.2711 42.9563L90.6147 43.1183L96.0418 45.6762L96.7493 46.0096L96.5216 45.2615L94.1568 37.4915ZM115.119 50.0454L115.297 49.7658L115.025 49.5754L110.027 46.0654L109.312 45.5637L109.487 46.419L111.251 55.0168L111.423 55.8569L111.884 55.1332L115.119 50.0454ZM121.015 62.9135L121.179 62.6653L120.959 62.4655L116.533 58.4503L115.839 57.8202L115.956 58.7506L117.09 67.7482L117.208 68.6778L117.724 67.896L121.015 62.9135Z" fill="#0C0C0C" stroke="white" stroke-width="0.693723"/>
<path d="M130.146 33.8997L129.894 33.2711L116.311 35.5179L115.469 35.6572L116.17 36.1448L121.272 39.6951L121.469 39.8317L121.666 39.6967L130.146 33.8997ZM83.1978 9.59141L83.3837 8.92316L75.1694 6.48502L75.1578 6.48159L75.146 6.47897L66.8917 4.64149L66.7292 5.31579L83.1978 9.59141Z" fill="#FFDD29" stroke="white" stroke-width="0.693723"/>
<path d="M99.5858 40.3707L99.782 40.0432L99.4373 39.8792L93.974 37.2792L93.2642 36.9414L93.4931 37.6934L95.8579 45.4633L96.0854 46.211L96.4872 45.5406L99.5858 40.3707ZM121.839 72.8658L121.889 72.9192L121.811 71.947L121.78 70.8767L121.732 70.9483L121.072 62.6946L120.991 61.691L120.436 62.531L117.145 67.5135L116.993 67.7431L117.183 67.9431L121.022 72.0027L117.882 76.6707L117.74 76.881L117.898 77.0796L121.472 81.593L122.122 82.4134L122.091 81.3674L121.839 72.8658ZM76.903 44.4557L82.1686 46.1113L82.8439 46.3236L82.5979 45.6599L80.0165 38.6952L79.7568 37.9946L79.3893 38.6451L76.565 43.6438L71.2689 42.4091L70.6128 42.2561L70.8695 42.879L73.5178 49.3066L73.7896 49.9662L74.1405 49.3451L76.903 44.4557Z" fill="#0C0C0C" stroke="white" stroke-width="0.693723"/>
<path d="M130.275 33.7352L130.661 32.7073L129.755 33.3269L121.275 39.124L120.882 39.3922L121.257 39.6841L126.135 43.4806L126.507 43.7702L126.673 43.3288L130.275 33.7352Z" fill="#FFDD29" stroke="white" stroke-width="0.693723"/>
<path d="M71.5109 42.6149L71.2363 41.9485L70.8868 42.5789L68.0073 47.7731L67.7824 48.1788L68.2352 48.2798L73.763 49.5132L74.413 49.6582L74.1593 49.0426L71.5109 42.6149ZM119.917 53.4479L119.817 52.6449L119.507 53.1231L115.141 49.6663L113.409 41.0826L113.236 40.2272L112.774 40.9677L109.973 45.4594L108.168 37.8142L107.974 36.9938L107.534 37.713L104.761 42.2491L102.777 34.8413L102.565 34.0506L102.144 34.7527L98.9907 40.0143L98.8053 40.3237L99.1217 40.4969L104.46 43.4196L109.636 46.6388L114.508 50.0597L115.936 58.6315L115.849 58.766L115.978 58.8831L116.105 59.6461L116.369 59.2383L120.493 62.9793L121.186 63.6083L121.07 62.6795L119.95 53.7143L120.053 53.5556L119.917 53.4479ZM82.5732 45.9538L85.4016 41.0442L90.4844 43.0672L90.6747 43.639L90.9109 43.237L91.3272 43.4026L91.1415 42.8445L94.124 37.7683L94.3276 37.4218L93.9551 37.2711L88.5605 35.088L88.3671 34.5068L88.1321 34.9147L87.7156 34.7461L87.9037 35.3112L85.0904 40.1946L79.7979 38.4859L79.1176 38.2663L79.366 38.9365L81.9474 45.9012L82.2043 46.5942L82.5732 45.9538Z" fill="#0C0C0C" stroke="white" stroke-width="0.693723"/>
<path d="M130.296 33.5878L129.626 33.4914L126.023 43.085L125.939 43.31L126.12 43.4681L130.728 47.4954L131.364 48.0515L131.302 47.2086L130.296 33.5878Z" fill="#FFDD29" stroke="white" stroke-width="0.693723"/>
<path d="M113.26 40.8614L112.557 40.3704L112.57 40.4324L108.305 37.781L108.315 37.7648L108.005 37.5943L107.299 37.1553L107.313 37.2136L102.924 34.8004L102.935 34.783L102.6 34.6224L101.896 34.2351L101.911 34.2911L97.2304 32.0416L97.047 31.4237L96.8043 31.8368L96.3864 31.636L96.5662 32.2419L93.5257 37.4167L93.334 37.743L93.6757 37.9057L98.9995 40.4393L99.18 41.0475L99.4236 40.6411L99.8422 40.8403L99.664 40.24L102.318 35.8113L104.3 43.2096L104.509 43.9907L104.931 43.3008L107.686 38.7939L109.489 46.429L109.681 47.2392L110.121 46.5328L112.901 42.075L114.458 49.7909L114.365 49.937L114.511 50.0523L114.656 50.7723L114.912 50.37L119.264 53.8154L120.366 62.6381L120.283 62.7626L120.39 62.8734L121.109 71.873L121.034 71.9849L121.122 72.0932L121.397 81.3881L121.429 82.4521L122.03 81.5738L125.127 77.0499L125.482 77.4888L125.455 76.5722L125.537 76.4525L125.448 76.3424L125.192 67.8702L125.242 67.9213L125.174 67.0739L125.263 66.9422L125.161 66.8367L125.133 65.8922L125.085 65.9627L124.43 57.7428L124.53 57.5927L124.41 57.4855L124.341 56.6196L124.007 57.1247L119.913 53.4548L118.482 44.7555L118.59 44.587L118.437 44.4806L118.314 43.7282L118.02 44.1892L113.537 41.0553L113.547 41.0399L113.26 40.8614Z" fill="#0C0C0C" stroke="white" stroke-width="0.693723"/>
<path d="M130.283 33.5146L129.604 33.6387L130.61 47.2596L130.62 47.3892L130.712 47.4806L135.003 51.7258L135.58 51.3806L130.283 33.5146Z" fill="#FFDD29" stroke="white" stroke-width="0.693723"/>
<path d="M79.8538 39.2329L84.9818 40.8885L85.1773 41.4329L85.4111 41.0271L85.8156 41.1577L85.6314 40.6447L88.4315 35.7841L93.5445 37.8533L93.7324 38.4343L93.9721 38.0263L94.3834 38.1928L94.2027 37.6339L97.079 32.7385L102.283 35.2394L107.532 38.1259L107.701 38.77L107.943 38.3729L112.763 41.3696L112.92 42.0454L113.169 41.6448L117.8 44.8817L119.226 53.5555L119.138 53.6919L119.268 53.8084L119.393 54.5728L119.661 54.1606L123.74 57.8171L124.472 66.9998L124.754 76.367L121.457 81.1818L121.326 81.3737L121.454 81.5681L124.477 86.1763L125.075 87.0878L125.114 85.9983L125.447 76.5825L128.811 71.6694L128.959 71.454L128.793 71.2527L125.251 66.9596L128.52 62.0998L128.678 61.8656L128.481 61.6638L124.519 57.609L127.774 52.6806L127.94 52.4293L127.715 52.2297L123.392 48.4038L123.402 48.3885L123.266 48.2811L123.166 47.4774L123.137 47.522L121.834 39.4851L121.941 39.3157L121.789 39.2096L121.667 38.455L121.372 38.9191L116.837 35.7637L116.846 35.7488L116.679 35.6449L116.537 34.9326L116.266 35.367L115.86 35.0843L115.872 35.1434L111.557 32.4616L111.567 32.446L111.385 32.3455L111.228 31.6698L110.968 32.0953L110.555 31.8388L110.568 31.8945L105.949 29.3434L105.778 28.6892L105.526 29.1096L105.111 28.8804L105.279 29.5219L102.553 34.0695L100.448 26.7912L100.224 26.017L99.8154 26.7119L96.7951 31.8523L91.6476 29.7341L91.4566 29.1434L91.2181 29.5573L90.8066 29.388L90.9896 29.9539L88.1223 34.9311L82.9653 33.2214L82.7664 32.6676L82.5342 33.0785L82.1285 32.944L82.3157 33.4652L79.5181 38.4168L74.3771 37.1652L74.1727 36.6513L73.946 37.0602L73.5504 36.9639L73.738 37.4353L71.0027 42.3693L65.9037 41.6305L65.6964 41.161L65.4747 41.5684L65.0936 41.5131L65.2777 41.9303L62.4956 47.0418L62.2544 47.4849L62.7545 47.5515L68.0717 48.2593L68.2752 48.7201L68.4991 48.3162L68.8774 48.3665L68.6973 47.9587L71.3663 43.1442L76.4837 44.3373L76.6845 44.8422L76.9132 44.4375L77.3066 44.5292L77.1226 44.0668L79.8538 39.2329Z" fill="#0C0C0C" stroke="white" stroke-width="0.693723"/>
<path d="M110.906 32.8738L105.484 29.8789L105.475 29.8739L105.466 29.8683L66.6331 5.27452L66.633 5.2745L66.6309 5.27318L66.9926 4.69764L66.9927 4.69741M110.906 32.8738L66.9927 4.69741M110.906 32.8738L116.185 36.1545L116.185 36.1547L116.551 35.5658L116.551 35.5656L116.551 35.5652L67.0081 4.69084L67.0021 4.68711L110.906 32.8738ZM66.9927 4.69741L67 4.68579L67 4.68577L66.9927 4.69741ZM130.184 33.357L129.929 33.602L129.618 33.712L134.915 51.578L134.936 51.6513L134.987 51.7086L138.906 56.1615L139.487 55.8L131.127 35.5529L171.126 83.1715L171.688 82.7693L156.194 57.0699L156.167 57.0266L156.13 56.9926L130.184 33.357Z" fill="#FFDD29" stroke="white" stroke-width="0.693723"/>
<path d="M105.949 29.7534L106.144 29.4285L105.803 29.2631L100.266 26.5755L99.5647 26.2351L99.7814 26.984L102.108 35.0273L102.33 35.7923L102.739 35.1092L105.949 29.7534ZM128.48 81.2585L128.616 81.0636L128.483 80.8667L125.392 76.2759L124.796 75.3899L124.758 76.4573L124.421 85.9737L124.379 87.1512L125.052 86.1842L128.48 81.2585ZM128.606 62.7852L128.654 62.834L128.579 61.8871L128.546 60.8184L128.5 60.8877L127.831 52.4619L127.751 51.4573L127.196 52.2982L123.786 57.4601L123.632 57.6936L123.827 57.8937L127.787 61.9467L124.531 66.7871L124.386 67.0019L124.551 67.2015L128.258 71.6941L128.903 72.4762L128.872 71.4628L128.606 62.7852ZM82.8577 33.9165L88.1727 35.6786L88.8406 35.9L88.6094 35.2354L86.0827 27.9693L85.8306 27.2444L85.4531 27.9126L82.5245 33.0961L77.3646 31.7852L77.1624 31.2584L76.9314 31.6752L76.5413 31.5761L76.7234 32.0504L73.8178 37.2916L73.5973 37.6893L74.0391 37.7968L79.4325 39.1098L79.6311 39.6273L79.8641 39.2149L80.2521 39.3094L80.0736 38.8441L82.8577 33.9165Z" fill="#0C0C0C" stroke="white" stroke-width="0.693723"/>
<path d="M67.0019 4.68693L66.6257 5.26974L66.6308 5.273L99.9239 27.1773L99.9427 27.1897L99.9631 27.1996L105.5 29.8871L105.837 29.2821L67.007 4.69019L67.0019 4.68693Z" fill="#FFDD29" stroke="white" stroke-width="0.693723"/>
<path d="M126.675 43.0217L126.576 42.2171L126.263 42.7009L121.684 39.1366L120.987 38.5943L121.128 39.4659L122.575 48.3892L122.486 48.5275L122.617 48.6434L122.741 49.4093L123.011 48.9925L127.255 52.7491L127.941 53.3559L127.829 52.4472L126.708 43.2898L126.812 43.1286L126.675 43.0217ZM91.6679 30.1669L91.8785 29.8013L91.4791 29.6653L85.867 27.7549L85.1942 27.5259L85.4276 28.1972L87.9544 35.4633L88.2037 36.1802L88.5825 35.5225L91.6679 30.1669ZM128.872 71.4854L128.913 70.2933L128.239 71.2775L124.818 76.2737L124.685 76.468L124.817 76.6634L127.908 81.2542L128.506 82.1417L128.542 81.0724L128.872 71.4854Z" fill="#0C0C0C" stroke="white" stroke-width="0.693723"/>
<path d="M165.178 70.5266L165.746 70.1291L161.403 63.631L161.395 63.6192L161.386 63.6081L156.168 57.0332L155.616 57.4536L165.178 70.5266Z" fill="#FFDD29" stroke="white" stroke-width="0.693723"/>
<path d="M74.4246 37.6282L74.6651 37.1943L74.175 37.1173L68.8238 36.277L68.6185 35.7928L68.3919 36.2092L68.0166 36.1502L68.195 36.571L65.3595 41.7806L65.1213 42.2183L65.6144 42.2897L70.9471 43.0624L71.1486 43.5376L71.3774 43.1247L71.7499 43.1787L71.5755 42.7674L74.4246 37.6282ZM94.3603 24.1035L93.9537 23.9333L94.1318 24.5002L91.0667 29.8207L90.869 30.1639L91.2352 30.3146L96.6596 32.5468L96.8451 33.1372L97.0883 32.7232L97.4947 32.8904L97.3189 32.3308L100.414 27.0635L100.615 26.7211L100.249 26.5678L94.7909 24.2837L94.6023 23.6834L94.3603 24.1035Z" fill="#0C0C0C" stroke="white" stroke-width="0.693723"/>
<path d="M67.0071 4.69036L66.6163 5.26344L94.3081 24.8247L94.3392 24.8466L94.3743 24.8613L99.9807 27.2077L100.305 26.5979L67.0071 4.69036Z" fill="#FFDD29" stroke="white" stroke-width="0.693723"/>
<path d="M128.54 81.0997L127.911 80.8624L124.483 85.788L124.363 85.9601L124.46 86.1461L126.815 90.68L127.339 91.6894L127.467 90.5592L128.54 81.0997ZM131.996 56.9336L132.155 56.6974L131.954 56.4955L127.731 52.2451L127.064 51.5741L127.139 52.517L127.886 61.9254L128.179 71.4842L128.211 72.5464L128.812 71.6695L132.295 66.5829L132.444 66.3652L132.274 66.1634L128.666 61.8829L131.996 56.9336ZM65.9688 42.1122L66.2335 41.6259L65.6804 41.5999L60.3882 41.352L59.8286 41.3258L60.0546 41.8384L62.483 47.3477L62.7677 47.9935L63.1051 47.3736L65.9688 42.1122Z" fill="#0C0C0C" stroke="white" stroke-width="0.693723"/>
<path d="M130.264 33.4657L129.63 33.7456L138.846 56.0645L138.863 56.1051L138.889 56.1403L142.27 60.6468L142.862 60.2912L130.264 33.4657Z" fill="#FFDD29" stroke="white" stroke-width="0.693723"/>
<path d="M131.291 47.0658L131.223 46.2015L130.886 46.7116L126.576 42.9456L125.893 42.3489L126.004 43.2489L127.125 52.4047L127.04 52.5336L127.155 52.6494L127.255 53.4664L127.539 53.0362L131.261 56.7823L127.945 61.7124L127.799 61.9295L127.967 62.1296L131.743 66.6102L132.386 67.3732L132.355 66.3759L132.082 57.6083L132.128 57.6549L132.055 56.7207L132.021 55.6527L131.975 55.7209L131.311 47.3256L131.413 47.1723L131.291 47.0658ZM60.6893 41.5583L60.4021 40.9067L60.0661 41.5345L57.2122 46.8678L56.9491 47.3595L57.5065 47.3781L62.7888 47.5542L63.3403 47.5726L63.1177 47.0676L60.6893 41.5583ZM131.971 76.2434L132.108 76.0459L131.971 75.848L128.811 71.276L128.215 70.414L128.179 71.4614L127.849 81.0484L127.809 82.2237L128.48 81.2584L131.971 76.2434Z" fill="#0C0C0C" stroke="white" stroke-width="0.693723"/>
<path d="M67.0164 4.69666L66.6 5.25113L88.6535 22.8415L88.6996 22.8783L88.7553 22.8978L94.3937 24.8686L94.7082 24.2579L67.0164 4.69666Z" fill="#FFDD29" stroke="white" stroke-width="0.693723"/>
<path d="M85.9156 28.5042L91.0931 30.2666L91.2837 30.8333L91.5254 30.4138L91.9197 30.548L91.7458 30.0312L94.8088 24.7143L95.0177 24.3517L94.6227 24.2137L89.1446 22.2988L88.9506 21.7223L88.7106 22.1471L88.3151 22.0089L88.4918 22.5343L85.5849 27.6792L80.4064 26.3072L80.2066 25.7671L79.9712 26.1918L79.5864 26.0899L79.763 26.5674L76.9209 31.694L71.7969 30.8252L71.5939 30.3259L71.3622 30.7515L70.9926 30.6888L71.1653 31.1134L68.3805 36.2298L63.2993 35.9209L62.7423 35.887L62.9584 36.4014L65.3443 42.0805L65.6238 42.7457L65.9687 42.1119L68.7674 36.9701L73.8738 37.7719L74.0731 38.2619L74.307 37.84L74.6738 37.8976L74.505 37.4827L77.2789 32.4791L82.434 33.7887L82.6302 34.3191L82.8676 33.8989L83.2503 33.9961L83.0772 33.528L85.9156 28.5042ZM132.355 66.3982L132.395 65.2084L131.722 66.1907L128.239 71.2773L128.104 71.4742L128.24 71.6705L131.264 76.0446L128.234 80.3982L127.976 79.9184L127.861 80.9341L127.789 81.0368L127.839 81.1289L126.778 90.4807L127.406 90.7199L130.578 86.2282L130.838 86.714L130.952 85.6972L131.025 85.5948L130.974 85.5011L131.928 77.0045L131.998 77.106L132.033 76.0568L132.355 66.3982ZM135.535 51.6728L135.695 51.4345L135.491 51.2326L131.2 46.9874L130.537 46.3311L130.611 47.2613L131.362 56.7671L131.441 57.7586L131.996 56.9333L135.535 51.6728Z" fill="#0C0C0C" stroke="white" stroke-width="0.693723"/>
<path d="M67.0327 4.70882L66.5741 5.22816L82.9954 21.2631L83.0593 21.3255L83.1454 21.3493L88.7775 22.9047L89.0862 22.2992L67.0327 4.70882Z" fill="#FFDD29" stroke="white" stroke-width="0.693723"/>
<path d="M135.841 61.4031L135.992 61.183L135.818 60.9808L131.971 56.5134L131.331 55.7701L131.362 56.7505L131.662 66.3974L131.695 67.4587L132.295 66.5826L135.841 61.4031Z" fill="#0C0C0C" stroke="white" stroke-width="0.693723"/>
<path d="M130.262 33.4605L129.636 33.7607L142.234 60.5862L142.242 60.6041L142.253 60.6209L144.965 65.0161L145.572 64.6813L130.262 33.4605Z" fill="#FFDD29" stroke="white" stroke-width="0.693723"/>
<path d="M63.5981 36.1329L63.316 35.4616L62.9725 36.1036L60.0662 41.5347L59.807 42.0191L60.3558 42.0448L65.6479 42.2928L66.1968 42.3185L65.984 41.812L63.5981 36.1329ZM135.525 71.1366L135.664 70.9365L135.523 70.7377L132.291 66.186L131.696 65.3478L131.662 66.3752L131.339 76.0338L131.3 77.2069L131.971 76.2436L135.525 71.1366ZM135.594 51.4684L135.56 50.3931L134.959 51.2857L131.42 56.5463L131.273 56.7658L131.445 56.9662L135.292 61.4336L135.933 62.1775L135.902 61.1963L135.594 51.4684Z" fill="#0C0C0C" stroke="white" stroke-width="0.693723"/>
<path d="M66.7836 5.32536L66.8647 4.63657L58.8636 3.51254L58.8475 3.51028L58.8313 3.50953L51.3778 3.16518L51.329 3.85698L66.7836 5.32536Z" fill="#FFDD29" stroke="white" stroke-width="0.693723"/>
<path d="M130.944 85.7094L134.461 80.7293L134.587 80.5513L134.481 80.3608L131.989 75.877L131.462 74.9286L131.342 76.0068L130.283 85.4429L126.839 90.32L126.733 90.4706L126.798 90.643L128.476 95.0715L128.909 96.2132L129.141 95.0146L130.944 85.7094ZM89.172 22.7411L89.3905 22.3544L88.9624 22.2362L83.5041 20.7287L83.307 20.1751L83.067 20.608L82.6874 20.5032L82.8586 20.9839L79.961 26.2107L74.825 25.2735L74.6243 24.7587L74.3875 25.1937L74.0234 25.1273L74.1904 25.5558L71.2439 30.9693L71.0117 31.3959L71.4906 31.4771L76.8535 32.3864L77.0505 32.8916L77.2896 32.4603L77.6508 32.5216L77.4876 32.103L80.316 27.0011L85.4898 28.3719L85.6835 28.9156L85.9255 28.4873L86.303 28.5873L86.1352 28.1162L89.172 22.7411ZM60.6779 41.8621L60.9729 41.3108L60.3491 41.3523L55.7444 41.6585L55.5592 41.1953L55.2994 41.6881L55.0166 41.7069L55.1343 42.0013L52.3585 47.2664L52.0639 47.8253L52.6936 47.7739L57.2912 47.3982L57.4726 47.8521L57.7349 47.3619L58.0146 47.3391L57.9003 47.0529L60.6779 41.8621ZM135.902 61.2185L135.94 60.031L135.269 61.0114L131.722 66.1909L131.586 66.3905L131.726 66.5877L134.958 71.1394L135.554 71.9791L135.587 70.9498L135.902 61.2185Z" fill="#0C0C0C" stroke="white" stroke-width="0.693723"/>
<path d="M67.0587 4.73197L66.5356 5.18377L77.371 20.1251L77.4512 20.2357L77.5852 20.2619L83.1711 21.3555L84.3115 21.5788L83.4801 20.7669L67.0587 4.73197Z" fill="#FFDD29" stroke="white" stroke-width="0.693723"/>
<path d="M135.585 70.9767L134.956 70.7403L131.401 75.8472L131.278 76.0248L131.383 76.2138L133.874 80.6976L134.402 81.6482L134.522 80.5674L135.585 70.9767Z" fill="#0C0C0C" stroke="white" stroke-width="0.693723"/>
<path d="M171.194 83.2332L171.657 82.725L130.216 33.39L129.639 33.7658L144.949 64.9866L144.989 65.0676L145.063 65.1189L171.194 83.2332Z" fill="#FFDD29" stroke="white" stroke-width="0.693723"/>
<path d="M71.8529 31.3009L72.1095 30.8295L71.5743 30.7892L66.2641 30.3897L65.7095 30.348L65.916 30.8644L68.2574 36.7185L68.5314 37.4035L68.8841 36.7555L71.8529 31.3009ZM139.453 56.1282L139.605 55.9056L139.427 55.7031L135.507 51.2502L134.87 50.5259L134.9 51.4903L135.208 61.2182L135.241 62.2786L135.841 61.4032L139.453 56.1282Z" fill="#0C0C0C" stroke="white" stroke-width="0.693723"/>
<path d="M171.094 83.1272L171.705 82.8006L165.772 70.1742L165.757 70.144L165.738 70.117L156.177 57.044L155.6 57.4278L171.094 83.1272Z" fill="#FFDD29" stroke="white" stroke-width="0.693723"/>
<path d="M66.5603 30.6065L66.2838 29.9151L65.9325 30.5716L63.0649 35.9305L58.6546 36.1542L58.472 35.6696L58.2045 36.1771L57.9272 36.1911L58.0396 36.4897L55.2088 41.8592L54.9194 42.4083L55.5387 42.3671L60.1381 42.0612L60.3169 42.536L60.587 42.0314L60.8613 42.0131L60.752 41.723L63.4791 36.6267L68.5586 36.9356L69.105 36.9688L68.9017 36.4605L66.5603 30.6065ZM132.274 90.6868L132.478 91.2009L132.688 90.1076L132.754 90.0155L132.722 89.9338L134.504 80.6678L138.086 75.5944L138.214 75.4134L138.104 75.2214L135.651 70.9559L138.867 66.3345L139.176 66.7572L139.204 65.8506L139.286 65.7321L139.211 65.6286L139.513 55.9428L139.55 54.7576L138.88 55.736L135.546 60.6062L135.241 60.1881L135.211 61.0946L135.13 61.2133L135.204 61.315L134.894 70.9135L133.842 80.4018L130.704 84.8464L130.503 84.3394L130.291 85.4307L130.226 85.5232L130.258 85.6034L128.46 94.8822L129.083 95.15L132.274 90.6868ZM83.5411 21.1829L83.7723 20.7659L83.3044 20.6743L77.909 19.618L77.7108 19.0872L77.4688 19.5318L77.1101 19.4616L77.2716 19.8942L74.2674 25.4138L74.0382 25.8349L74.5098 25.9209L79.8875 26.9021L80.0819 27.4229L80.3262 26.9821L80.6821 27.0471L80.5244 26.6246L83.5411 21.1829Z" fill="#0C0C0C" stroke="white" stroke-width="0.693723"/>
<path d="M72.0022 19.4833L72.0783 19.6818L72.2897 19.7041L77.6155 20.2665L78.3899 20.3482L77.9327 19.7179L67.0973 4.77655L66.4926 5.10429L72.0022 19.4833Z" fill="#FFDD29" stroke="white" stroke-width="0.693723"/>
<path d="M138.82 55.9213L138.517 65.6234L134.956 70.7402L134.83 70.9207L134.94 71.1113L137.392 75.3754L134.256 79.8155L134.055 79.3295L133.851 80.3901L133.783 80.4853L133.817 80.5658L132.036 89.8277L128.518 94.7466L128.427 94.8739L128.463 95.0263L129.45 99.3118L130.122 99.3268L132.68 90.1197L135.909 85.6037L136.114 86.0965L136.316 85.034L136.384 84.9392L136.35 84.8571L137.968 76.3779L138.032 76.4887L138.138 75.5213L141.78 70.3638L141.91 70.1797L141.795 69.9862L139.273 65.7517L142.833 60.6368L142.976 60.431L142.825 60.2305L139.444 55.7239L138.851 54.9333L138.82 55.9213ZM74.8766 25.7456L75.129 25.2818L74.603 25.2344L69.5007 24.7744L69.3071 24.2652L69.0561 24.7343L68.7322 24.7051L68.8732 25.076L66.0266 30.3957L61.6193 30.5472L61.4397 30.0404L61.1642 30.5629L60.8922 30.5722L60.9995 30.8753L58.1123 36.3519L57.8281 36.8909L58.4367 36.8601L63.0375 36.6266L63.2134 37.1232L63.4914 36.6036L63.7605 36.59L63.6562 36.2957L66.4374 31.0983L71.3025 31.4643L71.4923 31.9635L71.7458 31.4977L72.0665 31.5218L71.9292 31.1607L74.8766 25.7456ZM55.8224 42.1829L56.1632 41.5365L55.4469 41.6811L51.3582 42.5068L51.1951 42.0271L50.8968 42.6L50.6725 42.6453L50.7518 42.8785L47.9669 48.2285L47.6246 48.8859L48.3487 48.7275L52.4365 47.8331L52.5961 48.3026L52.8967 47.7324L53.1185 47.6838L53.0416 47.4577L55.8224 42.1829Z" fill="#0C0C0C" stroke="white" stroke-width="0.693723"/>
<path d="M67.1171 19.3739L67.132 19.7051L67.4636 19.7051L72.326 19.7059L72.8305 19.706L72.65 19.2349L67.1404 4.85595L66.47 4.99565L67.1171 19.3739Z" fill="#FFDD29" stroke="white" stroke-width="0.693723"/>
<path d="M133.257 95.026L133.395 95.5856L133.732 94.3692L133.789 94.2894L133.772 94.2215L136.324 84.9867L135.708 84.6926L132.518 89.1537L132.381 88.6024L132.044 89.816L131.987 89.8961L132.003 89.9628L129.454 99.1412L130.069 99.4372L133.257 95.026ZM142.893 60.476L142.263 60.2406L138.576 65.539L138.448 65.7225L138.562 65.9146L141.199 70.3413L141.73 71.2334L141.841 70.2011L142.893 60.476ZM77.9564 20.0872L78.2048 19.631L77.6882 19.5764L72.3624 19.0141L71.8116 18.9559L71.9997 19.4768L74.2457 25.6977L74.5077 26.4235L74.8766 25.7458L77.9564 20.0872Z" fill="#0C0C0C" stroke="white" stroke-width="0.693723"/>
<path d="M66.8192 5.32688L66.8492 4.63472L51.3946 3.16633L51.3556 3.16263L51.3168 3.1677L38.2662 4.87368L38.3141 5.56446L66.8192 5.32688Z" fill="#FFDD29" stroke="white" stroke-width="0.693723"/>
<path d="M58.7261 36.6755L59.0596 36.0429L58.3563 36.1726L53.9726 36.9811L53.5868 37.0522L53.7046 37.4264L55.1849 42.1255L55.4347 42.9186L55.8225 42.183L58.7261 36.6755ZM72.6523 19.2412L72.3878 18.5085L72.0202 19.1954L68.9479 24.9368L68.7006 25.3989L69.2226 25.4459L74.5409 25.9254L75.0832 25.9743L74.8983 25.4621L72.6523 19.2412Z" fill="#0C0C0C" stroke="white" stroke-width="0.693723"/>
<path d="M171.077 83.0958L171.713 82.8195L169.22 76.5827L169.212 76.5644L169.203 76.5471L165.763 70.1575L165.144 70.4695L171.077 83.0958Z" fill="#FFDD29" stroke="white" stroke-width="0.693723"/>
<path d="M139.612 80.4248L139.817 80.8966L140.013 79.8647L140.083 79.767L140.047 79.6847L141.823 70.3023L145.544 65.0341L145.676 64.8469L145.555 64.6518L142.843 60.2566L142.312 59.3956L142.203 60.4014L141.161 70.0371L137.875 74.6909L137.673 74.2257L137.476 75.2558L137.407 75.3539L137.442 75.4347L135.652 84.8154L133.096 94.064L129.507 99.0308L129.434 99.1324L129.442 99.2574L129.719 103.356L130.391 103.452L133.723 94.381L137.39 89.3072L137.486 89.174L137.444 89.015L136.367 84.9631L139.612 80.4248ZM54.3663 37.218L54.1146 36.4189L53.7278 37.162L50.882 42.6287L47.1292 44.0252L46.8373 44.1338L46.9139 44.4356L47.9385 48.474L48.1622 49.3559L48.5823 48.5489L51.3592 43.2145L55.5843 42.3612L55.9624 42.2849L55.8465 41.917L54.3663 37.218ZM69.5595 25.2641L69.8382 24.7433L69.2477 24.7536L64.6403 24.834L64.464 24.3041L64.1804 24.842L63.9134 24.8466L64.0158 25.1543L61.0705 30.7409L60.7916 31.2699L61.3893 31.2493L65.991 31.0911L66.1637 31.6101L66.4499 31.0753L66.7139 31.0662L66.6145 30.7676L69.5595 25.2641Z" fill="#0C0C0C" stroke="white" stroke-width="0.693723"/>
<path d="M62.7607 19.8309L62.6381 20.3229L63.1411 20.2588L67.5076 19.7023L67.8246 19.6619L67.8102 19.3426L67.1631 4.96442L66.48 4.89619L62.7607 19.8309Z" fill="#FFDD29" stroke="white" stroke-width="0.693723"/>
<path d="M47.6629 44.5666L50.8778 43.3703L50.9995 43.9053L51.3742 43.1856L51.5337 43.1263L51.4946 42.9543L54.265 37.6324L58.1738 36.9115L58.3259 37.4343L58.6476 36.8241L58.8595 36.7851L58.7915 36.5513L61.2714 31.8474L61.6842 31.0643L62.0103 30.4457L64.6028 25.5283L68.9999 25.4516L69.169 25.9938L69.4635 25.4435L69.7227 25.439L69.6281 25.1358L72.6319 19.5225L72.905 19.0121L72.3261 19.012L67.7188 19.0112L67.5462 18.4576L67.2544 19.0111L66.9921 19.0111L67.0896 19.3237L64.1669 24.8675L59.9678 25.4857L59.5825 25.5424L59.6833 25.9186L60.9434 30.623L57.2454 31.2376L57.0899 30.7033L56.7707 31.3165L56.5562 31.3521L56.6264 31.5936L53.791 37.0405L50.4198 38.2305L50.2952 37.683L49.9227 38.406L49.7612 38.4629L49.8017 38.6408L47.3612 43.3773L46.9418 44.1912L46.5315 44.9876L44.079 49.7473L43.6587 50.563L44.5135 50.2293L48.4008 48.7117L48.6862 48.6002L48.6109 48.3032L47.6629 44.5666ZM139.36 79.5853L139.307 79.6592L135.708 84.6923L135.613 84.8252L135.655 84.9832L136.731 89.034L133.133 94.0133L133.058 94.1173L133.062 94.1689L129.74 103.213L130.346 103.537L134.033 98.4766L134.109 98.3722L134.105 98.3197L137.056 90.2569L137.103 90.4334L137.426 89.2563L140.736 84.6763L140.881 85.1839L141.192 84.0457L141.253 83.9604L141.234 83.8916L143.535 75.4737L143.591 75.5984L143.78 74.5968L143.852 74.4961L147.574 69.2905L147.693 69.124L147.605 68.9393L145.573 64.6844L145.115 63.7255L144.933 64.6955L141.562 69.47L141.359 69.0252L141.17 70.025L141.098 70.1262L141.135 70.2072L139.36 79.5853Z" fill="#0C0C0C" stroke="white" stroke-width="0.693723"/>
<path d="M51.4069 3.85565L51.3393 3.16559L44.4822 3.61315L44.4588 3.61468L44.4357 3.61936L38.2423 4.87778L38.3563 5.56163L51.4069 3.85565Z" fill="#FFDD29" stroke="white" stroke-width="0.693723"/>
<path d="M60.3535 25.7392L60.1227 24.8775L59.7108 25.6688L56.6908 31.4702L56.37 32.0865L57.0553 31.9726L61.4343 31.2448L61.8114 31.1821L61.7125 30.8129L60.3535 25.7392ZM134.068 98.4186L133.473 98.0682L129.785 103.128L129.732 103.201L129.721 103.292L129.265 107.152L129.924 107.339L134.068 98.4186Z" fill="#0C0C0C" stroke="white" stroke-width="0.693723"/>
<path d="M171.218 83.2488L171.589 82.663L145.458 64.5488L144.385 63.8048L144.947 64.9833L146.979 69.2383L147.025 69.3357L147.119 69.3895L171.218 83.2488Z" fill="#FFDD29" stroke="white" stroke-width="0.693723"/>
<path d="M47.5585 44.5093L48.1172 43.4249L50.4132 38.9688L53.7747 37.7822L53.8903 38.3525L54.2799 37.6039L54.4353 37.549L54.3998 37.3737L57.306 31.7908L57.7016 31.0308L56.8887 31.3015L53.4046 32.4619L53.2863 31.8782L52.8988 32.6303L52.7415 32.6827L52.7783 32.8642L49.9061 38.4385L46.6918 40.3049L46.498 40.4173L46.5209 40.6402L46.8826 44.1666L44.2074 45.7738L44.1324 45.1886L43.6672 46.0984L43.558 46.164L43.5732 46.2823L40.7432 51.8165L40.1761 52.9256L41.2348 52.2692L44.1118 50.4855L44.185 51.0565L44.6517 50.1508L44.7597 50.0838L44.7451 49.9695L47.0241 45.5464L47.5585 44.5093ZM133.693 102.178L137.812 93.292L137.87 93.2124L137.864 93.1595L141.183 84.058L144.584 79.3521L144.731 79.8345L145.03 78.7348L145.094 78.6464L145.073 78.5773L147.626 69.1801L147.01 68.8874L143.579 73.6843L143.434 73.2093L143.135 74.3065L143.071 74.3953L143.092 74.4631L140.556 83.7418L136.827 88.9011L136.75 89.0079L136.755 89.0598L133.444 98.1077L133.418 98.1438L133.414 98.179L129.295 107.046L129.889 107.398L133.634 102.29L133.69 102.214L133.693 102.178ZM67.7704 19.5201L68.0815 18.93L67.4197 19.0143L63.3602 19.5316L63.2144 18.9383L62.8732 19.5937L62.6675 19.6199L62.7291 19.8706L59.7107 25.669L59.3972 26.2712L60.0688 26.1723L64.13 25.5745L64.2725 26.1549L64.6163 25.5029L64.8194 25.473L64.7599 25.2306L67.7704 19.5201Z" fill="#0C0C0C" stroke="white" stroke-width="0.693723"/>
<path d="M171.254 83.267L171.564 82.6476L147.465 68.7883L146.681 68.3379L146.962 69.1967L148.295 73.2758L148.343 73.4249L148.488 73.4868L171.254 83.267Z" fill="#FFDD29" stroke="white" stroke-width="0.693723"/>
<path d="M137.513 96.9675L141.643 88.034L141.703 87.9517L145.53 82.7006L145.613 82.5876L145.593 82.4491L145.074 78.6733L148.906 73.3713L149.009 73.2282L148.954 73.0604L147.621 68.9813L147.261 67.8788L146.957 68.9981L144.393 78.4308L140.593 83.6907L140.513 83.8003L140.519 83.8526L137.202 92.9504L137.175 92.9885L137.171 93.024L133.054 101.907L129.33 106.987L129.298 107.03L129.281 107.08L128.065 110.643L128.694 110.927L133.646 102.274L137.453 97.0816L137.51 97.0038L137.513 96.9675ZM47.211 40.5693L47.0913 39.4022L46.5571 40.4468L43.6495 46.1329L40.9896 48.6304L40.8885 48.7253L40.8848 48.7909L38.0163 54.4272L38.5652 54.835L41.292 52.2249L41.3907 52.1304L41.3943 52.067L44.1946 46.5908L47.4288 44.6477L47.6177 44.5342L47.5952 44.315L47.211 40.5693ZM60.326 25.9893L60.7111 25.2495L59.915 25.498L56.4474 26.5804L56.3362 25.9589L55.9333 26.7408L55.7799 26.7887L55.8131 26.9742L52.8819 32.6629L49.6896 34.4489L49.4958 34.5573L49.5131 34.7787L49.8222 38.7146L49.9177 39.9306L50.4763 38.8463L53.3861 33.1991L56.7275 32.0863L56.8361 32.6934L57.2412 31.9152L57.3926 31.8648L57.3606 31.6858L60.326 25.9893Z" fill="#0C0C0C" stroke="white" stroke-width="0.693723"/>
<path d="M171.302 83.2834L171.528 82.6296L148.761 72.8494L148.184 72.6013L148.282 73.2222L148.892 77.0829L148.927 77.3057L149.145 77.3639L171.302 83.2834Z" fill="#FFDD29" stroke="white" stroke-width="0.693723"/>
<path d="M148.951 73.286L148.343 72.9648L144.43 78.3795L144.349 78.4922L144.368 78.6299L144.906 82.5434L145.576 82.6142L148.951 73.286ZM50.2048 34.7243L50.1087 33.5012L49.5501 34.5935L46.5854 40.3913L43.9516 42.8132L43.8511 42.9055L43.8405 43.0415L43.5851 46.3174L44.2397 46.5023L47.1283 40.8533L50.3422 38.9873L50.5309 38.8777L50.5138 38.6602L50.2048 34.7243ZM63.4048 20.0748L63.7793 19.3554L63.0005 19.5815L59.5498 20.5831L59.4466 19.9222L59.028 20.7346L58.8782 20.7781L58.9078 20.9679L55.8669 26.8697L55.4871 27.6067L56.2786 27.3597L59.7378 26.2799L59.8386 26.9254L60.2594 26.1171L60.4073 26.0709L60.3787 25.888L63.4048 20.0748ZM132.47 105.8L132.503 105.755L132.509 105.736L137.474 97.0485L136.893 96.6713L133.075 101.879L133.043 101.923L133.036 101.942L128.092 110.583L128.672 110.961L132.47 105.8Z" fill="#0C0C0C" stroke="white" stroke-width="0.693723"/>
<path d="M172.95 94.7705L173.638 94.6903L173.226 88.9491L173.224 88.9195L173.217 88.8907L171.728 82.8648L171.049 83.0034L172.95 94.7705Z" fill="#FFDD29" stroke="white" stroke-width="0.693723"/>
<path d="M141.347 91.7704L141.406 91.6902L141.409 91.6536L145.55 82.6727L149.515 77.2331L149.599 77.1168L149.577 76.9747L148.967 73.1139L148.298 73.05L144.94 82.3318L141.063 87.653L141.004 87.7329L141.002 87.7688L136.858 96.7309L137.453 97.0815L141.347 91.7704ZM44.5321 43.0955L43.8772 42.9112L40.9179 48.7258L41.4644 49.136L44.1683 46.5973L44.2663 46.5054L44.2767 46.3714L44.5321 43.0955ZM56.4835 27.1875L56.9952 26.1944L56.0111 26.7231L52.7475 28.4761L52.553 28.5806L52.5653 28.801L52.7961 32.9339L52.8672 34.2061L53.4508 33.0734L56.4835 27.1875Z" fill="#0C0C0C" stroke="white" stroke-width="0.693723"/>
<path d="M63.0881 20.2614L63.3664 20.2686L63.4336 19.9985L67.153 5.0638L67.302 4.46559L66.7133 4.64879L22.1071 18.5315L22.2012 19.2094L63.0881 20.2614Z" fill="#FFDD29" stroke="white" stroke-width="0.693723"/>
<path d="M53.2579 28.7624L53.1864 27.4824L52.6027 28.6238L49.5501 34.5936L49.0285 35.6135L50.0282 35.0542L53.3117 33.2173L53.5008 33.1115L53.4887 32.8953L53.2579 28.7624Z" fill="#0C0C0C" stroke="white" stroke-width="0.693723"/>
<path d="M66.9196 5.31134L66.8136 4.63329L38.3085 4.87088L38.1829 4.87193L38.0871 4.95311L21.986 18.5982L22.3133 19.194L66.9196 5.31134ZM171.355 83.2933L171.481 82.6132L149.324 76.6938L148.905 76.5819L148.888 77.0152L148.745 80.6078L148.732 80.9328L149.056 80.9666L171.355 83.2933Z" fill="#FFDD29" stroke="white" stroke-width="0.693723"/>
<path d="M136.347 100.532L136.378 100.49L136.384 100.471L141.359 91.7546L145.319 86.3533L145.38 86.2706L145.382 86.2336L149.549 77.1738L148.954 76.8246L144.97 82.2921L144.91 82.3745L144.907 82.4108L140.767 91.3885L136.894 96.6715L136.86 96.7169L136.854 96.736L131.9 105.405L128.114 110.55L128.106 110.56L128.099 110.571L126.095 113.77L126.457 114.009L126.668 114.16L130.512 108.941L130.52 108.93L130.523 108.926L136.347 100.532ZM41.8654 45.9591L40.9133 48.7291L38.9128 51.767L38.8878 51.8049L38.8816 51.8235L35.9616 57.5697L36.5612 57.9167L38.6158 54.7743L38.6403 54.7368L38.6464 54.7188L41.5363 49.0406L44.4672 43.2817L47.1009 40.8601L47.1984 40.7704L47.2049 40.704L50.1679 34.9095L49.6272 34.4937L46.9733 36.8793L46.8731 36.9694L46.8664 37.0383L43.8864 42.8935L41.9044 45.88L41.8799 45.9171L41.8654 45.9591ZM59.5764 21.1852L60.072 20.2234L59.1096 20.7178L56.3537 22.1334L56.3265 21.3421L55.768 22.4343L55.6717 22.4837L55.6762 22.6138L52.6029 28.6239L52.0971 29.6131L53.0759 29.0874L55.8479 27.5984L55.8745 28.3699L56.4343 27.2833L56.5294 27.2323L56.5251 27.1072L59.5764 21.1852Z" fill="#0C0C0C" stroke="white" stroke-width="0.693723"/>
<path d="M171.405 83.2947L171.427 82.6031L149.128 80.2764L148.838 80.2461L148.758 80.5266L147.83 83.7938L147.699 84.2545L148.178 84.2351L171.405 83.2947Z" fill="#FFDD29" stroke="white" stroke-width="0.693723"/>
<path d="M140.296 95.1655L140.33 95.1184L140.337 95.0987L145.331 86.3372L149.371 80.8266L149.434 80.7411L149.438 80.6352L149.581 77.0426L148.919 76.8839L144.739 85.9713L140.788 91.3603L140.753 91.4072L140.747 91.4265L135.763 100.158L136.344 100.536L140.296 95.1655ZM42.5212 46.1845L41.8839 45.9146L38.893 51.8005L39.4919 52.1484L41.5165 49.074L41.5406 49.0374L41.5549 48.996L42.5212 46.1845ZM53.2203 28.9396L52.6828 28.5209L50.0563 30.8246L49.9559 30.9127L49.9476 30.9835L46.8958 36.9799L47.4369 37.3951L50.0907 35.0095L50.1882 34.9218L50.1961 34.8538L53.2203 28.9396Z" fill="#0C0C0C" stroke="white" stroke-width="0.693723"/>
<path d="M38.4672 5.52736L38.1868 4.89378L32.7438 6.98693L32.7105 6.99975L32.6804 7.0191L28.0947 9.97366L28.4385 10.5751L38.4672 5.52736Z" fill="#FFDD29" stroke="white" stroke-width="0.693723"/>
<path d="M134.434 103.615L134.443 103.604L134.445 103.6L140.302 95.1575L139.737 94.7542L135.785 100.124L135.777 100.135L135.775 100.139L129.948 108.537L130.512 108.94L134.434 103.615ZM47.5143 37.2944L46.9169 36.9441L44.9572 39.8724L44.9329 39.9088L44.9184 39.95L43.8593 42.9531L44.4955 43.2258L47.5143 37.2944Z" fill="#0C0C0C" stroke="white" stroke-width="0.693723"/>
<path d="M170.189 104.947L170.87 105.05L173.627 94.8053L173.647 94.7334L173.635 94.6598L171.734 82.8927L171.045 82.9346L170.189 104.947Z" fill="#FFDD29" stroke="white" stroke-width="0.693723"/>
<path d="M144.328 89.686L144.364 89.6372L144.37 89.6174L149.393 80.7928L148.812 80.4161L144.759 85.9428L144.724 85.9913L144.718 86.0108L139.715 94.7879L140.296 95.1653L144.328 89.686ZM45.5722 40.1806L44.9359 39.9081L41.8838 45.9144L42.482 46.2633L44.4751 43.2602L44.4988 43.2243L44.5132 43.1837L45.5722 40.1806ZM56.3343 22.8493L55.8002 22.4276L53.2028 24.6455L53.1018 24.7318L53.0842 24.8634L52.5675 28.7356L53.2202 28.9394L56.3343 22.8493Z" fill="#0C0C0C" stroke="white" stroke-width="0.693723"/>
<path d="M171.444 83.2911L171.377 82.6017L148.15 83.5421L147.964 83.5496L147.867 83.7084L146.118 86.585L145.732 87.2204L146.467 87.1081L171.444 83.2911Z" fill="#FFDD29" stroke="white" stroke-width="0.693723"/>
<path d="M53.772 24.9553L53.1191 24.7521L49.9759 30.928L50.5138 31.3461L53.1403 29.0424L53.2381 28.9565L53.2554 28.8275L53.772 24.9553ZM138.437 98.1808L138.445 98.1693L138.448 98.1651L144.334 89.6782L143.769 89.2749L139.737 94.7542L139.729 94.7657L139.726 94.7698L133.87 103.212L134.434 103.615L138.437 98.1808Z" fill="#0C0C0C" stroke="white" stroke-width="0.693723"/>
<path d="M59.2478 21.3724L59.3074 21.3758L59.3647 21.3592L63.1939 20.2477L63.1061 19.5678L22.2192 18.5159L22.19 19.2089L59.2478 21.3724Z" fill="#FFDD29" stroke="white" stroke-width="0.693723"/>
<path d="M50.5942 31.2429L49.9976 30.8915L48.0731 33.7412L48.0489 33.777L48.0415 33.7974L44.9361 39.9085L45.5336 40.2586L47.4933 37.3303L47.5169 37.295L47.524 37.2754L50.5942 31.2429ZM148.443 84.0944L148.48 84.0439L148.497 83.9836L149.425 80.7164L148.79 80.4501L143.747 89.3092L144.328 89.6864L148.443 84.0944Z" fill="#0C0C0C" stroke="white" stroke-width="0.693723"/>
<path d="M171.468 83.2866L171.339 82.6054L146.362 86.4223L146.257 86.4384L146.179 86.5107L143.572 88.924L142.625 89.8014L143.884 89.5169L171.468 83.2866Z" fill="#FFDD29" stroke="white" stroke-width="0.693723"/>
<path d="M142.523 92.634L142.532 92.6221L142.534 92.6178L148.449 84.0863L147.884 83.6831L143.769 89.2751L143.761 89.2869L143.758 89.2911L137.873 97.7776L138.437 98.1809L142.523 92.634ZM53.7375 25.0669L53.1418 24.7142L51.2542 27.4815L51.2301 27.5168L51.2153 27.557L49.9597 30.9656L50.5943 31.2428L53.7375 25.0669Z" fill="#0C0C0C" stroke="white" stroke-width="0.693723"/>
<path d="M55.9869 23.0365L56.0911 23.0483L56.1844 23.0003L59.4266 21.3349L60.5571 20.7542L59.2883 20.6801L22.2305 18.5166L22.1713 19.2075L55.9869 23.0365Z" fill="#FFDD29" stroke="white" stroke-width="0.693723"/>
<path d="M51.8661 27.7967L51.2314 27.5196L48.0512 33.7779L48.6479 34.1292L50.5725 31.2794L50.596 31.2446L50.6105 31.2052L51.8661 27.7967Z" fill="#0C0C0C" stroke="white" stroke-width="0.693723"/>
<path d="M38.5355 5.48225L38.1553 4.9078L28.1266 9.95551L28.0492 9.99446L27.9992 10.0652L21.9268 18.6626L22.4344 19.1274L38.5355 5.48225ZM170.2 104.87L170.856 105.093L172.863 100.213L172.88 100.172L172.886 100.129L173.636 94.7634L172.958 94.6252L170.2 104.87ZM171.479 83.2839L171.315 82.6099L143.731 88.8402L143.686 88.8505L143.644 88.8726L140.145 90.743L140.396 91.3845L171.479 83.2839Z" fill="#FFDD29" stroke="white" stroke-width="0.693723"/>
<path d="M146.694 86.9709L146.703 86.9586L146.711 86.9455L148.46 84.0689L147.879 83.691L141.958 92.2306L142.523 92.634L146.694 86.9709Z" fill="#0C0C0C" stroke="white" stroke-width="0.693723"/>
<path d="M53.3622 25.2501L53.5263 25.2818L53.6534 25.1733L56.2509 22.9554L56.8582 22.4368L56.0646 22.347L22.2491 18.5181L22.1441 19.2033L53.3622 25.2501Z" fill="#FFDD29" stroke="white" stroke-width="0.693723"/>
<path d="M10.925 44.603L10.2812 44.3466L7.52769 50.4229L7.51406 50.453L7.50635 50.4851L6.01299 56.7051L6.67812 56.8993L10.925 44.603Z" fill="#0C0C0C" stroke="white" stroke-width="0.693723"/>
<path d="M171.48 83.2835L171.304 82.6124L171.303 82.6126L140.221 90.713L140.221 90.7129L140.215 90.7147L135.797 91.9548L135.791 91.9563L135.973 92.6257L135.979 92.6242L171.479 83.2837L171.48 83.2835ZM51.4411 28.0088L51.6843 28.0819L51.8274 27.8721L53.715 25.1048L54.0122 24.6691L53.4944 24.5688L22.2763 18.522L22.1105 19.1947L51.4411 28.0088Z" fill="#FFDD29" stroke="white" stroke-width="0.693723"/>
<path d="M149.708 131.393L149.226 130.9L144.407 134.618L144.35 134.539L144.089 134.864L143.858 135.043L143.899 135.101L139.803 140.196L140.287 140.686L145.163 136.875L145.218 136.952L145.48 136.627L145.711 136.447L145.671 136.391L149.708 131.393ZM13.7367 38.3986L13.0928 38.1425L10.2813 44.3468L10.2673 44.3778L10.2635 44.3936L6.02248 56.6731L6.666 56.9301L9.47711 50.758L9.49132 50.7268L9.49513 50.7105L13.7367 38.3986Z" fill="#0C0C0C" stroke="white" stroke-width="0.693723"/>
<path d="M28.5659 10.4652L28.0295 10.0279L24.4279 13.8707L24.3953 13.9056L24.3732 13.948L21.9024 18.7026L22.4935 19.0627L28.5659 10.4652Z" fill="#FFDD29" stroke="white" stroke-width="0.693723"/>
<path d="M154 126.079L153.52 125.585L148.477 129.422L148.246 129.597L148.377 129.855L149.129 131.332L149.372 131.809L149.708 131.393L154 126.079Z" fill="#0C0C0C" stroke="white" stroke-width="0.693723"/>
<path d="M50.2978 31.306L50.6442 31.4548L50.7637 31.0972L51.8697 27.7866L51.983 27.4474L51.6405 27.3445L22.31 18.5303L22.0732 19.1812L50.2978 31.306Z" fill="#FFDD29" stroke="white" stroke-width="0.693723"/>
<path d="M16.6079 32.0617L15.964 31.8058L13.0926 38.1422L13.0781 38.1741L13.0704 38.2082L11.695 44.2311L12.3612 44.4211L16.6079 32.0617Z" fill="#0C0C0C" stroke="white" stroke-width="0.693723"/>
<path d="M147.572 116.531L148.016 117.037L170.695 105.268L170.874 105.175L170.882 104.974L171.738 82.9615L171.784 81.7777L171.107 82.7498L147.572 116.531Z" fill="#FFDD29" stroke="white" stroke-width="0.693723"/>
<path d="M12.3489 44.452L12.3636 44.4199L12.3714 44.3855L13.7468 38.3625L13.0807 38.1723L8.8388 50.4852L6.03455 56.6422L6.00439 56.7085L6.00339 56.7812L5.90615 63.8684L6.59179 63.9474L9.49227 50.7241L12.3489 44.452ZM148.996 129.54L148.752 129.062L148.416 129.48L144.063 134.896L144.546 135.387L149.65 131.449L149.878 131.274L149.747 131.017L148.996 129.54ZM158.383 120.652L157.905 120.157L152.927 123.886L152.724 124.039L152.808 124.278L153.402 125.976L153.608 126.564L154 126.079L158.383 120.652Z" fill="#0C0C0C" stroke="white" stroke-width="0.693723"/>
<path d="M50.015 35.1318L50.4973 35.4071L50.5331 34.8528L50.7809 31.0097L50.7966 30.7653L50.5716 30.6687L22.3471 18.5439L22.0382 19.1639L50.015 35.1318Z" fill="#FFDD29" stroke="white" stroke-width="0.693723"/>
<path d="M19.5414 25.5887L18.8973 25.3331L15.9641 31.8059L15.9492 31.8387L15.9456 31.8549L11.7052 44.1957L12.3489 44.4522L15.2836 38.0086L15.2987 37.9755L15.3024 37.9589L19.5414 25.5887ZM144.604 135.33L144.189 134.798L137.593 137.836L137.133 138.048L137.496 138.4L139.832 140.662L140.105 140.927L140.344 140.63L144.604 135.33ZM153.462 124.049L153.256 123.46L152.865 123.947L148.416 129.481L148.896 129.974L153.94 126.137L154.14 125.985L154.057 125.747L153.462 124.049Z" fill="#0C0C0C" stroke="white" stroke-width="0.693723"/>
<path d="M147.545 116.882L147.804 117.411L148.141 116.927L171.676 83.1465L172.215 82.3729L171.303 82.6128L135.797 91.955L135.387 92.0628L135.573 92.4431L147.545 116.882Z" fill="#FFDD29" stroke="white" stroke-width="0.693723"/>
<path d="M12.3721 44.382L11.7175 44.1644L8.84552 50.4701L8.8146 50.538L8.81447 50.5756L5.91402 63.7988L6.56783 64.0183L9.45113 57.7632L9.48271 57.6947L9.48285 57.6559L12.3721 44.382ZM137.979 137.902L137.704 137.636L137.466 137.935L133.167 143.34L133.587 143.869L140.222 140.726L140.674 140.512L140.315 140.164L137.979 137.902ZM162.861 115.108L162.385 114.611L157.476 118.228L157.294 118.362L157.344 118.582L157.774 120.51L157.931 121.211L158.383 120.652L162.861 115.108ZM22.5383 18.9747L21.8941 18.7193L18.8971 25.3329L18.8818 25.3668L18.874 25.4033L17.6284 31.2059L18.2957 31.3908L22.5383 18.9747Z" fill="#0C0C0C" stroke="white" stroke-width="0.693723"/>
<path d="M50.6763 39.4718L51.3483 39.9483L51.2195 39.1346L50.5295 34.7763L50.5034 34.6118L50.3588 34.5293L22.382 18.5614L22.0095 19.1456L50.6763 39.4718Z" fill="#FFDD29" stroke="white" stroke-width="0.693723"/>
<path d="M18.2832 31.4226L18.2988 31.3884L18.3067 31.3517L19.5523 25.5491L18.8851 25.3638L14.6398 37.7524L15.2836 38.0086L18.2832 31.4226ZM148.957 129.915L148.545 129.381L141.991 132.31L141.56 132.502L141.873 132.856L144.074 135.343L144.346 135.651L144.604 135.33L148.957 129.915Z" fill="#0C0C0C" stroke="white" stroke-width="0.693723"/>
<path d="M162.093 112.471L162.535 113.004L167.37 109.506L167.409 109.478L167.439 109.44L170.807 105.176L170.297 104.709L162.093 112.471Z" fill="#FFDD29" stroke="white" stroke-width="0.693723"/>
<path d="M158.07 118.652L162.317 115.522L162.344 115.747L162.833 115.143L162.959 115.049L162.953 114.994L167.437 109.443L166.964 108.944L162.606 112.096L162.578 111.863L162.09 112.469L161.963 112.562L161.97 112.619L157.863 117.728L157.467 118.221L151.089 120.878L150.707 121.038L150.931 121.386L152.622 124.008L146.739 126.55L146.633 126.411L146.409 126.693L146.083 126.834L146.187 126.971L142.118 132.087L141.861 132.41L137.541 137.842L129.672 139.724L129.531 139.598L129.378 139.795L128.851 139.921L129.103 140.146L124.988 145.407L124.364 146.205L125.346 145.957L133.345 143.937L133.481 144.059L133.637 143.863L134.157 143.732L133.914 143.515L137.958 138.432L144.479 135.428L144.903 135.233L144.593 134.883L142.705 132.75L148.576 130.127L148.678 130.262L148.904 129.98L149.226 129.837L149.126 129.704L153.104 124.756L153.378 124.415L158.321 120.712L158.5 120.577L158.451 120.359L158.07 118.652ZM11.6858 44.2344L11.6861 44.2723L8.80531 57.5074L8.77397 57.5754L5.93788 63.7281L5.89167 63.8283L5.9119 63.9369L7.38841 71.8584L7.69182 71.8454L8.04331 71.9424L11.0151 65.6205L11.0637 65.5172L11.0514 65.4554L12.4231 51.3161L12.4309 51.2991L15.412 44.8318L15.4453 44.7596L15.4445 44.7201L18.2988 31.3884L21.3499 24.6894L21.366 24.654L21.3739 24.6159L22.5498 18.933L21.8819 18.7506L17.6448 31.1506L14.6522 37.7211L14.6196 37.7927L11.7175 44.1647L11.6858 44.2344Z" fill="#0C0C0C" stroke="white" stroke-width="0.693723"/>
<path d="M22.5563 18.8874L21.8706 18.7924L20.6947 24.4753L20.6859 24.5178L20.6879 24.5611L20.9852 31.1766L21.6777 31.1857L22.5563 18.8874Z" fill="#FFDD29" stroke="white" stroke-width="0.693723"/>
<path d="M21.3735 24.6177L20.7185 24.4019L17.6518 31.1352L17.6183 31.2089L17.6195 31.2476L14.7578 44.6141L15.4119 44.8319L18.4938 38.1459L18.5281 38.0716L18.5268 38.0316L21.3735 24.6177ZM142.404 132.842L143.017 132.072L142.056 132.288L133.913 134.122L133.293 134.262L133.746 134.708L137.494 138.398L137.769 138.669L138.009 138.367L142.404 132.842ZM151.514 121.01L151.252 120.604L150.951 120.982L146.355 126.761L146.764 127.295L153.272 124.482L153.648 124.32L153.426 123.976L151.514 121.01Z" fill="#0C0C0C" stroke="white" stroke-width="0.693723"/>
<path d="M147.697 116.421L147.949 117.063L162.424 113.057L162.507 113.034L162.57 112.975L170.774 105.213L170.376 104.653L147.697 116.421Z" fill="#FFDD29" stroke="white" stroke-width="0.693723"/>
<path d="M15.4422 44.7194L14.7819 44.5415L11.7684 51.0791L11.7201 51.1838L11.733 51.2441L10.3617 65.3798L7.41542 71.6474L7.35348 71.7791L7.40415 71.9156L10.6324 80.6145L11.3044 80.4879L11.0493 65.5477L14.0544 59.1548L14.1041 59.0492L14.0908 58.987L15.4422 44.7194ZM134.233 134.214L133.956 133.941L133.716 134.247L129.398 139.769L120.088 140.414L119.299 140.468L119.874 141.012L125.023 145.873L125.3 146.134L125.535 145.835L129.775 140.413L137.818 138.489L138.427 138.343L137.981 137.904L134.233 134.214ZM162.602 112.94L163.43 111.91L162.202 112.401L156.082 114.85L155.979 114.661L155.711 114.999L155.434 115.11L155.511 115.251L150.951 120.982L151.356 121.518L157.527 118.947L157.627 119.13L157.897 118.793L158.171 118.679L158.097 118.544L162.602 112.94ZM146.898 127.193L147.497 126.439L146.555 126.637L138.433 128.347L137.836 128.473L138.25 128.922L141.877 132.861L142.152 133.159L142.404 132.842L146.898 127.193ZM21.6465 31.3063L21.6818 31.2298L21.678 31.1456L21.3807 24.5301L20.6949 24.4737L17.8395 37.9287L18.4938 38.1459L21.6465 31.3063Z" fill="#0C0C0C" stroke="white" stroke-width="0.693723"/>
<path d="M147.576 116.933L148.168 116.576L136.196 92.1378L136.091 91.9218L135.851 91.9451L130.479 92.468L129.877 92.5267L130.232 93.0169L147.576 116.933Z" fill="#FFDD29" stroke="white" stroke-width="0.693723"/>
<path d="M18.5243 38.0324L17.8639 37.8553L14.782 44.5413L14.7326 44.6484L14.7464 44.7092L13.401 58.9141L10.3873 65.3252L10.3243 65.4593L10.3554 65.5402L10.6109 80.4995L11.27 80.6445L14.3481 74.2756L14.4136 74.1402L14.3814 74.0569L14.089 59.0812L17.1639 52.5399L17.2147 52.4319L17.2005 52.3693L18.5243 38.0324ZM138.76 128.452L138.483 128.151L138.232 128.473L133.716 134.247L133.117 135.012L134.066 134.799L142.209 132.964L142.794 132.833L142.388 132.391L138.76 128.452ZM120.351 140.507L120.071 140.243L119.837 140.549L115.533 146.183L115.06 146.802L115.837 146.739L125.29 145.966L126.066 145.903L125.5 145.368L120.351 140.507ZM151.494 121.414L152.08 120.677L151.156 120.858L143.06 122.437L142.484 122.55L142.86 123L146.36 127.199L146.633 127.526L146.898 127.192L151.494 121.414Z" fill="#0C0C0C" stroke="white" stroke-width="0.693723"/>
<path d="M22.5519 18.8035L21.8641 18.8378L20.9855 31.1362L20.9803 31.2096L21.0052 31.2787L26.7651 47.2294L27.4332 47.0525L22.5519 18.8035ZM130.794 92.6096L130.695 92.4742L130.528 92.4667L124.397 92.1923L123.524 92.1533L124.133 92.7804L147.607 116.97L148.137 116.525L130.794 92.6096Z" fill="#FFDD29" stroke="white" stroke-width="0.693723"/>
<path d="M134.263 134.674L134.734 134.071L133.97 134.114L124.653 134.639L124.483 134.467L124.338 134.656L123.729 134.691L124.058 135.023L119.837 140.549L119.371 141.158L120.136 141.105L129.441 140.461L129.607 140.628L129.754 140.439L130.355 140.397L130.037 140.077L134.263 134.674ZM21.677 31.192L21.0165 31.0158L17.8638 37.8553L17.8132 37.9651L17.8281 38.0262L16.5101 52.3L13.4266 58.8595L13.3625 58.9961L13.395 59.0772L13.6873 74.0485L10.6453 80.3427L10.5676 80.5035L10.6534 80.6602L15.6292 89.7518L16.2778 89.543L14.3925 74.1838L17.4979 67.7584L17.5645 67.6206L17.531 67.5369L17.1985 52.4663L20.3457 45.7713L20.3977 45.6606L20.3824 45.5976L21.677 31.192ZM143.392 122.556L143.117 122.226L142.853 122.564L138.232 128.473L137.646 129.222L138.576 129.026L146.698 127.316L147.262 127.197L146.893 126.754L143.392 122.556Z" fill="#0C0C0C" stroke="white" stroke-width="0.693723"/>
<path d="M162.239 112.389L147.962 116.34L124.631 92.2974L124.551 92.215L124.437 92.1966L117.823 91.1218L116.579 90.9198L117.544 91.7298L147.633 116.995L147.848 116.764L147.918 117.07L155.986 115.628L156.021 115.622L156.054 115.608L162.46 113.045L162.239 112.389ZM51.2185 39.1286L51.1937 38.9883L51.0775 38.9059L22.4107 18.5798L21.9088 19.0347L58.2108 82.6216L58.8536 82.3894L51.2185 39.1286Z" fill="#FFDD29" stroke="white" stroke-width="0.693723"/>
<path d="M120.388 140.97L120.779 140.459L120.137 140.414L109.933 139.691L109.742 139.489L109.609 139.668L108.908 139.618L109.322 140.055L105.23 145.571L104.848 146.086L105.488 146.124L115.651 146.732L115.837 146.928L115.972 146.751L116.665 146.792L116.264 146.369L120.388 140.97ZM156.197 115.502L156.769 114.783L155.864 114.945L148.005 116.35L147.862 116.159L147.665 116.411L147.24 116.487L147.419 116.725L142.853 122.564L142.28 123.296L143.192 123.118L151.076 121.58L151.215 121.765L151.415 121.514L151.834 121.433L151.661 121.204L156.197 115.502ZM138.778 128.901L139.241 128.308L138.49 128.34L129.171 128.738L129 128.553L128.848 128.752L128.262 128.777L128.573 129.113L124.241 134.783L123.783 135.383L124.536 135.34L133.846 134.816L134.011 134.995L134.166 134.798L134.744 134.766L134.444 134.442L138.778 128.901ZM19.4431 83.3485L19.5256 83.1838L19.4687 83.0826L17.5425 67.6663L20.722 61.0876L20.7898 60.9472L20.7548 60.8632L20.3805 45.6973L23.6024 38.8432L23.6558 38.7297L23.6243 38.6084L21.6672 31.0739L20.986 31.1301L19.6918 45.5318L16.536 52.245L16.4706 52.3841L16.5046 52.4656L16.837 67.5318L13.7235 73.9739L13.6447 74.137L13.6998 74.2351L15.5892 89.6277L15.7292 90.7685L16.2436 89.7407L19.4431 83.3485Z" fill="#0C0C0C" stroke="white" stroke-width="0.693723"/>
<path d="M117.99 91.1986L117.931 91.1487L117.856 91.1289L110.882 89.2846L110.589 89.8999L147.652 117.009L148.08 116.463L117.99 91.1986ZM52.9276 43.9839L52.9226 43.952L52.9119 43.9215L51.204 39.0737L50.5353 39.2492L58.1692 82.5026L58.1705 82.5099L58.8549 82.3968L58.8536 82.3894L52.9276 43.9839Z" fill="#FFDD29" stroke="white" stroke-width="0.693723"/>
<path d="M19.4721 83.12L19.2641 82.1564L18.8229 83.0379L15.6234 89.4301L15.5292 89.6182L15.6525 89.7887L22.1804 98.8141L22.8005 98.5376L19.4721 83.12ZM124.793 135.204L125.178 134.7L124.545 134.648L114.17 133.794L113.298 133.723L113.884 134.372L119.855 140.992L120.135 141.302L120.388 140.97L124.793 135.204Z" fill="#0C0C0C" stroke="white" stroke-width="0.693723"/>
<path d="M110.998 89.3399L110.958 89.3102L110.91 89.2932L103.712 86.7237L103.402 87.3385L147.663 117.017L148.061 116.449L110.998 89.3399Z" fill="#FFDD29" stroke="white" stroke-width="0.693723"/>
<path d="M143.399 122.992L143.854 122.41L143.116 122.431L133.632 122.701L132.903 122.722L133.38 123.274L138.242 128.913L138.518 129.233L138.778 128.9L143.399 122.992ZM114.399 133.908L114.116 133.593L113.863 133.933L109.496 139.821L109.119 140.329L109.75 140.373L120.088 141.105L120.947 141.166L120.37 140.527L114.399 133.908ZM22.7189 76.8041L22.8025 76.6371L22.7439 76.5358L20.7539 60.8928L20.6063 59.7328L20.0975 60.7856L16.8734 67.4565L16.7935 67.6219L16.8502 67.7202L18.7889 83.2361L18.9308 84.3721L19.4433 83.3483L22.7189 76.8041Z" fill="#0C0C0C" stroke="white" stroke-width="0.693723"/>
<path d="M21.6578 31.0432L20.9958 31.2482L22.9529 38.7827L22.9603 38.8114L22.9725 38.8383L26.7753 47.2545L27.4177 46.9938L21.6578 31.0432Z" fill="#FFDD29" stroke="white" stroke-width="0.693723"/>
<path d="M23.6355 38.6859L22.9748 38.5478L19.718 45.476L19.6514 45.6178L19.7137 45.7616L23.3927 54.2444L24.0576 54.0969L23.6355 38.6859Z" fill="#0C0C0C" stroke="white" stroke-width="0.693723"/>
<path d="M103.789 86.7624L103.764 86.7458L103.737 86.7336L96.4586 83.4961L96.1309 84.1054L147.663 117.017L147.67 117.021L148.05 116.441L148.043 116.437L103.789 86.7624ZM55.7328 49.3062L55.7264 49.2376L55.6942 49.1767L52.8916 43.8748L52.2421 44.0898L58.1694 82.5027L58.8575 82.4172L55.7328 49.3062Z" fill="#FFDD29" stroke="white" stroke-width="0.693723"/>
<path d="M24.023 54.2574L24.0922 54.1143L24.0289 53.9685L20.35 45.4856L19.685 45.6322L20.0629 60.9451L20.722 61.0874L24.023 54.2574ZM133.905 122.821L133.626 122.498L133.367 122.837L128.75 128.881L128.3 129.47L129.04 129.438L138.52 129.033L139.235 129.003L138.767 128.46L133.905 122.821ZM110.053 140.234L110.382 139.791L109.84 139.687L98.8406 137.575L97.8666 137.388L98.5117 138.142L105.245 146.003L105.528 146.334L105.787 145.984L110.053 140.234Z" fill="#0C0C0C" stroke="white" stroke-width="0.693723"/>
<path d="M96.5041 83.5207L96.4925 83.5133L96.4804 83.5069L89.2717 79.6706L88.9247 80.2708L147.67 117.022L147.673 117.023L148.043 116.437L148.04 116.435L96.5041 83.5207Z" fill="#FFDD29" stroke="white" stroke-width="0.693723"/>
<path d="M99.0387 137.691L98.7509 137.355L98.4933 137.714L94.2914 143.579L93.9727 144.024L94.5111 144.122L105.446 146.119L106.408 146.295L105.772 145.552L99.0387 137.691Z" fill="#0C0C0C" stroke="white" stroke-width="0.693723"/>
<path d="M89.2928 79.6825L89.2923 79.6822L82.3055 75.328L82.3042 75.3273L82.3038 75.327L81.9364 75.9154L81.9369 75.9157L147.673 117.023L147.673 117.023L147.857 116.729L148.041 116.435L148.04 116.435L148.036 116.432L89.2928 79.6825Z" fill="#FFDD29" stroke="white" stroke-width="0.693723"/>
<path d="M26.0997 92.3805L26.1998 92.1886L26.1153 92.0741L22.7476 76.5754L22.5387 75.6142L22.0985 76.4938L18.8229 83.0381L18.7277 83.2282L18.8097 83.3393L22.1224 98.6842L22.3251 99.6231L22.769 98.7713L26.0997 92.3805ZM129.301 129.302L129.681 128.805L129.058 128.746L118.647 127.765L117.792 127.685L118.351 128.336L124.254 135.22L124.532 135.545L124.793 135.205L129.301 129.302ZM148.13 116.943L148.576 116.373L147.852 116.382L138.366 116.511L137.655 116.521L138.101 117.075L142.856 122.995L143.13 123.337L143.399 122.992L148.13 116.943Z" fill="#0C0C0C" stroke="white" stroke-width="0.693723"/>
<path d="M59.5712 54.8758L59.5741 54.7624L59.5094 54.6691L55.6724 49.1409L54.9178 48.0536L55.0421 49.3712L58.1668 82.4822L58.8589 82.4586L59.5712 54.8758Z" fill="#FFDD29" stroke="white" stroke-width="0.693723"/>
<path d="M118.878 127.884L118.595 127.554L118.336 127.904L113.863 133.933L113.491 134.434L114.113 134.486L124.489 135.339L125.33 135.409L124.78 134.768L118.878 127.884ZM26.1242 92.1192L25.8773 91.3063L25.4847 92.0597L22.154 98.4504L22.0424 98.6645L22.2044 98.8435L30.1355 107.605L30.7246 107.271L26.1242 92.1192ZM26.0734 70.1024L26.1582 69.9329L26.098 69.8315L24.0549 54.062L23.9053 52.9073L23.3986 53.9556L20.0976 60.7856L20.0165 60.9535L20.0749 61.0518L22.0647 76.6926L22.2086 77.8237L22.7189 76.8041L26.0734 70.1024Z" fill="#0C0C0C" stroke="white" stroke-width="0.693723"/>
<path d="M22.5114 18.6907L21.8683 18.9217L26.7496 47.1707L26.7665 47.2682L26.8322 47.3421L58.2529 82.68L58.8133 82.2776L22.5114 18.6907Z" fill="#FFDD29" stroke="white" stroke-width="0.693723"/>
<path d="M27.4036 47.2625L27.4742 47.1166L27.4074 46.9688L23.6046 38.5527L22.9418 38.705L23.3639 54.116L24.0229 54.2575L27.4036 47.2625ZM138.641 116.64L138.364 116.295L138.095 116.647L133.367 122.837L132.925 123.415L133.652 123.395L143.136 123.125L143.833 123.105L143.396 122.561L138.641 116.64ZM114.42 134.347L114.746 133.908L114.21 133.8L103.268 131.594L103.06 131.341L102.928 131.525L102.19 131.376L102.641 131.924L98.6378 137.512L87.5679 134.168L87.3451 133.88L87.2194 134.062L86.4225 133.822L86.9321 134.48L82.9612 140.246L82.6897 140.64L83.1488 140.775L94.3677 144.082L94.5841 144.361L94.7116 144.183L95.5045 144.417L95.0057 143.773L98.9278 138.299L109.586 140.344L109.789 140.59L109.923 140.409L110.654 140.55L110.214 140.016L114.42 134.347ZM29.5109 85.835L29.612 85.6409L29.4804 85.4661L22.6856 76.4402L22.0696 76.7225L25.4531 92.2936L25.6566 93.2303L26.0996 92.3803L29.5109 85.835Z" fill="#0C0C0C" stroke="white" stroke-width="0.693723"/>
<path d="M64.2639 60.4415L64.3063 60.2686L64.1905 60.1333L59.4879 54.6413L58.9009 53.9559L58.8776 54.858L58.1654 82.4407L58.849 82.5323L64.2639 60.4415Z" fill="#FFDD29" stroke="white" stroke-width="0.693723"/>
<path d="M39.8584 115.542L34.243 101.031L34.2847 100.955L34.1704 100.83L29.5393 85.5873L26.1282 69.9929L29.5094 63.2375L29.5955 63.0655L29.4952 62.9013L24.0067 53.9258L23.3668 54.1513L25.4055 69.8868L22.0985 76.4938L22.0023 76.6859L22.1316 76.8576L28.7947 85.7086L25.4846 92.0598L25.3722 92.2756L25.4833 92.3965L30.0185 107.334L29.9575 107.446L30.0885 107.565L30.3011 108.265L30.4861 107.925L39.3018 115.924L39.8584 115.542ZM133.918 123.259L134.292 122.769L133.679 122.703L123.376 121.604L123.184 121.368L123.036 121.567L122.396 121.499L122.758 121.943L118.336 127.904L117.969 128.398L118.582 128.456L128.848 129.423L129.034 129.652L129.185 129.455L129.817 129.515L129.467 129.085L133.918 123.259Z" fill="#0C0C0C" stroke="white" stroke-width="0.693723"/>
<path d="M69.6829 65.9045L69.8377 65.6665L69.6349 65.4677L64.1698 60.1112L63.7351 59.6851L63.5901 60.2763L58.1752 82.3671L58.8029 82.6387L69.6829 65.9045Z" fill="#FFDD29" stroke="white" stroke-width="0.693723"/>
<path d="M27.4355 47.0664L27.2838 45.917L26.7793 46.9608L23.3986 53.9557L23.3163 54.1261L23.415 54.2876L28.9034 63.2632L29.5432 63.0369L27.4355 47.0664ZM75.6717 129.331L74.85 128.996L75.3856 129.765L71.5076 135.647L71.2739 136.002L71.6677 136.16L83.0217 140.726L83.2488 141.052L83.3753 140.868L84.1962 141.198L83.6691 140.442L87.6475 134.665L87.8921 134.309L87.4927 134.147L76.0305 129.477L75.7967 129.142L75.6717 129.331ZM118.893 128.317L119.215 127.883L118.687 127.771L107.682 125.442L107.474 125.179L107.338 125.369L106.618 125.216L107.054 125.766L102.797 131.707L102.485 132.143L103.011 132.249L113.949 134.455L114.151 134.71L114.289 134.524L115.003 134.668L114.579 134.133L118.893 128.317Z" fill="#0C0C0C" stroke="white" stroke-width="0.693723"/>
<path d="M75.6964 71.1224L76.0741 70.8641L75.7235 70.5702L69.6149 65.4496L69.3148 65.198L69.1013 65.5264L58.2213 82.2606L58.7078 82.736L75.6964 71.1224ZM127.912 115.257L127.851 115.948L138.33 117.202L138.353 117.205L138.376 117.205L147.861 117.076L147.876 116.383L127.912 115.257Z" fill="#FFDD29" stroke="white" stroke-width="0.693723"/>
<path d="M43.4295 109.137L43.1761 108.594L43.0572 108.802L34.0933 100.748L33.538 101.131L39.1519 115.638L39.0822 115.76L39.2471 115.884L39.4745 116.472L39.6407 116.181L49.4501 123.574L49.9732 123.15L43.5354 109.364L43.5851 109.277L43.4295 109.137ZM91.4363 127.939L90.6553 127.697L91.15 128.355L87.076 134.271L86.8065 134.662L87.2614 134.8L98.5663 138.215L98.7821 138.502L98.9127 138.32L99.6897 138.555L99.2056 137.911L103.361 132.111L103.641 131.72L103.182 131.578L91.7871 128.048L91.5649 127.753L91.4363 127.939ZM33.0058 79.1295L33.1081 78.9333L32.9732 78.7578L26.0381 69.7357L25.4243 70.0212L28.8646 85.7488L29.069 86.6832L29.5111 85.835L33.0058 79.1295Z" fill="#0C0C0C" stroke="white" stroke-width="0.693723"/>
<path d="M82.2166 75.9547L82.8998 75.7571L82.3234 75.3404L75.7038 70.555L75.5061 70.4121L75.3048 70.5497L58.3162 82.1634L58.6084 82.7829L82.2166 75.9547Z" fill="#FFDD29" stroke="white" stroke-width="0.693723"/>
<path d="M37.7199 94.6507L37.8395 94.4311L37.669 94.2482L29.4572 85.4383L28.8716 85.7757L33.5296 101.107L33.7701 101.899L34.1661 101.172L37.7199 94.6507ZM64.6848 123.721L64.3921 123.249L64.0965 123.719L60.5273 129.391L53.7139 116.878L53.4238 116.345L53.1118 116.865L49.3614 123.119L49.1863 123.411L49.4751 123.591L60.0268 130.186L60.01 130.213L60.3346 130.379L61.442 131.071L61.3462 130.895L71.6394 136.147L72.7482 136.713L72.0918 135.655L64.6848 123.721ZM29.538 63.0076L29.3274 62.0513L28.8891 62.927L25.453 69.792L25.3557 69.9863L25.4881 70.1586L32.4232 79.1807L33.037 78.8947L29.538 63.0076ZM138.647 117.068L139.015 116.586L138.412 116.513L127.934 115.259L127.112 115.161L127.618 115.815L133.368 123.26L133.644 123.617L133.918 123.259L138.647 117.068Z" fill="#0C0C0C" stroke="white" stroke-width="0.693723"/>
<path d="M82.3042 75.3273L82.1728 75.2451L82.024 75.2882L58.4158 82.1164L57.4234 82.4034L58.3879 82.7734L147.732 117.053L148.04 116.435L82.3042 75.3273Z" fill="#FFDD29" stroke="white" stroke-width="0.693723"/>
<path d="M87.782 134.469L91.7182 128.753L102.867 132.207L103.082 132.501L103.215 132.315L103.977 132.551L103.507 131.907L107.638 126.141L118.417 128.423L118.618 128.687L118.761 128.496L119.457 128.643L119.049 128.107L123.357 122.299L133.605 123.393L134.414 123.479L133.917 122.836L128.167 115.391L127.887 115.029L127.614 115.397L123.052 121.546L112.206 119.137L111.998 118.865L111.859 119.06L111.156 118.904L111.576 119.454L107.353 125.348L96.1107 121.777L95.8892 121.473L95.7576 121.664L94.9924 121.421L95.4723 122.079L91.4505 127.919L80.1392 123.25L79.9062 122.908L79.7788 123.101L78.9714 122.768L79.4934 123.534L75.8157 129.113L68.6669 117.398L68.3754 116.92L68.0773 117.393L64.4135 123.215L57.5581 110.47L57.269 109.933L56.9551 110.456L53.4486 116.303L47.2344 102.889L47.2852 102.8L47.1289 102.661L46.8767 102.117L46.7554 102.329L37.8516 94.4087L41.3617 87.9674L41.4823 87.7461L41.309 87.563L33.12 78.9105L36.587 72.2581L36.6905 72.0595L36.601 71.9456L33.0853 56.0931L33.1177 56.0285L33.0456 55.9141L32.8471 55.0191L32.6854 55.3422L27.3849 46.9269L26.7475 47.1572L28.8414 63.0222L28.7906 63.1236L28.8677 63.2218L29.0032 64.2487L29.071 64.1132L32.3323 78.9209L28.8958 85.5145L28.7825 85.732L28.9496 85.9114L36.991 94.5383L33.5568 100.84L33.4256 101.081L33.6295 101.264L42.705 109.419L42.692 109.442L42.8572 109.566L43.084 110.154L43.1141 110.101L49.3445 123.444L49.6207 124.035L49.9563 123.476L53.3947 117.742L60.2009 130.242L60.4839 130.762L60.7991 130.261L64.388 124.558L71.5022 136.021L71.7881 136.482L72.0866 136.029L75.9228 130.21L76.7422 130.631L76.6493 130.479L87.1339 134.75L87.3601 135.082L87.4891 134.894L88.2957 135.223L87.782 134.469Z" fill="#0C0C0C" stroke="white" stroke-width="0.693723"/>
<path d="M27.3734 46.9098L26.798 47.2967L32.4266 56.233L32.4372 56.2498L32.4497 56.2653L39.6803 65.271L40.2327 64.8517L27.3734 46.9098ZM104.929 108.705L104.773 109.38L127.797 115.937L127.835 115.948L127.873 115.95L147.837 117.076L147.918 116.388L104.929 108.705Z" fill="#FFDD29" stroke="white" stroke-width="0.693723"/>
<path d="M91.996 128.35L96.0373 122.481L107.272 126.051L107.487 126.353L107.623 126.162L108.369 126.399L107.914 125.756L112.155 119.836L122.994 122.244L123.195 122.518L123.341 122.321L124.021 122.472L123.628 121.935L128.171 115.81L128.486 115.386L127.971 115.266L116.843 112.674L116.636 112.391L116.492 112.592L115.806 112.432L116.211 112.985L111.873 119.04L100.543 115.347L100.322 115.036L100.188 115.232L99.438 114.987L99.9033 115.644L95.7715 121.644L84.3508 116.867L84.1188 116.518L83.9888 116.715L83.1957 116.384L83.7041 117.147L79.9248 122.88L72.7491 110.915L72.4588 110.431L72.1581 110.909L68.3962 116.887L61.4989 103.902L61.2108 103.359L60.895 103.886L57.2932 109.892L51.0259 96.2525L51.0778 96.1618L50.9208 96.0236L50.6698 95.4774L50.5462 95.6938L41.4942 87.7243L45.095 81.1164L45.2166 80.8933L45.0404 80.7101L36.7022 72.0372L40.2582 65.2142L40.3629 65.0133L40.2211 64.8367L32.9904 55.831L32.3813 56.1233L35.9134 72.0496L32.3905 78.8092L32.2762 79.0284L32.4461 79.208L40.6319 87.8569L37.1105 94.3189L36.9787 94.5609L37.1846 94.7441L46.4037 102.945L46.3909 102.967L46.5566 103.091L46.7828 103.68L46.8122 103.628L53.0944 117.189L53.3697 117.784L53.7066 117.222L57.2361 111.336L64.0845 124.068L64.3664 124.593L64.6835 124.089L68.3662 118.237L75.5082 129.941L75.793 130.407L76.0939 129.951L80.0289 123.982L80.8354 124.398L80.7475 124.252L91.347 128.627L91.5723 128.965L91.7038 128.774L92.4963 129.101L91.996 128.35Z" fill="#0C0C0C" stroke="white" stroke-width="0.693723"/>
<path d="M147.981 116.405L58.7153 82.1562L27.3507 46.8814L26.8096 47.3139L39.6688 65.2559L39.6887 65.2836L39.7136 65.3069L58.275 82.7029L58.4375 82.5446L58.3395 82.7507L104.696 109.347L104.748 109.377L104.807 109.388L147.796 117.071L147.981 116.405Z" fill="#FFDD29" stroke="white" stroke-width="0.693723"/>
<path d="M84.0027 116.694L72.6238 110.792L61.3881 103.777L50.9243 96.0167L45.1188 80.8375L40.2825 64.9525L40.0354 64.1407L39.6431 64.8933L35.9719 71.9373L35.8567 72.1583L36.0295 72.338L44.3643 81.0074L40.7526 87.6353L40.62 87.8786L40.828 88.0616L50.352 96.4467L56.9375 110.779L57.212 111.377L57.5501 110.813L61.1743 104.769L68.0646 117.741L68.3455 118.27L68.6645 117.763L72.4447 111.756L79.6135 123.709L79.8971 124.182L80.2006 123.722L84.2517 117.577L95.665 122.351L95.8893 122.696L96.0235 122.501L96.8018 122.827L96.3149 122.078L100.612 115.838L100.853 115.488L100.462 115.322L88.6694 110.321L88.4384 109.966L88.3058 110.167L87.5268 109.837L88.0218 110.598L84.0027 116.694Z" fill="#0C0C0C" stroke="white" stroke-width="0.693723"/>
<path d="M104.963 108.713L104.758 109.375L116.53 113.311L116.545 113.316L116.561 113.32L127.814 115.941L127.987 115.27L104.963 108.713Z" fill="#FFDD29" stroke="white" stroke-width="0.693723"/>
<path d="M65.1317 96.8212L54.8123 89.2108L48.9998 73.9505L49.046 73.8657L48.9173 73.734L48.6748 73.0972L48.5388 73.3466L40.1988 64.8111L39.6189 65.1545L44.4163 80.9119L44.3527 81.0287L44.4877 81.1463L44.6995 81.842L44.7352 81.7765L50.2538 96.2055L50.1826 96.3302L50.3486 96.4533L50.5742 97.0432L50.7437 96.7464L60.7335 104.155L60.72 104.178L60.9203 104.303L61.1507 104.809L61.3085 104.545L71.9728 111.203L71.9575 111.228L72.1953 111.351L72.4245 111.788L72.5613 111.57L73.3529 112.065L73.2713 111.909L83.8721 117.408L84.1038 117.801L84.238 117.598L85.0316 118.009L84.529 117.156L88.726 110.79L88.9375 110.469L88.5968 110.292L76.885 104.182L76.6464 103.777L76.5271 103.966L65.4964 97.0824L65.2532 96.6186L65.1317 96.8212ZM104.731 108.634L103.996 108.389L104.447 109.046L100.041 115.444L99.7773 115.827L100.219 115.971L111.788 119.741L112.001 120.052L112.141 119.856L112.872 120.094L112.431 119.452L116.922 113.184L117.195 112.802L116.75 112.653L105.088 108.754L104.869 108.434L104.731 108.634Z" fill="#0C0C0C" stroke="white" stroke-width="0.693723"/>
<path d="M40.1879 64.8006L39.7026 65.296L48.3707 74.1673L48.3811 74.178L48.3924 74.1877L58.2857 82.7124L58.7493 82.1966L40.1879 64.8006Z" fill="#FFDD29" stroke="white" stroke-width="0.693723"/>
<path d="M92.7464 103.432L81.1792 97.3617L80.9417 96.9511L80.8064 97.166L80.0284 96.7578L80.5241 97.6146L76.6659 103.746L69.7742 90.4285L69.8373 90.3233L69.6479 90.1844L69.3995 89.7044L69.2754 89.9113L58.7907 82.2238L58.5482 81.6871L58.4197 81.9121L48.8451 73.6621L48.2946 74.0484L54.1419 89.3999L54.07 89.5256L54.2365 89.6483L54.4614 90.239L54.6322 89.9401L64.7732 97.419L64.7601 97.4408L64.96 97.5656L65.1895 98.0736L65.3341 97.8326L66.0956 98.3942L66.0201 98.2271L76.1575 104.553L76.1426 104.577L76.4642 104.745L77.5259 105.407L77.4488 105.258L87.9353 110.729L87.9175 110.756L88.1941 110.873L88.4171 111.259L88.5535 111.052L89.3344 111.459L89.2561 111.324L100.091 115.918L100.315 116.27L100.452 116.071L101.216 116.395L100.742 115.649L105.154 109.243L105.394 108.895L105.005 108.728L93.0986 103.608L92.8687 103.246L92.7464 103.432Z" fill="#0C0C0C" stroke="white" stroke-width="0.693723"/>
<path d="M58.6848 82.1488L58.3178 82.7369L80.7349 97.9095L80.7565 97.9241L80.774 97.9325L92.7022 104.192L92.7141 104.198L92.7264 104.203L104.731 109.365L104.829 109.15L105.041 108.745L58.6848 82.1488Z" fill="#FFDD29" stroke="white" stroke-width="0.693723"/>
<path d="M81.2228 97.8067L81.4083 97.512L81.1128 97.3277L69.5608 90.1216L68.4881 89.4524L69.0692 90.5753L76.3285 104.603L76.6072 105.141L76.9301 104.628L81.2228 97.8067Z" fill="#0C0C0C" stroke="white" stroke-width="0.693723"/>
<path d="M58.7066 82.1623L58.3071 82.7293L69.1722 90.6957L69.1827 90.7034L69.1937 90.7103L80.7457 97.9164L81.1237 97.3349L58.7066 82.1623Z" fill="#FFDD29" stroke="white" stroke-width="0.693723"/>
</svg>
